<svg width="30" height="32" viewBox="0 0 30 32" fill="none" xmlns="http://www.w3.org/2000/svg">
<path d="M24.6643 15.0382L21.6332 11.7831V8.02285C21.6332 7.34295 21.1202 6.79195 20.4861 6.79195C19.8535 6.79195 19.3405 7.34295 19.3405 8.02285V9.32095L17.0836 6.89717C15.9678 5.69952 14.0277 5.70165 12.9144 6.89934L5.33555 15.0382C4.88815 15.5196 4.88815 16.2986 5.33555 16.7792C5.78315 17.2605 6.50992 17.2605 6.95736 16.7792L14.5355 8.64018C14.7824 8.37645 15.2175 8.37645 15.4631 8.6394L23.0425 16.7792C23.2673 17.0199 23.5603 17.1396 23.8532 17.1396C24.1468 17.1396 24.4403 17.0198 24.6643 16.7792C25.1119 16.2986 25.1119 15.5196 24.6643 15.0382Z" fill="black"/>
<path d="M15.3991 10.9766C15.1789 10.7402 14.8223 10.7402 14.6028 10.9766L7.9364 18.1335C7.83115 18.2465 7.77148 18.4008 7.77148 18.5618V23.7818C7.77148 25.0067 8.69632 25.9998 9.83689 25.9998H13.1374V20.5106H16.8637V25.9998H20.1643C21.3048 25.9998 22.2296 25.0067 22.2296 23.7818V18.5618C22.2296 18.4008 22.1705 18.2465 22.0647 18.1335L15.3991 10.9766Z" fill="black"/>
</svg>
