<svg width="30" height="32" viewBox="0 0 30 32" fill="none" xmlns="http://www.w3.org/2000/svg">
<path d="M5 19.4391V19.4397C5.01261 19.7505 5.01681 20.0631 5.09516 20.372C5.17856 20.6987 5.29777 21.0174 5.52517 21.314C5.83263 21.7154 6.25356 22.0545 6.78795 22.3313C7.17063 22.5301 7.58869 22.688 8.05149 22.7875C8.72621 22.9325 9.42238 22.9881 10.1287 22.9908C10.5694 22.9927 11.0098 23 11.4507 22.9988C14.6521 22.9898 17.8537 23.0142 21.0553 22.9856C21.4801 22.9818 21.898 22.9472 22.315 22.8965C23.1141 22.799 23.8204 22.5716 24.4247 22.2127C25.1289 21.7943 25.604 21.2822 25.8186 20.6642C25.9589 20.2602 25.994 19.8504 26 19.439V19.357C26 19.3252 25.9818 12.3685 25.9802 12.2766C25.9755 12.024 25.9475 11.7733 25.8765 11.5248C25.79 11.2219 25.6679 10.9268 25.4502 10.6528C25.2203 10.3633 24.9323 10.1031 24.5759 9.87558C24.0304 9.52708 23.4008 9.28068 22.6676 9.15031C22.0056 9.0327 21.3303 9.0065 20.6499 9.00694C20.6477 9.0049 20.6464 9.0025 20.6462 9H10.3501C10.3501 9.00235 10.3501 9.00465 10.3495 9.00694C9.96335 9.01165 9.57672 9.00969 9.19262 9.04144C8.77186 9.07627 8.35505 9.12875 7.95683 9.22675C7.32951 9.38131 6.78442 9.62206 6.31885 9.94357C5.79133 10.3076 5.41933 10.7288 5.22227 11.2192C5.04615 11.6568 5.00782 12.103 5.00689 12.5524" fill="white"/>
<path d="M16.0096 24.9764L11.2908 24.8788C9.76303 24.8448 8.23141 24.9127 6.73356 24.5602C4.45497 24.0336 4.29355 21.4513 4.12464 19.2853C3.89189 16.2402 3.982 13.1398 4.42121 10.1201C4.66917 8.42577 5.64496 7.41473 7.15399 7.30471C12.2481 6.90543 17.3761 6.95275 22.4589 7.13903C22.9957 7.1561 23.5362 7.24944 24.0655 7.35568C26.6783 7.87384 26.742 10.8001 26.9114 13.2634C27.0803 15.7522 27.009 18.2537 26.6862 20.7255C26.4271 22.7721 25.9316 24.4884 23.8402 24.654C21.2199 24.8707 18.6597 25.0451 16.032 24.9896C16.0321 24.9764 16.017 24.9764 16.0096 24.9764ZM13.2354 19.795C15.21 18.5123 17.147 17.251 19.1103 15.9769C17.132 14.6942 15.1987 13.4329 13.2354 12.1588V19.795Z" fill="#FF0000"/>
</svg>
