<svg  viewBox="0 0 90 90" fill="none" xmlns="http://www.w3.org/2000/svg">
<path d="M86.3692 90.0012C85.4402 90.0012 84.5103 89.6462 83.8013 88.9372L1.06425 6.20123C-0.35475 4.78423 -0.35475 2.48223 1.06425 1.06523C2.48325 -0.353773 4.78225 -0.353773 6.20125 1.06523L88.9382 83.8012C90.3572 85.2182 90.3572 87.5202 88.9382 88.9372C88.2282 89.6472 87.2982 90.0012 86.3692 90.0012Z" fill="#717171"/>
<path d="M3.6342 90.0013C2.7052 90.0013 1.7752 89.6462 1.0662 88.9372C-0.352797 87.5202 -0.352797 85.2183 1.0662 83.8013L83.8022 1.06425C85.2212 -0.35475 87.5202 -0.35475 88.9392 1.06425C90.3582 2.48125 90.3582 4.78325 88.9392 6.20025L6.2022 88.9372C5.4932 89.6472 4.5632 90.0013 3.6342 90.0013Z" fill="#717171"/>
</svg>
