<svg width="30" height="32" viewBox="0 0 30 32" fill="none" xmlns="http://www.w3.org/2000/svg">
<path d="M23.0082 26C23.56 26 24 25.5033 24 24.8979V7.10206C24 6.48894 23.553 6 23.0082 6H6.99185C6.44703 6 6 6.4967 6 7.10206V24.8979C6 25.5111 6.44703 26 6.99185 26H23.0082Z" fill="#157DC3"/>
<path d="M18.1901 26V18.2459H20.5493L20.9014 15.2235H18.1901V13.2966C18.1901 12.4186 18.4085 11.8282 19.5493 11.8282H21V9.11654C20.7465 9.0777 19.8873 9 18.8873 9C16.7958 9 15.3662 10.4063 15.3662 12.9936V15.2235H13V18.2459H15.3662V26H18.1901Z" fill="white"/>
</svg>
