<svg width="16" height="16" viewBox="0 0 236 236" fill="none" xmlns="http://www.w3.org/2000/svg">
<path d="M230 52.1171V223.412C230 225.159 229.306 226.835 228.07 228.07C226.835 229.306 225.159 230 223.412 230H52.1171C50.3698 230 48.694 229.306 47.4585 228.07C46.223 226.835 45.5288 225.159 45.5288 223.412C45.5288 221.664 46.223 219.989 47.4585 218.753C48.694 217.518 50.3698 216.823 52.1171 216.823H207.507L7.92945 17.2456C6.69404 16.0102 6 14.3347 6 12.5876C6 10.8404 6.69404 9.16486 7.92945 7.92945C9.16486 6.69404 10.8404 6 12.5876 6C14.3347 6 16.0102 6.69404 17.2456 7.92945L216.823 207.507V52.1171C216.823 50.3698 217.518 48.694 218.753 47.4585C219.989 46.223 221.664 45.5288 223.412 45.5288C225.159 45.5288 226.835 46.223 228.07 47.4585C229.306 48.694 230 50.3698 230 52.1171Z" fill="#717171" stroke="#717171" stroke-width="12"/>
</svg>
