<svg width="16" height="16" viewBox="0 0 10 10" fill="none" xmlns="http://www.w3.org/2000/svg">
<g clip-path="url(#clip0_614_252)">
<path d="M8.125 4.0625C8.125 4.95898 7.83398 5.78711 7.34375 6.45899L9.81641 8.93359C10.0605 9.17774 10.0605 9.57422 9.81641 9.81836C9.57227 10.0625 9.17578 10.0625 8.93164 9.81836L6.45898 7.34375C5.78711 7.83594 4.95898 8.125 4.0625 8.125C1.81836 8.125 0 6.30664 0 4.0625C0 1.81836 1.81836 0 4.0625 0C6.30664 0 8.125 1.81836 8.125 4.0625ZM4.0625 6.875C4.43184 6.875 4.79757 6.80225 5.1388 6.66091C5.48003 6.51957 5.79007 6.3124 6.05124 6.05124C6.3124 5.79007 6.51957 5.48003 6.66091 5.1388C6.80225 4.79757 6.875 4.43184 6.875 4.0625C6.875 3.69316 6.80225 3.32743 6.66091 2.9862C6.51957 2.64497 6.3124 2.33493 6.05124 2.07376C5.79007 1.8126 5.48003 1.60543 5.1388 1.46409C4.79757 1.32275 4.43184 1.25 4.0625 1.25C3.69316 1.25 3.32743 1.32275 2.9862 1.46409C2.64497 1.60543 2.33493 1.8126 2.07376 2.07376C1.8126 2.33493 1.60543 2.64497 1.46409 2.9862C1.32275 3.32743 1.25 3.69316 1.25 4.0625C1.25 4.43184 1.32275 4.79757 1.46409 5.1388C1.60543 5.48003 1.8126 5.79007 2.07376 6.05124C2.33493 6.3124 2.64497 6.51957 2.9862 6.66091C3.32743 6.80225 3.69316 6.875 4.0625 6.875Z" fill="white"/>
</g>
<defs>
<clipPath id="clip0_614_252">
<rect width="10" height="10" fill="white"/>
</clipPath>
</defs>
</svg>
