<svg width="24" height="24" viewBox="0 0 24 24" fill="none" xmlns="http://www.w3.org/2000/svg">
<path fill-rule="evenodd" clip-rule="evenodd" d="M3 11.2499V15.7499C3 16.9499 3.9 17.9999 5.1 17.9999H8.55L13.35 22.1999C13.5 22.3499 13.8 22.4999 13.95 22.4999C14.1 22.4999 14.25 22.4999 14.4 22.3499C14.7 22.1999 15 21.7499 15 21.2999V19.9499L4.2 9.1499C3.45 9.4499 3 10.3499 3 11.2499ZM15 14.2499V5.5499C15 5.0999 14.85 4.7999 14.4 4.4999C14.25 4.4999 14.1 4.4999 13.95 4.4999C13.8 4.4999 13.5 4.4999 13.35 4.7999L9.15 8.5499L3 2.3999L1.5 3.8999L6.6 8.9999L15 17.3999L20.4 22.7999L21.9 21.2999L15 14.2499Z" fill="white"/>
</svg>
