<svg width="30" height="32" viewBox="0 0 30 32" fill="none" xmlns="http://www.w3.org/2000/svg">
<path d="M19.9356 6H10.0644C7.8197 6 6 8.03125 6 10.5369V21.4631C6 23.9687 7.8197 26 10.0644 26H19.9356C22.1803 26 24 23.9687 24 21.4631V10.5369C24 8.03125 22.1803 6 19.9356 6Z" fill="black"/>
<path d="M18.9699 9.31494H21.0863L16.4627 14.9785L21.902 22.6847H17.6428L14.307 18.0113L10.4896 22.6847H8.37207L13.3174 16.6274L8.09961 9.31494H12.4666L15.4818 13.5871L18.9699 9.31494ZM18.227 21.3272H19.4L11.8297 10.6015H10.5711L18.227 21.3272Z" fill="white"/>
</svg>
