<svg width="256" height="97" viewBox="0 0 256 97" fill="none" xmlns="http://www.w3.org/2000/svg">
<g clip-path="url(#clip0_319_503)">
<path d="M115.304 54.4952C108.092 53.1248 104.608 50.3108 103.872 47.0562L121.928 47.1296V35.3594H67.6861V47.1052L85.4724 47.0807C84.859 49.8214 81.6207 53.027 74.0155 54.3973C70.0167 55.1069 66.0669 55.3272 66.0669 55.3272L69.7223 67.4889C69.7223 67.4889 79.3146 67.2686 84.0004 65.727C89.8147 63.8428 93.0775 61.2 94.6967 58.2881C96.3159 61.2 99.5787 63.8428 105.393 65.727C110.079 67.2442 120.039 67.4889 120.039 67.4889L123.547 55.3272C123.498 55.3272 119.598 55.3272 115.304 54.4952ZM77.9162 24.7883C77.9898 24.9107 77.9653 25.033 77.9898 25.1554C77.9898 25.2532 78.0144 25.3511 78.0389 25.4735C78.0634 25.5714 78.088 25.6937 78.137 25.7916C78.2106 26.0363 78.4314 26.5991 78.456 26.697C78.5296 27.064 78.873 27.3822 79.1674 27.6024C79.241 27.6758 79.3146 27.7247 79.4128 27.7981C79.4618 27.8226 79.4863 27.8716 79.5354 27.896C79.7562 27.9694 79.9525 28.0918 80.1978 28.0918C80.4186 28.0918 80.6149 28.0429 80.8111 27.9694C80.9583 27.9205 81.3263 27.8471 81.3754 27.8471C81.6207 27.945 81.8415 27.9205 82.0868 27.7981L82.4548 27.6513C82.5284 27.6269 82.6265 27.6024 82.7001 27.529C83.0927 27.2109 83.4852 26.8683 83.6815 26.4033C83.706 26.3544 83.7305 26.3055 83.7551 26.281C83.8287 26.1586 84.0495 25.9384 84.074 25.865C84.123 25.7671 84.1721 25.6448 84.1966 25.5469C84.2457 25.4245 84.2702 25.3022 84.3193 25.2043C84.3929 25.0575 84.6628 24.5925 84.6382 24.4457C84.6137 24.3478 84.8345 23.8829 84.8836 23.7116C84.9572 23.5403 85.0062 23.2712 85.0798 23.0754C85.1289 22.9286 85.1289 22.6594 85.1289 22.5126C85.1534 22.2434 85.0553 21.9008 85.1044 21.6316C85.1289 21.5582 85.1044 21.2646 85.1289 21.1912C85.227 20.971 85.0553 20.7262 85.1534 20.506C85.3252 20.4081 86.5763 20.4571 86.6745 20.3103C86.6745 20.2858 86.7235 20.2858 86.7481 20.2858C87.2387 20.1634 87.6803 19.9187 88.1219 19.6985C88.3427 19.6006 88.5389 19.4293 88.7597 19.307C88.8579 19.258 89.0296 19.1357 89.0787 19.1112C89.2259 19.0378 90.9186 17.8143 91.1394 17.5451C91.2376 17.4472 92.0717 16.7131 92.1453 16.6887C92.2434 16.6397 92.3415 16.5663 92.4397 16.4684C92.4887 16.4195 92.685 16.2727 92.7095 16.1748C92.7586 16.0769 92.8077 15.9546 93.0285 15.7588C93.1266 15.6609 93.0285 15.6609 93.1511 15.612C93.2493 15.563 93.3229 15.5386 93.3474 15.4407C93.3719 15.3917 93.3965 15.3428 93.4455 15.2939V15.2694C93.5436 15.3183 93.5191 15.3917 93.5191 15.4651V15.7099C93.5191 15.8077 93.5191 15.9056 93.4455 16.0035C93.421 16.0524 93.3965 16.1014 93.3965 16.1503C93.3474 16.4684 93.2983 16.7621 93.2738 17.0802C93.2738 17.1781 93.2493 17.2515 93.3229 17.3494C93.3474 17.3738 93.3474 17.4472 93.3474 17.4962C93.2738 17.7654 93.2002 18.0345 93.2493 18.3282C93.2738 18.475 93.2247 18.6218 93.2247 18.7686C93.2247 18.7931 93.2493 20.0166 93.2247 20.1634C93.2002 20.4081 93.2002 21.1667 93.1757 21.4359C93.1757 21.5582 93.1266 21.7051 93.1511 21.8274C93.1757 22.0721 93.1511 22.7817 93.1511 22.9041V24.2255C93.1511 24.3723 93.1757 24.5681 93.1757 24.7149C93.1757 24.7638 93.2247 25.1554 93.2247 25.3022C93.2247 25.4001 93.2493 25.4979 93.2493 25.5958C93.2738 25.865 93.3719 26.7704 93.421 27.1375C93.4455 27.3822 93.789 29.0461 93.9607 29.6824C93.9852 29.7313 93.9607 29.7558 93.9852 29.8047C94.0098 29.9026 94.0343 29.976 94.0588 30.0739C94.0834 30.1228 94.1079 30.1718 94.1079 30.2207C94.1324 30.5878 94.2796 30.9059 94.4268 31.2484C94.5004 31.4197 94.5986 31.591 94.7458 31.7134C94.8439 31.7868 94.9175 31.8113 95.0402 31.8113C95.1628 31.7868 95.4817 31.8602 95.5063 31.8847C95.5553 31.9336 95.6044 31.9826 95.6535 32.056C95.7025 32.1294 95.7761 32.1538 95.8743 32.1538C96.0951 32.1538 96.3159 32.1294 96.4876 32.3251C96.5367 32.3741 96.6348 32.3986 96.6593 32.3741C96.782 32.2762 97.0273 32.472 97.15 32.3985C97.2236 32.3741 97.2236 32.1294 97.2972 32.1294C97.4689 32.3741 98.1804 33.4263 97.4689 31.8847C97.4198 31.7623 97.3953 31.6155 97.3462 31.4932C97.3217 31.4442 97.3217 31.3708 97.2972 31.3219C97.2726 31.2484 97.2726 31.175 97.2726 31.1016C97.1745 30.808 97.0518 30.5143 97.0028 30.1962C96.9782 30.0739 96.9537 29.9271 96.9046 29.8047C96.8556 29.6334 96.7575 29.4621 96.8065 29.2664V29.2419C96.7575 29.0217 96.6838 28.8014 96.6348 28.5812C96.6103 28.4588 96.5612 28.361 96.5367 28.2386C96.4876 27.945 96.2668 27.0396 96.2423 26.7215V26.697L96.2668 26.0118C96.2668 25.8405 96.2668 25.6937 96.2177 25.5224C96.1932 25.4735 96.1932 25.4001 96.1932 25.3511C96.1932 25.1064 96.1687 24.8617 96.1687 24.5925C96.1687 24.5191 96.1687 24.4457 96.1932 24.3723C96.2423 24.1521 96.2423 23.5159 96.2423 23.418C96.2423 23.369 96.2668 23.2956 96.2668 23.2467C96.3159 22.7817 96.2668 22.3413 96.3404 21.8764C96.3649 21.7051 96.3649 21.5093 96.3895 21.338C96.4385 21.0688 96.5121 20.8241 96.5612 20.5794V20.4815C96.5612 20.3347 96.5367 20.1879 96.5612 20.0166C96.6103 19.7474 96.6593 19.5027 96.6593 19.2336C96.6593 19.0378 96.7084 18.842 96.7574 18.6708C96.782 18.4995 96.8065 18.3526 96.831 18.1813C96.831 18.1079 96.831 18.0101 96.8556 17.9366L96.9292 17.2759C96.9537 17.1781 96.9537 17.0802 96.9782 16.9823C97.0028 16.7865 97.0518 16.5908 97.0764 16.4195C97.1009 15.8811 97.1254 15.3673 97.15 14.8289C97.15 14.6332 97.0764 14.4619 97.1745 14.2661C97.1745 14.2416 97.6652 12.0148 97.6652 11.8925C97.6652 11.8436 97.6406 11.5499 97.6652 11.5254C97.6897 11.4031 97.7388 10.6935 97.7388 10.5711C97.7388 10.4243 97.7388 10.3019 97.7142 10.1551C97.5425 9.98382 97.567 9.69017 97.3462 9.51888C97.3462 9.51888 97.3217 9.49441 97.3217 9.46994C97.3217 9.32312 97.2236 9.27418 97.15 9.20077C97.1009 9.15183 97.0518 9.10289 97.0028 9.07842C96.8556 8.95607 96.7329 8.80925 96.5612 8.71136C96.3649 8.58901 96.1441 8.49113 95.8988 8.44219C95.7025 8.39325 95.5063 8.2709 95.2855 8.41772H95.2119C95.0402 8.41772 94.4514 8.56454 94.3778 8.58901C94.3287 8.61348 94.0834 8.73584 94.0588 8.76031C93.8135 8.85819 93.8135 9.64123 93.7399 9.71464C93.6418 9.81253 93.6172 9.91041 93.5927 10.0328C93.5682 10.1551 93.3229 11.3052 93.2493 11.4276C93.1511 11.868 93.0285 11.6967 93.0039 11.7212C92.8567 11.8436 92.7341 11.7212 92.4397 12.0638C92.3906 12.0148 92.1943 12.284 92.0717 12.3819C91.8263 12.5777 91.213 13.116 90.9677 13.3118C90.8941 13.3607 90.845 13.4096 90.7714 13.4586C90.1827 13.9235 89.6675 14.5842 89.0541 15.0002C88.956 15.0736 88.8579 15.1715 88.7597 15.2694C88.588 15.4407 88.4163 15.612 88.22 15.7833C87.9011 16.0769 87.5576 16.3461 87.2142 16.6397C86.9689 16.86 86.7481 17.0802 86.5027 17.2759C86.3555 17.3983 86.1838 17.4962 86.0611 17.6675C85.963 17.8143 85.8158 17.9366 85.6195 17.9856C85.5705 17.9856 85.546 18.0345 85.5214 18.059C85.3252 18.2058 84.7854 18.4016 84.7364 18.4016C84.5156 18.475 84.3193 18.426 84.1966 18.2548C84.074 18.0835 83.9023 17.9366 83.706 17.8632C83.4607 17.7654 83.3135 17.0802 83.2644 16.9578C83.1908 16.8355 82.6511 16.2237 82.4793 16.0769C82.234 15.8567 81.8906 15.7588 81.5716 15.7099H81.3999C81.2527 15.7099 81.13 15.7099 80.9828 15.7343C80.7866 15.7588 80.5903 15.8077 80.4186 15.8811C80.2959 15.9301 80.1978 16.0035 80.0751 16.1014C79.8543 16.1748 79.3882 16.6887 79.2655 16.8355C79.241 16.8844 79.1674 17.0557 78.9957 17.5941C78.9466 17.6185 78.9221 17.6919 78.8976 17.7409C78.8485 17.9122 78.7994 18.0835 78.7258 18.2548C78.7013 18.3037 78.6768 18.3526 78.6522 18.426L78.5786 18.5729C78.5296 18.7197 78.505 18.8665 78.456 18.9889C78.3578 19.2091 78.2842 19.4293 78.2597 19.6496C78.2352 19.7964 78.2106 19.9677 78.2106 20.139C78.2106 20.1879 78.1125 20.8241 78.0634 21.0688C78.0634 21.1667 78.1125 21.2646 78.088 21.3625C78.0634 21.4604 77.9898 21.5582 77.9898 21.6561C77.9408 21.8764 77.9162 22.0721 77.9162 22.2923C77.8917 22.586 77.8426 23.0509 77.8426 23.7116V23.785C77.8181 24.1276 77.9653 24.4457 77.9653 24.7883C77.8917 24.7638 77.9162 24.7638 77.9162 24.7883ZM80.7866 23.3935L80.8356 22.8796V22.7817C80.8847 22.6594 80.9338 22.1945 80.9583 22.0476C81.0074 21.7295 81.1055 21.4114 81.1791 21.1178C81.2282 20.8241 81.3508 20.555 81.3754 20.2613C81.3999 20.0411 81.4735 19.9677 81.7188 19.9677C81.8906 19.9677 82.0378 19.9677 82.185 20.09C82.3076 20.1879 82.3567 20.2858 82.3567 20.4326C82.3567 20.555 82.4058 20.6528 82.4793 20.7507C82.5039 20.7997 82.5284 20.8486 82.5284 20.8731C82.5039 21.1912 82.4793 21.5093 82.4303 21.8029C82.4057 22.0232 82.3321 22.2679 82.2831 22.4881C82.2586 22.586 82.2095 22.6839 82.185 22.8062C82.0868 23.2712 81.866 23.6627 81.6698 24.0787C81.6452 24.1521 81.6207 24.2255 81.5962 24.2744C81.5716 24.3968 81.449 24.7149 81.3263 24.7883C81.1791 24.8862 81.13 24.8617 80.9828 24.9596C80.9338 24.9841 80.8847 24.9107 80.8111 24.9351C80.7866 24.8372 80.7621 24.7638 80.7621 24.666C80.7375 24.3968 80.7375 24.1276 80.7375 23.8584C80.7621 23.7116 80.7866 23.5403 80.7866 23.3935ZM58.7806 14.0214C58.8052 14.2416 58.8297 14.4619 58.9278 14.6576C58.9769 14.731 59.0014 14.8289 59.0505 14.9268C59.1241 15.0981 59.2468 15.2449 59.443 15.3428C59.6148 15.4407 60.1054 15.4162 60.2771 15.5141C60.5715 15.6364 60.8414 15.5875 61.1358 15.5386C61.3321 15.4896 61.4547 15.3673 61.5528 15.2204C61.7246 15.0002 61.7736 14.7066 61.9208 14.4619C61.9454 14.4374 61.9208 14.3885 61.9208 14.364C61.9208 14.315 61.8963 14.2661 61.9208 14.2172C61.9454 13.9969 61.8963 13.7767 61.8472 13.5565C61.7982 13.2873 61.7246 13.0181 61.7 12.7245C61.6755 12.4308 61.7 12.1617 61.651 11.868C61.6019 11.5499 61.6019 11.2563 61.651 10.9382C61.651 10.8892 61.651 10.8158 61.6755 10.7669C61.6755 10.7179 61.6755 10.6445 61.7 10.62C61.7491 10.5711 61.8227 10.5711 61.8718 10.62C62.1416 10.7424 62.5832 10.6935 62.8776 10.7913C62.9512 10.8158 63.0494 10.8158 63.1229 10.8158H63.3928C63.4419 10.8158 63.4664 10.8158 63.5155 10.7913C63.7117 10.7179 63.908 10.669 64.1043 10.5956C64.2515 10.5466 64.3741 10.4732 64.5213 10.3998C64.5459 10.3998 64.5459 10.3509 64.5704 10.3509C64.6685 10.253 65.5762 10.0083 65.6744 9.91041C65.6989 9.91041 65.6989 9.93488 65.7234 9.93488C65.7234 10.2285 65.748 10.7913 65.748 10.9871C65.748 11.085 65.8216 11.6233 65.8952 11.8925C65.9442 12.1372 65.8706 12.3574 65.6498 12.4798C65.4781 12.5777 64.644 12.8224 64.4723 12.9202C64.2269 13.0671 63.9571 13.1894 63.7363 13.3852C63.5891 13.5075 63.54 13.6544 63.4909 13.8256C63.4419 13.948 63.4664 14.0703 63.5155 14.1682C63.5645 14.2661 63.5645 14.364 63.6136 14.4374C63.6872 14.6332 63.7853 14.7555 63.9816 14.8289C64.1288 14.9023 64.3496 14.8289 64.4968 14.9023C64.5949 14.9513 64.8402 14.8534 64.9384 14.8289C65.1592 14.8045 65.5517 14.6821 65.797 14.6821C65.8216 14.6821 65.8461 14.6576 65.8706 14.6576C66.0178 14.5842 66.3368 14.5598 66.4839 14.4863C66.6311 14.4374 66.8765 14.4129 67.0237 14.364C67.1463 14.315 67.4653 14.1927 67.5879 14.1438C67.9559 13.9725 68.3239 13.8746 68.6183 13.5565C68.6428 13.532 68.6674 13.5075 68.6919 13.5075C68.9618 13.3607 69.2316 13.1894 69.5015 13.0181C69.7468 13.0915 70.0167 12.1617 69.7713 12.0883C69.7468 12.0638 69.7468 12.0393 69.7468 12.0148C69.6977 11.9414 69.6487 11.868 69.5996 11.8191L69.3788 11.5989C69.3052 11.5254 69.2071 11.4765 69.0844 11.4765C68.9372 11.4765 68.8146 11.452 68.6919 11.4276C68.5447 11.4031 68.5202 11.3786 68.5202 11.2318V11.085C68.5202 10.7424 68.6674 8.6869 68.7164 8.54007C68.741 8.39325 68.79 8.24643 68.9127 8.17302C69.109 8.0262 69.3543 7.90385 69.5015 7.68362C69.526 7.65915 69.5506 7.65915 69.5751 7.63468C69.894 7.51232 70.1148 7.34103 70.4092 7.21868C70.5809 7.14527 70.8263 7.02292 70.8508 7.02292L71.366 6.80269C71.4641 6.75375 71.7094 6.55798 71.7585 6.53351C71.9057 6.50904 72.0284 6.43563 72.1265 6.31328L72.1756 6.26434C72.3964 6.2154 72.47 6.01964 72.5436 5.84835C72.5681 5.79941 72.5681 5.75047 72.5681 5.70153C72.5681 5.50576 72.5926 5.31 72.5436 5.13871V5.08977C72.5681 4.96742 72.519 4.89401 72.3964 4.84507C72.3228 4.8206 72.2982 4.77166 72.2982 4.69825C72.2737 4.52696 72.2492 4.35566 72.2001 4.18437C72.151 4.06202 72.102 3.9152 72.0529 3.79285C72.0284 3.71944 71.9793 3.6705 71.8812 3.6705C71.8076 3.64603 71.734 3.62156 71.6849 3.59709C71.5868 3.57262 71.4886 3.52368 71.366 3.52368C71.0716 3.49921 70.7772 3.52368 70.5073 3.59709C70.2865 3.64603 69.7713 3.79285 69.3543 3.86626C69.3788 3.69497 69.3788 3.69497 69.3543 3.52368C69.3298 3.47474 69.5505 2.81404 69.6241 2.54487C69.6732 2.39805 69.6732 2.3491 69.6977 2.30016C69.7468 2.17781 69.8204 2.05546 69.8695 1.93311L70.0167 1.41924C70.0412 1.3703 70.0412 1.29688 70.0167 1.24794C69.9185 1.07665 69.8695 0.856421 69.7223 0.709599C69.5506 0.489367 69.3298 0.342546 69.0844 0.171254C68.8882 0.048903 68.6919 -0.0245077 68.4466 -3.74885e-05H68.2012C67.9069 -0.048978 67.6125 0.0244327 67.3671 0.171254C67.2935 0.220195 67.2445 0.293605 67.1954 0.367016C67.1218 0.513837 67.0482 0.660659 66.9501 0.80748C66.8765 0.905361 66.8519 1.00324 66.8274 1.10112C66.8029 1.24794 66.7783 1.39477 66.7293 1.51712C66.6311 1.78629 66.5575 2.07993 66.5085 2.3491C66.4839 2.49593 66.4349 2.61828 66.4104 2.74063C66.3858 2.83851 66.3858 2.86298 66.3613 3.03427C66.3368 3.18109 66.3122 3.32791 66.3122 3.47474C66.3122 3.69497 66.2632 3.93967 66.3367 4.1599C66.3367 4.1599 66.2877 4.67378 66.2632 4.91848C66.2632 5.04083 66.2141 5.13871 66.0914 5.18765C65.9197 5.26106 65.8952 5.35894 65.748 5.48129C65.7234 5.50576 65.6498 5.53024 65.6253 5.53024C65.5762 5.55471 65.5517 5.57918 65.5272 5.60365C65.429 5.67706 65.2573 5.77494 65.1837 5.84835C65.0365 5.9707 64.8648 6.06858 64.7421 6.2154C64.6685 6.31328 64.5949 6.41116 64.4968 6.48457C64.3496 6.58246 64.0307 6.72928 63.9325 6.8761C63.8344 7.02292 63.6381 7.07186 63.4909 7.14527C63.3928 7.19421 63.3192 7.29209 63.2211 7.3655C63.0739 7.48785 62.1416 7.92832 61.9944 8.05067C61.9699 8.07514 61.9454 8.07514 61.9208 8.07514C61.8963 7.92832 61.8718 7.7815 61.8472 7.65914C61.8227 7.58573 61.7982 7.51232 61.8472 7.43891C61.8963 7.34103 61.8718 7.24315 61.8472 7.14527C61.8227 7.09633 61.7982 7.02292 61.8227 6.99845C61.8963 6.82716 61.7736 6.01964 61.8963 5.77494C61.9208 5.75047 61.9208 5.70153 61.9208 5.67706C61.9454 5.40788 61.9944 5.16318 62.019 4.89401C62.0435 4.67378 62.1171 4.47801 62.2152 4.30672C62.2643 4.20884 62.3379 4.11096 62.3624 3.98861C62.4115 3.74391 62.4606 3.52368 62.4606 3.27897C62.4606 3.03427 62.436 2.7651 62.1416 2.66722C62.019 2.5204 61.8472 2.44699 61.7 2.32463C61.4793 2.12887 61.2094 2.00652 60.915 1.98205C60.7678 1.98205 60.4243 1.98205 60.2771 2.00652C60.179 2.00652 60.0809 2.05546 60.0318 2.12887C59.9337 2.27569 59.8601 2.44699 59.7865 2.59381C59.762 2.66722 59.762 2.7651 59.762 2.86298V2.98533C59.7374 3.23003 59.6393 3.98861 59.6148 4.13543C59.5902 4.30672 59.5166 4.47801 59.4676 4.64931C59.4185 4.79613 59.3694 4.96742 59.3449 5.11424C59.2958 5.33447 59.2713 5.55471 59.2222 5.77494C59.1977 5.9707 59.1486 6.14199 59.2222 6.33775C59.2468 6.38669 59.2468 6.41116 59.2222 6.4601C59.1732 6.58246 59.1732 6.70481 59.2222 6.82716C59.2468 6.90057 59.2468 6.94951 59.2468 7.02292C59.2222 7.16974 59.1977 7.34103 59.1977 7.48785V7.58573C59.2222 7.80597 59.2468 8.05067 59.2468 8.2709C59.2468 8.29537 59.0996 8.88266 59.0505 9.12736V9.22524C59.0505 9.46994 58.9524 9.71464 59.0014 9.95935V10.3998C59.0014 10.62 58.9524 10.8158 58.9769 11.036C59.026 11.3786 58.8297 12.6021 58.8297 12.6511V12.7245C58.8297 12.8468 58.8297 12.9937 58.8052 13.116C58.7806 13.2873 58.7806 13.4586 58.8542 13.6299C58.7806 13.8501 58.7806 13.9235 58.7806 14.0214ZM38.1485 35.3594L0 35.4084V68.7858L38.1485 68.7613V35.3594ZM24.8027 57.1624H14.2045V47.0317H24.8027V57.1624Z" fill="#152484"/>
<path d="M65.8952 36.9254C65.9197 36.9254 65.9442 36.9499 65.9688 36.9743C65.9933 36.9988 66.0178 37.0233 66.0424 37.0233C66.1896 37.0477 66.3613 37.0722 66.5085 37.0967C66.6066 37.1212 66.7293 37.1212 66.8274 37.1456C67.1709 37.2435 67.5143 37.2435 67.8333 37.1946C68.2013 37.1456 68.5938 37.0722 68.9618 37.0233C69.0108 37.0233 69.0599 36.9988 69.109 36.9743C69.2807 36.8765 69.7223 36.7541 69.7714 36.7541C69.8695 36.7052 69.9431 36.6318 70.0412 36.6318C70.2375 36.6073 71.4396 36.1179 71.5377 36.0689L71.8321 35.9221C71.9057 35.8732 72.0284 35.8732 72.0774 35.8242C72.1756 35.7508 72.2737 35.6774 72.4209 35.7019C72.4454 35.7019 72.4945 35.6774 72.519 35.6529L72.7398 35.5061C72.7889 35.4572 72.8625 35.4327 72.9116 35.3838C73.1078 35.1635 73.3777 35.1391 73.5249 34.8454C73.5249 34.8454 73.8193 34.5763 73.9174 34.4539C74.0155 34.3071 74.1627 34.1847 74.2609 34.0379C74.4571 33.7443 74.6779 33.4751 74.8497 33.157C75.095 32.7655 75.2667 32.3495 75.2913 31.8845C75.2913 31.8111 75.3158 31.7132 75.3403 31.6398C75.3649 31.4441 75.3894 31.2238 75.4384 31.0281C75.463 30.8812 75.463 30.7344 75.3894 30.6121C75.3403 30.5387 75.3403 30.4408 75.3158 30.3674C75.2913 30.3184 75.2667 30.294 75.2422 30.2695C75.1931 30.1961 75.1441 30.1471 75.1195 30.0737C75.0705 30.0248 75.0704 29.9269 75.0214 29.878C74.9233 29.7556 74.7761 29.7311 74.6779 29.878C74.6289 29.9514 74.6043 30.0737 74.5553 30.1471C74.5307 30.1961 74.5307 30.245 74.5062 30.294C74.4081 30.5142 74.3099 30.7589 74.1873 30.9791C74.0401 31.2483 73.8683 31.5175 73.6966 31.7622C73.574 31.9579 73.4022 32.1292 73.255 32.3005C72.9116 32.7165 72.519 33.0836 72.102 33.4017C71.6359 33.7932 71.0961 34.0868 70.5319 34.3071C70.3847 34.3805 70.213 34.4294 70.0658 34.5028C69.6242 34.6986 69.1826 34.8454 68.741 34.9433C68.5938 34.9678 68.4711 34.9922 68.3239 34.9922C68.1277 34.9922 67.8087 34.8454 67.8087 34.6497C67.8087 34.5028 67.7842 34.2092 67.7842 34.0624C67.7842 33.989 67.7842 33.9156 67.8087 33.8421C67.8333 33.6709 67.8578 33.4751 67.8823 33.2793C67.9069 33.1325 67.9559 33.0102 67.9805 32.8633C68.005 32.7655 68.0295 32.6676 68.0541 32.5942C68.1277 32.3984 68.3239 32.1048 68.4221 31.9335C68.4957 31.7866 69.158 31.2728 69.1826 31.1994C69.2316 30.9791 69.6978 30.7834 69.8204 30.5876C69.845 30.5387 70.213 30.1961 70.2375 30.1471C70.262 29.9758 70.6545 29.8046 70.7527 28.9481C70.8017 28.8257 70.8017 28.7034 70.7772 28.581C70.7527 28.5076 70.7281 28.4587 70.7281 28.3853C70.7036 28.1895 70.63 28.0182 70.4828 27.8959C70.4092 27.8225 70.3111 27.798 70.213 27.798C70.0903 27.8225 69.9922 27.798 69.8695 27.8225C69.6242 27.8469 69.3543 27.8714 69.1335 27.9448C68.9372 28.0182 68.1767 28.4098 67.9805 28.4587C67.7597 28.5076 67.1709 28.6789 66.9746 28.8257C66.9256 28.8747 66.6312 29.0215 66.5576 28.9481C66.533 28.8992 67.3181 28.1161 67.3917 27.9693C67.4162 27.8959 68.8637 26.5011 68.9372 26.3787C68.9863 26.3298 68.9863 26.2319 69.0354 26.183C69.2807 25.8404 70.0658 25.1063 70.3602 24.8126C70.4092 24.7637 70.4338 24.7147 70.4583 24.6658C70.4828 24.6169 70.9735 24.3232 71.0225 24.2988C71.2188 24.0785 71.2433 23.8094 71.366 23.5646C71.3905 23.4912 71.4641 23.3934 71.4641 23.3199C71.4641 23.0997 71.4887 22.5369 71.4151 22.3167C71.366 22.1698 71.2433 22.072 71.1697 21.9741C71.0471 21.7783 70.8753 21.656 70.6545 21.5826C70.6055 21.5581 70.5319 21.5581 70.5073 21.5336C70.262 21.3623 69.9922 21.3868 69.7468 21.3623C69.6487 21.3623 69.5506 21.3868 69.4524 21.3868C69.0354 21.3868 68.0786 21.656 67.7106 21.8028C67.6615 21.8273 66.7784 22.0964 66.6557 22.1698C66.5085 22.2433 66.3613 22.2922 66.1896 22.3656C66.165 22.3901 66.116 22.3901 66.0669 22.3901C66.0669 22.3411 66.0669 22.3167 66.0914 22.2922C66.1896 22.023 66.2632 21.7539 66.3613 21.4847C66.3858 21.4357 66.533 21.3379 66.5821 21.2155C66.6066 21.191 66.6066 21.1421 66.6066 21.1176C66.6802 20.9708 66.7293 20.824 66.8029 20.6772C66.901 20.4814 66.9746 20.3101 67.0728 20.1143C67.1218 20.0409 67.2199 19.9675 67.2935 19.8941C67.3671 19.8207 67.4653 19.7473 67.5389 19.6739C67.5879 19.6249 67.637 19.576 67.7106 19.5515C67.8087 19.5026 67.8823 19.4536 67.9559 19.3802C68.0295 19.3068 68.1031 19.2579 68.2013 19.2334C68.2503 19.2334 68.2749 19.2334 68.2994 19.2089C68.5938 19.0621 69.477 18.7685 69.7714 18.5972C69.845 18.5483 69.9431 18.5238 70.0412 18.4993C70.4338 18.4014 70.7281 18.1323 71.0716 17.961C71.0961 17.961 71.0961 17.9365 71.1207 17.912C71.2433 17.8141 73.1078 17.2758 73.2796 17.2758C73.3777 17.2758 73.4513 17.2269 73.5494 17.1779C73.6966 17.129 73.8438 17.1534 73.991 17.129C74.1873 17.1045 74.6534 17.0066 74.8497 16.9577C74.9233 16.9332 74.9723 16.9087 75.0459 16.9087C75.3403 16.9332 74.7025 15.2448 74.5062 14.9511C74.359 14.7309 74.3345 14.633 74.1137 14.4862C74.0401 14.4373 73.9665 14.4128 73.8929 14.3883C73.623 14.266 73.3532 14.266 73.0588 14.2415C72.8625 14.217 72.6417 14.217 72.4454 14.266C71.9548 14.3638 71.7585 14.3883 71.2679 14.4862C71.0471 14.633 70.0903 14.9511 69.8695 15.0001L69.5751 15.0735C69.3788 15.1469 68.8882 15.3427 68.8146 15.3427C68.6919 15.3671 68.5938 15.4161 68.4711 15.465C68.2258 15.5629 68.005 15.6852 67.7597 15.7586C67.5879 15.8321 67.1709 16.0278 67.1218 16.1257C67.0482 16.248 66.7293 16.248 66.6066 16.297C66.3858 16.3949 65.7235 16.713 65.5517 16.7619C65.3555 16.8109 64.8157 16.9577 64.7667 17.0066C64.7176 17.0311 64.6685 17.08 64.6195 17.1045C64.4477 17.1534 64.2515 17.129 64.1043 17.2513C64.0797 17.2513 64.0552 17.2513 64.0552 17.2758C63.9571 17.3247 63.8835 17.3492 63.7854 17.3981C63.7118 17.4471 63.6382 17.4716 63.5646 17.4716C63.491 17.4716 63.3928 17.496 63.3438 17.545C63.2456 17.6429 62.8286 17.6918 62.7795 17.7652C62.7059 17.8386 62.2398 17.8631 61.9454 17.9854C61.8473 18.0344 61.4302 18.1323 61.3075 18.1567C61.1603 18.1812 61.0131 18.2057 60.8905 18.2301C60.7433 18.2546 60.0318 18.5972 59.7374 18.5972C59.4676 18.6217 58.5108 19.0132 58.2164 19.0621C57.8975 19.1111 57.6031 19.2089 57.3087 19.3068C57.2106 19.3313 57.1124 19.3802 56.9898 19.4047L56.3274 19.5515C56.1311 19.6005 55.9103 19.6984 55.7141 19.7718C55.665 19.7962 55.6405 19.8207 55.5914 19.8207C55.4442 19.8696 55.3215 19.9675 55.1743 19.992C54.8799 20.0409 54.6346 20.2367 54.3648 20.3101C54.3402 20.3101 54.3402 20.3346 54.3157 20.3346C53.9722 20.5793 53.9477 20.7995 53.9968 21.2155C53.9968 21.3134 54.0458 21.4357 54.144 21.5091C54.1685 21.5336 54.193 21.5826 54.2176 21.607C54.3157 21.8273 54.4138 22.023 54.6101 22.1698C54.7327 22.2677 55.0271 22.7816 55.2234 22.8305C55.3461 22.855 55.3951 23.0752 55.5178 23.0997C55.6159 23.1242 55.7141 23.1242 55.7877 23.1487C55.9103 23.2221 56.033 23.1242 56.1556 23.1242C56.3519 23.1487 56.5482 23.0018 56.7444 23.0508C56.769 23.0508 56.7935 23.0263 56.818 23.0263C56.8916 22.9774 56.9407 22.9774 57.0143 23.0018C57.137 23.0508 57.2596 23.0263 57.3823 22.9529C57.5295 22.8795 59.3204 22.0475 59.4921 22.023C59.5166 22.023 59.5412 21.9986 59.5902 21.9986C59.7374 21.9496 59.8846 21.8762 60.0318 21.8517C60.3262 21.7783 60.6206 21.6804 60.8905 21.5336C60.9395 21.5091 60.9886 21.5091 61.0377 21.4847C61.1113 21.4602 61.1849 21.4357 61.2339 21.4113C61.3321 21.3868 61.4302 21.3134 61.5283 21.3134C61.7001 21.3134 61.8473 21.2644 61.9945 21.2155C62.0435 21.2155 62.0926 21.191 62.1417 21.1666C62.2889 21.1176 62.4115 21.0932 62.5587 21.0197C62.804 20.8974 62.4361 20.9463 62.7059 20.9219C62.7304 20.9219 62.7795 20.8974 62.804 20.8974C62.9758 20.824 63.172 20.7506 63.3683 20.6772C63.4419 20.6527 63.54 20.6282 63.6136 20.6282C63.7118 20.6282 63.7608 20.6527 63.7608 20.7506C63.7608 20.8485 63.7363 20.9219 63.7363 21.0197C63.7363 21.0932 63.7118 21.1666 63.7118 21.24C63.7608 21.4113 63.7118 21.8273 63.7118 21.8517C63.6872 21.9986 63.6872 22.1454 63.6627 22.2922C63.6382 22.5614 63.6382 22.8305 63.6382 23.0997C63.6382 23.271 63.6382 23.271 63.4664 23.3199C63.2702 23.3444 62.9022 23.5646 62.7059 23.6381C62.4115 23.7604 62.0926 23.8338 61.7982 23.9562C61.6265 24.0051 61.4793 24.103 61.3321 24.1764C61.283 24.2009 60.4734 24.519 60.4244 24.5435C60.2036 24.5924 59.9828 24.6413 59.7374 24.6658C59.6393 24.6903 59.5412 24.7147 59.4676 24.7637C59.4185 24.8126 59.3449 24.8371 59.2958 24.8616C59.1241 24.9105 58.9769 24.9839 58.8788 25.1307C58.7561 25.302 58.4127 25.9383 58.3881 25.9872C58.3391 26.0361 58.3636 26.134 58.4372 26.183C58.4863 26.2319 58.4863 26.2808 58.4863 26.3298C58.4863 26.4277 58.4617 26.5255 58.4617 26.6234C58.4617 26.9415 58.5599 27.2352 58.6825 27.5288C58.8052 27.8225 58.9769 28.0182 59.2468 28.1651C59.5166 28.3119 59.4921 28.4587 59.7865 28.5076C59.9092 28.5321 60.0073 28.4832 60.13 28.4832C60.2036 28.4832 60.2772 28.4587 60.3508 28.4342C60.5716 28.4098 60.5225 28.3608 60.6697 28.214C60.8414 28.0672 61.7001 27.6022 61.8963 27.4799C62.019 27.4065 64.1534 26.4032 64.3987 26.2808L64.6931 26.134C64.9139 26.0361 65.1837 25.8404 65.4291 25.767C65.6989 25.6936 65.6744 25.6691 65.9197 25.5467C66.0669 25.4733 66.1405 25.4489 66.2877 25.3754C66.4349 25.4978 66.4349 25.4978 66.3858 25.6446C66.3613 25.7425 66.2632 25.8893 66.2386 25.9872C66.2141 26.0606 65.1347 27.5044 65.0611 27.7246C64.9384 28.0672 63.7118 29.3396 63.491 29.6577C63.4419 29.7311 62.7795 30.2206 62.4851 30.3429C62.387 30.5387 62.019 30.6855 61.9209 30.9057C61.8963 30.9302 61.8963 30.9791 61.8718 31.0036C61.7246 31.1259 61.7001 31.2972 61.6265 31.4685C61.5038 31.7622 61.6019 32.0313 61.6265 32.3495C61.6265 32.4963 61.651 32.5208 61.7246 32.6431C61.7982 32.7655 61.8227 32.741 61.8718 32.8633C61.9454 33.0102 62.1171 33.0346 62.2643 33.108C63.0984 33.108 63.2702 33.0836 63.7608 32.9857C63.7854 32.9612 64.5459 32.7899 64.6931 32.741V33.1325C64.6685 33.4261 64.6195 33.6953 64.5949 33.989V34.4539C64.4968 34.8944 64.5459 35.3104 64.6195 35.7508C64.6685 35.9466 64.7176 36.1423 64.8648 36.2892C64.9384 36.3626 64.9875 36.436 65.0365 36.5339C65.1592 36.6807 65.3064 36.8275 65.5027 36.9009C65.6008 36.803 65.748 36.9254 65.8952 36.9254ZM27.8202 16.1012L27.9674 16.3215C28.1882 16.5662 28.4581 16.7375 28.8015 16.7375C29.2431 16.7375 29.6847 16.7619 30.1263 16.664H30.1754C30.2735 16.6396 30.3716 16.6396 30.4698 16.6151C30.617 16.5417 31.034 16.3459 31.1076 16.3215C31.3039 16.2725 31.5002 16.2236 31.6719 16.1502C31.8191 16.0768 32.1625 15.881 32.1871 15.881C32.3343 15.8321 33.0703 15.6118 33.1684 15.5629C33.2665 15.4895 34.1742 15.2692 34.4441 15.1958C34.5177 15.1714 34.9838 15.0735 34.9348 15.1714C34.8366 15.4161 34.6894 15.6363 34.5177 15.8565C34.3705 16.0523 34.2478 16.2725 34.1988 16.5417C34.1988 16.5906 34.1742 16.6151 34.1252 16.6396C34.0025 16.7375 33.9534 16.8843 33.9289 17.0311C33.9289 17.1045 33.7817 17.5939 33.6345 17.7163C33.61 17.7407 33.5854 17.7897 33.5854 17.8141C33.4873 17.9854 33.4383 18.1812 33.4137 18.3525C33.3401 18.6706 33.0948 19.2824 33.0703 19.5271C33.0457 19.6739 32.9231 20.2612 32.874 20.3835C32.8495 20.4814 32.8495 20.5793 32.8249 20.6772C32.7513 20.9463 32.6777 21.2155 32.6777 21.4847C32.6777 21.607 32.6532 21.7294 32.6287 21.8517C32.6041 21.9741 32.5551 22.0964 32.6041 22.2188C32.6287 22.2677 32.506 22.5858 32.506 22.7082C32.4815 22.8795 32.4079 23.0508 32.4569 23.2221C32.4815 23.3444 32.4324 23.6136 32.4324 23.6381C32.4324 23.7115 32.4079 23.7849 32.4079 23.8583C32.3833 23.9317 32.3588 24.0051 32.3588 24.0785L32.2852 25.5467C32.2852 25.6936 32.2607 25.8404 32.2607 25.9872C32.2116 26.3543 32.1871 26.7458 32.1871 27.1128C32.1871 27.382 32.1871 27.6756 32.1625 27.9448C32.1625 27.9938 32.0644 28.2385 32.0644 28.3363C32.0889 28.4342 32.1135 28.5321 32.0644 28.63C32.0399 28.6545 32.1625 28.9726 32.1625 29.0949C32.1625 29.1439 32.1625 29.1928 32.1871 29.2173C32.2361 29.2907 32.2361 29.3396 32.2361 29.413C32.2361 29.4375 32.2361 29.4864 32.2607 29.5109L32.7023 30.3184C32.7513 30.4163 32.7759 30.5142 32.8249 30.5876C32.8495 30.6365 32.874 30.661 32.8985 30.71L33.2665 31.077C33.3401 31.1504 33.4137 31.1994 33.5364 31.1749C33.659 31.1504 33.7572 31.1259 33.8798 31.077C34.0025 31.0281 34.2969 31.0281 34.3214 31.0036C34.4932 30.9547 34.6894 30.9057 34.8857 30.9057C34.9348 30.9057 35.0084 30.8812 35.0574 30.8568C35.131 30.7834 35.3763 30.7834 35.4009 30.7834C35.5481 30.7344 35.6707 30.71 35.8179 30.6365C35.9161 30.5876 36.0142 30.5142 36.1123 30.4653C36.1614 30.4408 36.1859 30.4163 36.2105 30.3918C36.3086 30.3674 36.8974 29.9024 36.971 29.7801C36.9955 29.7556 37.0201 29.7311 37.0691 29.7067C37.2163 29.5843 37.339 29.4375 37.5352 29.3641C37.5598 29.3641 37.707 29.1928 37.8051 29.1928C37.8542 29.1928 37.9032 29.1928 37.9523 29.1194C37.9768 29.0949 38.0259 29.0704 38.0504 29.046C38.0995 29.0215 38.1731 29.0215 38.2222 28.9726C38.3694 28.8747 38.492 28.7768 38.6637 28.7279C38.7128 28.7279 38.7619 28.6789 38.7864 28.63C38.8355 28.581 39.0808 28.5076 39.1053 28.4587C39.2525 28.214 39.7432 27.8959 39.7677 27.8959C39.9885 27.8225 40.1112 27.6512 40.2584 27.4799C40.332 27.382 40.7736 27.1862 40.8226 27.0639C40.8472 27.0394 40.8717 26.9905 40.9208 26.9905C41.068 26.9171 41.2888 26.55 41.3378 26.5011C41.3869 26.4521 41.853 26.0361 41.9511 25.9383C42.0247 25.8648 42.0493 25.767 42.1229 25.6936C42.2701 25.5223 42.8589 25.1307 42.8589 25.0084V24.9594C42.8834 24.935 42.9079 24.9105 42.9325 24.9105C43.0306 24.8616 43.1287 24.8126 43.1287 24.6658C43.1287 24.6413 43.1533 24.6169 43.1533 24.5924C43.2023 24.519 43.2023 24.4456 43.1778 24.3722C43.1042 24.2253 43.0551 24.0541 42.8589 23.9806C42.8343 23.9806 42.8098 23.9562 42.8098 23.9317C42.6871 23.8094 42.2946 23.6136 42.2455 23.5891C42.0738 23.5157 41.9511 23.3444 41.7549 23.3444C41.7549 23.3444 41.7304 23.3444 41.7304 23.3199C41.6568 23.2465 41.3869 23.2221 41.3624 23.1731C41.2397 23.0752 41.0925 23.0752 40.9698 23.0752H40.4792C40.4056 22.9774 40.3565 22.904 40.3565 22.7816C40.3565 22.7327 40.1603 22.6348 40.1357 22.5858C40.0867 22.5124 39.9149 22.2922 39.9149 22.2188C39.9149 22.072 39.9149 22.1209 39.9395 21.9741C39.964 21.8273 40.2829 21.7049 40.4056 21.6315C40.7245 21.4357 40.9453 21.1421 41.2152 20.8974C41.3133 20.7995 41.3869 20.6772 41.485 20.5793C41.6077 20.4569 41.9757 20.2367 42.0002 20.2367C42.1474 20.0899 42.3191 19.992 42.4909 19.8941C42.8098 19.6984 43.1042 19.4781 43.3986 19.2579C43.6439 19.0621 43.9138 18.9153 44.1836 18.7685C44.2818 18.7195 45.0177 18.377 45.0668 18.3525C45.1159 18.328 45.3857 18.1567 45.4593 17.9854C45.4839 17.961 45.4839 17.9365 45.5084 17.912C45.6801 17.8631 45.8028 17.7163 45.9255 17.5694C45.9745 17.5205 46.0236 17.4471 46.0727 17.4471C46.2689 17.3982 46.3671 17.2024 46.5388 17.1534C46.6369 17.1045 46.7105 17.0311 46.7841 16.9822C47.054 16.7864 47.2257 16.4683 47.5201 16.2725C47.5446 16.248 47.5446 16.2236 47.5692 16.2236L47.7164 16.0768C47.7654 16.0278 47.8145 16.0033 47.839 15.9789C47.9862 15.8076 48.1825 15.7097 48.2806 15.5139H48.3297C48.3297 15.6608 48.3542 15.8321 48.3542 15.9789V16.3704V16.248V16.713C48.3787 16.8598 48.3787 17.0066 48.3542 17.1534V17.7897C48.3297 18.1078 48.3051 18.4259 48.2561 18.744C48.207 19.1111 47.9126 21.0442 47.8636 21.4113C47.8145 21.7294 47.7654 22.0475 47.7654 22.3411C47.7654 22.5614 47.8145 22.8305 47.7654 23.1731C47.7409 23.4423 47.7409 23.7115 47.6918 23.9806C47.6673 24.1519 47.6428 24.3232 47.6673 24.4945C47.6673 24.5679 47.6428 24.6413 47.6428 24.7147C47.6428 24.886 47.6182 25.0329 47.6182 25.2042C47.6182 25.2531 47.5692 25.6446 47.5446 26.2564C47.5446 26.2808 47.471 26.9171 47.4956 27.2352V27.382C47.5201 27.8469 47.5446 28.214 47.6182 28.3853C47.6428 28.4342 47.6428 28.5076 47.6428 28.5566C47.6428 28.7523 47.6673 28.9481 47.6673 29.1439C47.6673 29.2662 47.7164 29.5354 47.7164 29.5843V29.7067C47.7164 29.9024 47.839 30.0737 47.79 30.294C47.79 30.3184 48.0107 31.3462 48.0598 31.6888C48.0844 31.7866 48.0844 31.8845 48.1334 31.9579C48.207 32.1048 48.3051 32.2271 48.4033 32.3495C48.4523 32.4229 48.5505 32.4229 48.6241 32.3739C48.6977 32.325 48.7713 32.2761 48.8694 32.2516C48.8939 32.2271 48.943 32.2026 48.9921 32.2026C49.1393 32.2026 49.2865 32.2026 49.4337 32.2271C49.4827 32.2271 49.5073 32.2271 49.5563 32.2026C49.679 32.1782 49.7771 32.0803 49.8752 31.9824C49.8998 31.9579 49.9488 31.909 49.9734 31.909C50.0715 31.909 50.4395 31.8356 50.5376 31.7377C50.6112 31.6888 50.6603 31.6398 50.7339 31.5909C50.832 31.5419 50.8566 31.493 50.8566 31.3951C50.832 31.2728 50.8566 31.1749 50.8811 31.0525C50.9056 30.9302 50.6603 30.3429 50.7094 29.878C50.7339 29.8535 50.7339 29.7311 50.7339 29.6822C50.7094 29.5843 50.7339 29.1928 50.6848 29.0949C50.6603 29.046 50.6603 28.4832 50.6848 28.2629V28.0916C50.6848 28.0182 50.6603 27.9448 50.6848 27.8469C50.7094 27.7491 50.6848 27.6756 50.6358 27.6022C50.5622 27.5288 50.5622 27.4309 50.5622 27.3331C50.5867 27.2352 50.5622 27.1373 50.5622 27.0394C50.5622 26.9905 50.5376 26.9171 50.5622 26.8681C50.6112 26.6724 50.5622 25.8648 50.5622 25.8404C50.5867 25.767 50.5867 25.6691 50.6112 25.5957C50.6358 25.351 50.6848 25.1307 50.7094 24.886C50.7094 24.8126 50.7339 24.7392 50.7094 24.6658C50.6358 24.47 50.783 24.0785 50.783 23.8828C50.783 23.7849 50.9302 22.8061 50.9547 22.7327C50.9792 22.6592 50.9302 22.2188 51.0038 22.023C50.9792 21.8517 51.0283 21.1421 51.0774 21.0442C51.2246 20.7995 51.4208 18.9398 51.4453 18.6706C51.4453 18.5238 51.5189 18.2057 51.5189 18.1812C51.5189 18.1323 51.5189 18.0588 51.5435 18.0099C51.5925 17.6918 51.6661 17.3737 51.5925 17.0556V16.8598C51.6171 16.664 51.6171 16.4438 51.5925 16.248V16.2236C51.5435 16.0523 51.5925 15.881 51.5925 15.7342C51.5925 15.5139 51.568 15.2937 51.5925 15.0735C51.5925 14.8532 51.6171 14.633 51.5435 14.4373C51.5189 14.4128 51.5189 14.3883 51.5189 14.3394C51.5189 14.0702 51.5435 13.8255 51.5435 13.5563C51.5435 13.4584 51.568 12.969 51.5189 12.9201C51.3963 12.7733 51.3963 12.4552 51.4208 12.2594V12.137C51.4208 12.0147 51.3963 11.8679 51.4208 11.7455C51.4453 11.6232 51.4208 10.8401 51.4699 10.7178C51.5189 10.571 51.4453 10.1794 51.4208 10.106C51.3963 10.0571 51.4453 9.88579 51.4453 9.83685C51.4453 9.73897 51.4699 9.64109 51.4944 9.54321C51.4944 9.51873 51.5189 9.46979 51.5435 9.44532C51.6171 9.37191 51.5925 9.2985 51.5435 9.22509C51.5189 9.17615 51.4944 9.12721 51.4944 9.07827C51.4944 8.85804 51.5189 9.12721 51.5435 8.88251V8.78463C51.5435 8.58887 51.5435 8.3931 51.5189 8.19734C51.5189 8.12393 51.5189 8.05052 51.4699 7.97711C51.4208 7.85476 51.3472 7.73241 51.2491 7.61006C51.1019 7.43877 50.9302 7.26747 50.7094 7.243C50.3659 7.19406 49.7035 7.02277 49.3846 7.19406C49.2129 7.29194 48.6977 7.36535 48.5505 7.48771C48.5259 7.51218 48.5014 7.53665 48.5014 7.56112C48.2806 7.95264 48.207 8.93145 48.207 9.20062C48.207 9.2985 47.9617 9.76344 47.8881 10.0326C47.79 10.3997 47.7654 10.7422 47.6182 11.0848C47.5692 11.1827 47.5446 11.2806 47.4956 11.354C47.4465 11.4274 47.422 11.5253 47.3729 11.5987C47.2748 11.8189 47.1276 12.0392 47.054 12.2839C47.0049 12.4552 46.9313 12.6265 46.9068 12.7977C46.8332 13.0914 46.6369 13.3361 46.4407 13.5319C46.3916 13.6053 46.3425 13.6787 46.2689 13.7276C46.0972 13.85 45.9255 13.9968 45.7783 14.1436L45.7047 14.217C45.6311 14.266 45.4348 14.5841 45.3121 14.5841C45.2876 14.5841 45.2385 14.6085 45.214 14.633C44.9932 14.8288 44.797 15.0245 44.6007 15.2448C44.478 15.3671 43.6439 16.1012 43.4967 16.2236L43.4231 16.297C43.374 16.4928 42.5645 17.0556 42.2701 17.1534C42.2455 17.1534 42.0738 17.3003 41.9757 17.3003C41.9021 17.3003 41.8775 17.3247 41.853 17.3981C41.853 17.4226 41.8285 17.4471 41.8285 17.496C41.7794 17.5205 41.7058 17.5205 41.6813 17.545C41.6322 17.6429 41.6077 17.7163 41.5586 17.7897C41.4605 17.8876 41.3133 18.1323 41.2888 18.1567C41.2397 18.1567 41.1906 18.1812 41.1906 18.2057C41.1661 18.4259 40.4301 18.793 40.2829 18.9642C40.0621 19.1845 39.8904 19.4536 39.7187 19.7228C39.5715 19.9431 39.4733 20.2122 39.3507 20.4569C39.228 20.6527 39.1789 20.8485 39.1544 21.0687C39.1299 21.2155 39.1299 21.3868 39.1053 21.5091C39.0317 21.7294 39.1053 21.9007 39.1789 22.0964C39.2525 22.3167 39.3261 22.5369 39.3507 22.7571C39.3507 22.8305 39.3752 22.8795 39.3997 22.9529C39.5469 23.3199 39.5715 23.6625 39.4488 24.0051C39.3752 24.0541 39.3016 24.0785 39.2771 24.1275C39.228 24.2253 39.1544 24.2743 39.0808 24.3232C39.0072 24.3722 38.9581 24.4456 38.9091 24.4945C38.86 24.5679 38.7864 24.6413 38.7373 24.7147C38.6392 24.8371 38.3448 25.1063 38.2958 25.1063L37.8542 25.3999C37.6579 25.5223 37.5598 25.6201 37.339 25.718C37.2408 25.767 37.1427 25.8648 37.0691 25.9383C36.971 26.0117 36.8728 26.0117 36.7747 26.0851C36.6766 26.1585 36.5294 26.3053 36.4313 26.3787C36.3577 26.4521 36.235 26.4521 36.1369 26.5255C36.0633 26.5745 35.9651 26.6724 35.8915 26.7213C35.6707 26.8437 35.7689 26.55 35.6953 26.4277C35.6707 26.3787 35.6707 26.1096 35.6707 26.0361C35.6707 25.7914 35.7198 25.5467 35.6953 25.2776C35.6953 25.1307 35.7443 24.9839 35.7198 24.8616C35.7198 24.7882 35.6707 23.8338 35.7443 23.5891C35.7689 23.4668 35.7934 23.0752 35.7689 22.9529C35.7443 22.855 35.7443 22.7816 35.7443 22.6837C35.7689 22.5124 35.7443 22.4145 35.7689 22.4145C35.867 22.3167 35.7198 21.3623 35.7689 21.191C35.8179 21.0197 35.8425 20.824 35.867 20.6527C35.867 20.6282 35.9161 20.5793 35.9161 20.5548C35.9406 20.4569 35.9406 20.3835 35.9406 20.2856C35.9406 20.2612 35.9161 20.2122 35.9406 20.1878C35.9897 19.9431 36.0633 19.6984 36.1123 19.4536C36.1369 19.3558 36.1614 19.2579 36.1614 19.16C36.1614 18.9887 36.1859 18.8174 36.2595 18.6951C36.3086 18.6217 36.3086 18.5238 36.3331 18.4259C36.3577 18.2546 36.3822 18.1078 36.4313 17.9365L36.7257 17.0556C36.7747 16.9087 36.8483 16.7619 36.9219 16.6151C36.971 16.5172 37.0446 16.4193 37.0691 16.3215C37.1182 16.2236 37.1427 16.1012 37.2408 16.0278C37.2899 15.9789 37.3144 15.9055 37.339 15.8321C37.388 15.7342 37.4126 15.6118 37.4616 15.5139C37.5107 15.3671 37.4862 15.2937 37.3635 15.1958C37.3144 15.1469 37.2408 15.1224 37.1918 15.0735C37.0446 14.9511 36.9219 14.8288 36.7502 14.7064C36.6766 14.633 36.6275 14.633 36.5539 14.5841H36.5785C36.5049 14.5351 37.5598 14.3883 37.6824 14.266C37.707 14.2415 37.7315 14.266 37.756 14.266C37.8787 14.266 38.0259 14.1925 38.1731 14.217C38.3203 14.2415 38.3939 14.2415 38.492 14.1436C38.5411 14.0947 38.5656 14.0702 38.6147 14.0702C38.7128 14.0457 39.4488 13.7766 39.6205 13.7766C39.8659 13.7766 40.0621 13.6787 40.2829 13.5808C40.381 13.5319 40.4301 13.4584 40.4546 13.3606C40.5037 13.1648 40.5282 12.969 40.6509 12.7977C40.6754 12.7488 40.6754 12.6754 40.6754 12.602L40.5282 12.1615C40.4792 11.9413 40.381 11.77 40.1848 11.6476C40.0867 11.5742 39.9885 11.4764 39.8659 11.4274C39.6451 11.3051 39.3997 11.2317 39.1789 11.1338C39.1299 11.1093 39.0808 11.1093 39.0317 11.1093C38.8109 11.1093 38.5901 11.1827 38.3694 11.1338C38.3448 11.1338 38.3203 11.1582 38.2712 11.1582C38.1976 11.1827 38.0995 11.2072 38.0259 11.2072C37.8542 11.2072 37.6824 11.2072 37.5107 11.2806C37.3635 11.354 37.1918 11.3785 37.0446 11.4274C36.6521 11.5008 36.2595 11.5742 35.8915 11.6721C35.4499 11.77 35.0084 11.8923 34.5668 12.0147C34.346 12.0881 34.1252 12.186 33.9044 12.2349C33.659 12.3083 33.4137 12.3818 33.1684 12.4796C32.6287 12.6999 32.1135 12.9446 31.5983 13.1893C31.4511 13.2627 31.2794 13.3361 31.1322 13.4095C30.7642 13.6053 30.4207 13.85 30.0282 13.9968C29.7583 14.1191 29.4885 14.266 29.2431 14.4128C28.8751 14.6085 28.4581 14.7064 28.0656 14.8532C27.7712 14.9511 27.4522 14.9267 27.4522 15.0001C27.4522 15.1469 27.7221 15.6608 27.8202 15.7586C27.6485 15.881 27.7466 15.9789 27.8202 16.1012ZM51.4699 16.3215V16.7375C51.4453 16.5906 51.4208 16.4683 51.4699 16.3215ZM256 47.521L247.536 48.0593V34.2581H233.651V67.8068H247.536V60.5636L255.828 60.9796L256 47.521ZM65.2819 82.8071L86.8462 82.8315L86.0612 96.9998H103.283L102.523 82.8315L124.283 82.856V70.0581L65.2819 70.1315V82.8071ZM22.8401 72.9456H5.10284L4.63672 96.7551H59.0505V83.4433L22.3249 84.1285L22.8401 72.9456ZM44.2572 77.6194H58.8297V34.2581L44.2572 34.2826V77.6194ZM147.589 75.7841H130.515V96.4125L187.063 96.3391V83.7614L147.32 84.1774L147.589 75.7841ZM172.932 40.3757L162.26 40.131L162.211 43.2632C159.66 37.219 154.213 34.1847 145.897 34.1847C139.984 34.1847 135.495 35.7508 132.477 38.883C129.435 42.0152 127.914 46.6401 127.914 52.7576V55.2291C127.914 61.3467 129.435 65.9471 132.477 69.1037C135.519 72.2359 139.984 73.802 145.897 73.802C154.213 73.802 159.635 70.7677 162.211 64.7236V69.1772L172.932 68.6878V77.4481H186.989V34.1847H172.932V40.3757ZM148.718 58.5326C148.718 60.4658 147.786 61.4201 145.921 61.4201C144.057 61.4201 143.125 60.4658 143.125 58.5326V49.4542C143.125 47.521 144.057 46.5667 145.921 46.5667C147.786 46.5667 148.718 47.521 148.718 49.4542V58.5326ZM172.932 56.8686L163.879 56.7218V52.5129L172.932 52.3416V56.8686ZM233.552 75.1234H207.621V72.187H193.687V96.4125H247.659V72.187H233.552V75.1234ZM233.552 87.2851H207.621V84.2753H233.552V87.2851ZM196.95 67.3174C199.624 69.275 203.279 70.2294 207.891 70.2294H216.257C220.894 70.2294 224.524 69.2506 227.198 67.3174C229.873 65.3843 231.197 62.5702 231.197 58.8997C231.197 55.2291 229.873 52.464 227.198 50.5553C224.524 48.6711 220.869 47.7168 216.257 47.7168H207.891C203.254 47.7168 199.624 48.6711 196.95 50.5553C194.275 52.4395 192.951 55.2291 192.951 58.8997C192.951 62.5702 194.275 65.3598 196.95 67.3174ZM207.229 57.6027C207.768 57.3091 208.431 57.1378 209.29 57.1378H214.638C215.472 57.1378 216.159 57.2846 216.674 57.6027C217.214 57.9208 217.459 58.3124 217.459 58.8018C217.459 59.2912 217.189 59.7072 216.674 60.0008C216.134 60.3189 215.447 60.4658 214.638 60.4658H209.29C208.455 60.4658 207.768 60.3189 207.229 60.0008C206.689 59.7072 206.444 59.2912 206.444 58.8018C206.444 58.3124 206.689 57.8964 207.229 57.6027ZM230.977 36.7052H218.906V32.7899H204.015V36.7052H192.951V46.2486H230.977V36.7052Z" fill="#152484"/>
</g>
<defs>
<clipPath id="clip0_319_503">
<rect width="256" height="97" fill="white"/>
</clipPath>
</defs>
</svg>
