<svg width="256" height="41" viewBox="0 0 256 41" fill="none" xmlns="http://www.w3.org/2000/svg">
<g clip-path="url(#clip0_319_494)">
<path d="M70.8905 15.684H83.8969V10.702H60.9792C60.9792 10.702 57.6631 10.702 57.6631 7.38066V0.774902H47.7518V7.38066C47.7518 7.38066 47.7518 15.6471 56.0051 15.6471H60.9792V17.3078H46.0938V22.2898H85.776L84.1179 17.3078H70.8905V15.684ZM118.826 12.3627H120.484V22.2898H128.737V0.774902H120.484V7.38066H118.826V0.774902H110.536V22.2898H118.826V12.3627ZM201.249 18.9684V25.6111C201.249 30.5931 199.591 33.8775 192.995 33.8775H171.515L173.173 38.8595H192.995C204.565 38.8595 211.16 37.1988 211.16 25.6111V0.774902H201.249V18.9684ZM251.026 12.3627H256L254.342 7.38066H251.026V0.774902H241.115V22.2898H251.026V12.3627ZM100.735 15.315C101.177 17.1232 101.435 19.5589 101.435 22.2898H109.688C109.688 16.3852 107.22 11.2925 103.646 8.89371C104.346 6.38426 104.751 3.65339 104.751 0.774902H94.8399C94.8399 9.92702 91.1553 17.3447 86.5866 17.3447L88.2446 22.3267C93.5503 22.2898 97.8612 19.5958 100.735 15.315ZM145.17 12.8055C146.202 14.0602 146.939 17.8244 146.939 22.2898H155.192C155.192 15.2411 151.655 9.37346 146.939 7.7866C147.086 7.12234 147.234 6.42117 147.344 5.72H155.192V0.774902H130.395V5.7569H137.47C136.401 12.4734 133.269 17.3447 129.585 17.3447L131.243 22.3267C137.47 22.2898 142.37 18.5256 145.17 12.8055Z" fill="black"/>
<path d="M152.429 7.38069L154.087 12.3627H160.13V22.2898H170.041V0.774927H160.13V7.38069H152.429ZM185.553 30.8145C192.553 30.8145 198.227 25.1683 198.227 18.1935V13.1377C198.227 6.16287 192.553 0.516602 185.553 0.516602C178.552 0.516602 172.878 6.16287 172.878 13.1377V18.1935C172.878 25.1683 178.552 30.8145 185.553 30.8145ZM183.047 8.22947C183.047 7.57371 183.307 6.94481 183.77 6.48112C184.233 6.01743 184.861 5.75693 185.516 5.75693C186.171 5.75693 186.799 6.01743 187.261 6.48112C187.724 6.94481 187.985 7.57371 187.985 8.22947V23.1386C187.985 23.7943 187.724 24.4232 187.261 24.8869C186.799 25.3506 186.171 25.6111 185.516 25.6111C184.861 25.6111 184.233 25.3506 183.77 24.8869C183.307 24.4232 183.047 23.7943 183.047 23.1386V8.22947ZM76.3438 23.9504H47.752L49.41 28.9324H71.4065C71.4065 28.9324 74.7226 28.9324 74.7226 32.2538V40.5202H84.6339V32.2538C84.5971 32.2169 84.5971 23.9504 76.3438 23.9504ZM121.258 23.9504H89.0553L90.7134 28.9324H116.284C116.284 28.9324 119.6 28.9324 119.6 32.2538V40.5571H129.511V32.2538C129.511 32.2169 129.511 23.9504 121.258 23.9504ZM226.23 22.2898H237.799V17.3078H226.193C222.877 17.3078 222.877 13.9864 222.877 13.9864V5.68312H237.762V0.774927H213.039V9.07826C213.039 22.2898 226.23 22.2898 226.23 22.2898ZM161.788 23.9504H140.307C135.738 23.9504 132.054 27.6408 132.054 32.2169C132.054 36.7929 135.738 40.4833 140.307 40.4833H161.788C166.356 40.4833 170.041 36.7929 170.041 32.2169C170.041 27.6408 166.356 23.9504 161.788 23.9504ZM160.13 32.2169C160.13 34.0621 158.656 35.5382 156.814 35.5382H145.244C143.402 35.5382 141.928 34.0621 141.928 32.2169C141.928 30.3717 143.402 28.8955 145.244 28.8955H156.814C158.656 28.8955 160.13 30.4086 160.13 32.2169ZM243.694 23.9504H222.214C217.645 23.9504 213.96 27.6408 213.96 32.2169C213.96 36.7929 217.645 40.4833 222.214 40.4833H243.694C248.263 40.4833 251.948 36.7929 251.948 32.2169C251.948 27.6408 248.226 23.9504 243.694 23.9504ZM242.036 32.2169C242.036 34.0621 240.563 35.5382 238.72 35.5382H227.151C225.309 35.5382 223.835 34.0621 223.835 32.2169C223.835 30.3717 225.309 28.8955 227.151 28.8955H238.72C240.526 28.8955 242.036 30.4086 242.036 32.2169Z" fill="black"/>
<path d="M0 31.7741C0 36.8668 4.12666 41 9.21128 41H14.7749L0 26.0909V31.7741ZM14.7749 26.0909L38.0979 2.54635C36.4398 0.959496 34.1923 0 31.7605 0H9.21128C4.12666 0 0 4.13321 0 9.22592V11.6985L14.7749 26.0909ZM14.7749 41H31.7605C36.8451 41 40.9718 36.8668 40.9718 31.7741V14.5401L14.7749 41Z" fill="#007C36"/>
<path d="M14.7749 26.0909L0 11.6985V26.0909L14.7749 41L40.9349 14.577V9.22596C40.9349 6.60579 39.8296 4.24396 38.061 2.54639" fill="#FFF100"/>
</g>
<defs>
<clipPath id="clip0_319_494">
<rect width="256" height="41" fill="white"/>
</clipPath>
</defs>
</svg>
