<svg width="256" height="108" viewBox="0 0 256 108" fill="none" xmlns="http://www.w3.org/2000/svg">
<g clip-path="url(#clip0_319_458)">
<path fill-rule="evenodd" clip-rule="evenodd" d="M220.728 0C225.127 2.33885 229.448 4.52047 233.847 6.85933C235.045 7.56688 236.577 8.25478 237.814 9.08025C237.088 10.3185 236.263 11.596 235.536 12.8342C233.376 16.3327 231.098 19.1629 228.878 22.3076C219.569 34.788 205.134 46.4036 190.464 50.5703C180.133 53.4988 167.702 53.263 160.023 49.8038C153.6 46.9343 149.496 43.259 145.47 38.1489C143.506 35.6331 141.581 31.5647 141.208 30.6213C138.949 33.1763 136.318 35.4955 133.843 37.5396C123.925 45.7944 106.034 55.5822 89.6544 49.509C85.8248 48.0939 83.1538 46.325 79.9133 42.5514C78.9902 41.3328 78.2243 40.1929 77.5173 38.8564C63.3769 50.6686 40.0452 55.9359 28.183 42.1387C24.2551 37.5592 23.0571 30.2872 24.805 23.8209C25.2175 22.3076 25.7674 20.2242 26.494 18.7501C31.1093 21.1873 36.137 23.7227 40.7326 26.1598C36.0388 35.6135 47.6653 39.4264 55.7568 36.2031C65.4979 32.3312 77.9493 20.4601 83.468 11.2815C87.6119 13.4631 91.6773 15.6841 95.8212 17.846C94.3679 20.7942 92.6789 23.5261 91.9326 27.1621C91.5987 28.8328 92.3647 30.2872 92.8557 31.2109C95.8605 36.832 105.111 35.2597 110.865 32.6064C122.727 27.1425 135.984 14.0724 142.229 2.77125C146.982 5.26733 151.754 7.74377 156.527 10.2399C154.916 14.2297 155.309 20.5583 156.841 24.2337C160.396 32.8029 169.41 38.935 183.708 35.2597C193.252 32.8422 205.036 21.8752 211.419 13.3649C214.601 9.09991 218.253 4.97252 220.728 0Z" fill="#00D2C3"/>
<path d="M240.897 65.3305H229.919V61.832H221.258V65.3305H210.849V70.5782H240.917C240.897 68.8486 240.897 67.0994 240.897 65.3305ZM17.2827 84.3558C19.0699 78.1254 20.6214 71.1678 20.8571 63.3258C18.5003 63.3061 16.1436 63.2275 13.7869 63.1882C12.7067 78.6364 8.46459 92.1978 0 102.221C1.74791 103.833 3.59402 105.307 5.34193 106.919C8.28784 103.872 12.2943 97.0721 13.9244 93.3771C14.8278 91.333 26.2383 87.7756 21.5052 103.558C23.7834 104.187 26.0222 104.816 28.3004 105.464C31.5606 95.6766 29.1056 83.7662 17.2827 84.3558ZM42.1659 63.5026V75.9241H38.4344V63.5026H31.8355V107.43H38.4344V82.5279H42.1659V107.43H48.7647V63.5813L48.6862 63.5026H42.1659ZM99.1988 63.5026H92.5999V93.2591H99.1988V63.5026ZM150.006 87.6184V63.5813L149.927 63.5026H143.407V71.9343H120.35V78.5381H143.407V83.4713C135.394 86.105 122.55 86.3212 116.521 83.4713V63.5026H110L109.922 63.5813V87.5398C118.131 92.4533 137.947 93.7505 150.006 87.6184ZM195.098 93.2788H201.697V63.5223H195.177L195.098 63.6009V69.4186H188.264V75.5507H195.098V79.3636H188.264V85.5743H195.098V93.2788ZM250.835 69.6348V63.5026H244.707V88.1687H250.835V76.2386H256V69.6348H250.835ZM56.7972 85.3188C57.7203 87.127 58.6433 88.9352 59.586 90.7238C59.6057 90.7827 59.645 90.822 59.6646 90.881C71.9 83.3534 78.4988 82.41 84.6263 92.0799C86.06 90.5076 87.4937 88.9549 88.9273 87.3825C87.0027 82.7638 81.7982 79.0098 75.494 78.3023C77.2222 75.6883 77.6347 73.8801 77.7132 70.2637C81.0519 70.244 84.4692 70.2047 87.8079 70.1851V63.8171H58.8594C58.8397 65.9201 58.879 68.0035 58.8594 70.1065C62.7087 70.0475 66.6366 70.1654 70.4663 70.1065C71.5072 78.4006 61.55 82.6066 56.7972 85.3188ZM250.756 90.7238H244.629V93.5147H221.179V99.1554H244.629V101.455C237.912 102.182 225.127 102.418 218.233 101.455V90.7041H212.106V107.017C219.451 107.764 226.659 107.98 234.063 107.98C239.601 107.98 245.395 107.528 250.756 107.017C250.776 101.612 250.737 96.1483 250.756 90.7238ZM167.819 100.669C167.76 98.3103 167.721 95.9518 167.662 93.5933C165.462 93.6129 163.263 93.6522 161.063 93.6719L161.299 106.565C168.467 107.626 176.971 107.961 184.748 107.273C191.288 106.703 197.691 105.582 202.875 104.089C202.286 101.966 201.717 99.8433 201.127 97.7207C193.527 99.863 180.015 101.986 167.819 100.669ZM133.784 100.512V93.7505H125.437V100.512C119.113 100.512 113.123 100.138 108.017 98.841C107.31 100.905 106.583 102.988 105.876 105.052C114.596 107.823 142.386 108 153.325 105.091C152.697 103.067 151.793 100.924 151.165 98.8999C150.949 98.8016 146.785 100.472 133.784 100.512ZM66.0278 100.669C66.0081 98.3889 65.9688 96.109 65.9492 93.8291C63.7496 93.8488 61.55 93.8881 59.3504 93.9077C59.4093 98.0941 59.4486 102.3 59.5075 106.486C74.2763 109.002 90.7342 106.821 100.299 104.187C99.7094 102.064 99.1399 99.9416 98.5507 97.8189C90.1646 100.06 78.2631 101.75 66.0278 100.669ZM171.845 91.6082C179.622 91.6082 185.927 85.2992 185.927 77.5161C185.927 69.733 179.622 63.424 171.845 63.424C164.068 63.424 157.764 69.733 157.764 77.5161C157.764 85.2992 164.087 91.6082 171.845 91.6082ZM171.845 69.8313C176.107 69.8313 179.563 73.2904 179.563 77.5554C179.563 81.8204 176.107 85.2795 171.845 85.2795C167.583 85.2795 164.127 81.8204 164.127 77.5554C164.127 73.2904 167.583 69.8313 171.845 69.8313ZM218.921 89.1318H232.825C237.46 89.1318 241.212 85.3778 241.212 80.7394C241.212 76.101 237.46 72.347 232.825 72.347H218.921C214.286 72.347 210.535 76.101 210.535 80.7394C210.535 85.3778 214.286 89.1318 218.921 89.1318ZM219.078 78.3612H232.708C234.023 78.3612 235.084 79.4226 235.084 80.7394C235.084 82.0562 234.023 83.1176 232.708 83.1176H219.078C217.762 83.1176 216.702 82.0562 216.702 80.7394C216.702 79.4226 217.762 78.3612 219.078 78.3612Z" fill="#231815"/>
</g>
<defs>
<clipPath id="clip0_319_458">
<rect width="256" height="108" fill="white"/>
</clipPath>
</defs>
</svg>
