<svg width="256" height="115" viewBox="0 0 256 115" fill="none" xmlns="http://www.w3.org/2000/svg">
<g clip-path="url(#clip0_319_485)">
<path d="M0 0V114.6C17.1623 108.306 47.8708 103.443 85.3525 101.326V0H0Z" fill="#004098"/>
<path d="M85.3516 0V101.326C98.8404 100.525 113.133 100.124 127.999 100.124C142.865 100.124 157.158 100.525 170.647 101.326V0H85.3516Z" fill="#0073CF"/>
<path d="M170.648 0V101.326C208.13 103.443 238.839 108.306 256.001 114.6V0H170.648Z" fill="#06275E"/>
<path fill-rule="evenodd" clip-rule="evenodd" d="M106.533 40.0496C106.533 38.7909 106.82 37.5322 107.337 36.5023H104.467V29.8083H114.454V25.7461H124.155V29.8083H134.2V36.5023H131.272C131.789 37.5322 132.018 38.7909 132.018 40.0496V43.7113C132.018 50.2909 127.139 54.2386 119.276 54.2386C111.469 54.2386 106.533 50.2909 106.533 43.7113V40.0496ZM142.121 26.0322H151.936V54.4103H142.121V49.9476H135.462V42.7386H142.121V39.1914H135.462V31.9252H142.121V26.0322ZM123.351 39.8779C123.351 37.4749 121.801 36.2162 119.276 36.2162C116.808 36.2162 115.258 37.4749 115.258 39.8779V43.3108C115.258 45.5993 116.406 47.0297 119.276 47.0297C121.801 47.0297 123.351 45.5993 123.351 43.3108V39.8779ZM108.657 63.7361V56.2983H151.706V73.9774H141.834V63.7361H108.657Z" fill="#E3E5E6"/>
<path fill-rule="evenodd" clip-rule="evenodd" d="M41.7862 47.6019C39.6433 49.9286 37.0221 51.7404 33.9225 53.0373C30.823 54.3341 27.5512 55.0016 24.1073 55.0397V48.2313C27.2834 48.155 30.1725 47.3349 32.7746 45.7711C35.4149 44.131 37.2325 41.9568 38.2275 39.2487H24.7961V32.4975H59.0633V39.2487H46.3207C46.1677 40.0115 45.8807 40.9079 45.4598 41.9378L60.6705 49.3756L57.284 55.383L41.7862 47.6019ZM45.632 60.9328H61.0149V67.8557H22.7871V60.9328H38.1127V53.5522H45.632V60.9328ZM91.4938 44.2263V37.9328H65.492V31.582H99.0705V44.2263H91.4938ZM101.481 51.9502H86.1557V56.1268H99.3001V69.6865H91.666V62.3631H65.3198V56.1268H78.6364V51.9502H63.3109V45.7139H101.481V51.9502ZM191.253 31.582V59.4452H183.734V31.582H191.253ZM168.409 46.6865C166.763 48.9369 164.812 50.7487 162.554 52.1218C160.296 53.4568 157.866 54.1815 155.264 54.296V47.4303C157.216 47.1633 158.957 46.3242 160.488 44.9129C162.056 43.5016 163.281 41.6517 164.161 39.3631C165.041 37.0364 165.5 34.4999 165.539 31.7537L173.001 32.2114C173.001 35.1865 172.503 38.0663 171.508 40.8507L182.414 48.5174L177.994 53.781L168.409 46.6865ZM165.137 62.5348H191.827V69.2288H157.503V56.0124H165.137V62.5348ZM230.687 37.8756H235.106V45.0845H230.687V52.3507H223.225V31.6392H230.687V37.8756ZM221.445 49.49C220.489 49.9096 219.207 50.2338 217.6 50.4626C215.954 50.6915 214.232 50.8059 212.434 50.8059H196.132V32.0397H219.322V38.1616H203.594V44.7412H212.778C214.5 44.7412 216.126 44.6459 217.657 44.4552C219.226 44.1882 220.489 43.864 221.445 43.4825V49.49ZM214.041 52.8656C219.207 52.8656 223.34 53.5331 226.439 54.8681C229.539 56.2031 231.088 58.3391 231.088 61.2761C231.088 64.213 229.539 66.349 226.439 67.684C223.34 69.019 219.207 69.6865 214.041 69.6865C208.875 69.6865 204.761 69.019 201.7 67.684C198.601 66.349 197.051 64.213 197.051 61.2761C197.051 58.3391 198.601 56.2031 201.7 54.8681C204.761 53.5331 208.875 52.8656 214.041 52.8656ZM214.041 63.7363C216.758 63.7363 218.92 63.5455 220.527 63.1641C222.172 62.7446 222.995 62.1152 222.995 61.2761C222.995 60.4369 222.172 59.8266 220.527 59.4452C218.882 59.0256 216.72 58.8159 214.041 58.8159C211.362 58.8159 209.2 59.0256 207.555 59.4452C205.909 59.8266 205.087 60.4369 205.087 61.2761C205.087 62.1152 205.89 62.7446 207.497 63.1641C209.143 63.5455 211.324 63.7363 214.041 63.7363Z" fill="white"/>
</g>
<defs>
<clipPath id="clip0_319_485">
<rect width="256" height="115" fill="white"/>
</clipPath>
</defs>
</svg>
