<svg width="256" height="60" viewBox="0 0 256 60" fill="none" xmlns="http://www.w3.org/2000/svg">
<g clip-path="url(#clip0_319_468)">
<path fill-rule="evenodd" clip-rule="evenodd" d="M134.188 20.2452L134.152 20.7277C134.02 22.0184 133.54 23.0315 132.7 23.7915C131.847 24.5511 130.827 24.9371 129.626 24.9371H121.703C120.503 24.9371 119.567 24.5511 118.907 23.7915C118.246 23.0315 117.97 22.006 118.102 20.7277L118.138 20.2452C118.27 18.9545 118.75 17.9409 119.591 17.1813C120.431 16.4213 121.463 16.0354 122.664 16.0354H130.587C131.787 16.0354 132.723 16.4213 133.384 17.1813C134.044 17.9409 134.32 18.9545 134.188 20.2452ZM141.907 13.8401C141.055 12.1997 139.938 10.9933 138.558 10.1971C137.177 9.41328 135.713 9.01499 134.152 9.01499H120.551C118.102 9.01499 115.749 9.98009 113.505 11.898C111.26 13.8277 109.963 16.3367 109.639 19.4367L109.435 21.5358C109.111 24.6358 109.855 27.1447 111.68 29.0745C113.505 30.9924 115.653 31.9575 118.138 31.9575H131.739C133.3 31.9575 134.848 31.5596 136.397 30.7754C137.934 29.9792 139.314 28.7732 140.514 27.1447C141.715 25.5281 142.435 23.6588 142.663 21.5358L142.855 19.4367C143.071 17.3503 142.759 15.4805 141.907 13.8401ZM142.207 34.0562H107.154L106.386 41.3421H112.328L111.956 44.84L111.26 51.4502H119.555L119.711 49.8821H119.723L120.599 41.3421H126.577L125.905 47.7111L125.509 51.4502H133.792L133.96 49.8821H133.972L134.848 41.3421H141.451L142.219 34.0562H142.207ZM242.048 42.0779C241.964 42.886 241.64 43.5251 241.076 44.0077C240.523 44.4902 239.911 44.7196 239.263 44.7196H227.21C226.562 44.7196 226.022 44.5021 225.602 44.0562C225.169 43.5975 225.014 42.9464 225.097 42.0779C225.218 41.2213 225.53 40.546 226.034 40.0634C226.538 39.5809 227.138 39.3515 227.811 39.3515H239.863C240.595 39.3515 241.171 39.5809 241.591 40.0392C242.024 40.5098 242.168 41.1851 242.048 42.0779ZM248.938 35.2383C247.666 33.4651 245.925 32.5728 243.704 32.5728H225.53C223.333 32.5728 221.4 33.4651 219.719 35.2626C218.039 37.06 217.043 39.3638 216.706 42.1745C216.371 44.997 216.827 47.2404 218.075 48.917C219.335 50.6059 221.076 51.4383 223.297 51.4383H241.46C243.681 51.4383 245.637 50.5936 247.33 48.8932C249.022 47.2042 250.019 44.9485 250.331 42.126C250.667 39.3153 250.199 37.0115 248.938 35.2383ZM250.475 31.4749L251.171 24.7924H255.145L255.901 17.6154H251.903L252.252 14.5154L254.088 9.90775H244.893L242.624 31.4749H250.475ZM227.955 16.4214H242.06L242.744 9.90775H220.032L217.847 30.8358H239.071L241.483 24.3222H227.162L227.955 16.4214ZM107.442 32.1745L108.21 24.7924H104.117L105.186 14.5154L106.986 9.90775H97.7905L93.457 51.4502H101.308L101.464 49.9302V49.9183L103.313 32.1745H107.442ZM72.1732 10.5831L71.405 17.929H77.383L66.6992 50.7021H74.8984L81.5967 30.9685L84.1656 50.7021H92.3288L89.5676 30.9685H89.5795L87.7788 17.929H94.6813L94.7656 17.3137L95.4499 10.5831H72.1732ZM168.485 44.2489C168.376 45.3226 167.5 45.8532 165.832 45.8532H154.163C152.555 45.8532 151.81 45.3226 151.943 44.2489C152.075 43.1153 152.927 42.5481 154.524 42.5481H166.18C166.96 42.5481 167.56 42.6809 167.981 42.9221C168.389 43.1877 168.557 43.6217 168.485 44.2489ZM175.375 38.857C174.007 37.5664 172.194 36.9149 169.925 36.9149H151.859C149.602 36.9149 147.657 37.5664 146.024 38.8813C144.404 40.1962 143.48 42.0175 143.239 44.3336C143.011 46.6613 143.552 48.4345 144.884 49.6408C146.204 50.8472 148.017 51.4502 150.298 51.4502H168.365C170.682 51.4502 172.65 50.8349 174.283 49.6166C175.904 48.3864 176.828 46.6132 177.068 44.2974C177.296 41.9694 176.732 40.16 175.375 38.857ZM177.944 28.1579L179.757 22.923H155.052L155.208 21.5839H179.012L179.541 16.4818H155.796L155.952 15.1426H177.5L179.685 15.1065L180.225 9.91966H147.489L145.46 28.1579H157.356L157.176 29.8949H144.188L143.54 35.9379H178.844L179.481 29.8949H166.372L166.552 28.1579H177.944ZM197.619 19.2077L197.499 20.2813C197.379 21.5958 196.923 22.6332 196.167 23.4052C195.399 24.1894 194.498 24.5754 193.478 24.5754H192.41C191.389 24.5754 190.573 24.1894 189.96 23.4052C189.349 22.6332 189.096 21.5958 189.228 20.2813L189.349 19.2077C189.493 17.8928 189.96 16.8554 190.729 16.0835C191.485 15.2996 192.385 14.9137 193.406 14.9137H194.474C195.495 14.9137 196.311 15.3116 196.923 16.0835C197.547 16.8554 197.776 17.8928 197.619 19.2077ZM202.901 11.3673C201.041 9.53371 198.76 8.61712 196.047 8.61712H193.13C190.429 8.61712 187.944 9.53371 185.699 11.3673C183.454 13.1886 182.182 15.6614 181.87 18.7613L181.641 20.7277C181.306 23.8277 182.074 26.3005 183.947 28.1337C185.807 29.9673 188.088 30.872 190.801 30.872H193.706C196.419 30.872 198.892 29.9673 201.149 28.1337C203.394 26.3005 204.678 23.8277 205.014 20.7277L205.242 18.7613C205.554 15.6614 204.774 13.2005 202.901 11.3673ZM206.731 30.8358L208.951 9.90775H218.339L216.502 14.5154L214.774 30.8358H206.731ZM188.46 32.1745H182.662L182.086 37.4098H205.482L205.314 38.8813H181.942L180.717 50.7749H212.709L213.261 45.5396L191.149 45.5034H189.913L190.081 44.0319H191.305V44.02H213.405L214.173 36.7341V36.7221L214.654 32.1745H188.46Z" fill="#221F20"/>
<path fill-rule="evenodd" clip-rule="evenodd" d="M41.3409 3.43703C38.2799 1.7481 35.0749 0.698738 31.8454 0.252357C21.6778 -1.1587 11.3422 3.40086 5.11178 12.4715C4.22923 13.7625 3.44279 15.1172 2.75888 16.5247C2.52161 17.0072 2.3014 17.498 2.09866 17.9961C-1.35871 27.477 2.36291 38.4174 11.0059 43.2182C14.1872 44.9795 17.6085 45.6791 20.9456 45.4259C17.6322 39.6118 17.1643 32.1331 20.3091 25.6434C23.4544 19.1421 29.4328 15.2459 35.7949 14.7876C36.7913 14.7153 37.8119 14.7272 38.8203 14.8357C41.1609 15.0651 43.5138 15.7766 45.7346 17.0068C54.3539 21.7838 58.0751 32.6757 54.666 42.1446C60.2001 27.6578 54.5821 10.783 41.3409 3.43703Z" fill="#DE2726"/>
<path fill-rule="evenodd" clip-rule="evenodd" d="M15.4584 56.7042C18.5075 58.3927 21.7129 59.442 24.942 59.8884C35.11 61.2999 45.4457 56.7403 51.6761 47.6693C52.5586 46.3784 53.3451 45.0238 54.029 43.6165C54.2662 43.1339 54.4864 42.6429 54.6892 42.1446C58.1461 32.6638 54.4249 21.7234 45.7819 16.9345C42.6125 15.1613 39.1793 14.4741 35.8422 14.7153C39.1552 20.5294 39.6236 28.0076 36.4783 34.4974C33.333 40.9868 27.3551 44.8948 20.9926 45.3535C19.9848 45.4277 18.9725 45.4115 17.9676 45.305C15.6147 45.0761 13.2736 44.3642 11.0528 43.134C2.43398 38.3574 -1.28764 27.4651 2.10959 17.9962C-3.41229 32.4949 2.20572 49.3582 15.4584 56.7042Z" fill="#234799"/>
<path fill-rule="evenodd" clip-rule="evenodd" d="M47.8467 24.1119C51.3879 26.0663 54.089 29.0578 55.8299 32.5557C55.1337 26.1144 51.5561 20.1438 45.7699 16.9349C42.5887 15.1617 39.1555 14.4744 35.8184 14.7157C37.0758 16.9279 37.9219 19.3517 38.3153 21.8685C41.5206 21.6995 44.7976 22.4114 47.8467 24.1119Z" fill="#182145"/>
</g>
<defs>
<clipPath id="clip0_319_468">
<rect width="256" height="60" fill="white"/>
</clipPath>
</defs>
</svg>
