<svg width="256" height="85" viewBox="0 0 256 85" fill="none" xmlns="http://www.w3.org/2000/svg">
<g clip-path="url(#clip0_319_461)">
<mask id="mask0_319_461" style="mask-type:luminance" maskUnits="userSpaceOnUse" x="0" y="0" width="256" height="85">
<path d="M0 0H256V85H0V0Z" fill="white"/>
</mask>
<g mask="url(#mask0_319_461)">
<path fill-rule="evenodd" clip-rule="evenodd" d="M63.5526 64.7877H37.8867V52.1523H19.5684V80.5898H81.871V0.200684H63.5526V64.7877ZM137.268 49.4752H162.828V0.200684H144.508V9.32235H111.702V0.200684H93.3826V49.4752H118.942V64.7824H92.6542V80.5898H163.543V64.7824H137.255V49.4752H137.268ZM111.709 24.5975H144.514V33.2128H111.709V24.5975ZM226.038 0.200684V32.8084H192.234V16.0295H217.136V0.200684H173.927V49.5424H192.802C191.803 52.3656 191.293 55.34 191.295 58.3363C191.295 73.0355 203.191 85.0002 217.821 85.0002C232.442 85.0002 244.343 73.0419 244.343 58.3363V16.0295H255.799V0.200684H226.038ZM217.821 66.5973C213.286 66.5973 209.601 62.8936 209.601 58.3363C209.601 53.7789 213.286 50.0752 217.821 50.0752C222.348 50.0752 226.038 53.7789 226.038 58.3363C226.038 62.8936 222.354 66.5973 217.821 66.5973Z" fill="#D6001C"/>
<path fill-rule="evenodd" clip-rule="evenodd" d="M42.5812 49.8758L56.9106 40.8201L41.2479 16.0273H55.4497V0.200684H1.66014V16.0273H15.8619L0.199219 40.8201L14.5286 50.3186L28.5517 29.3831L42.5812 49.8758Z" fill="#D6001C"/>
</g>
</g>
<defs>
<clipPath id="clip0_319_461">
<rect width="256" height="85" fill="white"/>
</clipPath>
</defs>
</svg>
