<svg width="391" height="376" viewBox="0 0 391 376" fill="none" xmlns="http://www.w3.org/2000/svg">
<rect x="0.5" y="0.5" width="390" height="375" rx="7.5" stroke="#DDDDDD"/>
<path d="M153.758 40.824C156.958 40.824 159.006 41.88 159.006 43.64C159.006 45.368 156.958 46.424 153.758 46.424C150.558 46.424 148.51 45.368 148.51 43.64C148.51 41.88 150.558 40.824 153.758 40.824ZM153.758 42.424C151.758 42.424 150.622 42.84 150.622 43.64C150.622 44.424 151.758 44.824 153.758 44.824C155.758 44.824 156.894 44.424 156.894 43.64C156.894 42.84 155.758 42.424 153.758 42.424ZM148.67 32.264H158.046V33.944H148.67V32.264ZM147.166 38.216H160.51V39.912H147.166V38.216ZM152.11 35.64H154.222V38.648H152.11V35.64ZM156.814 32.264H158.926V33.48C158.926 34.648 158.926 35.912 158.526 37.448L156.414 37.224C156.814 35.704 156.814 34.632 156.814 33.48V32.264ZM173.211 33.528H175.771V35.272H173.211V33.528ZM173.211 36.744H175.771V38.488H173.211V36.744ZM171.739 31.608H173.867V40.344H171.739V31.608ZM163.979 40.952H173.867V46.424H171.739V42.648H163.979V40.952ZM166.331 32.408C168.619 32.408 170.363 33.928 170.363 36.04C170.363 38.152 168.619 39.656 166.331 39.656C164.043 39.656 162.299 38.152 162.299 36.04C162.299 33.928 164.043 32.408 166.331 32.408ZM166.331 34.216C165.211 34.216 164.379 34.872 164.379 36.04C164.379 37.208 165.211 37.88 166.331 37.88C167.451 37.88 168.283 37.208 168.283 36.04C168.283 34.872 167.451 34.216 166.331 34.216ZM191.406 31.592H193.55V46.456H191.406V31.592ZM185.566 32.632C187.806 32.632 189.454 34.68 189.454 37.912C189.454 41.176 187.806 43.224 185.566 43.224C183.326 43.224 181.678 41.176 181.678 37.912C181.678 34.68 183.326 32.632 185.566 32.632ZM185.566 34.568C184.462 34.568 183.71 35.736 183.71 37.912C183.71 40.12 184.462 41.304 185.566 41.304C186.67 41.304 187.406 40.12 187.406 37.912C187.406 35.736 186.67 34.568 185.566 34.568ZM206.923 31.608H208.939V40.888H206.923V31.608ZM205.115 35.256H207.483V36.984H205.115V35.256ZM203.851 31.896H205.835V40.408H203.851V31.896ZM196.251 33.128H203.435V34.76H196.251V33.128ZM199.867 35.24C201.723 35.24 203.067 36.296 203.067 37.832C203.067 39.368 201.723 40.408 199.867 40.408C198.011 40.408 196.667 39.368 196.667 37.832C196.667 36.296 198.011 35.24 199.867 35.24ZM199.867 36.76C199.083 36.76 198.555 37.144 198.555 37.832C198.555 38.52 199.083 38.904 199.867 38.904C200.635 38.904 201.163 38.52 201.163 37.832C201.163 37.144 200.635 36.76 199.867 36.76ZM198.795 31.752H200.891V34.248H198.795V31.752ZM203.931 41.048C207.099 41.048 209.019 42.008 209.019 43.736C209.019 45.448 207.099 46.424 203.931 46.424C200.747 46.424 198.827 45.448 198.827 43.736C198.827 42.008 200.747 41.048 203.931 41.048ZM203.931 42.632C201.947 42.632 200.955 42.968 200.955 43.736C200.955 44.488 201.947 44.84 203.931 44.84C205.899 44.84 206.891 44.488 206.891 43.736C206.891 42.968 205.899 42.632 203.931 42.632ZM225.631 31.624H227.759V42.904H225.631V31.624ZM223.695 35.288H226.431V36.984H223.695V35.288ZM223.695 38.472H226.431V40.152H223.695V38.472ZM215.407 33.16H223.535V34.824H215.407V33.16ZM219.567 35.352C221.583 35.352 223.039 36.552 223.039 38.264C223.039 39.976 221.583 41.176 219.567 41.176C217.551 41.176 216.095 39.976 216.095 38.264C216.095 36.552 217.551 35.352 219.567 35.352ZM219.567 36.984C218.703 36.984 218.095 37.448 218.095 38.264C218.095 39.096 218.703 39.544 219.567 39.544C220.431 39.544 221.039 39.096 221.039 38.264C221.039 37.448 220.431 36.984 219.567 36.984ZM218.511 31.576H220.639V34.184H218.511V31.576ZM217.951 44.472H228.079V46.168H217.951V44.472ZM217.951 41.976H220.095V45.256H217.951V41.976ZM240.06 31.624H242.188V41.608H240.06V31.624ZM241.436 35.8H244.044V37.56H241.436V35.8ZM237.228 41.752C240.428 41.752 242.268 42.584 242.268 44.104C242.268 45.624 240.428 46.44 237.228 46.44C234.028 46.44 232.188 45.624 232.188 44.104C232.188 42.584 234.028 41.752 237.228 41.752ZM237.228 43.288C235.212 43.288 234.316 43.528 234.316 44.104C234.316 44.664 235.212 44.904 237.228 44.904C239.212 44.904 240.124 44.664 240.124 44.104C240.124 43.528 239.212 43.288 237.228 43.288ZM233.788 38.136H235.916V40.312H233.788V38.136ZM230.492 41.224L230.252 39.624C232.892 39.624 236.412 39.608 239.404 39.208L239.564 40.648C236.46 41.192 233.068 41.224 230.492 41.224ZM230.636 32.664H239.036V34.2H230.636V32.664ZM234.844 34.568C237.036 34.568 238.444 35.368 238.444 36.68C238.444 37.992 237.036 38.792 234.844 38.792C232.652 38.792 231.228 37.992 231.228 36.68C231.228 35.368 232.652 34.568 234.844 34.568ZM234.844 35.928C233.836 35.928 233.244 36.184 233.244 36.68C233.244 37.192 233.836 37.432 234.844 37.432C235.852 37.432 236.428 37.192 236.428 36.68C236.428 36.184 235.852 35.928 234.844 35.928ZM233.788 31.496H235.916V33.336H233.788V31.496Z" fill="black"/>
<path d="M292.413 126.681C278.605 106.802 259.017 91.6505 236.306 83.2802C213.595 74.91 188.859 73.7263 165.453 79.8897C142.046 86.0531 121.101 99.2654 105.457 117.735C89.8137 136.205 80.2283 159.039 78.0008 183.14L154.777 190.236C155.549 181.883 158.871 173.969 164.293 167.568C169.715 161.167 176.974 156.588 185.086 154.452C193.198 152.316 201.771 152.726 209.643 155.627C217.514 158.528 224.302 163.779 229.088 170.669L292.413 126.681Z" fill="#E61E2B" fill-opacity="0.6"/>
<path d="M78.0648 182.469C76.3756 199.672 78.4866 217.036 84.2487 233.334C90.0107 249.631 99.2829 264.463 111.41 276.782C123.536 289.1 138.222 298.604 154.426 304.621C170.631 310.638 187.96 313.021 205.188 311.602C222.415 310.182 239.121 304.996 254.123 296.408C269.124 287.82 282.056 276.042 292.004 261.905C301.951 247.768 308.671 231.618 311.688 214.597C314.706 197.577 313.947 180.101 309.465 163.407L234.998 183.397C236.551 189.183 236.814 195.24 235.769 201.139C234.723 207.038 232.394 212.635 228.946 217.534C225.499 222.434 221.017 226.516 215.817 229.492C210.618 232.469 204.828 234.266 198.858 234.758C192.887 235.25 186.881 234.424 181.265 232.339C175.648 230.254 170.559 226.96 166.356 222.69C162.153 218.421 158.94 213.281 156.943 207.632C154.946 201.984 154.214 195.966 154.799 190.004L78.0648 182.469Z" fill="#E61E2B" fill-opacity="0.3"/>
<path d="M309.619 163.985C306.078 150.524 300.184 137.795 292.209 126.388L229.017 170.567C231.781 174.521 233.824 178.932 235.051 183.598L309.619 163.985Z" fill="#E61E2B"/>
<rect width="16" height="16" transform="translate(24 336)" fill="#E61E2B"/>
<path d="M52.472 338.576H53.468V349.448H52.472V338.576ZM47.744 339.416C49.352 339.416 50.504 340.892 50.504 343.196C50.504 345.512 49.352 346.988 47.744 346.988C46.148 346.988 44.996 345.512 44.996 343.196C44.996 340.892 46.148 339.416 47.744 339.416ZM47.744 340.316C46.688 340.316 45.944 341.444 45.944 343.196C45.944 344.96 46.688 346.112 47.744 346.112C48.812 346.112 49.544 344.96 49.544 343.196C49.544 341.444 48.812 340.316 47.744 340.316ZM64.1731 338.588H65.1211V345.452H64.1731V338.588ZM62.4091 341.528H64.4611V342.356H62.4091V341.528ZM61.8571 338.804H62.7931V345.068H61.8571V338.804ZM55.9291 339.884H61.4251V340.676H55.9291V339.884ZM58.6891 341.228C60.0451 341.228 60.9931 341.972 60.9931 343.088C60.9931 344.216 60.0451 344.948 58.6891 344.948C57.3211 344.948 56.3731 344.216 56.3731 343.088C56.3731 341.972 57.3211 341.228 58.6891 341.228ZM58.6891 341.972C57.8371 341.972 57.2611 342.416 57.2611 343.088C57.2611 343.772 57.8371 344.204 58.6891 344.204C59.5291 344.204 60.1051 343.772 60.1051 343.088C60.1051 342.416 59.5291 341.972 58.6891 341.972ZM58.1971 338.672H59.1691V340.328H58.1971V338.672ZM61.5691 345.644C63.8251 345.644 65.1811 346.316 65.1811 347.528C65.1811 348.728 63.8251 349.412 61.5691 349.412C59.2891 349.412 57.9451 348.728 57.9451 347.528C57.9451 346.316 59.2891 345.644 61.5691 345.644ZM61.5691 346.412C59.9011 346.412 58.9291 346.808 58.9291 347.528C58.9291 348.248 59.9011 348.656 61.5691 348.656C63.2131 348.656 64.1971 348.248 64.1971 347.528C64.1971 346.808 63.2131 346.412 61.5691 346.412Z" fill="black"/>
<rect width="16" height="16" transform="translate(141 336)" fill="#E61E2B" fill-opacity="0.6"/>
<path d="M164.48 339.776H165.308V340.88C165.308 342.872 164.084 344.54 162.26 345.2L161.744 344.408C163.376 343.832 164.48 342.428 164.48 340.88V339.776ZM164.672 339.776H165.5V340.88C165.5 342.344 166.628 343.664 168.236 344.204L167.72 344.984C165.92 344.372 164.672 342.788 164.672 340.88V339.776ZM162.008 339.488H167.948V340.292H162.008V339.488ZM169.484 338.6H170.492V346.532H169.484V338.6ZM163.52 348.38H170.816V349.196H163.52V348.38ZM163.52 345.788H164.504V348.74H163.52V345.788ZM181.173 338.588H182.121V345.452H181.173V338.588ZM179.409 341.528H181.461V342.356H179.409V341.528ZM178.857 338.804H179.793V345.068H178.857V338.804ZM172.929 339.884H178.425V340.676H172.929V339.884ZM175.689 341.228C177.045 341.228 177.993 341.972 177.993 343.088C177.993 344.216 177.045 344.948 175.689 344.948C174.321 344.948 173.373 344.216 173.373 343.088C173.373 341.972 174.321 341.228 175.689 341.228ZM175.689 341.972C174.837 341.972 174.261 342.416 174.261 343.088C174.261 343.772 174.837 344.204 175.689 344.204C176.529 344.204 177.105 343.772 177.105 343.088C177.105 342.416 176.529 341.972 175.689 341.972ZM175.197 338.672H176.169V340.328H175.197V338.672ZM178.569 345.644C180.825 345.644 182.181 346.316 182.181 347.528C182.181 348.728 180.825 349.412 178.569 349.412C176.289 349.412 174.945 348.728 174.945 347.528C174.945 346.316 176.289 345.644 178.569 345.644ZM178.569 346.412C176.901 346.412 175.929 346.808 175.929 347.528C175.929 348.248 176.901 348.656 178.569 348.656C180.213 348.656 181.197 348.248 181.197 347.528C181.197 346.808 180.213 346.412 178.569 346.412ZM188.77 344.012H189.766V345.908H188.77V344.012ZM184.366 343.664H194.17V344.468H184.366V343.664ZM189.262 345.608C191.59 345.608 192.982 346.292 192.982 347.516C192.982 348.728 191.59 349.412 189.262 349.412C186.934 349.412 185.542 348.728 185.542 347.516C185.542 346.292 186.934 345.608 189.262 345.608ZM189.262 346.376C187.57 346.376 186.55 346.784 186.55 347.516C186.55 348.236 187.57 348.644 189.262 348.644C190.966 348.644 191.974 348.236 191.974 347.516C191.974 346.784 190.966 346.376 189.262 346.376ZM188.626 339.476H189.514V339.8C189.514 341.552 187.522 342.728 185.278 343.004L184.918 342.212C186.862 342.008 188.626 341.036 188.626 339.8V339.476ZM189.046 339.476H189.922V339.8C189.922 341.036 191.686 342.008 193.63 342.212L193.27 343.004C191.026 342.728 189.046 341.552 189.046 339.8V339.476ZM185.266 339.08H193.294V339.884H185.266V339.08Z" fill="black"/>
<rect width="16" height="16" transform="translate(258 336)" fill="#E61E2B" fill-opacity="0.3"/>
<path d="M286.904 338.588H287.864V349.436H286.904V338.588ZM284.816 338.852H285.764V348.872H284.816V338.852ZM278.696 339.944H283.652V340.76H278.696V339.944ZM278.6 346.796L278.48 345.956C279.92 345.956 282.26 345.92 283.88 345.716L283.94 346.448C282.26 346.748 280.016 346.796 278.6 346.796ZM279.596 340.484H280.508V346.16H279.596V340.484ZM281.852 340.484H282.764V346.16H281.852V340.484ZM283.4 341.672H285.332V342.488H283.4V341.672ZM283.4 343.976H285.332V344.792H283.4V343.976ZM297.885 338.588H298.881V349.436H297.885V338.588ZM294.705 339.752H295.689C295.689 342.896 294.273 345.644 290.649 347.42L290.121 346.616C293.253 345.104 294.705 342.8 294.705 339.92V339.752ZM290.613 339.752H295.137V340.568H290.613V339.752Z" fill="black"/>
</svg>
