<svg width="64" height="80" viewBox="0 0 64 80" fill="none" xmlns="http://www.w3.org/2000/svg">
<g clip-path="url(#clip0_372_1235)">
<path d="M54 24.059V19C53.9984 17.6744 53.4711 16.4036 52.5338 15.4662C51.5964 14.5289 50.3256 14.0016 49 14H15C13.6744 14.0016 12.4036 14.5289 11.4662 15.4662C10.5289 16.4036 10.0016 17.6744 10 19V24.059C7.80142 24.3072 5.77101 25.3557 4.29568 27.0046C2.82035 28.6534 2.00322 30.7875 2 33V57C2.00291 59.3861 2.95206 61.6735 4.63925 63.3607C6.32645 65.0479 8.61395 65.9971 11 66H53C55.3861 65.9971 57.6735 65.0479 59.3607 63.3607C61.0479 61.6735 61.9971 59.3861 62 57V33C61.9968 30.7875 61.1797 28.6534 59.7043 27.0046C58.229 25.3557 56.1986 24.3072 54 24.059ZM49 16C49.7956 16 50.5587 16.3161 51.1213 16.8787C51.6839 17.4413 52 18.2044 52 19V24H50V18H41V16H49ZM37 20H48V24H16V20H37ZM39 16V18H37V16H39ZM35 18H33V16H35V18ZM31 16V18H29V16H31ZM27 16V18H25V16H27ZM12 19C12 18.2044 12.3161 17.4413 12.8787 16.8787C13.4413 16.3161 14.2044 16 15 16H23V18H14V24H12V19ZM53 64H11C9.14413 63.9979 7.36489 63.2597 6.05259 61.9474C4.7403 60.6351 4.00212 58.8559 4 57V46H10V50H16V46H20V51H26V57H38V51H44V46H48V50H54V46H60V57C59.9979 58.8559 59.2597 60.6351 57.9474 61.9474C56.6351 63.2597 54.8559 63.9979 53 64ZM14 44H12V42H14V44ZM14 46V48H12V46H14ZM42 41V49H36V55H28V49H22V41H28V35H36V41H42ZM52 44H50V42H52V44ZM52 46V48H50V46H52ZM60 44H54V40H48V44H44V39H38V33H26V39H20V44H16V40H10V44H4V33C4.00212 31.1441 4.7403 29.3649 6.05259 28.0526C7.36489 26.7403 9.14413 26.0021 11 26H53C54.8559 26.0021 56.6351 26.7403 57.9474 28.0526C59.2597 29.3649 59.9979 31.1441 60 33V44Z" fill="#222222"/>
</g>
<defs>
<clipPath id="clip0_372_1235">
<rect width="64" height="80" fill="white"/>
</clipPath>
</defs>
</svg>
