<svg width="64" height="80" viewBox="0 0 64 80" fill="none" xmlns="http://www.w3.org/2000/svg">
<path d="M46 43C46.5523 43 47 42.5523 47 42C47 41.4477 46.5523 41 46 41C45.4477 41 45 41.4477 45 42C45 42.5523 45.4477 43 46 43Z" fill="#222222"/>
<path d="M50 43C50.5523 43 51 42.5523 51 42C51 41.4477 50.5523 41 50 41C49.4477 41 49 41.4477 49 42C49 42.5523 49.4477 43 50 43Z" fill="#222222"/>
<path d="M61 64H57.816C57.9344 63.6797 57.9967 63.3414 58 63V55C57.9942 54.1774 57.7831 53.3694 57.386 52.649C57.895 52.1872 58.3015 51.6239 58.5795 50.9955C58.8575 50.367 59.0007 49.6872 59 49V41C59 38.0826 57.8411 35.2847 55.7782 33.2218C53.7153 31.1589 50.9174 30 48 30C45.0826 30 42.2847 31.1589 40.2218 33.2218C38.1589 35.2847 37 38.0826 37 41V44C37 44.2652 37.1054 44.5196 37.2929 44.7071C37.4804 44.8946 37.7348 45 38 45C38.2652 45 38.5196 44.8946 38.7071 44.7071C38.8946 44.5196 39 44.2652 39 44V41C39 38.6131 39.9482 36.3239 41.636 34.636C43.3239 32.9482 45.6131 32 48 32C50.3869 32 52.6761 32.9482 54.364 34.636C56.0518 36.3239 57 38.6131 57 41V49C56.9993 49.3944 56.9193 49.7846 56.7647 50.1475C56.6101 50.5103 56.384 50.8383 56.1 51.112C55.2239 50.3984 54.13 50.006 53 50H52V49.736C52.9253 49.0924 53.6813 48.2348 54.2037 47.236C54.726 46.2373 54.9992 45.1271 55 44V43C55 42.7348 54.8946 42.4804 54.7071 42.2929C54.5196 42.1054 54.2652 42 54 42C53.7348 42 53.4804 42.1054 53.2929 42.2929C53.1054 42.4804 53 42.7348 53 43V44C53 45.3261 52.4732 46.5979 51.5355 47.5355C50.5979 48.4732 49.3261 49 48 49C46.6739 49 45.4021 48.4732 44.4645 47.5355C43.5268 46.5979 43 45.3261 43 44V39.9C43.681 39.7663 44.328 39.4964 44.9021 39.1065C45.4762 38.7166 45.9656 38.2147 46.341 37.631C48.3108 39.1718 50.7412 40.0061 53.242 40H54C54.2652 40 54.5196 39.8946 54.7071 39.7071C54.8946 39.5196 55 39.2652 55 39C55 38.7348 54.8946 38.4804 54.7071 38.2929C54.5196 38.1054 54.2652 38 54 38H53.242C52.0278 38.0034 50.825 37.7659 49.7033 37.3012C48.5816 36.8365 47.5631 36.154 46.707 35.293C46.5866 35.1726 46.4374 35.085 46.2737 35.0384C46.1099 34.9918 45.937 34.9878 45.7712 35.0268C45.6055 35.0657 45.4524 35.1463 45.3265 35.261C45.2007 35.3757 45.1062 35.5206 45.052 35.682L45 35.838C44.7904 36.4678 44.3878 37.0156 43.8493 37.4036C43.3108 37.7917 42.6638 38.0004 42 38C41.7348 38 41.4804 38.1054 41.2929 38.2929C41.1054 38.4804 41 38.7348 41 39V44C41.0008 45.1271 41.274 46.2373 41.7963 47.236C42.3187 48.2348 43.0747 49.0924 44 49.736V50H43C41.87 50.006 40.7761 50.3984 39.9 51.112C39.616 50.8383 39.3899 50.5103 39.2353 50.1475C39.0807 49.7846 39.0007 49.3944 39 49V48C39 47.7348 38.8946 47.4804 38.7071 47.2929C38.5196 47.1054 38.2652 47 38 47C37.7348 47 37.4804 47.1054 37.2929 47.2929C37.1054 47.4804 37 47.7348 37 48V49C36.9993 49.6872 37.1425 50.367 37.4205 50.9955C37.6985 51.6239 38.105 52.1872 38.614 52.649C38.2169 53.3694 38.0058 54.1774 38 55V60H35C34.2596 60.0026 33.5467 60.2806 33 60.78C32.4547 60.2784 31.7409 60 31 60C30.2591 60 29.5453 60.2784 29 60.78C28.4533 60.2806 27.7404 60.0026 27 60H24V58H30C31.0609 58 32.0783 57.5786 32.8284 56.8284C33.5786 56.0783 34 55.0609 34 54V40C34 38.9391 33.5786 37.9217 32.8284 37.1716C32.0783 36.4214 31.0609 36 30 36H8C6.93913 36 5.92172 36.4214 5.17157 37.1716C4.42143 37.9217 4 38.9391 4 40V54C4 55.0609 4.42143 56.0783 5.17157 56.8284C5.92172 57.5786 6.93913 58 8 58H11C11.2652 58 11.5196 57.8946 11.7071 57.7071C11.8946 57.5196 12 57.2652 12 57C12 56.7348 11.8946 56.4804 11.7071 56.2929C11.5196 56.1054 11.2652 56 11 56H8C7.46957 56 6.96086 55.7893 6.58579 55.4142C6.21071 55.0391 6 54.5304 6 54V40C6 39.4696 6.21071 38.9609 6.58579 38.5858C6.96086 38.2107 7.46957 38 8 38H30C30.5304 38 31.0391 38.2107 31.4142 38.5858C31.7893 38.9609 32 39.4696 32 40V54C32 54.5304 31.7893 55.0391 31.4142 55.4142C31.0391 55.7893 30.5304 56 30 56H24V52C24 50.6739 23.4732 49.4021 22.5355 48.4645C21.5979 47.5268 20.3261 47 19 47C17.6739 47 16.4021 47.5268 15.4645 48.4645C14.5268 49.4021 14 50.6739 14 52V60H11C10.2044 60 9.44129 60.3161 8.87868 60.8787C8.31607 61.4413 8 62.2044 8 63V64H3C2.73478 64 2.48043 64.1054 2.29289 64.2929C2.10536 64.4804 2 64.7348 2 65C2 65.2652 2.10536 65.5196 2.29289 65.7071C2.48043 65.8946 2.73478 66 3 66H61C61.2652 66 61.5196 65.8946 61.7071 65.7071C61.8946 65.5196 62 65.2652 62 65C62 64.7348 61.8946 64.4804 61.7071 64.2929C61.5196 64.1054 61.2652 64 61 64ZM51.414 52H51.523L50.529 54.484L49.569 53.845L51.414 52ZM49.839 50.747L48 52.586L46.161 50.747C47.3638 51.0843 48.6362 51.0843 49.839 50.747ZM44.586 52L46.431 53.845L45.471 54.484L44.477 52H44.586ZM42.353 52.075L44.071 56.375C44.1262 56.5133 44.2116 56.6376 44.321 56.7386C44.4303 56.8397 44.5609 56.9151 44.7031 56.9593C44.8453 57.0035 44.9956 57.0153 45.143 56.994C45.2904 56.9727 45.4311 56.9187 45.555 56.836L48 55.2L50.445 56.83C50.5689 56.9127 50.7096 56.9667 50.857 56.988C51.0044 57.0093 51.1547 56.9975 51.2969 56.9533C51.4391 56.9091 51.5697 56.8337 51.679 56.7326C51.7884 56.6316 51.8738 56.5073 51.929 56.369L53.647 52.069C54.3144 52.2164 54.9115 52.5873 55.3394 53.1203C55.7673 53.6533 56.0004 54.3165 56 55V58H54V57C54 56.7348 53.8946 56.4804 53.7071 56.2929C53.5196 56.1054 53.2652 56 53 56C52.7348 56 52.4804 56.1054 52.2929 56.2929C52.1054 56.4804 52 56.7348 52 57V60H49.107C48.3838 59.9909 47.6803 60.2363 47.1197 60.6933C46.5591 61.1503 46.1769 61.7898 46.04 62.5C45.9619 63.0045 46.0128 63.5205 46.188 64H44V57C44 56.7348 43.8946 56.4804 43.7071 56.2929C43.5196 56.1054 43.2652 56 43 56C42.7348 56 42.4804 56.1054 42.2929 56.2929C42.1054 56.4804 42 56.7348 42 57V58H40V55C40.001 54.3175 40.2347 53.6558 40.6625 53.124C41.0903 52.5922 41.6866 52.2222 42.353 52.075ZM16 52C16 51.2044 16.3161 50.4413 16.8787 49.8787C17.4413 49.3161 18.2044 49 19 49C19.7956 49 20.5587 49.3161 21.1213 49.8787C21.6839 50.4413 22 51.2044 22 52V60H16V52ZM10 63C10 62.7348 10.1054 62.4804 10.2929 62.2929C10.4804 62.1054 10.7348 62 11 62H27C27.2652 62 27.5196 62.1054 27.7071 62.2929C27.8946 62.4804 28 62.7348 28 63V64H10V63ZM30 64V63C30 62.7348 30.1054 62.4804 30.2929 62.2929C30.4804 62.1054 30.7348 62 31 62C31.2652 62 31.5196 62.1054 31.7071 62.2929C31.8946 62.4804 32 62.7348 32 63V64H30ZM35 64C34.7348 64 34.4804 63.8946 34.2929 63.7071C34.1054 63.5196 34 63.2652 34 63C34 62.7348 34.1054 62.4804 34.2929 62.2929C34.4804 62.1054 34.7348 62 35 62H39C39.2652 62 39.5196 61.8946 39.7071 61.7071C39.8946 61.5196 40 61.2652 40 61V60H42V64H35ZM49 64C48.8538 64.0001 48.7094 63.9681 48.5769 63.9063C48.4445 63.8445 48.3271 63.7544 48.2332 63.6424C48.1393 63.5304 48.0711 63.3992 48.0334 63.2579C47.9957 63.1167 47.9894 62.9689 48.015 62.825C48.0742 62.5828 48.2152 62.3685 48.4142 62.2181C48.6131 62.0678 48.8578 61.9908 49.107 62H53C53.2652 62 53.5196 61.8946 53.7071 61.7071C53.8946 61.5196 54 61.2652 54 61V60H56V63C56 63.2652 55.8946 63.5196 55.7071 63.7071C55.5196 63.8946 55.2652 64 55 64H49Z" fill="#222222"/>
<path d="M61 68H3C2.73478 68 2.48043 68.1054 2.29289 68.2929C2.10536 68.4804 2 68.7348 2 69C2 69.2652 2.10536 69.5196 2.29289 69.7071C2.48043 69.8946 2.73478 70 3 70H61C61.2652 70 61.5196 69.8946 61.7071 69.7071C61.8946 69.5196 62 69.2652 62 69C62 68.7348 61.8946 68.4804 61.7071 68.2929C61.5196 68.1054 61.2652 68 61 68Z" fill="#222222"/>
<path d="M24 44C24.2652 44 24.5196 43.8946 24.7071 43.7071C24.8946 43.5196 25 43.2652 25 43C25 42.7348 24.8946 42.4804 24.7071 42.2929C24.5196 42.1054 24.2652 42 24 42H14C13.7348 42 13.4804 42.1054 13.2929 42.2929C13.1054 42.4804 13 42.7348 13 43C13 43.2652 13.1054 43.5196 13.2929 43.7071C13.4804 43.8946 13.7348 44 14 44H24Z" fill="#222222"/>
<path d="M21.9738 23.9L24.9738 29.1C25.1064 29.3297 25.3248 29.4973 25.581 29.5659C25.8372 29.6345 26.1101 29.5986 26.3398 29.466L28.0238 28.494C28.3369 28.703 28.6629 28.892 28.9998 29.06V31C28.9998 31.2652 29.1052 31.5196 29.2927 31.7071C29.4802 31.8946 29.7346 32 29.9998 32H35.9998C36.265 32 36.5194 31.8946 36.7069 31.7071C36.8945 31.5196 36.9998 31.2652 36.9998 31V29.058C37.3369 28.8898 37.6632 28.7008 37.9768 28.492L39.6598 29.464C39.8895 29.5966 40.1624 29.6325 40.4186 29.5639C40.6748 29.4953 40.8932 29.3277 41.0258 29.098L44.0258 23.898C44.1584 23.6683 44.1944 23.3954 44.1257 23.1392C44.0571 22.883 43.8895 22.6646 43.6598 22.532L41.9788 21.561C41.9928 21.361 41.9998 21.179 41.9998 20.996C41.9998 20.813 41.9928 20.627 41.9788 20.431L43.6598 19.46C43.8895 19.3274 44.0571 19.109 44.1257 18.8528C44.1944 18.5966 44.1584 18.3237 44.0258 18.094L41.0258 12.894C40.8923 12.6662 40.674 12.5005 40.4187 12.433C40.1634 12.3655 39.8918 12.4017 39.6631 12.5337C39.4344 12.6658 39.2673 12.8829 39.1981 13.1377C39.1289 13.3926 39.1633 13.6644 39.2938 13.894L41.7938 18.223L40.4148 19.023C40.2432 19.1223 40.105 19.2704 40.0177 19.4485C39.9305 19.6265 39.8981 19.8265 39.9248 20.023C39.9721 20.3466 39.9972 20.673 39.9998 21C39.9968 21.3247 39.9718 21.6487 39.9248 21.97C39.8981 22.1665 39.9305 22.3665 40.0177 22.5445C40.105 22.7226 40.2432 22.8707 40.4148 22.97L41.7938 23.77L39.7938 27.232L38.4158 26.438C38.2433 26.3385 38.045 26.2928 37.8464 26.3067C37.6478 26.3206 37.4578 26.3935 37.3008 26.516C36.7894 26.9156 36.225 27.2424 35.6238 27.487C35.4393 27.5619 35.2814 27.6901 35.1703 27.8552C35.0591 28.0204 34.9997 28.2149 34.9998 28.414V30H30.9998V28.413C30.9999 28.2139 30.9405 28.0194 30.8294 27.8542C30.7182 27.6891 30.5603 27.5609 30.3758 27.486C29.7748 27.2411 29.2104 26.9144 28.6988 26.515C28.5419 26.3925 28.3519 26.3196 28.1532 26.3057C27.9546 26.2918 27.7563 26.3375 27.5838 26.437L26.2058 27.231L24.2058 23.769L25.5848 22.969C25.7566 22.8698 25.895 22.7218 25.9825 22.5437C26.0699 22.3656 26.1024 22.1656 26.0758 21.969C25.9745 21.3263 25.9745 20.6717 26.0758 20.029C26.1024 19.8324 26.0699 19.6324 25.9825 19.4543C25.895 19.2762 25.7566 19.1282 25.5848 19.029L24.2058 18.229L26.2058 14.767L27.5838 15.561C27.7562 15.661 27.9546 15.7072 28.1534 15.6936C28.3523 15.6801 28.5426 15.6074 28.6998 15.485C29.2114 15.0856 29.7758 14.7589 30.3768 14.514C30.5611 14.439 30.7188 14.3107 30.8298 14.1456C30.9408 13.9804 31 13.786 30.9998 13.587V12H34.9998V13.587C34.9998 13.8522 35.1052 14.1066 35.2927 14.2941C35.4802 14.4816 35.7346 14.587 35.9998 14.587C36.265 14.587 36.5194 14.4816 36.7069 14.2941C36.8945 14.1066 36.9998 13.8522 36.9998 13.587V11C36.9998 10.7348 36.8945 10.4804 36.7069 10.2929C36.5194 10.1054 36.265 10 35.9998 10H29.9998C29.7346 10 29.4802 10.1054 29.2927 10.2929C29.1052 10.4804 28.9998 10.7348 28.9998 11V12.942C28.6629 13.11 28.3369 13.299 28.0238 13.508L26.3398 12.536C26.1101 12.4034 25.8372 12.3675 25.581 12.4361C25.3248 12.5047 25.1064 12.6723 24.9738 12.902L21.9738 18.102C21.8412 18.3317 21.8053 18.6046 21.8739 18.8608C21.9426 19.117 22.1101 19.3354 22.3398 19.468L24.0208 20.439C24.0068 20.639 23.9998 20.821 23.9998 21.004C23.9998 21.187 24.0068 21.373 24.0208 21.569L22.3398 22.54C22.1118 22.6726 21.9453 22.8899 21.8768 23.1446C21.8082 23.3994 21.8431 23.6709 21.9738 23.9Z" fill="#222222"/>
<path d="M33 17C32.2089 17 31.4355 17.2346 30.7777 17.6741C30.1199 18.1136 29.6072 18.7384 29.3045 19.4693C29.0017 20.2002 28.9225 21.0044 29.0769 21.7804C29.2312 22.5563 29.6122 23.269 30.1716 23.8284C30.731 24.3878 31.4437 24.7688 32.2196 24.9231C32.9956 25.0775 33.7998 24.9983 34.5307 24.6955C35.2616 24.3928 35.8864 23.8801 36.3259 23.2223C36.7654 22.5645 37 21.7911 37 21C37 19.9391 36.5786 18.9217 35.8284 18.1716C35.0783 17.4214 34.0609 17 33 17ZM33 23C32.6044 23 32.2178 22.8827 31.8889 22.6629C31.56 22.4432 31.3036 22.1308 31.1522 21.7654C31.0009 21.3999 30.9613 20.9978 31.0384 20.6098C31.1156 20.2219 31.3061 19.8655 31.5858 19.5858C31.8655 19.3061 32.2219 19.1156 32.6098 19.0384C32.9978 18.9613 33.3999 19.0009 33.7654 19.1522C34.1308 19.3036 34.4432 19.56 34.6629 19.8889C34.8827 20.2178 35 20.6044 35 21C35 21.5304 34.7893 22.0391 34.4142 22.4142C34.0391 22.7893 33.5304 23 33 23Z" fill="#222222"/>
<path d="M11 25C11 25.5933 11.1759 26.1734 11.5056 26.6667C11.8352 27.1601 12.3038 27.5446 12.8519 27.7716C13.4001 27.9987 14.0033 28.0581 14.5853 27.9424C15.1672 27.8266 15.7018 27.5409 16.1213 27.1213C16.5409 26.7018 16.8266 26.1672 16.9424 25.5853C17.0581 25.0033 16.9987 24.4001 16.7716 23.8519C16.5446 23.3038 16.1601 22.8352 15.6667 22.5056C15.1734 22.1759 14.5933 22 14 22C13.2044 22 12.4413 22.3161 11.8787 22.8787C11.3161 23.4413 11 24.2044 11 25ZM15 25C15 25.1978 14.9414 25.3911 14.8315 25.5556C14.7216 25.72 14.5654 25.8482 14.3827 25.9239C14.2 25.9996 13.9989 26.0194 13.8049 25.9808C13.6109 25.9422 13.4327 25.847 13.2929 25.7071C13.153 25.5673 13.0578 25.3891 13.0192 25.1951C12.9806 25.0011 13.0004 24.8 13.0761 24.6173C13.1518 24.4346 13.28 24.2784 13.4444 24.1685C13.6089 24.0586 13.8022 24 14 24C14.2652 24 14.5196 24.1054 14.7071 24.2929C14.8946 24.4804 15 24.7348 15 25Z" fill="#222222"/>
<path d="M5.10602 27.009C5.07202 27.1359 5.06335 27.2682 5.08051 27.3984C5.09767 27.5287 5.14032 27.6543 5.20602 27.768L7.20602 31.232C7.33857 31.4617 7.55691 31.6293 7.81302 31.698C8.06942 31.7644 8.34157 31.7285 8.57202 31.598L10.026 30.758C10.3351 30.9706 10.6608 31.1579 11 31.318V33C11 33.2652 11.1054 33.5196 11.2929 33.7071C11.4805 33.8946 11.7348 34 12 34H16C16.2652 34 16.5196 33.8946 16.7071 33.7071C16.8947 33.5196 17 33.2652 17 33V31.319C17.3392 31.1589 17.665 30.9716 17.974 30.759L19.428 31.599C19.658 31.731 19.9307 31.7669 20.187 31.699C20.4431 31.6303 20.6615 31.4627 20.794 31.233L22.794 27.769C22.8598 27.6552 22.9026 27.5296 22.9198 27.3993C22.937 27.269 22.9284 27.1366 22.8944 27.0096C22.8604 26.8827 22.8017 26.7637 22.7217 26.6594C22.6417 26.5551 22.5419 26.4677 22.428 26.402L20.976 25.564C20.992 25.375 21 25.188 21 25.001C20.9987 24.5732 20.9582 24.1464 20.879 23.726C20.8567 23.5955 20.8087 23.4708 20.7379 23.3591C20.667 23.2473 20.5746 23.1507 20.4662 23.0749C20.3577 22.9991 20.2352 22.9455 20.1059 22.9174C19.9766 22.8893 19.843 22.8871 19.7128 22.911C19.5826 22.9349 19.4585 22.9844 19.3476 23.0566C19.2367 23.1288 19.1413 23.2223 19.0668 23.3317C18.9923 23.4411 18.9402 23.5642 18.9137 23.6938C18.8871 23.8235 18.8866 23.9571 18.912 24.087C19.0293 24.6907 19.0293 25.3113 18.912 25.915C18.8747 26.1181 18.9012 26.3278 18.9879 26.5153C19.0745 26.7028 19.2171 26.8588 19.396 26.962L20.562 27.635L19.562 29.367L18.4 28.692C18.2208 28.5887 18.014 28.5435 17.808 28.5627C17.6021 28.5819 17.4071 28.6644 17.25 28.799C16.7839 29.1965 16.2487 29.505 15.671 29.709C15.4761 29.7778 15.3073 29.9054 15.1879 30.0741C15.0684 30.2427 15.0042 30.4443 15.004 30.651V32H13V30.651C12.9998 30.4443 12.9356 30.2427 12.8161 30.0741C12.6967 29.9054 12.5279 29.7778 12.333 29.709C11.7554 29.505 11.2202 29.1965 10.754 28.799C10.5969 28.6644 10.402 28.5819 10.196 28.5627C9.99007 28.5435 9.78323 28.5887 9.60402 28.692L8.43802 29.366L7.43802 27.634L8.60002 26.961C8.77894 26.8578 8.92153 26.7018 9.00819 26.5143C9.09485 26.3268 9.12134 26.1171 9.08402 25.914C8.9667 25.3103 8.9667 24.6897 9.08402 24.086C9.12134 23.8829 9.09485 23.6732 9.00819 23.4857C8.92153 23.2982 8.77894 23.1422 8.60002 23.039L7.43402 22.366L8.43402 20.634L9.60002 21.308C9.77897 21.4122 9.98599 21.4578 10.1922 21.4387C10.3983 21.4195 10.5934 21.3364 10.75 21.201C11.2162 20.8035 11.7514 20.495 12.329 20.291C12.5247 20.2228 12.6943 20.0956 12.8145 19.9268C12.9347 19.7581 12.9995 19.5562 13 19.349V18H15V19.349C15.0002 19.5557 15.0644 19.7573 15.1839 19.9259C15.3033 20.0946 15.4721 20.2222 15.667 20.291C16.2447 20.495 16.7799 20.8035 17.246 21.201C17.4031 21.3356 17.5981 21.4181 17.804 21.4373C18.01 21.4565 18.2168 21.4113 18.396 21.308L20.428 20.134C20.5418 20.0683 20.6416 19.9809 20.7216 19.8767C20.8016 19.7725 20.8603 19.6535 20.8943 19.5267C20.9283 19.3998 20.937 19.2674 20.9199 19.1372C20.9028 19.0069 20.8602 18.8813 20.7945 18.7675C20.7289 18.6537 20.6414 18.554 20.5372 18.474C20.433 18.394 20.3141 18.3353 20.1872 18.3012C20.0603 18.2672 19.9279 18.2585 19.7977 18.2756C19.6674 18.2927 19.5418 18.3353 19.428 18.401L17.974 19.241C17.665 19.0284 17.3392 18.8411 17 18.681V17C17 16.7348 16.8947 16.4804 16.7071 16.2929C16.5196 16.1054 16.2652 16 16 16H12C11.7348 16 11.4805 16.1054 11.2929 16.2929C11.1054 16.4804 11 16.7348 11 17V18.681C10.6608 18.8411 10.3351 19.0284 10.026 19.241L8.57202 18.4C8.3416 18.2694 8.06941 18.2335 7.81302 18.3C7.55691 18.3687 7.33857 18.5363 7.20602 18.766L5.20602 22.23C5.13974 22.3439 5.09662 22.4698 5.07914 22.6004C5.06167 22.731 5.07018 22.8638 5.10419 22.9911C5.13821 23.1184 5.19705 23.2377 5.27733 23.3422C5.35762 23.4467 5.45777 23.5343 5.57202 23.6L7.02402 24.438C7.00802 24.626 7.00002 24.813 7.00002 25C7.00002 25.187 7.00802 25.374 7.02402 25.563L5.57202 26.4C5.4581 26.4659 5.35829 26.5536 5.27833 26.6581C5.19836 26.7626 5.13981 26.8818 5.10602 27.009Z" fill="#222222"/>
<path d="M59 13.5H57C56.7348 13.5 56.4804 13.6054 56.2929 13.7929C56.1054 13.9804 56 14.2348 56 14.5C56 14.7652 56.1054 15.0196 56.2929 15.2071C56.4804 15.3946 56.7348 15.5 57 15.5H59C59.2652 15.5 59.5196 15.6054 59.7071 15.7929C59.8946 15.9804 60 16.2348 60 16.5V22.5C60 22.7652 59.8946 23.0196 59.7071 23.2071C59.5196 23.3946 59.2652 23.5 59 23.5H55C54.8025 23.5003 54.6095 23.5587 54.445 23.668L50 26.632V24.5C50 24.2348 49.8946 23.9804 49.7071 23.7929C49.5196 23.6054 49.2652 23.5 49 23.5C48.7348 23.5 48.4804 23.3946 48.2929 23.2071C48.1054 23.0196 48 22.7652 48 22.5V16.5C48 16.2348 48.1054 15.9804 48.2929 15.7929C48.4804 15.6054 48.7348 15.5 49 15.5H53C53.2652 15.5 53.5196 15.3946 53.7071 15.2071C53.8946 15.0196 54 14.7652 54 14.5C54 14.2348 53.8946 13.9804 53.7071 13.7929C53.5196 13.6054 53.2652 13.5 53 13.5H49C48.2044 13.5 47.4413 13.8161 46.8787 14.3787C46.3161 14.9413 46 15.7044 46 16.5V22.5C46.0008 23.1203 46.1934 23.7251 46.5514 24.2316C46.9095 24.7381 47.4155 25.1214 48 25.329V28.5C48 28.681 48.0491 28.8587 48.1421 29.014C48.2352 29.1693 48.3686 29.2965 48.5282 29.3819C48.6879 29.4673 48.8677 29.5078 49.0485 29.499C49.2293 29.4902 49.4044 29.4325 49.555 29.332L55.3 25.5H59C59.7956 25.5 60.5587 25.1839 61.1213 24.6213C61.6839 24.0587 62 23.2956 62 22.5V16.5C62 15.7044 61.6839 14.9413 61.1213 14.3787C60.5587 13.8161 59.7956 13.5 59 13.5Z" fill="#222222"/>
</svg>
