<svg width="64" height="80" viewBox="0 0 64 80" fill="none" xmlns="http://www.w3.org/2000/svg">
<path d="M19.788 30.6032C19.788 30.3793 19.8769 30.1647 20.0352 30.0064C20.1935 29.8481 20.4082 29.7592 20.632 29.7592H21.656C21.8798 29.7592 22.0945 29.8481 22.2528 30.0064C22.4111 30.1647 22.5 30.3793 22.5 30.6032V33.9132C22.5 34.137 22.4111 34.3517 22.2528 34.51C22.0945 34.6683 21.8798 34.7572 21.656 34.7572C21.4322 34.7572 21.2175 34.6683 21.0592 34.51C20.9009 34.3517 20.812 34.137 20.812 33.9132V31.4465H20.632C20.4083 31.4465 20.1937 31.3577 20.0354 31.1995C19.8772 31.0414 19.7882 30.8269 19.788 30.6032ZM17.4853 29.7592H16.4613C16.2375 29.7592 16.0228 29.8481 15.8645 30.0064C15.7063 30.1647 15.6173 30.3793 15.6173 30.6032C15.6173 30.827 15.7063 31.0417 15.8645 31.2C16.0228 31.3583 16.2375 31.4472 16.4613 31.4472H16.6413V33.9138C16.6413 34.1377 16.7303 34.3524 16.8885 34.5106C17.0468 34.6689 17.2615 34.7578 17.4853 34.7578C17.7092 34.7578 17.9239 34.6689 18.0821 34.5106C18.2404 34.3524 18.3293 34.1377 18.3293 33.9138V30.6032C18.3293 30.3793 18.2404 30.1647 18.0821 30.0064C17.9239 29.8481 17.7092 29.7592 17.4853 29.7592ZM27.9653 34.7592C28.0762 34.7593 28.186 34.7375 28.2885 34.6951C28.391 34.6527 28.4841 34.5906 28.5626 34.5122C28.641 34.4338 28.7032 34.3408 28.7457 34.2383C28.7881 34.1359 28.81 34.0261 28.81 33.9152V31.4485H28.894C29.1178 31.4485 29.3325 31.3596 29.4908 31.2013C29.6491 31.043 29.738 30.8283 29.738 30.6045C29.738 30.3807 29.6491 30.166 29.4908 30.0077C29.3325 29.8494 29.1178 29.7605 28.894 29.7605H27.9653C27.7415 29.7605 27.5268 29.8494 27.3685 30.0077C27.2103 30.166 27.1213 30.3807 27.1213 30.6045V33.9132C27.1213 34.137 27.2103 34.3517 27.3685 34.51C27.5268 34.6683 27.7415 34.7572 27.9653 34.7572V34.7592ZM31.746 34.7592C31.8568 34.7592 31.9666 34.7373 32.069 34.6949C32.1714 34.6525 32.2644 34.5903 32.3428 34.512C32.4212 34.4336 32.4833 34.3406 32.5258 34.2382C32.5682 34.1358 32.59 34.026 32.59 33.9152V31.4485H32.6747C32.8985 31.4485 33.1132 31.3596 33.2715 31.2013C33.4297 31.043 33.5187 30.8283 33.5187 30.6045C33.5187 30.3807 33.4297 30.166 33.2715 30.0077C33.1132 29.8494 32.8985 29.7605 32.6747 29.7605H31.746C31.5222 29.7605 31.3075 29.8494 31.1492 30.0077C30.9909 30.166 30.902 30.3807 30.902 30.6045V33.9132C30.902 34.137 30.9909 34.3517 31.1492 34.51C31.3075 34.6683 31.5222 34.7572 31.746 34.7572V34.7592ZM27.9653 41.1132C28.0765 41.1133 28.1865 41.0914 28.2891 41.0489C28.3918 41.0063 28.485 40.9439 28.5635 40.8653C28.642 40.7866 28.7042 40.6932 28.7465 40.5905C28.7888 40.4877 28.8104 40.3776 28.81 40.2665V37.7998H28.894C29.1178 37.7998 29.3325 37.7109 29.4908 37.5526C29.6491 37.3944 29.738 37.1797 29.738 36.9558C29.738 36.732 29.6491 36.5173 29.4908 36.359C29.3325 36.2008 29.1178 36.1118 28.894 36.1118H27.9653C27.7415 36.1118 27.5268 36.2008 27.3685 36.359C27.2103 36.5173 27.1213 36.732 27.1213 36.9558V40.2665C27.121 40.3776 27.1426 40.4876 27.1848 40.5903C27.2271 40.693 27.2892 40.7864 27.3676 40.865C27.446 40.9437 27.5392 41.0061 27.6417 41.0487C27.7443 41.0913 27.8543 41.1132 27.9653 41.1132ZM7.92 45.3332C8.03089 45.3333 8.14071 45.3115 8.24319 45.2691C8.34567 45.2267 8.43879 45.1646 8.51723 45.0862C8.59567 45.0078 8.6579 44.9148 8.70036 44.8123C8.74281 44.7099 8.76467 44.6001 8.76467 44.4892V43.2438H9.74533C9.85821 43.247 9.97058 43.2275 10.0758 43.1865C10.181 43.1455 10.2769 43.0838 10.3579 43.0051C10.4388 42.9264 10.5032 42.8322 10.5471 42.7282C10.5911 42.6242 10.6137 42.5124 10.6137 42.3995C10.6137 42.2866 10.5911 42.1748 10.5471 42.0708C10.5032 41.9668 10.4388 41.8726 10.3579 41.7939C10.2769 41.7152 10.181 41.6535 10.0758 41.6125C9.97058 41.5715 9.85821 41.552 9.74533 41.5552H7.92C7.80911 41.5552 7.6993 41.577 7.59686 41.6195C7.49442 41.6619 7.40135 41.7242 7.32297 41.8026C7.24458 41.8811 7.18243 41.9742 7.14005 42.0766C7.09768 42.1791 7.07591 42.2889 7.076 42.3998V44.4892C7.076 44.713 7.16492 44.9277 7.3232 45.086C7.48148 45.2442 7.69616 45.3332 7.92 45.3332ZM11.6373 45.3332C11.7482 45.3332 11.8579 45.3113 11.9603 45.2689C12.0627 45.2265 12.1558 45.1643 12.2341 45.086C12.3125 45.0076 12.3747 44.9146 12.4171 44.8122C12.4595 44.7098 12.4813 44.6 12.4813 44.4892V43.2438H13.4627C13.6825 43.2377 13.8912 43.146 14.0445 42.9883C14.1978 42.8307 14.2836 42.6194 14.2836 42.3995C14.2836 42.1796 14.1978 41.9684 14.0445 41.8107C13.8912 41.653 13.6825 41.5613 13.4627 41.5552H11.6373C11.4133 41.5552 11.1985 41.6442 11.0401 41.8026C10.8817 41.961 10.7927 42.1758 10.7927 42.3998V44.4892C10.7927 44.6001 10.8145 44.7099 10.857 44.8123C10.8994 44.9148 10.9617 45.0078 11.0401 45.0862C11.1185 45.1646 11.2117 45.2267 11.3141 45.2691C11.4166 45.3115 11.5264 45.3333 11.6373 45.3332ZM15.354 45.3332C15.5778 45.3332 15.7925 45.2442 15.9508 45.086C16.1091 44.9277 16.198 44.713 16.198 44.4892V43.2438H17.178C17.3978 43.2377 17.6066 43.146 17.7599 42.9883C17.9132 42.8307 17.9989 42.6194 17.9989 42.3995C17.9989 42.1796 17.9132 41.9684 17.7599 41.8107C17.6066 41.653 17.3978 41.5613 17.178 41.5552H15.354C15.1303 41.5555 14.9158 41.6447 14.7578 41.8031C14.5998 41.9615 14.5112 42.1761 14.5113 42.3998V44.4892C14.5113 44.7128 14.6001 44.9273 14.7581 45.0855C14.9161 45.2437 15.1304 45.3328 15.354 45.3332ZM7.92 50.8792C8.03089 50.8793 8.14071 50.8575 8.24319 50.8151C8.34567 50.7727 8.43879 50.7106 8.51723 50.6322C8.59567 50.5538 8.6579 50.4608 8.70036 50.3583C8.74281 50.2559 8.76467 50.1461 8.76467 50.0352V48.7898H9.74533C9.85821 48.793 9.97058 48.7735 10.0758 48.7325C10.181 48.6915 10.2769 48.6298 10.3579 48.5511C10.4388 48.4724 10.5032 48.3782 10.5471 48.2742C10.5911 48.1702 10.6137 48.0584 10.6137 47.9455C10.6137 47.8326 10.5911 47.7208 10.5471 47.6168C10.5032 47.5128 10.4388 47.4186 10.3579 47.3399C10.2769 47.2612 10.181 47.1995 10.0758 47.1585C9.97058 47.1175 9.85821 47.098 9.74533 47.1012H7.92C7.80911 47.1012 7.6993 47.123 7.59686 47.1655C7.49442 47.2079 7.40135 47.2702 7.32297 47.3486C7.24458 47.4271 7.18243 47.5202 7.14005 47.6226C7.09768 47.7251 7.07591 47.8349 7.076 47.9458V50.0352C7.076 50.259 7.16492 50.4737 7.3232 50.632C7.48148 50.7903 7.69616 50.8792 7.92 50.8792ZM11.6373 50.8792C11.7482 50.8792 11.8579 50.8573 11.9603 50.8149C12.0627 50.7725 12.1558 50.7103 12.2341 50.632C12.3125 50.5536 12.3747 50.4606 12.4171 50.3582C12.4595 50.2558 12.4813 50.146 12.4813 50.0352V48.7898H13.4627C13.6825 48.7837 13.8912 48.692 14.0445 48.5343C14.1978 48.3767 14.2836 48.1654 14.2836 47.9455C14.2836 47.7256 14.1978 47.5144 14.0445 47.3567C13.8912 47.199 13.6825 47.1073 13.4627 47.1012H11.6373C11.4133 47.1012 11.1985 47.1902 11.0401 47.3486C10.8817 47.507 10.7927 47.7218 10.7927 47.9458V50.0352C10.7927 50.1461 10.8145 50.2559 10.857 50.3583C10.8994 50.4608 10.9617 50.5538 11.0401 50.6322C11.1185 50.7106 11.2117 50.7727 11.3141 50.8151C11.4166 50.8575 11.5264 50.8793 11.6373 50.8792ZM15.354 50.8792C15.5778 50.8792 15.7925 50.7903 15.9508 50.632C16.1091 50.4737 16.198 50.259 16.198 50.0352V48.7898H17.178C17.3978 48.7837 17.6066 48.692 17.7599 48.5343C17.9132 48.3767 17.9989 48.1654 17.9989 47.9455C17.9989 47.7256 17.9132 47.5144 17.7599 47.3567C17.6066 47.199 17.3978 47.1073 17.178 47.1012H15.354C15.1303 47.1015 14.9158 47.1907 14.7578 47.3491C14.5998 47.5075 14.5112 47.7221 14.5113 47.9458V50.0352C14.5113 50.2588 14.6001 50.4733 14.7581 50.6315C14.9161 50.7897 15.1304 50.8788 15.354 50.8792ZM7.92 56.4252C8.03089 56.4253 8.14071 56.4035 8.24319 56.3611C8.34567 56.3187 8.43879 56.2566 8.51723 56.1782C8.59567 56.0998 8.6579 56.0068 8.70036 55.9043C8.74281 55.8019 8.76467 55.6921 8.76467 55.5812V54.3332H9.74533C9.85821 54.3363 9.97058 54.3168 10.0758 54.2758C10.181 54.2348 10.2769 54.1732 10.3579 54.0944C10.4388 54.0157 10.5032 53.9216 10.5471 53.8176C10.5911 53.7135 10.6137 53.6018 10.6137 53.4888C10.6137 53.3759 10.5911 53.2641 10.5471 53.1601C10.5032 53.0561 10.4388 52.962 10.3579 52.8832C10.2769 52.8045 10.181 52.7428 10.0758 52.7018C9.97058 52.6608 9.85821 52.6413 9.74533 52.6445H7.92C7.80911 52.6445 7.6993 52.6664 7.59686 52.7088C7.49442 52.7513 7.40135 52.8135 7.32297 52.8919C7.24458 52.9704 7.18243 53.0635 7.14005 53.166C7.09768 53.2685 7.07591 53.3783 7.076 53.4892V55.5785C7.07565 55.6896 7.09722 55.7996 7.13948 55.9023C7.18174 56.005 7.24385 56.0984 7.32226 56.177C7.40066 56.2557 7.49382 56.3181 7.5964 56.3607C7.69897 56.4033 7.80894 56.4252 7.92 56.4252ZM11.6373 56.4252C11.7482 56.4252 11.8579 56.4033 11.9603 56.3609C12.0627 56.3185 12.1558 56.2563 12.2341 56.178C12.3125 56.0996 12.3747 56.0066 12.4171 55.9042C12.4595 55.8018 12.4813 55.692 12.4813 55.5812V54.3332H13.4627C13.6825 54.327 13.8912 54.2353 14.0445 54.0777C14.1978 53.92 14.2836 53.7087 14.2836 53.4888C14.2836 53.2689 14.1978 53.0577 14.0445 52.9C13.8912 52.7423 13.6825 52.6507 13.4627 52.6445H11.6373C11.4133 52.6445 11.1985 52.7335 11.0401 52.8919C10.8817 53.0503 10.7927 53.2652 10.7927 53.4892V55.5785C10.7923 55.6896 10.8139 55.7997 10.8562 55.9025C10.8985 56.0052 10.9607 56.0986 11.0392 56.1773C11.1176 56.2559 11.2109 56.3183 11.3135 56.3609C11.4162 56.4034 11.5262 56.4253 11.6373 56.4252ZM15.354 56.4252C15.5778 56.4252 15.7925 56.3363 15.9508 56.178C16.1091 56.0197 16.198 55.805 16.198 55.5812V54.3332H17.178C17.3978 54.327 17.6066 54.2353 17.7599 54.0777C17.9132 53.92 17.9989 53.7087 17.9989 53.4888C17.9989 53.2689 17.9132 53.0577 17.7599 52.9C17.6066 52.7423 17.3978 52.6507 17.178 52.6445H15.354C15.243 52.6447 15.1331 52.6668 15.0307 52.7095C14.9282 52.7522 14.8352 52.8146 14.7569 52.8934C14.6786 52.9721 14.6166 53.0654 14.5745 53.1681C14.5324 53.2708 14.5109 53.3808 14.5113 53.4918V55.5812C14.5113 55.8048 14.6001 56.0193 14.7581 56.1775C14.9161 56.3357 15.1304 56.4248 15.354 56.4252ZM22.5773 47.7585C22.4664 47.7584 22.3566 47.7802 22.2541 47.8226C22.1517 47.8649 22.0585 47.9271 21.9801 48.0055C21.9017 48.0839 21.8394 48.1769 21.797 48.2794C21.7545 48.3818 21.7327 48.4916 21.7327 48.6025V59.8412C21.7388 60.061 21.8305 60.2697 21.9882 60.423C22.1458 60.5763 22.3571 60.6621 22.577 60.6621C22.7969 60.6621 23.0082 60.5763 23.1658 60.423C23.3235 60.2697 23.4152 60.061 23.4213 59.8412V48.6038C23.4213 48.3801 23.3325 48.1655 23.1744 48.0073C23.0162 47.849 22.8017 47.76 22.578 47.7598L22.5773 47.7585ZM36.388 44.8572H35.62C35.5071 44.854 35.3948 44.8735 35.2895 44.9145C35.1843 44.9555 35.0884 45.0172 35.0075 45.0959C34.9265 45.1746 34.8621 45.2688 34.8182 45.3728C34.7742 45.4768 34.7516 45.5886 34.7516 45.7015C34.7516 45.8144 34.7742 45.9262 34.8182 46.0302C34.8621 46.1342 34.9265 46.2284 35.0075 46.3071C35.0884 46.3858 35.1843 46.4475 35.2895 46.4885C35.3948 46.5295 35.5071 46.549 35.62 46.5458H36.388C36.6078 46.5397 36.8166 46.448 36.9699 46.2903C37.1232 46.1327 37.2089 45.9214 37.2089 45.7015C37.2089 45.4816 37.1232 45.2704 36.9699 45.1127C36.8166 44.955 36.6078 44.8633 36.388 44.8572ZM37.8547 54.5238V54.3552C37.8547 54.2443 37.8328 54.1346 37.7904 54.0322C37.748 53.9298 37.6858 53.8367 37.6075 53.7584C37.5291 53.68 37.4361 53.6178 37.3337 53.5754C37.2313 53.533 37.1215 53.5112 37.0107 53.5112C36.8998 53.5112 36.7901 53.533 36.6877 53.5754C36.5853 53.6178 36.4922 53.68 36.4139 53.7584C36.3355 53.8367 36.2733 53.9298 36.2309 54.0322C36.1885 54.1346 36.1667 54.2443 36.1667 54.3552V54.5238C35.8274 54.6652 35.5368 54.9024 35.3305 55.2065C35.1242 55.5107 35.0112 55.8684 35.0053 56.2358V56.7818C35.0053 58.0865 35.976 58.5958 36.618 58.9325C37.26 59.2692 37.3273 59.3625 37.3273 59.5885V60.1332C37.3273 60.2138 37.2007 60.3332 37.0107 60.3332C36.8207 60.3332 36.694 60.2118 36.694 60.1332V59.5872C36.6878 59.3673 36.5962 59.1586 36.4385 59.0053C36.2808 58.852 36.0696 58.7662 35.8497 58.7662C35.6298 58.7662 35.4185 58.852 35.2608 59.0053C35.1032 59.1586 35.0115 59.3673 35.0053 59.5872V60.1332C35.0113 60.5007 35.1243 60.8585 35.3306 61.1627C35.5369 61.4669 35.8274 61.7043 36.1667 61.8458V62.0138C36.1667 62.2377 36.2556 62.4524 36.4139 62.6106C36.5722 62.7689 36.7868 62.8578 37.0107 62.8578C37.2345 62.8578 37.4492 62.7689 37.6075 62.6106C37.7657 62.4524 37.8547 62.2377 37.8547 62.0138V61.8458C38.1943 61.7047 38.4854 61.4674 38.692 61.1632C38.8987 60.8589 39.012 60.5009 39.018 60.1332V59.5872C39.018 58.2832 38.0473 57.7732 37.4053 57.4365C36.7633 57.0998 36.6967 57.0072 36.6967 56.7805V56.2345C36.6967 56.1538 36.8227 56.0345 37.0133 56.0345C37.204 56.0345 37.33 56.1558 37.33 56.2345V56.7805C37.33 57.0043 37.4189 57.219 37.5772 57.3773C37.7355 57.5356 37.9502 57.6245 38.174 57.6245C38.3978 57.6245 38.6125 57.5356 38.7708 57.3773C38.9291 57.219 39.018 57.0043 39.018 56.7805V56.2345C39.0117 55.8676 38.8986 55.5104 38.6925 55.2068C38.4863 54.9032 38.1961 54.6663 37.8573 54.5252L37.8547 54.5238ZM59.42 59.5445V60.4312C59.4197 61.0586 59.1705 61.6602 58.7273 62.1043C58.284 62.5483 57.6827 62.7984 57.0553 62.7998H55.598C55.6645 63.0202 55.6984 63.249 55.6987 63.4792V64.3658C55.6988 64.9237 55.5011 65.4634 55.1407 65.8892C55.5011 66.3149 55.6988 66.8547 55.6987 67.4125V68.2992C55.698 68.9268 55.4483 69.5285 55.0045 69.9723C54.5607 70.4162 53.959 70.6658 53.3313 70.6665H42.99C42.6415 70.6666 42.2973 70.5895 41.9821 70.441C41.6669 70.2924 41.3884 70.076 41.1667 69.8072C39.82 70.153 38.435 70.3268 37.0447 70.3245C33.8337 70.3836 30.6891 69.4075 28.076 67.5405C27.5899 67.1687 27.1359 66.7568 26.7187 66.3092H4.84467C4.62094 66.3093 4.4063 66.2207 4.24791 66.0627C4.08952 65.9047 4.00035 65.6902 4 65.4665V38.5932C4 38.4823 4.02185 38.3725 4.06431 38.27C4.10677 38.1676 4.16899 38.0745 4.24744 37.9961C4.32588 37.9178 4.419 37.8556 4.52148 37.8132C4.62395 37.7708 4.73377 37.7491 4.84467 37.7492H5.71133V20.0158C5.71133 19.792 5.80025 19.5773 5.95854 19.419C6.11682 19.2608 6.33149 19.1718 6.55533 19.1718H8.052V17.6252C8.05191 17.5143 8.07368 17.4045 8.11605 17.302C8.15843 17.1995 8.22058 17.1064 8.29897 17.0279C8.37735 16.9495 8.47042 16.8873 8.57286 16.8448C8.6753 16.8024 8.78511 16.7805 8.896 16.7805H10.0893V14.6518C10.0893 14.428 10.1783 14.2133 10.3365 14.055C10.4948 13.8968 10.7095 13.8078 10.9333 13.8078H13.1453V9.5105C13.1453 9.28666 13.2343 9.07199 13.3925 8.91371C13.5508 8.75543 13.7655 8.6665 13.9893 8.6665C14.2132 8.6665 14.4279 8.75543 14.5861 8.91371C14.7444 9.07199 14.8333 9.28666 14.8333 9.5105V13.8078H17.0447C17.2685 13.8078 17.4832 13.8968 17.6415 14.055C17.7997 14.2133 17.8887 14.428 17.8887 14.6518V16.7805H19.082C19.306 16.7805 19.5209 16.8695 19.6793 17.0279C19.8377 17.1863 19.9267 17.4012 19.9267 17.6252V19.1732H21.4227C21.5336 19.1731 21.6434 19.1948 21.7459 19.2372C21.8483 19.2796 21.9415 19.3418 22.0199 19.4201C22.0983 19.4985 22.1606 19.5916 22.203 19.694C22.2455 19.7965 22.2673 19.9063 22.2673 20.0172V23.9938L25.168 23.7318C25.2239 23.7265 25.2801 23.7265 25.336 23.7318L35.136 24.8078C35.3426 24.8305 35.5336 24.9286 35.6724 25.0834C35.8112 25.2381 35.8879 25.4386 35.888 25.6465V34.9545H38.3447C38.9634 35.0279 39.5319 35.3314 39.9373 35.8045C40.1669 36.0634 40.3365 36.3698 40.434 36.7018C41.8767 36.9485 42.7187 37.4118 43.1287 38.1685C43.7573 39.3332 43.09 40.6625 42.3167 42.2018C42.158 42.5185 41.9967 42.8432 41.8393 43.1752C42.0854 43.4176 42.2681 43.7169 42.3712 44.0466C42.4743 44.3763 42.4947 44.7264 42.4307 45.0658C42.7491 45.2367 43.0136 45.4929 43.1947 45.8056C43.3758 46.1183 43.4663 46.4753 43.456 46.8365C43.457 47.1668 43.3769 47.4924 43.2227 47.7845C43.3813 47.9012 43.5433 48.0185 43.71 48.1385C44.4657 48.6663 45.1938 49.2326 45.8913 49.8352L49.9913 47.4678C50.5354 47.1551 51.1812 47.0708 51.7873 47.2332C52.3935 47.3956 52.9106 47.7916 53.2253 48.3345L53.6687 49.1025C53.9817 49.6465 54.0663 50.2924 53.9038 50.8987C53.7414 51.5049 53.3451 52.022 52.802 52.3365L49.1087 54.4698C49.4235 55.3468 49.6454 56.2545 49.7707 57.1778H57.0553C57.6831 57.1785 58.2849 57.4283 58.7288 57.8722C59.1726 58.3162 59.4221 58.9181 59.4227 59.5458L59.42 59.5445ZM47.62 55.3265L44.0393 57.3932C44.0686 57.6559 44.0835 57.9201 44.084 58.1845C44.0844 59.1939 43.8678 60.1916 43.4487 61.1098H44.4487C44.3824 60.8895 44.3487 60.6606 44.3487 60.4305V59.5438C44.3494 58.9162 44.599 58.3145 45.0428 57.8707C45.4866 57.4269 46.0884 57.1772 46.716 57.1765H48.0647C47.9679 56.5491 47.8194 55.9308 47.6207 55.3278L47.62 55.3265ZM39.9313 54.0785C39.9632 53.9646 40.0033 53.8532 40.0513 53.7452C39.0585 53.0665 37.8671 52.7398 36.667 52.8172C35.4669 52.8945 34.3273 53.3715 33.4298 54.1721C32.5324 54.9726 31.9289 56.0505 31.7154 57.234C31.502 58.4175 31.6911 59.6384 32.2523 60.702C32.8136 61.7655 33.7149 62.6105 34.8124 63.1022C35.9099 63.5939 37.1404 63.7039 38.3077 63.4148C39.475 63.1256 40.5119 62.4539 41.253 61.5068C41.9941 60.5597 42.3967 59.3918 42.3967 58.1892C42.3967 58.0625 42.3907 57.9365 42.382 57.8105C42.2695 57.796 42.1581 57.7738 42.0487 57.7438C41.7481 57.6647 41.4662 57.5266 41.2193 57.3377C40.9725 57.1487 40.7656 56.9127 40.6107 56.6432L40.1673 55.8752C40.0111 55.6062 39.9098 55.3089 39.8693 55.0005C39.8288 54.6921 39.8499 54.3787 39.9313 54.0785ZM41.8767 54.1025C41.7216 54.1933 41.6086 54.3416 41.562 54.5151C41.5155 54.6887 41.5392 54.8736 41.628 55.0298L42.072 55.7978C42.1628 55.9529 42.3111 56.0659 42.4846 56.1125C42.6582 56.159 42.8431 56.1353 42.9993 56.0465L51.9547 50.8758C52.0319 50.8313 52.0996 50.772 52.1539 50.7013C52.2082 50.6305 52.2481 50.5498 52.2712 50.4637C52.2942 50.3776 52.3001 50.2878 52.2885 50.1994C52.2769 50.111 52.2479 50.0257 52.2033 49.9485L51.76 49.1805C51.6692 49.0255 51.5209 48.9124 51.3474 48.8659C51.1738 48.8193 50.9889 48.843 50.8327 48.9318L41.8767 54.1025ZM41.5433 47.0658C41.6025 47.0721 41.6619 47.0562 41.71 47.0212C41.7467 46.9676 41.7648 46.9034 41.7613 46.8385C41.7613 46.7512 41.74 46.5472 41.5433 46.5472H38.7353C38.6225 46.5503 38.5101 46.5309 38.4049 46.4898C38.2997 46.4488 38.2037 46.3872 38.1228 46.3084C38.0418 46.2297 37.9775 46.1356 37.9335 46.0316C37.8896 45.9275 37.8669 45.8158 37.8669 45.7028C37.8669 45.5899 37.8896 45.4781 37.9335 45.3741C37.9775 45.2701 38.0418 45.176 38.1228 45.0972C38.2037 45.0185 38.2997 44.9568 38.4049 44.9158C38.5101 44.8748 38.6225 44.8553 38.7353 44.8585H40.7353C40.7593 44.8046 40.7723 44.7466 40.7738 44.6877C40.7753 44.6288 40.7652 44.5702 40.744 44.5152C40.6826 44.4063 40.5899 44.3184 40.4779 44.2627C40.366 44.2071 40.2399 44.1864 40.116 44.2032H33.9113C33.7875 44.1865 33.6614 44.2072 33.5495 44.2629C33.4375 44.3185 33.3448 44.4064 33.2833 44.5152C33.2504 44.6201 33.2497 44.7324 33.2813 44.8377C33.3129 44.943 33.3754 45.0364 33.4607 45.1058C33.5791 45.224 33.6597 45.3748 33.6923 45.5389C33.7248 45.703 33.7079 45.8731 33.6436 46.0275C33.5793 46.182 33.4705 46.3139 33.3311 46.4064C33.1917 46.4989 33.028 46.5479 32.8607 46.5472H32.4773C32.2773 46.5472 32.2587 46.7512 32.2587 46.8385C32.2551 46.9035 32.2734 46.9678 32.3107 47.0212C32.3588 47.0562 32.4182 47.0721 32.4773 47.0658H41.5433ZM33.7433 42.5198C33.798 42.5198 33.8527 42.5145 33.908 42.5145H34.1247L33.596 38.4198C32.6527 38.6198 32.432 38.8865 32.3833 38.9732C32.172 39.3632 32.728 40.4698 33.218 41.4465C33.388 41.7785 33.5693 42.1412 33.7467 42.5198H33.7433ZM40.4233 38.4198L39.8953 42.5145H40.1113C40.1673 42.5145 40.222 42.5145 40.276 42.5198C40.454 42.1412 40.6347 41.7785 40.8013 41.4465C41.292 40.4698 41.8473 39.3632 41.6367 38.9732C41.5913 38.8832 41.37 38.6198 40.4267 38.4198H40.4233ZM38.254 36.6432H35.7687C35.5729 36.6992 35.4053 36.8265 35.2988 37C35.1923 37.1735 35.1546 37.3806 35.1933 37.5805L35.83 42.5138H38.196L38.8327 37.5805C38.8717 37.3806 38.8342 37.1733 38.7277 36.9997C38.6211 36.8261 38.4533 36.6989 38.2573 36.6432H38.254ZM34.1967 26.4052L26.086 25.5145V44.5445H28.716C28.8269 44.5445 28.9367 44.5664 29.0391 44.6088C29.1416 44.6513 29.2347 44.7135 29.313 44.7919C29.3914 44.8704 29.4536 44.9635 29.4959 45.066C29.5383 45.1685 29.5601 45.2783 29.56 45.3892V48.6938C29.8193 48.5012 30.074 48.3178 30.3193 48.1405C30.486 48.0205 30.648 47.9032 30.8073 47.7865C30.6528 47.4945 30.5727 47.1689 30.574 46.8385C30.5635 46.4771 30.6538 46.1198 30.8349 45.8068C31.016 45.4938 31.2807 45.2375 31.5993 45.0665C31.5349 44.7271 31.5552 44.377 31.6582 44.0473C31.7612 43.7175 31.9438 43.4182 32.19 43.1758C32.0333 42.8425 31.8713 42.5192 31.7127 42.2025C30.94 40.6632 30.272 39.3358 30.9007 38.1692C31.3107 37.4105 32.1533 36.9472 33.5953 36.7025C33.6931 36.3706 33.8627 36.0643 34.092 35.8052C34.126 35.7665 34.1587 35.7298 34.1967 35.6938V26.4052ZM11.778 16.7805H16.2013V15.4958H11.778V16.7805ZM9.73733 19.1732H18.236V18.4665H9.73733V19.1732ZM7.39667 37.7492H12.4673V25.6485C12.4673 25.4378 12.5461 25.2347 12.6882 25.0792C12.8303 24.9236 13.0255 24.8268 13.2353 24.8078L20.578 24.1458V20.8612H7.39667V37.7492ZM13.4513 60.5552H11.1053V64.6218H13.4513V60.5552ZM18.8687 39.4378H5.688V64.6205H9.41667V59.7112C9.41658 59.6003 9.43835 59.4905 9.48072 59.388C9.5231 59.2855 9.58525 59.1924 9.66363 59.1139C9.74201 59.0355 9.83509 58.9733 9.93753 58.9308C10.04 58.8884 10.1498 58.8665 10.2607 58.8665H14.2953C14.4062 58.8664 14.516 58.8882 14.6185 58.9306C14.721 58.9729 14.8141 59.0351 14.8926 59.1135C14.971 59.1919 15.0332 59.2849 15.0757 59.3874C15.1181 59.4898 15.14 59.5996 15.14 59.7105V64.6198H18.8687V39.4378ZM19.7113 37.7492C19.9352 37.7492 20.1499 37.8381 20.3081 37.9964C20.4664 38.1547 20.5553 38.3693 20.5553 38.5932V44.5445H24.396V25.4965L14.1553 26.4198V37.7492H19.7113ZM25.4593 64.6205C24.4732 62.9075 24.0022 60.9465 24.1027 58.9725C24.1329 57.3496 24.4427 55.7441 25.0187 54.2265C25.0104 54.1805 25.0061 54.1339 25.006 54.0872V48.6038C25.006 48.38 25.0949 48.1653 25.2532 48.007C25.4115 47.8488 25.6262 47.7598 25.85 47.7598C26.0738 47.7598 26.2885 47.8488 26.4468 48.007C26.6051 48.1653 26.694 48.38 26.694 48.6038V51.3458C27.0566 50.8987 27.4498 50.4773 27.8707 50.0845V46.2332H20.5567V64.6205H25.4593ZM40.6213 68.2038V67.4125C40.6212 66.8547 40.8189 66.3149 41.1793 65.8892C40.8189 65.4634 40.6212 64.9237 40.6213 64.3658V64.2665C39.5206 64.9201 38.2631 65.2626 36.983 65.2575C35.7029 65.2524 34.4481 64.8999 33.3527 64.2375C32.2572 63.5751 31.3622 62.6277 30.763 61.4965C30.1638 60.3652 29.8829 59.0926 29.9504 57.8142C30.0179 56.5358 30.4311 55.2998 31.1461 54.2379C31.8611 53.176 32.8509 52.3282 34.01 51.7848C35.1691 51.2414 36.454 51.0229 37.7275 51.1526C39.0011 51.2823 40.2156 51.7553 41.2413 52.5212L44.338 50.7332C43.8047 50.2938 43.256 49.8978 42.7193 49.5112C42.3593 49.2518 42.0147 49.0032 41.6847 48.7492C41.6387 48.7492 41.5927 48.7558 41.546 48.7558H32.4793C32.432 48.7558 32.386 48.7518 32.34 48.7492C32.01 49.0032 31.6653 49.2518 31.3053 49.5112C28.8107 51.3112 25.9827 53.3492 25.79 59.0305C25.7051 60.4067 25.9637 61.7823 26.5424 63.0338C27.1211 64.2853 28.0018 65.3732 29.1053 66.1998C32.0353 68.4438 36.582 69.2165 40.6227 68.2038H40.6213ZM54.0093 67.4125C54.0092 67.2326 53.9377 67.0601 53.8106 66.9328C53.6836 66.8055 53.5112 66.7337 53.3313 66.7332H42.99C42.81 66.7335 42.6375 66.8052 42.5103 66.9326C42.383 67.0599 42.3115 67.2325 42.3113 67.4125V68.2992C42.3115 68.4792 42.383 68.6518 42.5103 68.7791C42.6375 68.9064 42.81 68.9782 42.99 68.9785H53.3313C53.5115 68.9783 53.6841 68.9067 53.8115 68.7793C53.9389 68.652 54.0105 68.4793 54.0107 68.2992L54.0093 67.4125ZM53.3313 62.7998H42.99C42.81 62.8002 42.6375 62.8719 42.5103 62.9992C42.383 63.1266 42.3115 63.2992 42.3113 63.4792V64.3658C42.3115 64.5458 42.383 64.7184 42.5103 64.8458C42.6375 64.9731 42.81 65.0448 42.99 65.0452H53.3313C53.5115 65.045 53.6841 64.9734 53.8115 64.846C53.9389 64.7186 54.0105 64.546 54.0107 64.3658V63.4792C54.0105 63.2991 53.9389 63.1264 53.8115 62.999C53.6841 62.8716 53.5115 62.8 53.3313 62.7998ZM57.7313 59.5458C57.7312 59.3663 57.66 59.1941 57.5334 59.0668C57.4067 58.9396 57.2349 58.8676 57.0553 58.8665H46.7147C46.5346 58.8667 46.3619 58.9383 46.2345 59.0657C46.1071 59.193 46.0355 59.3657 46.0353 59.5458V60.4325C46.0355 60.6126 46.1071 60.7853 46.2345 60.9127C46.3619 61.04 46.5346 61.1117 46.7147 61.1118H57.0553C57.2355 61.1117 57.4081 61.04 57.5355 60.9127C57.6629 60.7853 57.7345 60.6126 57.7347 60.4325L57.7313 59.5458Z" fill="#222222"/>
</svg>
