<svg width="64" height="80" viewBox="0 0 64 80" fill="none" xmlns="http://www.w3.org/2000/svg">
<path d="M40 20.0059C40 18.4236 39.5308 16.8769 38.6518 15.5613C37.7727 14.2457 36.5233 13.2203 35.0615 12.6148C33.5997 12.0093 31.9911 11.8509 30.4393 12.1596C28.8874 12.4683 27.462 13.2302 26.3431 14.349C25.2243 15.4678 24.4624 16.8933 24.1537 18.4451C23.845 19.997 24.0035 21.6055 24.609 23.0673C25.2145 24.5291 26.2399 25.7786 27.5554 26.6576C28.871 27.5367 30.4178 28.0059 32 28.0059C34.121 28.0035 36.1545 27.1599 37.6542 25.6601C39.154 24.1603 39.9976 22.1269 40 20.0059ZM32 26.0059C30.8133 26.0059 29.6533 25.654 28.6666 24.9947C27.6799 24.3354 26.9109 23.3983 26.4567 22.302C26.0026 21.2056 25.8838 19.9992 26.1153 18.8353C26.3468 17.6714 26.9182 16.6023 27.7574 15.7632C28.5965 14.9241 29.6656 14.3527 30.8295 14.1212C31.9933 13.8896 33.1997 14.0085 34.2961 14.4626C35.3925 14.9167 36.3295 15.6857 36.9888 16.6724C37.6481 17.6591 38 18.8192 38 20.0059C37.9984 21.5967 37.3658 23.1219 36.2409 24.2467C35.116 25.3716 33.5908 26.0043 32 26.0059Z" fill="#222222"/>
<path d="M35 46.006H40C40.2652 46.006 40.5196 45.9006 40.7071 45.7131C40.8947 45.5255 41 45.2712 41 45.006V41.006C41 40.7407 40.8947 40.4864 40.7071 40.2988C40.5196 40.1113 40.2652 40.006 40 40.006H35V31.619C37.828 30.8888 40.2926 29.1523 41.9318 26.7349C43.5711 24.3176 44.2724 21.3854 43.9044 18.4879C43.5364 15.5905 42.1242 12.9267 39.9327 10.996C37.7412 9.06522 34.9207 8 32 8C29.0793 8 26.2588 9.06522 24.0673 10.996C21.8758 12.9267 20.4637 15.5905 20.0957 18.4879C19.7276 21.3854 20.429 24.3176 22.0682 26.7349C23.7075 29.1523 26.1721 30.8888 29 31.619V40.006H24C23.7348 40.006 23.4805 40.1113 23.2929 40.2988C23.1054 40.4864 23 40.7407 23 41.006V45.006C23 45.2712 23.1054 45.5255 23.2929 45.7131C23.4805 45.9006 23.7348 46.006 24 46.006H29V51.006C29 51.2712 29.1054 51.5255 29.2929 51.7131C29.4805 51.9006 29.7348 52.006 30 52.006H34C34.2652 52.006 34.5196 51.9006 34.7071 51.7131C34.8947 51.5255 35 51.2712 35 51.006V46.006ZM34 44.006C33.7348 44.006 33.4805 44.1113 33.2929 44.2988C33.1054 44.4864 33 44.7407 33 45.006V50.006H31V45.006C31 44.7407 30.8947 44.4864 30.7071 44.2988C30.5196 44.1113 30.2652 44.006 30 44.006H25V42.006H30C30.2652 42.006 30.5196 41.9006 30.7071 41.7131C30.8947 41.5255 31 41.2712 31 41.006V30.816C31.0001 30.582 30.9183 30.3555 30.7686 30.1757C30.619 29.9959 30.4111 29.8743 30.181 29.832C27.7286 29.3783 25.5342 28.0246 24.0284 26.0364C22.5226 24.0482 21.814 21.5691 22.0418 19.0855C22.2696 16.6018 23.4173 14.293 25.2596 12.6119C27.1019 10.9308 29.506 9.99878 32 9.99878C34.4941 9.99878 36.8981 10.9308 38.7405 12.6119C40.5828 14.293 41.7304 16.6018 41.9582 19.0855C42.186 21.5691 41.4775 24.0482 39.9717 26.0364C38.4659 28.0246 36.2715 29.3783 33.819 29.832C33.589 29.8743 33.3811 29.9959 33.2314 30.1757C33.0818 30.3555 32.9999 30.582 33 30.816V41.006C33 41.2712 33.1054 41.5255 33.2929 41.7131C33.4805 41.9006 33.7348 42.006 34 42.006H39V44.006H34Z" fill="#222222"/>
<path d="M26.773 53.9859L25.637 53.2289L17.707 45.2989C16.9891 44.5809 16.0153 44.1776 15 44.1776C13.9847 44.1776 13.0109 44.5809 12.293 45.2989C11.5751 46.0168 11.1717 46.9905 11.1717 48.0059C11.1717 49.0212 11.5751 49.9949 12.293 50.7129L20.293 58.7129C20.4816 58.895 20.7342 58.9958 20.9964 58.9935C21.2586 58.9913 21.5094 58.8861 21.6948 58.7007C21.8802 58.5153 21.9854 58.2645 21.9877 58.0023C21.99 57.7401 21.8892 57.4875 21.707 57.2989L13.707 49.2989C13.3761 48.9535 13.1937 48.4922 13.1989 48.014C13.204 47.5357 13.3963 47.0785 13.7345 46.7403C14.0727 46.4021 14.5299 46.2099 15.0081 46.2047C15.4864 46.1996 15.9476 46.382 16.293 46.7129L24.293 54.7129C24.3394 54.7594 24.3903 54.8013 24.445 54.8379L25.664 55.6509C26.0754 55.9243 26.4128 56.2953 26.6459 56.7308C26.879 57.1664 27.0007 57.6529 27 58.1469V70.0059H19V64.3599C19 63.4681 18.7616 62.5926 18.3093 61.8241C17.8571 61.0555 17.2075 60.4219 16.428 59.9889L13.6 58.4179C12.5089 57.8116 11.5997 56.9245 10.9667 55.8486C10.3337 54.7727 9.99997 53.5471 10 52.2989V39.0059C10 38.4754 10.2107 37.9667 10.5858 37.5916C10.9609 37.2166 11.4696 37.0059 12 37.0059C12.5304 37.0059 13.0391 37.2166 13.4142 37.5916C13.7893 37.9667 14 38.4754 14 39.0059V41.0059C14 41.2711 14.1054 41.5254 14.2929 41.713C14.4804 41.9005 14.7348 42.0059 15 42.0059C15.2652 42.0059 15.5196 41.9005 15.7071 41.713C15.8946 41.5254 16 41.2711 16 41.0059V39.0059C16 37.945 15.5786 36.9276 14.8284 36.1774C14.0783 35.4273 13.0609 35.0059 12 35.0059C10.9391 35.0059 9.92172 35.4273 9.17157 36.1774C8.42143 36.9276 8 37.945 8 39.0059V52.2989C8.00015 53.9039 8.42952 55.4797 9.24361 56.8629C10.0577 58.2462 11.2269 59.3865 12.63 60.1659L15.457 61.7369C15.9247 61.9967 16.3145 62.377 16.5858 62.8382C16.8571 63.2994 17.0001 63.8248 17 64.3599V71.0059C17 71.2711 17.1054 71.5254 17.2929 71.713C17.4804 71.9005 17.7348 72.0059 18 72.0059H28C28.2652 72.0059 28.5196 71.9005 28.7071 71.713C28.8946 71.5254 29 71.2711 29 71.0059V58.1469C29.001 57.3234 28.7981 56.5125 28.4095 55.7864C28.0209 55.0604 27.4587 54.4418 26.773 53.9859Z" fill="#222222"/>
<path d="M52 35.0059C50.9391 35.0059 49.9217 35.4273 49.1716 36.1774C48.4214 36.9276 48 37.945 48 39.0059V41.0059C48 41.2711 48.1054 41.5254 48.2929 41.713C48.4804 41.9005 48.7348 42.0059 49 42.0059C49.2652 42.0059 49.5196 41.9005 49.7071 41.713C49.8947 41.5254 50 41.2711 50 41.0059V39.0059C50 38.4754 50.2107 37.9667 50.5858 37.5916C50.9609 37.2166 51.4696 37.0059 52 37.0059C52.5304 37.0059 53.0392 37.2166 53.4142 37.5916C53.7893 37.9667 54 38.4754 54 39.0059V52.2989C54 53.5471 53.6663 54.7727 53.0333 55.8486C52.4003 56.9245 51.4912 57.8116 50.4 58.4179L47.573 59.9889C46.7933 60.4218 46.1435 61.0553 45.6911 61.8239C45.2387 62.5924 45.0001 63.468 45 64.3599V70.0059H37V58.1469C36.9987 57.6522 37.12 57.1649 37.3532 56.7286C37.5863 56.2923 37.924 55.9206 38.336 55.6469L39.555 54.8339C39.6097 54.7973 39.6606 54.7554 39.707 54.7089L47.707 46.7089C48.0524 46.378 48.5136 46.1956 48.9919 46.2007C49.4701 46.2059 49.9273 46.3981 50.2655 46.7363C50.6037 47.0745 50.796 47.5317 50.8011 48.01C50.8063 48.4882 50.6239 48.9495 50.293 49.2949L42.293 57.2949C42.1109 57.4835 42.0101 57.7361 42.0123 57.9983C42.0146 58.2605 42.1198 58.5113 42.3052 58.6967C42.4906 58.8821 42.7414 58.9873 43.0036 58.9895C43.2658 58.9918 43.5184 58.891 43.707 58.7089L51.707 50.7089C52.425 49.9909 52.8283 49.0172 52.8283 48.0019C52.8283 46.9865 52.425 46.0128 51.707 45.2949C50.9891 44.5769 50.0153 44.1736 49 44.1736C47.9847 44.1736 47.0109 44.5769 46.293 45.2949L38.363 53.2249L37.227 53.9819C36.5407 54.4382 35.9782 55.0574 35.5895 55.7842C35.2009 56.511 34.9984 57.3227 35 58.1469V71.0059C35 71.2711 35.1054 71.5254 35.2929 71.713C35.4804 71.9005 35.7348 72.0059 36 72.0059H46C46.2652 72.0059 46.5196 71.9005 46.7071 71.713C46.8947 71.5254 47 71.2711 47 71.0059V64.3599C46.9999 63.8248 47.1429 63.2994 47.4142 62.8382C47.6855 62.377 48.0753 61.9967 48.543 61.7369L51.37 60.1659C52.7731 59.3865 53.9423 58.2462 54.7564 56.8629C55.5705 55.4797 55.9999 53.9039 56 52.2989V39.0059C56 37.945 55.5786 36.9276 54.8284 36.1774C54.0783 35.4273 53.0609 35.0059 52 35.0059Z" fill="#222222"/>
</svg>
