<svg width="64" height="80" viewBox="0 0 64 80" fill="none" xmlns="http://www.w3.org/2000/svg">
<path fill-rule="evenodd" clip-rule="evenodd" d="M58.3199 65.957H46.9304V63.8474C46.9304 63.3969 47.045 62.897 46.52 62.596L39.0936 58.3125C38.3415 57.8814 38.2973 56.5058 38.9506 55.9312L46.3884 49.388L48.0918 48.4441C48.5602 48.1866 48.8598 48.1008 49.0243 48.0794C49.005 48.2367 48.937 48.5156 48.7232 48.9661L47.0584 50.7753L45.0204 52.749L42.411 55.3162C41.9821 55.7409 42.1196 56.4628 42.6634 56.7035L46.2497 58.2839C47.1317 58.6715 48.3149 57.3055 49.4869 56.9252C50.4287 56.6197 52.0143 56.6678 52.8694 56.6678C55.925 56.6678 58.3199 59.8214 58.3199 63.8474V65.957ZM41.9218 63.8474C41.9218 63.1395 41.846 62.4458 41.698 61.7736L38.2462 59.7856C37.2054 59.1869 36.6795 57.9388 36.8181 56.6821C36.703 56.6678 36.5872 56.6678 36.4706 56.6678C35.616 56.6678 34.0298 56.6197 33.0882 56.9252C31.9161 57.3055 30.734 58.6709 29.8516 58.2839L26.2653 56.7035C25.7211 56.463 25.5852 55.7389 26.0115 55.3162L28.6223 52.749L30.6597 50.7753L32.3237 48.9661C32.5382 48.5156 32.6062 48.2367 32.6255 48.0794C32.4624 48.1008 32.1621 48.1866 31.693 48.4441L29.9896 49.388L22.5525 55.9312C21.8939 56.5098 21.9492 57.8847 22.6948 58.3125L30.1212 62.596C30.6474 62.8973 30.5317 63.3969 30.5317 63.8474V65.957H41.9218V63.8474ZM25.5231 63.8474V65.957H14.1336V63.8474C14.1336 63.397 14.2481 62.897 13.7231 62.596L6.29672 58.3125C5.54684 57.8831 5.49914 56.5068 6.153 55.9312L13.5915 49.388L15.2949 48.4441C15.7633 48.1866 16.0629 48.1008 16.2274 48.0794C16.2081 48.2367 16.1402 48.5156 15.9263 48.9661L14.2601 50.7753L12.2235 52.749L9.61339 55.3162C9.186 55.7401 9.32281 56.4629 9.86581 56.7035L13.4528 58.2839C14.335 58.6716 15.5134 57.307 16.6901 56.9252C17.6357 56.6184 19.2142 56.6678 20.0718 56.6678C20.1884 56.6678 20.3035 56.6678 20.4186 56.6821C20.284 57.9414 20.802 59.1845 21.8474 59.7856L25.2985 61.7736C25.4473 62.4458 25.5231 63.1395 25.5231 63.8474ZM22.3716 52.0982C22.3716 53.6071 21.1423 54.8371 19.632 54.8371C18.1231 54.8371 16.8939 53.6071 16.8939 52.0982C16.8939 50.5894 18.1231 49.3594 19.632 49.3594C21.1423 49.3594 22.3716 50.5894 22.3716 52.0982ZM15.1998 52.2341L11.6943 55.6523L13.8203 56.5891C14.0192 56.4962 14.2308 56.3531 14.4654 56.1958C15.0518 55.8075 15.6165 55.4508 16.4863 55.2233C15.7182 54.4509 15.2334 53.3997 15.1998 52.2341ZM38.7689 52.0982C38.7689 50.5894 37.5411 49.3594 36.0301 49.3594C34.5205 49.3594 33.2927 50.5894 33.2927 52.0982C33.2927 53.6071 34.5205 54.8371 36.0301 54.8371C37.5411 54.8371 38.7689 53.6071 38.7689 52.0982ZM31.5972 52.2341C31.6315 53.3926 32.117 54.4509 32.8844 55.2233C32.0164 55.4502 31.45 55.8081 30.8635 56.1958C30.6289 56.3531 30.4172 56.4962 30.2184 56.5891L28.0931 55.6523L31.5972 52.2341ZM55.1678 52.0982C55.1678 50.5894 53.9392 49.3594 52.4296 49.3594C50.92 49.3594 49.6907 50.5894 49.6907 52.0982C49.6907 53.6071 50.92 54.8371 52.4296 54.8371C53.9392 54.8371 55.1678 53.6071 55.1678 52.0982ZM47.9966 52.2341L44.4919 55.6523L46.6172 56.5891C46.8167 56.4962 47.0277 56.3531 47.2622 56.1958C47.8453 55.8097 48.4171 55.4485 49.2838 55.2233C48.5151 54.4509 48.031 53.3926 47.9966 52.2341ZM55.3015 55.4735C56.2583 54.6655 56.8654 53.4498 56.8654 52.0982C56.8654 48.9461 53.6599 46.8014 50.7298 48.0007C50.7391 47.5001 50.5839 47.0925 50.2635 46.785C49.8152 46.3631 48.9327 46.0413 47.2708 46.9566C46.9826 47.1157 45.4823 47.9183 45.3365 48.0507L40.4595 52.3414C40.6184 49.8435 38.5873 47.6646 36.0301 47.6646C35.4294 47.6646 34.8559 47.7862 34.3317 48.0007C34.341 47.5001 34.1858 47.0925 33.8655 46.785C33.4171 46.3631 32.5332 46.0413 30.8721 46.9566C30.5802 47.1178 29.0884 47.9156 28.9384 48.0507L24.0621 52.3414C24.1855 48.9412 20.8691 46.7986 17.9322 48.0007C17.9415 47.5001 17.787 47.0925 17.4667 46.785C17.0183 46.3631 16.1359 46.0413 14.4732 46.9566C14.1861 47.1151 12.6844 47.9196 12.5389 48.0507L5.03172 54.6583C4.30372 55.3019 3.93116 56.2745 4.01052 57.3328C4.09062 58.4126 4.61479 59.3065 5.44861 59.7856L12.4359 63.8117V66.808C12.4359 67.2799 12.8163 67.6589 13.2847 67.6589H26.3719C26.8403 67.6589 27.22 67.2799 27.22 66.808V63.8474C27.22 63.5185 27.2057 63.1895 27.1771 62.8606L28.8354 63.8117L28.834 66.808C28.834 67.2799 29.2144 67.6589 29.6828 67.6589H42.7707C43.2391 67.6589 43.6195 67.2799 43.6195 66.808V63.8474C43.6195 63.5185 43.6038 63.1895 43.5752 62.8606L45.2328 63.8117V66.808C45.2328 67.2799 45.6132 67.6589 46.0823 67.6589H59.1688C59.6371 67.6589 60.0176 67.2799 60.0176 66.808V63.8474C60.0176 59.9358 58.0775 56.6892 55.3015 55.4735ZM17.8228 34.7569L26.3504 28.6428L29.7643 27.2269C30.433 26.948 30.8599 26.8693 31.0852 26.8622C31.0479 26.9981 30.9664 27.2054 30.7826 27.5201L28.879 29.2077L26.6522 30.9168L25.2956 31.4674C25.2184 31.4961 25.1462 31.539 25.0811 31.589L22.0891 33.9918C21.5708 34.4088 21.7131 35.2316 22.3337 35.4506L26.4441 36.9309C27.2868 37.2203 28.6032 36.0184 29.966 35.658C31.0715 35.3656 32.9381 35.4005 33.927 35.4005C37.4996 35.4005 40.2993 38.3182 40.2993 42.0438V43.9603H26.9955V42.0438C26.9955 41.908 26.9997 41.765 27.009 41.6219C27.0312 41.2716 26.8388 40.9498 26.5235 40.7996L18.0109 36.8021C17.1876 36.4167 17.0819 35.2904 17.8228 34.7569ZM33.8347 14.6625C34.5706 14.3907 35.2878 14.3049 36.0158 14.3979C38.6576 14.7331 39.9056 17.2934 43.6345 17.7231C45.8135 17.9734 47.4425 17.9734 48.8877 17.3441C47.7464 19.2678 46.1488 20.2617 43.9284 20.4691C40.8389 20.7638 39.4759 19.3464 36.2861 19.3464C35.5067 19.3464 34.6857 19.4394 33.8347 19.6396V14.6625ZM36.811 29.2006C36.811 27.091 35.0955 25.3748 32.9859 25.3748C32.717 25.3748 32.451 25.4105 32.1928 25.4606C32.2915 25.5321 32.3831 25.6107 32.4631 25.7109C33.0124 26.3473 32.9137 27.2912 32.17 28.5141C32.1263 28.5856 32.0705 28.6499 32.0076 28.7072L29.9824 30.5021L29.5334 30.8453C30.1591 32.154 31.5078 33.0264 32.9859 33.0264C35.0955 33.0264 36.811 31.3101 36.811 29.2006ZM28.1632 31.8965C27.9878 32.0332 27.5741 32.382 27.3938 32.4543L26.0458 32.9906L24.3331 34.3636L26.7609 35.2361C27.0369 35.1431 27.318 34.9929 27.6333 34.8213C28.4348 34.3877 29.0125 34.0997 30.069 33.8988C29.2823 33.4125 28.6237 32.726 28.1632 31.8965ZM17.2886 38.3396L25.2978 42.1011V43.9603H23.4821C23.013 43.9603 22.6333 44.3394 22.6333 44.8113C22.6333 45.2762 23.013 45.6623 23.4821 45.6623H42.8815C43.3499 45.6623 43.7304 45.2762 43.7304 44.8113C43.7304 44.3394 43.3499 43.9603 42.8815 43.9603H41.9969V42.0438C41.9969 38.0536 39.4104 34.7998 35.837 33.9346C37.4367 32.962 38.5086 31.2029 38.5086 29.2006C38.5086 26.4474 36.4785 24.1519 33.8347 23.7443V21.3845C38.4257 20.1903 39.7021 22.5526 44.0879 22.1639C49.1837 21.6776 50.8771 17.8018 51.7059 14.9342C51.958 14.059 50.8326 13.4525 50.2443 14.1476C48.5158 16.1785 47.0606 16.4073 43.8283 16.0355C40.5751 15.656 39.4408 13.1297 36.2318 12.7174C35.029 12.5601 33.8147 12.7675 32.6219 13.3396C32.3266 13.4754 32.1378 13.7758 32.1378 14.1047V23.7515C30.7276 23.966 29.4483 24.724 28.5787 25.8753C28.4797 25.952 25.687 27.023 25.4401 27.2126L16.8338 33.3768C15.9792 33.9918 15.5437 34.9429 15.6403 35.9869C15.7361 37.0381 16.3368 37.8891 17.2886 38.3396Z" fill="#222222"/>
</svg>
