<svg width="64" height="80" viewBox="0 0 64 80" fill="none" xmlns="http://www.w3.org/2000/svg">
<path d="M58.9699 31.2627C58.9993 31.1361 59.0072 31.0038 58.9934 30.8735C58.9796 30.7432 58.9442 30.6174 58.8893 30.5032C58.8344 30.3891 58.7611 30.289 58.6735 30.2084C58.586 30.1279 58.4859 30.0686 58.3789 30.034C56.701 29.4897 54.9303 28.9638 53.0917 28.5129V24.4973H54.3577C54.5816 24.4973 54.7963 24.3919 54.9546 24.2043C55.1129 24.0167 55.2018 23.7623 55.2018 23.4971C55.2018 23.2318 55.1129 22.9774 54.9546 22.7898C54.7963 22.6022 54.5816 22.4969 54.3577 22.4969H53.0917V21.4967C53.0917 21.2314 53.0027 20.977 52.8444 20.7894C52.6862 20.6018 52.4715 20.4965 52.2476 20.4965C52.0237 20.4965 51.8091 20.6018 51.6508 20.7894C51.4925 20.977 51.4036 21.2314 51.4036 21.4967V22.4969H49.7154V21.4967C49.7154 21.2314 49.6265 20.977 49.4682 20.7894C49.3099 20.6018 49.0953 20.4965 48.8714 20.4965C48.6475 20.4965 48.4328 20.6018 48.2746 20.7894C48.1163 20.977 48.0273 21.2314 48.0273 21.4967V22.4969H46.3392V21.4967C46.3392 21.2314 46.2503 20.977 46.092 20.7894C45.9337 20.6018 45.719 20.4965 45.4952 20.4965C45.2713 20.4965 45.0566 20.6018 44.8983 20.7894C44.7401 20.977 44.6511 21.2314 44.6511 21.4967V22.4969H42.963V21.4967C42.963 21.2314 42.8741 20.977 42.7158 20.7894C42.5575 20.6018 42.3428 20.4965 42.119 20.4965C41.8951 20.4965 41.6804 20.6018 41.5221 20.7894C41.3638 20.977 41.2749 21.2314 41.2749 21.4967V22.4969H39.5992V21.4967C39.5992 21.2314 39.5102 20.977 39.352 20.7894C39.1937 20.6018 38.979 20.4965 38.7551 20.4965C38.5313 20.4965 38.3166 20.6018 38.1583 20.7894C38 20.977 37.9111 21.2314 37.9111 21.4967V22.4969H36.2106V21.4967C36.2106 21.2314 36.1217 20.977 35.9634 20.7894C35.8051 20.6018 35.5904 20.4965 35.3665 20.4965C35.1427 20.4965 34.928 20.6018 34.7697 20.7894C34.6114 20.977 34.5225 21.2314 34.5225 21.4967V22.4969H32.8344V21.4967C32.8344 21.2314 32.7455 20.977 32.5872 20.7894C32.4289 20.6018 32.2142 20.4965 31.9903 20.4965C31.7665 20.4965 31.5518 20.6018 31.3935 20.7894C31.2352 20.977 31.1463 21.2314 31.1463 21.4967V22.4969H28.1921C27.9682 22.4969 27.7535 22.6022 27.5953 22.7898C27.437 22.9774 27.348 23.2318 27.348 23.4971C27.348 23.7623 27.437 24.0167 27.5953 24.2043C27.7535 24.3919 27.9682 24.4973 28.1921 24.4973H31.1463V29.4982C31.1463 29.5069 31.1483 29.5149 31.1484 29.5235C29.6918 30.1678 28.28 30.9466 26.9261 31.8527C26.4721 31.4671 26.0119 31.0971 25.5455 30.7427C25.6196 30.5927 25.6591 30.4222 25.6599 30.2484V18.3707L26.2402 19.3292C26.3709 19.5441 26.5683 19.6888 26.7889 19.7315C27.0095 19.7742 27.2354 19.7115 27.417 19.557C27.5986 19.4026 27.7212 19.1691 27.7577 18.9077C27.7942 18.6464 27.7417 18.3786 27.6118 18.163L24.1324 12.4158L24.1307 12.4129L24.1301 12.4119C24.126 12.4052 24.1207 12.4003 24.1166 12.3938C24.0549 12.2938 23.9772 12.2091 23.8879 12.1445L23.8865 12.1433L23.8828 12.1405L18.7226 8.3776C18.633 8.25881 18.5233 8.16376 18.4006 8.09869C18.2779 8.03362 18.145 7.99999 18.0106 8C17.8762 8.00001 17.7433 8.03366 17.6206 8.09876C17.4979 8.16385 17.3882 8.25891 17.2987 8.37772L12.14 12.1396C12.0494 12.2035 11.9707 12.2884 11.9083 12.3891C11.903 12.3972 11.8964 12.4035 11.8913 12.4119L11.8907 12.4129L11.889 12.4158L8.40959 18.163C8.27967 18.3786 8.22721 18.6464 8.26372 18.9077C8.30024 19.1691 8.42275 19.4026 8.60438 19.557C8.786 19.7115 9.01191 19.7742 9.23253 19.7315C9.45315 19.6888 9.65046 19.5441 9.78118 19.3292L10.467 18.1965V24.6218C8.93136 24.4289 7.38826 24.3318 5.84405 24.3307C5.6202 24.3307 5.40551 24.4361 5.24722 24.6237C5.08893 24.8112 5 25.0656 5 25.3309C5 25.5962 5.08893 25.8506 5.24722 26.0382C5.40551 26.2257 5.6202 26.3311 5.84405 26.3311C7.61129 26.3286 9.37686 26.4596 11.13 26.7234C11.1894 26.7392 11.2501 26.7474 11.311 26.7477L11.313 26.7474C18.8516 27.8383 25.8172 32.0707 30.9645 38.688C31.0408 38.7833 31.1321 38.8599 31.2334 38.9134C31.3346 38.9668 31.4437 38.9962 31.5545 38.9996C31.6653 39.0031 31.7756 38.9807 31.8791 38.9337C31.9826 38.8867 32.0772 38.816 32.1577 38.7256C32.2381 38.6353 32.3027 38.527 32.3478 38.407C32.393 38.2871 32.4177 38.1578 32.4206 38.0265C32.4236 37.8952 32.4047 37.7645 32.365 37.6419C32.3253 37.5192 32.2657 37.4071 32.1894 37.3118C31.0062 35.8315 29.7388 34.4491 28.3959 33.1745C38.4056 26.8857 49.3953 29.1938 57.933 31.9631C58.0399 31.998 58.1516 32.0075 58.2616 31.9912C58.3716 31.9748 58.4778 31.9329 58.5741 31.8679C58.6704 31.8028 58.755 31.7159 58.8229 31.612C58.8908 31.5082 58.9408 31.3895 58.9699 31.2627ZM12.1551 15.408L13.1643 13.741L18.0107 10.2069L22.8571 13.741L23.984 15.6024C23.977 15.6497 23.973 15.6975 23.9718 15.7455V29.6132C23.0141 28.9705 22.0293 28.386 21.0213 27.8621V19.9964C21.0213 19.7311 20.9324 19.4767 20.7741 19.2891C20.6158 19.1016 20.4011 18.9962 20.1773 18.9962H15.957C15.7332 18.9962 15.5185 19.1016 15.3602 19.2891C15.2019 19.4767 15.113 19.7311 15.113 19.9964V25.5333C14.1484 25.267 13.161 25.0504 12.1551 24.8732V15.408ZM19.3332 27.0483C18.5051 26.6807 17.6626 26.3458 16.8011 26.0536V20.9966H19.3332V27.0483ZM51.4036 24.4973V28.1271C50.846 28.0084 50.2833 27.8986 49.7154 27.7977V24.4973H51.4036ZM48.0273 24.4973V27.5289C47.4685 27.4513 46.9058 27.3851 46.3392 27.3303V24.4973H48.0273ZM41.2749 24.4973V27.1899C40.7177 27.2158 40.1592 27.2571 39.5992 27.3138V24.4973H41.2749ZM37.9111 24.4973V27.5295C37.3447 27.6199 36.7777 27.7324 36.2106 27.8589V24.4973H37.9111ZM32.8344 24.4973H34.5225V28.291C33.9592 28.4548 33.3965 28.6384 32.8344 28.8417V24.4973ZM42.963 27.1535V24.4973H44.6511V27.2046C44.0908 27.1751 43.5283 27.1562 42.963 27.1535Z" fill="#222222"/>
<path d="M57.5561 35.2475C57.4334 35.1401 57.2863 35.0644 57.1276 35.0269C56.969 34.9893 56.8036 34.9912 56.6458 35.0322C56.488 35.0732 56.3426 35.1521 56.2223 35.2622C56.102 35.3722 56.0104 35.51 55.9555 35.6635C55.4628 36.8524 54.657 37.8855 53.6237 38.6527C52.5904 39.42 51.3684 39.8926 50.0878 40.0204C48.565 40.1295 47.1136 40.7085 45.9338 41.6776C44.7541 42.6466 43.9042 43.9579 43.5014 45.4306C43.406 45.4668 43.3191 45.5064 43.2285 45.5445C43.2024 45.4096 43.1487 45.2815 43.0707 45.1684C42.3652 44.1464 41.5776 43.6791 40.727 43.7719C40.3699 43.8333 40.0313 43.9745 39.7363 44.1849C39.4414 44.3953 39.1977 44.6695 39.0234 44.9872C38.7343 45.03 38.457 45.1317 38.2088 45.2859C37.9605 45.4401 37.7465 45.6435 37.58 45.8837C37.3911 46.2009 37.2688 46.5533 37.2207 46.9193C37.1726 47.2854 37.1997 47.6574 37.3002 48.0126C37.1302 48.2649 37.0286 48.5569 37.0052 48.8602C36.9818 49.1636 37.0376 49.4677 37.1669 49.7431C37.6376 50.6645 38.8085 50.7626 39.2836 50.7626C39.3188 50.7626 39.35 50.7621 39.3774 50.7611C39.5109 50.7574 39.6423 50.7267 39.7637 50.671C39.7757 50.8095 39.7795 50.9451 39.8027 51.0873C39.8423 51.3372 39.9447 51.5729 40.1003 51.7723C40.256 51.9718 40.4597 52.1285 40.6924 52.2278C40.9251 52.327 41.1792 52.3656 41.4308 52.3398C41.6825 52.314 41.9235 52.2248 42.1313 52.0805C43.1196 51.3954 45.9795 50.8575 47.8303 50.6349L47.5854 51.5121H47.248C46.9828 51.5121 46.7284 51.6175 46.5409 51.805C46.3533 51.9925 46.248 52.2469 46.248 52.5121C46.248 52.7773 46.3533 53.0317 46.5409 53.2192C46.7284 53.4068 46.9828 53.5121 47.248 53.5121H48.248C48.4444 53.5121 48.6365 53.4543 48.8003 53.3458C48.964 53.2374 49.0922 53.0831 49.1689 52.9022C49.265 52.7954 49.3363 52.6687 49.3779 52.5312L49.9271 50.5638C50.7355 50.4694 51.5151 50.2066 52.2158 49.7924C52.2903 49.8752 52.3708 49.9526 52.4565 50.0238C52.5446 50.0955 52.6377 50.1608 52.735 50.2193L52.3134 52.0121H52.1645C51.8993 52.0121 51.6449 52.1175 51.4574 52.305C51.2698 52.4925 51.1645 52.7469 51.1645 53.0121C51.1645 53.2773 51.2698 53.5317 51.4574 53.7192C51.6449 53.9068 51.8993 54.0121 52.1645 54.0121H53.1645C53.4297 54.0121 53.684 53.9067 53.8716 53.7192C54.0591 53.5317 54.1645 53.2773 54.1645 53.0121C54.1645 52.9802 54.158 52.9501 54.1551 52.9189L54.694 50.6272C55.1689 50.5978 55.6396 50.5208 56.099 50.3974C56.5684 50.2788 57.009 50.0666 57.3944 49.7736C57.7797 49.4806 58.102 49.1128 58.3417 48.6923C59.4784 46.7362 58.9765 43.8598 58.7509 42.8598C60.5341 37.9306 57.6806 35.3568 57.5561 35.2475ZM39.9202 48.9481C39.7517 48.8273 39.5496 48.7621 39.3422 48.7616C39.3364 48.7616 39.3305 48.7616 39.3246 48.7621C39.2865 48.7626 39.2446 48.7611 39.2026 48.7587C39.3003 48.622 39.3624 48.4631 39.3834 48.2963C39.4043 48.1296 39.3835 47.9603 39.3227 47.8036C39.2145 47.5522 39.1841 47.2741 39.2353 47.0053C39.3665 46.9432 39.5121 46.9177 39.6567 46.9315C39.8551 46.9302 40.0488 46.8705 40.2136 46.7598C40.3783 46.6491 40.5068 46.4923 40.5829 46.309C40.6659 46.11 40.788 45.9297 40.9418 45.7787C41.1364 45.9203 41.3007 46.0992 41.4252 46.3051C41.475 46.3753 41.5338 46.4387 41.6 46.4938C40.7994 47.1182 40.2124 47.9758 39.9202 48.9481ZM56.6112 47.6894C56.5049 47.8824 56.3593 48.051 56.1838 48.1842C56.0082 48.3174 55.8067 48.4123 55.5922 48.4628C55.1324 48.6011 54.6518 48.6576 54.1724 48.6295C54.1609 48.6264 54.1508 48.6208 54.1391 48.6181C54.0871 48.6069 54.0343 48.6 53.9811 48.5974C53.8963 48.5792 53.816 48.544 53.745 48.494C53.6641 48.4201 53.6148 48.3178 53.6073 48.2084L53.6068 48.2099C53.6216 47.9922 53.5643 47.7757 53.4437 47.5939C53.3232 47.4121 53.1461 47.2751 52.9398 47.204C52.7316 47.1318 52.5055 47.1295 52.2959 47.1974C52.0862 47.2653 51.9045 47.3998 51.7782 47.5805C51.7473 47.6241 51.1077 48.4947 49.3488 48.6146C49.2044 48.5865 49.0555 48.591 48.913 48.6276C48.7063 48.6267 48.491 48.6194 48.2572 48.5966C48.1912 48.5897 48.1245 48.5898 48.0585 48.5971C47.5907 48.6444 43.8695 49.0483 41.7396 50.0219C41.7431 49.9814 41.7479 49.9413 41.7533 49.9023C41.8788 49.016 42.4833 47.8188 44.6522 47.1493C44.8301 47.0934 44.9889 46.9892 45.1111 46.8485C45.2333 46.7077 45.3142 46.5359 45.3446 46.352C45.5719 45.1852 46.1791 44.1266 47.0714 43.3414C47.9638 42.5562 49.0911 42.0886 50.2772 42.0116C51.634 41.8961 52.9459 41.4694 54.1111 40.7648C55.2763 40.0602 56.2635 39.0965 56.996 37.9486C57.3655 38.8713 57.5757 40.3318 56.8031 42.3508C56.7544 42.4585 56.7257 42.5741 56.7184 42.692C56.7159 42.716 56.7114 42.7389 56.7106 42.7631C56.5998 43.0478 55.386 43.7606 53.1644 43.7606C52.8992 43.7606 52.6449 43.866 52.4573 44.0535C52.2698 44.2411 52.1644 44.4954 52.1644 44.7606C52.1644 45.0259 52.2698 45.2802 52.4573 45.4677C52.6449 45.6553 52.8992 45.7606 53.1644 45.7606C54.4965 45.7866 55.8178 45.5177 57.0338 44.9733C57.1459 45.9003 56.9997 46.8402 56.6112 47.6894Z" fill="#222222"/>
<path d="M36.8095 53.241C36.6868 53.1346 36.5401 53.0595 36.382 53.0223C36.2239 52.9851 36.0591 52.9868 35.9018 53.0274C35.7445 53.068 35.5994 53.1462 35.4791 53.2553C35.3587 53.3644 35.2667 53.5011 35.2109 53.6537C34.723 54.8462 33.9183 55.8826 32.8838 56.6506C31.8493 57.4187 30.6244 57.8891 29.3417 58.0111C27.8194 58.1197 26.3683 58.6981 25.1887 59.6664C24.009 60.6348 23.159 61.9453 22.7558 63.4173C22.6602 63.4535 22.5733 63.4932 22.4825 63.5313C22.4564 63.3965 22.4026 63.2686 22.3246 63.1556C21.6191 62.1341 20.832 61.6668 19.9804 61.7596C19.6235 61.8211 19.2851 61.9622 18.9902 62.1724C18.6954 62.3827 18.4517 62.6566 18.2773 62.974C17.9881 63.0167 17.7108 63.1184 17.4624 63.2726C17.2141 63.4268 17 63.6303 16.8334 63.8705C16.6447 64.1875 16.5226 64.5396 16.4745 64.9054C16.4265 65.2712 16.4536 65.643 16.5541 65.9979C16.3841 66.25 16.2825 66.5419 16.2591 66.8451C16.2357 67.1482 16.2915 67.4523 16.4208 67.7274C16.891 68.6488 18.0624 68.747 18.537 68.747C18.5727 68.747 18.6039 68.7465 18.6313 68.7455C18.7648 68.7417 18.8962 68.711 19.0176 68.6553C19.0296 68.7938 19.0334 68.9294 19.0566 69.0717C19.0964 69.3214 19.1989 69.557 19.3546 69.7563C19.5103 69.9556 19.714 70.1122 19.9467 70.2113C20.1793 70.3105 20.4334 70.3489 20.6849 70.3231C20.9365 70.2974 21.1775 70.2081 21.3852 70.0638C22.374 69.3792 25.2336 68.8422 27.0844 68.6197L26.8399 69.4945H26.5019C26.2367 69.4945 25.9823 69.5999 25.7948 69.7874C25.6072 69.9749 25.5019 70.2293 25.5019 70.4945C25.5019 70.7597 25.6072 71.0141 25.7948 71.2016C25.9823 71.3891 26.2367 71.4945 26.5019 71.4945H27.5019C27.6984 71.4945 27.8905 71.4366 28.0543 71.3281C28.2181 71.2196 28.3464 71.0652 28.423 70.8843C28.5188 70.7775 28.5899 70.6509 28.6313 70.5135L29.1802 68.5495C29.9891 68.4549 30.7692 68.1918 31.4702 67.7772C31.5443 67.8599 31.6244 67.9369 31.7099 68.0077C31.7981 68.0796 31.8913 68.1451 31.9888 68.2037L31.5674 69.994H31.4184C31.1532 69.994 30.8988 70.0993 30.7113 70.2869C30.5237 70.4744 30.4184 70.7288 30.4184 70.994C30.4184 71.2592 30.5237 71.5135 30.7113 71.7011C30.8988 71.8886 31.1532 71.994 31.4184 71.994H32.4184C32.6836 71.994 32.9379 71.8886 33.1255 71.7011C33.313 71.5135 33.4184 71.2592 33.4184 70.994C33.4184 70.9621 33.4119 70.932 33.409 70.9009L33.9478 68.6117C34.4226 68.5823 34.8931 68.5052 35.3525 68.3817C35.8219 68.2633 36.2626 68.0512 36.648 67.7583C37.0335 67.4654 37.3558 67.0976 37.5956 66.6771C38.7324 64.7225 38.2304 61.849 38.0048 60.849C39.7885 55.9222 36.9345 53.3504 36.8095 53.241ZM19.1742 66.9325C19.0056 66.8116 18.8035 66.7464 18.5961 66.7459C18.5903 66.7459 18.5844 66.7459 18.5785 66.7464C18.538 66.7474 18.4974 66.7463 18.457 66.743C18.5561 66.6059 18.6189 66.4459 18.6394 66.2779C18.6599 66.1099 18.6374 65.9395 18.5742 65.7826C18.4691 65.533 18.4394 65.2582 18.4887 64.992C18.6202 64.93 18.7659 64.9045 18.9106 64.9183C19.1104 64.9183 19.3056 64.8584 19.471 64.7464C19.6364 64.6344 19.7646 64.4754 19.8388 64.2899C19.9221 64.0936 20.0434 63.9157 20.1957 63.7664C20.3905 63.9076 20.5548 64.0864 20.6791 64.2923C20.7289 64.3622 20.7876 64.4254 20.8536 64.4802C20.0533 65.104 19.4666 65.9609 19.1742 66.9325ZM35.8666 65.6717C35.7604 65.8653 35.6147 66.0344 35.4389 66.168C35.2631 66.3016 35.0611 66.3967 34.8461 66.4471C34.3858 66.5859 33.9046 66.6423 33.4246 66.6138C33.4137 66.6108 33.4041 66.6055 33.393 66.6029C33.3437 66.5925 33.2937 66.5859 33.2435 66.5832C33.1554 66.5652 33.0721 66.5293 32.9985 66.4779C32.9178 66.4044 32.8686 66.3026 32.8612 66.1937L32.8607 66.1951C32.8755 65.9775 32.8181 65.7611 32.6976 65.5793C32.577 65.3975 32.4 65.2604 32.1937 65.1893C31.9855 65.1172 31.7595 65.115 31.5499 65.1829C31.3403 65.2509 31.1585 65.3853 31.0321 65.5657C31.0012 65.6094 30.357 66.4785 28.5966 66.5984C28.4539 66.571 28.307 66.5755 28.1663 66.6116C27.9598 66.6109 27.7447 66.6038 27.5111 66.5814C27.4452 66.5745 27.3788 66.5746 27.3129 66.5819C26.8446 66.6292 23.1234 67.0326 20.9936 68.0057C20.997 67.9652 21.0019 67.9256 21.0072 67.8866C21.1327 67.0013 21.7372 65.805 23.9062 65.1361C24.084 65.0802 24.2429 64.9761 24.3651 64.8353C24.4874 64.6945 24.5682 64.5226 24.5985 64.3387C24.8262 63.1725 25.4336 62.1146 26.326 61.33C27.2184 60.5455 28.3454 60.0786 29.5312 60.0023C30.8877 59.8869 32.1994 59.4606 33.3646 58.7564C34.5298 58.0522 35.5171 57.0891 36.2499 55.9417C36.6194 56.8629 36.8291 58.3223 36.0571 60.3398C36.0083 60.4476 35.9796 60.5634 35.9723 60.6815C35.9697 60.7054 35.9652 60.7283 35.9644 60.7524C35.8531 61.0368 34.639 61.7484 32.4184 61.7484C32.1531 61.7484 31.8988 61.8537 31.7113 62.0413C31.5237 62.2288 31.4184 62.4832 31.4184 62.7484C31.4184 63.0136 31.5237 63.2679 31.7113 63.4555C31.8988 63.643 32.1531 63.7484 32.4184 63.7484C33.7514 63.7744 35.0736 63.5052 36.2903 62.96C36.4021 63.8857 36.2554 64.8242 35.8666 65.6717Z" fill="#222222"/>
<path d="M9.50129 42.0015C9.7665 42.0015 10.0208 41.8962 10.2084 41.7086C10.3959 41.5211 10.5013 41.2667 10.5013 41.0015V38.9776C11.2793 38.9328 12.0178 38.6198 12.5911 38.0919L12.5916 38.0914C13.7259 36.9566 13.493 35.0948 13.4627 34.8858C13.4316 34.6726 13.3325 34.4751 13.1801 34.3227C13.0278 34.1703 12.8303 34.0712 12.617 34.0401C12.4071 34.0093 10.5457 33.7769 9.41146 34.9112C9.27287 35.0502 9.14993 35.204 9.04485 35.3699C7.90608 34.2852 6.09228 34.5107 5.88558 34.5401C5.67234 34.5712 5.47484 34.6703 5.32247 34.8227C5.17009 34.9751 5.07098 35.1726 5.03988 35.3858C5.0096 35.5948 4.77669 37.4566 5.91097 38.5914H5.91147C6.62053 39.2176 7.54497 39.5448 8.49008 39.503L8.50129 39.5028V41.0015C8.5013 41.2667 8.60666 41.5211 8.7942 41.7086C8.98173 41.8962 9.23608 42.0015 9.50129 42.0015ZM7.326 37.1773L7.3255 37.1768C7.17401 36.9986 7.0775 36.7803 7.04766 36.5484C7.27993 36.5781 7.49858 36.6746 7.67706 36.8262C7.82855 37.0046 7.92505 37.223 7.95489 37.4551C7.72283 37.4252 7.50441 37.3287 7.326 37.1773ZM10.826 36.3258C11.0043 36.1743 11.2228 36.0778 11.4549 36.0479C11.4249 36.28 11.3285 36.4984 11.1771 36.6768L11.1766 36.6773C10.9984 36.8288 10.7801 36.9253 10.5482 36.9552C10.5779 36.7229 10.6744 36.5042 10.826 36.3258Z" fill="#222222"/>
<path d="M23.117 34.5478C22.9071 34.517 21.0457 34.2851 19.9115 35.4189C19.7729 35.5579 19.6499 35.7117 19.5448 35.8776C18.4061 34.7929 16.5918 35.0189 16.3856 35.0478C16.1723 35.0789 15.9748 35.178 15.8225 35.3304C15.6701 35.4828 15.571 35.6803 15.5399 35.8935C15.5096 36.1025 15.2767 37.9643 16.411 39.0991L16.4115 39.0996C17.1205 39.7258 18.045 40.0525 18.9901 40.0107L19.0013 40.0104V41.5092C19.0013 41.7744 19.1067 42.0288 19.2942 42.2163C19.4817 42.4039 19.7361 42.5092 20.0013 42.5092C20.2665 42.5092 20.5209 42.4039 20.7084 42.2163C20.8959 42.0288 21.0013 41.7744 21.0013 41.5092V39.4853C21.7794 39.4405 22.5179 39.1275 23.0911 38.5996L23.0916 38.5991C24.2259 37.4643 23.993 35.6025 23.9627 35.3935C23.9316 35.1803 23.8325 34.9828 23.6801 34.8304C23.5278 34.678 23.3303 34.5789 23.117 34.5478ZM17.826 37.685L17.8255 37.6845C17.674 37.5063 17.5775 37.288 17.5477 37.0561C17.78 37.0858 17.9986 37.1823 18.1771 37.3339C18.3286 37.5123 18.4251 37.7307 18.4549 37.9628C18.2229 37.9329 18.0044 37.8364 17.826 37.685ZM21.6771 37.1845L21.6766 37.185C21.4984 37.3365 21.2801 37.433 21.0482 37.4628C21.0591 37.2258 21.1581 37.0014 21.3258 36.8336C21.4936 36.6658 21.7179 36.5667 21.9549 36.5556C21.925 36.7877 21.8285 37.0061 21.6771 37.1845Z" fill="#222222"/>
<path d="M5.91145 49.0989C6.62051 49.7251 7.54496 50.0523 8.49007 50.0105L8.5013 50.0102V51.509C8.5013 51.7742 8.60666 52.0286 8.79419 52.2161C8.98173 52.4037 9.23608 52.509 9.5013 52.509C9.76652 52.509 10.0209 52.4037 10.2084 52.2161C10.3959 52.0286 10.5013 51.7742 10.5013 51.509V49.4851C11.2794 49.4403 12.0179 49.1273 12.5911 48.5994L12.5916 48.5989C13.7259 47.4641 13.493 45.6023 13.4627 45.3933C13.4316 45.1801 13.3325 44.9826 13.1801 44.8302C13.0278 44.6778 12.8303 44.5787 12.617 44.5476C12.4075 44.5173 10.5457 44.2849 9.41147 45.4187C9.27288 45.5577 9.14994 45.7115 9.04486 45.8774C7.90609 44.7927 6.09228 45.0187 5.88559 45.0476C5.67235 45.0787 5.47485 45.1778 5.32247 45.3302C5.17009 45.4826 5.07098 45.6801 5.03988 45.8933C5.0096 46.1023 4.77718 47.9641 5.91145 49.0989ZM10.826 46.8332C11.0044 46.6818 11.2228 46.5853 11.4549 46.5554C11.425 46.7875 11.3285 47.0059 11.1771 47.1843L11.1766 47.1848C10.9984 47.3363 10.7801 47.4328 10.5482 47.4627C10.5779 47.2304 10.6744 47.0117 10.826 46.8332ZM7.67708 47.3337C7.82857 47.5121 7.92507 47.7306 7.95491 47.9627C7.72285 47.9327 7.50442 47.8362 7.326 47.6848L7.32551 47.6843C7.17402 47.5062 7.07751 47.2879 7.04768 47.0559C7.27995 47.0856 7.49859 47.1822 7.67708 47.3337Z" fill="#222222"/>
<path d="M15.0399 50.8858C15.0096 51.0948 14.7767 52.9566 15.911 54.0914L15.9115 54.0919C16.6205 54.7181 17.545 55.0448 18.4901 55.003L18.5013 55.0028V56.5015C18.5013 56.7667 18.6067 57.0211 18.7942 57.2086C18.9817 57.3962 19.2361 57.5015 19.5013 57.5015C19.7665 57.5015 20.0209 57.3962 20.2084 57.2086C20.3959 57.0211 20.5013 56.7667 20.5013 56.5015V54.4776C21.2794 54.4328 22.0179 54.1198 22.5911 53.5919L22.5916 53.5914C23.7259 52.4566 23.493 50.5948 23.4627 50.3858C23.4316 50.1726 23.3325 49.9751 23.1801 49.8227C23.0278 49.6703 22.8303 49.5712 22.617 49.5401C22.4071 49.5093 20.5453 49.2769 19.4115 50.4112C19.2729 50.5502 19.1499 50.704 19.0449 50.8699C17.9066 49.7852 16.0923 50.0112 15.8856 50.0401C15.6723 50.0712 15.4748 50.1703 15.3225 50.3227C15.1701 50.4751 15.071 50.6726 15.0399 50.8858ZM20.826 51.8257C21.0044 51.6743 21.2228 51.5778 21.4549 51.5479C21.425 51.78 21.3285 51.9984 21.1771 52.1768L21.1766 52.1773C20.9984 52.3288 20.7801 52.4253 20.5482 52.4552C20.5779 52.2229 20.6744 52.0042 20.826 51.8257ZM17.6771 52.3262C17.8286 52.5046 17.9251 52.7231 17.9549 52.9552C17.7229 52.9252 17.5044 52.8287 17.326 52.6773L17.3255 52.6768C17.174 52.4987 17.0775 52.2804 17.0477 52.0484C17.2799 52.0781 17.4986 52.1747 17.6771 52.3262Z" fill="#222222"/>
<path d="M34.5 46C34.7761 46 35 45.7761 35 45.5C35 45.2239 34.7761 45 34.5 45C34.2239 45 34 45.2239 34 45.5C34 45.7761 34.2239 46 34.5 46Z" fill="#222222"/>
<path d="M31.5 49C31.7761 49 32 48.7761 32 48.5C32 48.2239 31.7761 48 31.5 48C31.2239 48 31 48.2239 31 48.5C31 48.7761 31.2239 49 31.5 49Z" fill="#222222"/>
<path d="M38.5 44C38.7761 44 39 43.7761 39 43.5C39 43.2239 38.7761 43 38.5 43C38.2239 43 38 43.2239 38 43.5C38 43.7761 38.2239 44 38.5 44Z" fill="#222222"/>
<path d="M15.5 71C15.7761 71 16 70.7761 16 70.5C16 70.2239 15.7761 70 15.5 70C15.2239 70 15 70.2239 15 70.5C15 70.7761 15.2239 71 15.5 71Z" fill="#222222"/>
<path d="M14.5 66C14.7761 66 15 65.7761 15 65.5C15 65.2239 14.7761 65 14.5 65C14.2239 65 14 65.2239 14 65.5C14 65.7761 14.2239 66 14.5 66Z" fill="#222222"/>
<path d="M9.5 70C9.77614 70 10 69.7761 10 69.5C10 69.2239 9.77614 69 9.5 69C9.22386 69 9 69.2239 9 69.5C9 69.7761 9.22386 70 9.5 70Z" fill="#222222"/>
<path d="M42.5 55C42.7761 55 43 54.7761 43 54.5C43 54.2239 42.7761 54 42.5 54C42.2239 54 42 54.2239 42 54.5C42 54.7761 42.2239 55 42.5 55Z" fill="#222222"/>
<path d="M29.5 54C29.7761 54 30 53.7761 30 53.5C30 53.2239 29.7761 53 29.5 53C29.2239 53 29 53.2239 29 53.5C29 53.7761 29.2239 54 29.5 54Z" fill="#222222"/>
<path d="M34.5 51C34.7761 51 35 50.7761 35 50.5C35 50.2239 34.7761 50 34.5 50C34.2239 50 34 50.2239 34 50.5C34 50.7761 34.2239 51 34.5 51Z" fill="#222222"/>
</svg>
