<svg width="64" height="80" viewBox="0 0 64 80" fill="none" xmlns="http://www.w3.org/2000/svg">
<path fill-rule="evenodd" clip-rule="evenodd" d="M33.8214 39.7908C33.7292 39.6988 33.6119 39.6361 33.4842 39.6108C33.3564 39.5854 33.224 39.5985 33.1038 39.6484C32.9835 39.6982 32.8806 39.7826 32.8083 39.8909C32.736 39.9992 32.6974 40.1265 32.6974 40.2567C32.6974 40.3869 32.736 40.5142 32.8083 40.6225C32.8806 40.7308 32.9835 40.8152 33.1038 40.8651C33.224 40.915 33.3564 40.928 33.4842 40.9027C33.6119 40.8773 33.7292 40.8147 33.8214 40.7226C33.9449 40.599 34.0142 40.4315 34.0142 40.2567C34.0142 40.082 33.9449 39.9144 33.8214 39.7908ZM38.3218 35.9342C38.2297 35.8421 38.1124 35.7795 37.9846 35.7541C37.8569 35.7288 37.7245 35.7419 37.6042 35.7917C37.4839 35.8416 37.3811 35.926 37.3088 36.0343C37.2365 36.1426 37.1979 36.2699 37.1979 36.4001C37.1979 36.5303 37.2365 36.6576 37.3088 36.7659C37.3811 36.8742 37.4839 36.9586 37.6042 37.0085C37.7245 37.0583 37.8569 37.0714 37.9846 37.046C38.1124 37.0207 38.2297 36.958 38.3218 36.866C38.4453 36.7424 38.5147 36.5748 38.5147 36.4001C38.5147 36.2254 38.4453 36.0578 38.3218 35.9342ZM48.0972 31.266C47.9894 31.1576 47.8474 31.0899 47.6953 31.0745C47.5432 31.0591 47.3905 31.0969 47.2631 31.1815C47.1358 31.2661 47.0418 31.3923 46.9971 31.5385C46.9524 31.6847 46.9598 31.8419 47.0181 31.9832C47.0763 32.1246 47.1818 32.2413 47.3165 32.3136C47.4512 32.3859 47.6068 32.4092 47.7568 32.3795C47.9068 32.3499 48.0418 32.2691 48.1389 32.151C48.236 32.0329 48.2891 31.8848 48.2892 31.7319C48.2891 31.5574 48.2201 31.39 48.0972 31.266ZM44.0178 35.9329C43.9257 35.8409 43.8084 35.7782 43.6806 35.7529C43.5529 35.7275 43.4205 35.7406 43.3002 35.7904C43.1799 35.8403 43.0771 35.9247 43.0048 36.033C42.9325 36.1413 42.8939 36.2686 42.8939 36.3988C42.8939 36.529 42.9325 36.6563 43.0048 36.7646C43.0771 36.8729 43.1799 36.9573 43.3002 37.0072C43.4205 37.057 43.5529 37.0701 43.6806 37.0448C43.8084 37.0194 43.9257 36.9568 44.0178 36.8647C44.1413 36.7411 44.2107 36.5735 44.2107 36.3988C44.2107 36.2241 44.1413 36.0565 44.0178 35.9329ZM30.1548 27.6711H23.7362V33.4042H30.1548V27.6711ZM22.9721 26.1377H30.9215C31.1252 26.1377 31.3205 26.2186 31.4646 26.3626C31.6086 26.5067 31.6895 26.702 31.6895 26.9057V34.1703C31.6895 34.374 31.6086 34.5694 31.4646 34.7134C31.3205 34.8574 31.1252 34.9383 30.9215 34.9383H22.9721C22.8712 34.9383 22.7714 34.9185 22.6782 34.8799C22.585 34.8413 22.5003 34.7847 22.429 34.7134C22.3577 34.6421 22.3011 34.5574 22.2625 34.4642C22.2239 34.3711 22.2041 34.2712 22.2041 34.1703V26.9044C22.2041 26.8036 22.2239 26.7037 22.2625 26.6105C22.3011 26.5173 22.3577 26.4327 22.429 26.3614C22.5003 26.29 22.585 26.2335 22.6782 26.1949C22.7714 26.1563 22.8712 26.1364 22.9721 26.1364V26.1377ZM8.70712 41.4458H14.695C14.8328 41.4364 14.9619 41.375 15.0562 41.274C15.1505 41.173 15.2029 41.04 15.2029 40.9018C15.2029 40.7637 15.1505 40.6307 15.0562 40.5297C14.9619 40.4287 14.8328 40.3673 14.695 40.3578H8.70712C8.56929 40.3673 8.44019 40.4287 8.34591 40.5297C8.25162 40.6307 8.19918 40.7637 8.19918 40.9018C8.19918 41.04 8.25162 41.173 8.34591 41.274C8.44019 41.375 8.56929 41.4364 8.70712 41.4458ZM8.17592 42.9102C5.98328 46.2215 4.80696 49.4919 4.73208 52.0218C4.68856 53.4606 4.9996 54.9882 6.15544 55.7786C6.72835 56.146 7.39485 56.3409 8.07544 56.3399H15.326C16.0065 56.3402 16.6728 56.1454 17.246 55.7786C17.7456 55.4273 18.1253 54.9312 18.334 54.3572C18.5987 53.6084 18.7137 52.815 18.6726 52.0218C18.5842 49.0881 17.0764 45.7018 15.2274 42.9102C15.0541 42.956 14.8755 42.9793 14.6962 42.9793H8.70712C8.52781 42.9793 8.34926 42.956 8.17592 42.9102ZM15.5263 31.6417V21.5719C15.7662 21.3083 16.0586 21.0976 16.3846 20.9535C16.7107 20.8093 17.0633 20.7349 17.4198 20.7349C17.7763 20.7349 18.1288 20.8093 18.4549 20.9535C18.7809 21.0976 19.0733 21.3083 19.3132 21.5719V44.1972C18.7599 43.8937 18.1424 43.7259 17.5116 43.7076C17.189 43.1397 16.8379 42.5703 16.4582 41.9994C16.621 41.7381 16.7236 41.4437 16.7587 41.1378C16.7938 40.8319 16.7605 40.522 16.6612 40.2305C16.5618 39.939 16.3989 39.6732 16.1843 39.4524C15.9697 39.2316 15.7086 39.0613 15.4201 38.9537L15.3318 37.602C15.3721 37.3844 15.6217 37.3217 15.8566 37.2634C18.6252 36.5729 18.7244 33.9649 16.9734 32.2951C16.9419 32.2656 16.9081 32.2386 16.8722 32.2145C16.4777 31.9167 16.0163 31.7201 15.5282 31.6417H15.5263ZM13.8783 38.8225L13.8009 37.5233C13.9289 35.8593 15.1122 35.9719 15.9039 35.6468C16.0478 35.6068 16.1806 35.5346 16.2923 35.4355C16.4041 35.3364 16.4917 35.2131 16.5485 35.075C16.6054 34.9369 16.6299 34.7877 16.6204 34.6387C16.6108 34.4897 16.5674 34.3448 16.4934 34.2151C16.3667 33.9217 16.1829 33.6565 15.9526 33.435C15.6851 33.2548 15.3688 33.1609 15.0463 33.1661C14.7238 33.1712 14.4106 33.2751 14.149 33.4638C12.9509 34.3006 11.9469 35.3854 11.205 36.6446C11.1339 36.7495 11.038 36.8352 10.9257 36.894C10.8134 36.9528 10.6883 36.9829 10.5616 36.9817C10.4349 36.9804 10.3104 36.9478 10.1993 36.8867C10.0883 36.8257 9.99403 36.7381 9.92504 36.6318C9.59123 36.0637 9.16662 35.5541 8.66808 35.1233C8.53315 34.991 8.35384 34.9137 8.16504 34.9063C8.09039 34.9462 8.02041 34.9943 7.9564 35.0497C7.38808 35.5418 7.71256 36.571 8.03448 37.2436C8.31337 37.8079 8.65702 38.3377 9.05848 38.8225H13.8783ZM13.991 48.1364C13.9784 48.3311 13.8922 48.5137 13.7498 48.6472C13.6075 48.7806 13.4197 48.8549 13.2246 48.8549C13.0295 48.8549 12.8417 48.7806 12.6993 48.6472C12.557 48.5137 12.4707 48.3311 12.4582 48.1364C12.4583 47.9866 12.414 47.8402 12.3309 47.7156C12.2478 47.591 12.1296 47.4939 11.9912 47.4365C11.8529 47.3791 11.7006 47.364 11.5537 47.3931C11.4068 47.4223 11.2719 47.4943 11.1659 47.6002C11.06 47.706 10.9878 47.8409 10.9585 47.9878C10.9292 48.1347 10.9442 48.287 11.0015 48.4254C11.0588 48.5637 11.1558 48.682 11.2803 48.7652C11.4049 48.8485 11.5513 48.8929 11.701 48.8929C12.241 48.8928 12.7637 49.0835 13.1767 49.4313C13.5898 49.7791 13.8667 50.2617 13.9585 50.7938C14.0504 51.3259 13.9513 51.8733 13.6788 52.3395C13.4062 52.8057 12.9778 53.1606 12.469 53.3415V53.4298C12.469 53.6335 12.3881 53.8289 12.2441 53.9729C12.1001 54.1169 11.9047 54.1978 11.701 54.1978C11.4974 54.1978 11.302 54.1169 11.158 53.9729C11.014 53.8289 10.933 53.6335 10.933 53.4298V53.3415C10.4874 53.1829 10.1018 52.8902 9.82907 52.5037C9.55636 52.1172 9.40992 51.6558 9.40984 51.1828C9.40984 50.9791 9.49075 50.7838 9.63478 50.6398C9.77881 50.4957 9.97415 50.4148 10.1778 50.4148C10.3815 50.4148 10.5769 50.4957 10.7209 50.6398C10.8649 50.7838 10.9458 50.9791 10.9458 51.1828C10.9457 51.3326 10.99 51.4791 11.0732 51.6037C11.1563 51.7283 11.2746 51.8254 11.4129 51.8828C11.5513 51.9402 11.7036 51.9552 11.8505 51.926C11.9974 51.8969 12.1324 51.8247 12.2383 51.7188C12.3442 51.6129 12.4164 51.4779 12.4456 51.331C12.4748 51.1841 12.4597 51.0318 12.4023 50.8934C12.3449 50.755 12.2478 50.6368 12.1232 50.5537C11.9986 50.4705 11.8521 50.4262 11.7023 50.4263C11.1623 50.4264 10.6397 50.2357 10.2266 49.8879C9.8136 49.5401 9.53671 49.0575 9.44484 48.5254C9.35298 47.9933 9.45206 47.4459 9.72459 46.9797C9.99712 46.5136 10.4256 46.1587 10.9343 45.9777V45.8894C10.9343 45.7885 10.9542 45.6886 10.9928 45.5955C11.0314 45.5023 11.0879 45.4176 11.1593 45.3463C11.2306 45.275 11.3152 45.2184 11.4084 45.1798C11.5016 45.1412 11.6015 45.1214 11.7023 45.1214C11.8032 45.1214 11.903 45.1412 11.9962 45.1798C12.0894 45.2184 12.1741 45.275 12.2454 45.3463C12.3167 45.4176 12.3733 45.5023 12.4119 45.5955C12.4505 45.6886 12.4703 45.7885 12.4703 45.8894V45.9777C12.9159 46.1363 13.3016 46.429 13.5743 46.8155C13.847 47.202 13.9934 47.6634 13.9935 48.1364H13.991ZM25.4758 43.2788V40.9825C24.9211 41.1218 24.4146 41.4089 24.0102 41.8133C23.6059 42.2177 23.3187 42.7242 23.1794 43.2788H25.4758ZM27.0118 40.1223V44.0455C27.0118 44.2492 26.9308 44.4446 26.7868 44.5886C26.6428 44.7326 26.4474 44.8135 26.2438 44.8135H22.3206C22.1169 44.8135 21.9215 44.7326 21.7775 44.5886C21.6335 44.4446 21.5526 44.2492 21.5526 44.0455C21.5526 42.8018 22.0466 41.609 22.926 40.7295C23.8054 39.85 24.9981 39.3558 26.2418 39.3556C26.4455 39.3556 26.6409 39.4365 26.7849 39.5806C26.9289 39.7246 27.0098 39.9199 27.0098 40.1236L27.0118 40.1223ZM27.6262 45.4266V42.2695C27.6262 42.0658 27.7071 41.8705 27.8511 41.7265C27.9951 41.5824 28.1905 41.5015 28.3942 41.5015C29.3217 41.5015 30.2285 41.7766 30.9997 42.2919C31.771 42.8073 32.3721 43.5397 32.7271 44.3967C33.082 45.2537 33.1749 46.1967 32.994 47.1064C32.813 48.0162 32.3663 48.8518 31.7104 49.5077C31.0545 50.1636 30.2189 50.6103 29.3091 50.7913C28.3994 50.9722 27.4564 50.8793 26.5994 50.5244C25.7424 50.1694 25.01 49.5683 24.4946 48.797C23.9793 48.0258 23.7042 47.119 23.7042 46.1914C23.7042 46.0906 23.7241 45.9907 23.7627 45.8975C23.8013 45.8044 23.8579 45.7197 23.9292 45.6484C24.0005 45.5771 24.0852 45.5205 24.1783 45.4819C24.2715 45.4433 24.3714 45.4234 24.4722 45.4234L27.6262 45.4266ZM29.1622 43.1303C29.704 43.2661 30.2001 43.5431 30.5999 43.9332C30.9997 44.3234 31.2889 44.8126 31.4378 45.3509C31.5868 45.8893 31.5902 46.4575 31.4478 46.9977C31.3054 47.5378 31.0223 48.0305 30.6273 48.4254C30.2322 48.8204 29.7395 49.1035 29.1994 49.2458C28.6592 49.3881 28.0909 49.3845 27.5526 49.2355C27.0143 49.0864 26.5251 48.7972 26.1351 48.3974C25.745 47.9975 25.468 47.5013 25.3324 46.9594H28.3954C28.5991 46.9594 28.7945 46.8785 28.9385 46.7345C29.0825 46.5905 29.1634 46.3951 29.1634 46.1914V43.1303H29.1622ZM44.3289 34.3502L45.7062 32.7751C45.4625 32.3238 45.3851 31.8012 45.4875 31.2986C45.59 30.7961 45.8657 30.3454 46.2665 30.0255C46.6674 29.7055 47.1679 29.5365 47.6807 29.548C48.1935 29.5595 48.6859 29.7507 49.072 30.0884C49.4581 30.426 49.7134 30.8885 49.7931 31.3952C49.8729 31.9019 49.7722 32.4205 49.5085 32.8604C49.2449 33.3004 48.835 33.6337 48.3506 33.8022C47.8662 33.9708 47.338 33.9638 46.8582 33.7825L45.4796 35.3556C45.6221 35.62 45.7087 35.9108 45.7341 36.21C45.7596 36.5092 45.7232 36.8104 45.6274 37.095C45.5316 37.3796 45.3783 37.6415 45.1771 37.8644C44.9759 38.0873 44.731 38.2665 44.4577 38.3908C44.1843 38.5152 43.8883 38.582 43.5881 38.5872C43.2879 38.5925 42.9897 38.5359 42.7122 38.4212C42.4348 38.3064 42.1838 38.1358 41.9749 37.9201C41.7661 37.7043 41.6038 37.4479 41.4982 37.1668H39.9097C39.7993 37.4621 39.6265 37.7302 39.4032 37.9527C39.1798 38.1753 38.9111 38.3471 38.6154 38.4564C38.3197 38.5657 38.0038 38.61 37.6895 38.5863C37.3751 38.5625 37.0695 38.4713 36.7935 38.3188L35.413 39.5015C35.5904 39.9839 35.5927 40.5133 35.4193 40.9972C35.246 41.4811 34.9082 41.8887 34.4649 42.1488C34.0215 42.4088 33.5009 42.5048 32.994 42.42C32.487 42.3352 32.026 42.0749 31.6915 41.6847C31.357 41.2944 31.1702 40.7991 31.1639 40.2851C31.1576 39.7712 31.332 39.2713 31.6568 38.873C31.9816 38.4746 32.436 38.203 32.9407 38.1057C33.4454 38.0084 33.9682 38.0915 34.4178 38.3406L35.7983 37.154C35.6032 36.6103 35.6305 36.0116 35.8743 35.4879C36.1181 34.9642 36.5588 34.5579 37.1004 34.3573C37.6421 34.1566 38.2411 34.1778 38.7672 34.4163C39.2934 34.6547 39.7042 35.0912 39.9103 35.6308H41.4982C41.5994 35.3604 41.7531 35.1127 41.9502 34.9018C42.1474 34.6909 42.3843 34.521 42.6472 34.4018C42.9102 34.2826 43.1941 34.2164 43.4827 34.2071C43.7712 34.1978 44.0588 34.2456 44.3289 34.3476V34.3502ZM25.0553 30.9057C24.978 30.8329 24.9167 30.7448 24.8752 30.6471C24.8337 30.5494 24.8129 30.4441 24.8142 30.338C24.8154 30.2318 24.8386 30.1271 24.8824 30.0303C24.9261 29.9336 24.9895 29.847 25.0684 29.776C25.1473 29.705 25.2401 29.6511 25.3409 29.6178C25.4417 29.5844 25.5483 29.5723 25.654 29.5823C25.7597 29.5922 25.8622 29.6239 25.955 29.6755C26.0478 29.727 26.1289 29.7972 26.1932 29.8817L26.5695 30.3002L27.7266 28.77C27.7834 28.6803 27.8582 28.6033 27.9462 28.5439C28.0342 28.4845 28.1336 28.444 28.2381 28.425C28.3426 28.4059 28.4499 28.4088 28.5532 28.4333C28.6565 28.4579 28.7536 28.5036 28.8384 28.5676C28.9232 28.6315 28.9937 28.7124 29.0457 28.805C29.0976 28.8977 29.1297 29.0001 29.1401 29.1058C29.1504 29.2115 29.1387 29.3182 29.1057 29.4191C29.0727 29.5201 29.0192 29.6131 28.9484 29.6922C28.7212 29.993 27.2582 31.9578 27.1327 32.0705C26.9815 32.2056 26.783 32.2755 26.5805 32.2648C26.378 32.2541 26.1879 32.1638 26.0518 32.0135L25.0553 30.9057ZM34.0703 29.5668H42.7103C42.914 29.5668 43.1094 29.4859 43.2534 29.3419C43.3974 29.1978 43.4783 29.0025 43.4783 28.7988C43.4783 28.5951 43.3974 28.3998 43.2534 28.2558C43.1094 28.1117 42.914 28.0308 42.7103 28.0308H34.0703C33.8666 28.0308 33.6713 28.1117 33.5273 28.2558C33.3832 28.3998 33.3023 28.5951 33.3023 28.7988C33.3023 29.0025 33.3832 29.1978 33.5273 29.3419C33.6713 29.4859 33.8666 29.5668 34.0703 29.5668ZM34.0703 33.0414H42.7103C42.914 33.0414 43.1094 32.9605 43.2534 32.8164C43.3974 32.6724 43.4783 32.4771 43.4783 32.2734C43.4783 32.0697 43.3974 31.8743 43.2534 31.7303C43.1094 31.5863 42.914 31.5054 42.7103 31.5054H34.0703C33.8666 31.5054 33.6713 31.5863 33.5273 31.7303C33.3832 31.8743 33.3023 32.0697 33.3023 32.2734C33.3023 32.4771 33.3832 32.6724 33.5273 32.8164C33.6713 32.9605 33.8666 33.0414 34.0703 33.0414ZM41.3151 56.5582L38.3462 54.3246L37.0662 59.1118L41.3126 56.5582H41.3151ZM55.6665 37.7882L42.5228 55.5559L38.9721 52.8858L52.405 35.3338L55.669 37.7882H55.6665ZM53.333 34.121L56.5721 36.5601L58.9311 33.3722C59.2978 32.8846 59.4265 32.0698 58.9727 31.7287L57.3087 30.4769C56.8498 30.1319 56.117 30.4769 55.7215 30.9946L53.3298 34.121H53.333ZM46.2169 45.682L42.4326 50.7118C42.3724 50.792 42.3286 50.8833 42.3037 50.9804C42.2788 51.0776 42.2733 51.1787 42.2875 51.2779C42.3016 51.3772 42.3352 51.4727 42.3863 51.559C42.4374 51.6453 42.505 51.7207 42.5852 51.7809C42.6654 51.8411 42.7567 51.8849 42.8539 51.9098C42.951 51.9346 43.0521 51.9402 43.1514 51.926C43.2506 51.9118 43.3462 51.8782 43.4325 51.8271C43.5188 51.7761 43.5941 51.7085 43.6543 51.6282L47.4386 46.5985C47.4988 46.5183 47.5426 46.427 47.5675 46.3298C47.5924 46.2327 47.5979 46.1316 47.5837 46.0323C47.5696 45.933 47.536 45.8375 47.4849 45.7512C47.4338 45.6649 47.3662 45.5895 47.286 45.5294C47.2058 45.4692 47.1145 45.4254 47.0173 45.4005C46.9202 45.3756 46.8191 45.3701 46.7198 45.3843C46.6205 45.3984 46.525 45.432 46.4387 45.4831C46.3524 45.5342 46.2771 45.6018 46.2169 45.682ZM51.4918 34.011L37.319 52.5319H20.2002C20.1524 50.0719 19.5464 47.6548 18.4281 45.4631C18.8285 45.6549 19.1884 45.9219 19.4879 46.2497C19.5884 46.3712 19.7238 46.4589 19.8758 46.5008C20.0279 46.5428 20.1891 46.5368 20.3377 46.4839C20.4862 46.431 20.6149 46.3336 20.7062 46.2051C20.7974 46.0765 20.8469 45.9229 20.8479 45.7652V24.3111H51.4918V34.011ZM20.846 22.7783H52.2578C52.4615 22.7783 52.6569 22.8592 52.8009 23.0033C52.9449 23.1473 53.0258 23.3426 53.0258 23.5463V32.0078L54.4793 30.1082C55.3247 28.9223 57.0297 28.3527 58.2297 29.2551L59.8937 30.507C61.0598 31.3844 61.0348 33.0772 60.1618 34.283L43.301 57.074C43.2398 57.1591 43.1619 57.2308 43.0719 57.2846L36.2751 61.3729C36.1457 61.4605 35.9925 61.5066 35.8362 61.5049C35.6799 61.5032 35.5278 61.4538 35.4003 61.3634C35.2727 61.2729 35.1759 61.1457 35.1226 60.9988C35.0693 60.8518 35.0621 60.692 35.102 60.5409L36.83 54.0615H20.0153C19.7852 55.263 19.1024 56.3301 18.1081 57.0426C17.3085 57.567 16.3762 57.8531 15.4201 57.8676H7.98392C7.02628 57.854 6.09233 57.5678 5.29144 57.0426C3.67288 55.9348 3.1436 53.9636 3.20376 51.9802C3.28888 49.1604 4.56632 45.5719 6.94456 41.9994C6.66898 41.5587 6.569 41.0305 6.66441 40.5195C6.75983 40.0085 7.04369 39.552 7.45976 39.2404C6.67952 38.2531 6.21395 37.0542 6.12344 35.7991C6.10836 35.3248 6.23259 34.8565 6.48077 34.452C6.72896 34.0476 7.09023 33.7247 7.51992 33.5233C7.56915 33.4942 7.62154 33.4708 7.67608 33.4535C8.81848 33.0958 9.82264 33.9553 10.5682 34.8954C11.6447 33.4452 12.7801 32.3137 13.991 31.842V21.2609C13.9908 21.1569 14.0119 21.054 14.0529 20.9585C14.094 20.8629 14.1541 20.7768 14.2297 20.7054C14.6439 20.2538 15.1376 19.8824 15.6863 19.6097C17.4738 18.7412 19.3292 19.3172 20.6399 20.7431C20.7703 20.884 20.8426 21.069 20.8422 21.2609L20.846 22.7783Z" fill="#222222"/>
</svg>
