<svg width="256" height="60" viewBox="0 0 256 60" fill="none" xmlns="http://www.w3.org/2000/svg">
<g clip-path="url(#clip0_319_491)">
<path d="M170.541 41.0933L170.986 50.2815L199.827 49.0861L199.458 40.2834L170.541 41.0933ZM184.685 19.0188C187.814 19.0188 189.258 21.0938 189.258 23.5694C189.258 26.045 187.673 28.1208 184.685 28.1208C181.669 28.1208 180.111 26.0458 180.111 23.5694C180.111 21.093 181.602 19.0188 184.685 19.0188ZM184.685 37.0692C193.545 37.0692 198.247 30.9138 198.247 23.571C198.247 16.2281 193.963 10.0752 184.685 10.0752C175.542 10.0752 171.123 16.2297 171.123 23.571C171.123 30.9123 175.741 37.0692 184.685 37.0692ZM137.66 38.5947H128.031V53.7958H166.081V45.2821L137.66 45.5061V38.5947ZM134.516 27.8888V19.6743H142.079V27.071C139.901 27.5975 137.135 27.8184 134.516 27.8888ZM142.079 35.7946H150.99V11.163H125.559V35.884C125.559 35.884 134.202 35.7866 142.079 34.569V35.7946ZM155.196 9.44421H164.823V41.7512H155.196V9.44421ZM201.205 9.445H210.832V53.7966H201.205V9.445ZM244.871 18.6396V11.8668H235.617V8.73486H225.99V11.8668H216.734V18.6396C216.734 18.6396 224.562 18.1685 230.479 18.1685C236.396 18.1685 244.868 18.6396 244.868 18.6396M246.371 46.7815H228.838V44.8657H246.371V46.7815ZM219.211 37.9218V54.4418H228.838V53.8022H246.371V54.4418H255.999V37.9218H219.211ZM230.696 25.1876C233.258 25.1876 234.989 26.1535 234.989 27.4954C234.989 28.8373 233.254 29.8055 230.696 29.8055C228.139 29.8055 226.404 28.8396 226.404 27.4954C226.404 26.1511 228.138 25.1876 230.696 25.1876ZM230.803 36.1294C239.814 36.1294 244.073 32.1932 244.073 27.5001C244.073 22.807 240.239 18.8708 230.803 18.8708C221.502 18.8708 217.532 22.8078 217.532 27.5041C217.532 32.2003 221.708 36.1374 230.803 36.1374M246.371 9.44421H255.999V36.4984H246.371V9.44421ZM78.8164 35.5317H94.7224V38.5947H82.2642V47.1497L107.606 46.6731V53.8188H117.235V38.5947H104.35V35.5317H120.764V27.2634H78.8164V35.5317ZM106.551 25.9888L115.773 25.9532C117.866 17.7133 117.988 10.6009 117.988 10.6009H82.432V19.0798L108.22 18.7924C107.902 21.3179 107.384 23.9652 106.55 25.9856" fill="#221613"/>
<path d="M20.0605 0L0 19.9995V60H40.191L60.2499 39.9997V0H20.0605Z" fill="#E61E2B"/>
</g>
<defs>
<clipPath id="clip0_319_491">
<rect width="256" height="60" fill="white"/>
</clipPath>
</defs>
</svg>
