<svg width="256" height="130" viewBox="0 0 256 130" fill="none" xmlns="http://www.w3.org/2000/svg">
<g clip-path="url(#clip0_319_499)">
<path d="M48.0764 19.4201C48.1959 19.5009 48.238 19.4974 48.3505 19.5886C48.5472 19.7431 48.7299 19.9116 48.9197 20.0731C48.9935 20.1363 49.0708 20.1924 49.1481 20.2486C49.3062 20.368 49.3378 20.4838 49.264 20.6699C49.2078 20.8103 49.1691 20.9577 49.1164 21.1017C49.0813 21.1929 49.0532 21.2912 48.9935 21.3579C48.8845 21.4738 48.8283 21.6107 48.7721 21.7546C48.7159 21.895 48.6245 22.0179 48.5613 22.1548C48.4699 22.3444 48.3821 22.5339 48.3118 22.7305C48.1748 23.1167 48.0413 23.5028 47.9218 23.896C47.8586 24.1031 47.8164 24.3173 47.7918 24.5314C47.7778 24.6543 47.7637 24.7596 47.704 24.8719C47.5986 25.065 47.5845 25.2862 47.574 25.5038C47.5705 25.6302 47.5318 25.753 47.5037 25.8794C47.4299 26.1989 47.3526 26.5183 47.2824 26.8413C47.2718 26.8869 47.2999 26.9361 47.2964 26.9817C47.2894 27.0976 47.2753 27.2169 47.2578 27.3328C47.2507 27.3784 47.2015 27.417 47.198 27.4626C47.1734 27.7084 47.1278 27.9471 47.0645 28.1893C47.0048 28.428 47.1945 29.6778 47.061 29.8182C47.0399 29.8428 47.0751 29.9726 47.0399 30.1903C47.0223 30.3061 47.0294 30.4325 47.0575 30.5484C47.0996 30.7133 47.068 31.2329 47.0223 31.3909C46.931 31.7173 46.9732 32.9881 46.9837 33.0829C47.0013 33.2655 46.9486 33.4656 46.9521 33.6481C46.9591 33.9851 46.9029 34.3081 46.9099 34.6451C46.9099 34.7609 46.9029 35.0874 46.945 35.1681C47.0364 35.3402 46.9275 35.7263 47.2121 35.5683C47.3315 35.5016 47.4334 35.3788 47.5459 35.298C47.6548 35.2208 47.827 35.1997 47.9289 35.112C48.0483 35.0032 48.2556 34.8382 48.3716 34.7258C48.4875 34.6135 48.6281 34.631 48.7475 34.5222C48.86 34.4204 48.9724 34.3011 49.1059 34.2414C49.4081 34.101 49.524 33.9956 49.7911 33.8201C49.9913 33.6867 50.1881 33.5533 50.3884 33.4164C50.4235 33.3954 50.8135 33.0513 50.9576 32.8828C51.0419 32.7845 51.1122 32.6792 51.193 32.5809C51.2668 32.4967 51.337 32.4019 51.4249 32.3422C51.5268 32.272 51.6146 32.2123 51.6743 32.093C51.706 32.0263 51.8114 31.9947 51.9062 31.9315C52.0784 31.4751 52.0433 31.0012 51.843 30.5273C51.8079 30.4466 51.7903 30.3588 51.7833 30.271C51.7587 29.9621 51.6778 29.6707 51.5689 29.3829C51.4776 29.1371 51.3862 28.8914 51.4705 28.6106C51.5268 28.421 51.5197 28.2139 51.5443 28.0138C51.5795 27.7224 51.6533 27.4486 51.8008 27.1888C51.9765 26.8729 52.11 26.5324 52.2998 26.227C52.5211 25.8759 52.76 25.5249 53.0411 25.2194C53.2309 25.0123 54.183 24.5033 54.2287 24.219C54.2322 24.1839 54.306 24.1488 54.3552 24.1382C54.3974 24.1312 54.5906 23.7942 54.7276 23.6678C54.8014 23.5976 54.833 23.4853 54.9033 23.3554C54.9385 23.3449 55.0122 23.3238 55.0931 23.3027C55.1071 23.2606 55.1247 23.2255 55.1317 23.1869C55.1493 23.0921 55.1949 23.0465 55.2933 23.05C55.4304 23.0535 55.6658 22.8569 55.6869 22.8499C56.0558 22.7024 57.1169 21.9723 57.1977 21.7055C57.2117 21.6633 57.2504 21.6247 57.289 21.5966C57.4788 21.4457 58.5961 20.4733 58.7542 20.3083C59.0142 20.0275 59.2988 19.7677 59.5764 19.5044C59.615 19.4693 59.6677 19.4237 59.7134 19.4237C59.8786 19.4237 60.1386 18.9848 60.2475 18.9217C60.2897 18.8971 60.3248 18.862 60.3564 18.8269C60.5461 18.6092 60.771 18.4302 61.0099 18.2617C61.1048 18.195 61.1681 18.0897 61.2489 18.0019C61.5194 17.7141 61.7689 17.4122 61.8743 17.0155C61.9375 16.7838 62.0148 16.5556 62.0851 16.3274C62.18 16.015 62.3556 15.7306 62.4997 15.4358C62.5524 15.3269 62.6086 15.2216 62.6613 15.1128C62.7211 14.9899 62.7773 14.8671 62.83 14.7407C63.0267 14.2738 63.0654 13.8174 63.1989 13.333C63.2938 12.9889 63.6065 12.3606 63.6065 12.2342C63.6135 11.9007 63.7013 10.5983 64.0035 10.0717C64.0246 10.0366 64.0457 9.99802 64.0773 9.97696C64.2776 9.83303 64.9557 9.71016 65.1735 9.59432C65.5917 9.37667 66.4806 9.58028 66.9268 9.65751C67.243 9.71016 67.4574 9.9243 67.6506 10.1525C67.7666 10.2929 67.8579 10.4614 67.9387 10.6264C67.9809 10.7071 67.9879 10.8125 67.9914 10.9072C68.002 11.1635 68.0055 11.4198 68.009 11.676C68.009 11.7252 68.009 11.7708 68.0055 11.82C67.9844 12.1219 67.9563 11.7708 67.9422 12.0727C67.9422 12.1359 67.9739 12.2096 68.009 12.2658C68.0793 12.3746 68.1004 12.4659 67.9985 12.5677C67.9668 12.5993 67.9528 12.6519 67.9458 12.6941C67.9247 12.8204 67.9036 12.9468 67.8895 13.0732C67.8825 13.1434 67.8298 13.354 67.8509 13.4207C67.8825 13.5296 67.9739 14.0491 67.9247 14.2387C67.8825 14.3967 67.9001 15.4568 67.8755 15.6113C67.8474 15.7833 67.872 15.9623 67.8685 16.1378C67.8685 16.194 67.8614 16.2502 67.8544 16.3064C67.8193 16.5591 67.8403 16.9979 67.9914 17.177C68.0687 17.2647 68.0231 17.9001 68.0231 18.0335C68.0231 18.374 68.002 18.7181 67.9914 19.0586C67.9914 19.0972 67.9914 19.1393 68.009 19.1779C68.1144 19.4588 68.0828 19.7466 68.0723 20.0345C68.0617 20.3223 68.0793 20.6137 68.0863 20.9016C68.0933 21.1333 68.0125 21.3649 68.0933 21.5966C67.9844 21.8705 68.1004 22.1513 68.0793 22.4321C68.0547 22.7411 68.0793 21.2842 68.0933 21.5966C68.1109 21.9126 68.132 22.2215 68.0582 22.5339C68.0477 22.5726 68.0441 22.6147 68.0512 22.6533C68.1531 23.0816 68.0687 23.4993 68.002 23.9206C67.9914 23.9908 67.9914 24.0645 67.9844 24.1382C67.9809 24.1874 67.8825 24.6121 67.872 24.7912C67.8544 25.1457 67.5803 27.6066 67.3941 27.9436C67.3203 28.0805 67.2466 29.0388 67.2817 29.2565C67.1798 29.5303 67.229 30.1095 67.2009 30.2078C67.1728 30.3096 66.9901 31.5804 66.9865 31.7244C66.9795 31.9841 66.8074 32.5177 66.8952 32.7705C66.9233 32.8547 66.9128 32.9565 66.9022 33.0478C66.8671 33.3673 66.8249 33.6832 66.7828 33.9992C66.7687 34.1115 66.7476 34.2203 66.7301 34.3291C66.7265 34.3607 66.8038 35.4244 66.7371 35.6877C66.7195 35.7544 66.7441 35.8316 66.7476 35.9018C66.7476 36.0282 66.7687 36.1581 66.7476 36.281C66.7265 36.4179 66.7371 36.5337 66.832 36.639C66.9198 36.7373 66.9374 36.8426 66.9057 36.976C66.8847 37.0743 66.9057 37.1796 66.9057 37.285C66.9057 37.3552 66.9163 37.4289 66.9057 37.4991C66.8776 37.787 66.8671 38.5452 66.9057 38.6119C66.9795 38.7488 66.9444 39.2649 66.969 39.3877C66.9795 39.4404 66.9901 39.6229 66.9514 39.6475C66.8952 40.2443 67.2325 41.0236 67.1868 41.1921C67.1447 41.3431 67.113 41.487 67.1411 41.6415C67.1622 41.7714 67.1095 41.8626 66.9901 41.9118C66.8847 41.9574 66.8074 42.0206 66.723 42.1013C66.5825 42.2347 66.0976 42.3471 65.9676 42.3365C65.929 42.3365 65.8763 42.3892 65.8411 42.4278C65.7252 42.5542 65.5987 42.6665 65.43 42.7086C65.3773 42.7227 65.3211 42.7367 65.2649 42.7332C65.0681 42.7297 64.8679 42.7157 64.6711 42.7157C64.6219 42.7157 64.5657 42.7508 64.52 42.7753C64.4146 42.8315 64.3092 42.8947 64.2038 42.9509C64.1019 43.0035 63.9895 43.0035 63.9157 42.9123C63.7822 42.7473 63.6486 42.5753 63.5467 42.3927C63.487 42.2874 63.473 42.1505 63.4554 42.0241C63.3992 41.5783 63.0865 40.2127 63.097 40.1776C63.1638 39.9038 62.9846 39.6651 62.9951 39.4018C62.9951 39.3456 63.0021 39.2894 63.0057 39.2333C63.0057 39.1947 62.9248 38.8261 62.9319 38.6646C62.9424 38.4118 62.9248 38.1556 62.9143 37.8993C62.9108 37.8186 62.9038 37.7308 62.8686 37.6641C62.7562 37.4605 62.7456 36.9725 62.7 36.3477C62.6965 36.2845 62.707 36.2178 62.7 36.1546C62.6578 35.7509 62.7738 34.8908 62.7667 34.8627C62.7773 34.0378 62.8511 33.5182 62.8546 33.455C62.8651 33.2374 62.8757 33.0232 62.8897 32.8056C62.8967 32.7108 62.9213 32.6125 62.9143 32.5177C62.8967 32.2896 62.9284 32.0719 62.96 31.8472C63.0057 31.4892 63.0127 31.1276 63.0443 30.7695C63.083 30.3377 63.0303 29.9656 63.0303 29.6778C63.0303 29.2635 63.104 28.8458 63.1603 28.4315C63.2235 27.9541 63.6135 25.388 63.6732 24.907C63.7259 24.4928 63.7646 24.075 63.8032 23.6573C63.8138 23.5239 63.8032 23.3835 63.8032 23.2501C63.8032 23.1132 63.7822 22.9763 63.7962 22.8429C63.8138 22.6428 63.8103 22.4497 63.7822 22.2461C63.747 22.0109 63.7927 21.7651 63.7927 21.5229C63.7927 21.056 63.7716 22.3619 63.7716 21.895C63.7716 21.702 63.7997 21.5124 63.7997 21.3193C63.7997 21.1122 63.7857 20.9086 63.7786 20.7015C63.7295 20.7015 63.7013 20.6944 63.6978 20.7015C63.5503 20.9542 63.2867 21.0946 63.1005 21.3088C63.0548 21.3614 62.9881 21.4001 62.9354 21.4492C62.8721 21.5054 62.8124 21.565 62.7527 21.6282C62.7316 21.6493 62.7211 21.6879 62.6965 21.7055C62.324 21.9652 62.0992 22.376 61.7373 22.6463C61.6283 22.727 61.5229 22.8253 61.3999 22.878C61.168 22.9727 61.038 23.215 60.7851 23.2817C60.7078 23.3027 60.648 23.3905 60.5848 23.4537C60.4197 23.6292 60.2721 23.8188 60.0296 23.896C59.998 23.9065 59.9734 23.9487 59.9559 23.9838C59.8294 24.2084 59.4991 24.4226 59.4218 24.4612C59.3621 24.4928 58.3888 24.9527 58.2518 25.0264C57.8899 25.2159 57.5245 25.4125 57.2118 25.6688C56.8323 25.9777 56.4458 26.2691 56.0242 26.5148C55.7923 26.6517 55.5533 26.7676 55.3741 26.9782C55.3495 27.0063 54.8682 27.2906 54.6925 27.4451C54.5555 27.5645 54.4711 27.74 54.3376 27.8664C53.9863 28.1963 53.6806 28.5755 53.2695 28.8423C53.1219 28.937 52.6722 29.095 52.6581 29.2811C52.6441 29.4671 52.616 29.411 52.63 29.5935C52.6406 29.7058 52.8725 29.9832 52.9217 30.0885C52.9568 30.1657 53.2238 30.2886 53.2168 30.3623C53.2027 30.5273 53.2695 30.6396 53.3784 30.7555C53.5892 30.7555 53.8036 30.7449 54.0179 30.7555C54.2006 30.766 54.3868 30.766 54.5485 30.8819C54.6047 30.9205 54.9666 30.9731 55.0509 31.0644C55.0614 31.0749 55.0755 31.089 55.0895 31.089C55.3601 31.089 55.5182 31.3172 55.7431 31.4154C55.8239 31.4505 56.3439 31.7314 56.5055 31.8788C56.5301 31.8999 56.5512 31.928 56.5793 31.935C56.8393 32.0052 56.9096 32.2369 57.0115 32.4405C57.0607 32.5388 57.0536 32.6441 56.9869 32.7389C56.9693 32.7635 56.9447 32.7951 56.9412 32.8231C56.9307 32.9916 56.8217 33.0794 56.6777 33.1321C56.6425 33.1461 56.6109 33.1742 56.5758 33.1953C56.5758 33.2233 56.5688 33.2444 56.5688 33.269C56.5758 33.441 55.7923 33.9746 55.606 34.1922C55.5252 34.287 55.476 34.4169 55.3847 34.5012C55.2512 34.624 54.6257 35.1646 54.5625 35.2419C54.5133 35.3015 54.2182 35.7895 54.0144 35.8808C53.9652 35.9018 53.909 35.944 53.8914 35.9896C53.8282 36.1476 53.2625 36.4073 53.15 36.5443C52.9673 36.7619 52.7987 37.0006 52.5071 37.0919C52.4754 37.1024 51.8254 37.5202 51.6427 37.8466C51.6111 37.9028 51.2843 37.9871 51.2246 38.0643C51.1824 38.1205 51.1192 38.1836 51.0559 38.1942C50.824 38.2363 50.6554 38.3873 50.4657 38.5066C50.3989 38.5487 50.3146 38.5593 50.2408 38.5909C50.1916 38.6119 50.1319 38.633 50.1073 38.6751C50.0616 38.7523 50.0089 38.7629 49.9281 38.7629C49.8156 38.7629 49.6189 38.984 49.5873 38.9981C49.3378 39.0893 49.1691 39.293 48.9689 39.4474C48.9302 39.4755 48.881 39.4966 48.8529 39.5317C48.7335 39.6826 47.9675 40.2899 47.834 40.3285C47.7813 40.3426 47.7391 40.3847 47.6899 40.4128C47.5599 40.49 47.4334 40.5778 47.2929 40.6375C47.1137 40.7112 46.9275 40.7638 46.7448 40.82C46.6921 40.8376 46.3653 40.8341 46.2775 40.9288C46.2283 40.978 46.1334 41.0061 46.0596 41.0061C45.8066 41.0026 45.5677 41.0587 45.3288 41.1324C45.2972 41.143 44.9142 41.1675 44.7561 41.2202C44.612 41.2658 44.4609 41.3045 44.3134 41.3361C44.1763 41.3676 44.0674 41.322 43.969 41.2167C43.8144 41.0517 43.6493 40.9008 43.4912 40.7393C43.449 40.6936 43.4139 40.6375 43.3858 40.5813C43.3225 40.4584 43.2733 40.3321 43.2101 40.2127C43.0204 39.8511 42.8236 39.4931 42.6339 39.128C42.6128 39.0858 42.5952 39.0332 42.6058 38.9911C42.6268 38.8892 42.6022 38.805 42.5495 38.7172C42.5214 38.6716 42.5214 38.6084 42.5214 38.5558C42.5179 38.3943 42.3844 37.973 42.402 37.9274C42.4617 37.7905 42.4231 37.6606 42.3914 37.5272C42.3633 37.4043 42.5039 37.0673 42.5074 37.0076C42.5214 36.639 42.539 36.2669 42.5355 35.8983C42.5355 35.3998 42.5847 34.9049 42.6339 34.4099C42.6514 34.2168 42.6585 34.0237 42.669 33.8307C42.7006 33.1812 42.7287 32.5283 42.7674 31.8788C42.7744 31.777 42.8166 31.6752 42.8341 31.5734C42.8517 31.4751 42.8623 31.3733 42.8763 31.2715C42.8763 31.2469 42.929 30.8819 42.8974 30.7204C42.8482 30.4817 42.9396 30.2605 42.9747 30.0323C42.9993 29.8779 43.1328 29.4426 43.1152 29.3829C43.066 29.2179 43.1293 29.0634 43.1539 28.909C43.182 28.751 43.2206 28.5965 43.2277 28.4386C43.2452 28.0665 43.319 27.7084 43.4279 27.3538C43.4666 27.231 43.4525 27.0976 43.4842 26.9747C43.5298 26.7957 43.702 26.0163 43.7371 25.8373C43.7969 25.5319 44.1026 24.7175 44.2044 24.2962C44.2642 24.047 44.3309 23.8012 44.4469 23.5695C44.468 23.5274 44.482 23.4747 44.5172 23.4431C44.7034 23.2746 44.8861 22.6322 44.8966 22.5374C44.9142 22.3303 44.988 22.1513 45.1461 22.0074C45.1847 21.9723 45.2269 21.9231 45.2304 21.874C45.2726 21.5335 45.4518 21.2491 45.6415 20.9823C45.8453 20.6944 46.0421 20.4031 46.1826 20.0766C46.2353 19.9502 45.631 20.0766 45.5326 20.1012C45.1777 20.1784 43.9831 20.4698 43.839 20.5716C43.7336 20.6453 42.7428 20.9437 42.5566 21.0069C42.5355 21.0139 42.0893 21.2631 41.8855 21.3579C41.6466 21.4668 41.383 21.5194 41.1336 21.5966C41.0598 21.6212 40.5082 21.888 40.3008 21.9863C40.1884 22.039 40.0514 22.039 39.9249 22.06C39.9108 22.06 39.8933 22.0565 39.8757 22.06C39.2995 22.204 38.7127 22.1478 38.1295 22.1583C37.6692 22.1653 37.3143 21.9407 37.0156 21.6177C36.9348 21.5299 36.8821 21.4141 36.8048 21.3228C36.6889 21.1824 36.5659 21.042 36.4359 20.9121C36.2989 20.7752 35.951 20.1012 35.9545 19.9011C35.9686 19.8203 36.3691 19.8554 36.7697 19.715C37.2932 19.529 37.8343 19.3991 38.3262 19.1253C38.6705 18.9357 39.0149 18.7461 39.3768 18.5882C39.8862 18.3635 40.3465 18.0546 40.8384 17.7948C41.0457 17.686 41.2601 17.5947 41.4709 17.4929C42.156 17.1524 42.8447 16.8294 43.5579 16.5451C43.8812 16.4187 44.208 16.3274 44.5382 16.2291C44.8369 16.1378 45.125 16.008 45.4272 15.9237C46.0069 15.7552 46.5902 15.6078 47.1769 15.4709C47.6864 15.3515 48.2064 15.2602 48.7159 15.1549C48.9267 15.1093 49.1375 15.0496 49.3378 14.9653C49.5627 14.8741 49.7911 14.8741 50.0265 14.86C50.1354 14.853 50.2443 14.8214 50.3532 14.7968C50.3919 14.7898 50.434 14.7582 50.4692 14.7653C50.7678 14.8179 51.0595 14.7337 51.3546 14.7301C51.4178 14.7301 51.4846 14.7477 51.5408 14.7723C51.843 14.9022 52.1522 15.025 52.4438 15.1725C52.5984 15.2497 52.7284 15.3796 52.8725 15.4744C53.1219 15.6394 53.2519 15.8781 53.3257 16.1589C53.3784 16.359 53.4627 16.5521 53.5155 16.7557C53.5365 16.8364 53.54 16.9488 53.4979 17.012C53.3538 17.2436 53.3222 17.5104 53.2414 17.7632C53.1992 17.8966 53.1254 17.9844 53.006 18.0546C52.739 18.209 52.4719 18.3354 52.1452 18.3284C51.9062 18.3214 50.947 18.697 50.803 18.7216C50.7397 18.7321 50.6765 18.7812 50.6273 18.8304C50.5043 18.9568 50.4094 18.9392 50.2162 18.9146C50.0511 18.8901 49.8473 18.9989 49.6786 18.9919C49.647 18.9919 49.6048 18.9848 49.5837 19.0024C49.4151 19.1569 48.0167 19.3534 48.108 19.4131L48.0764 19.4201ZM85.5067 43.2247C85.2959 43.2809 84.3085 43.5371 84.2734 43.5547C83.6515 43.6881 83.4055 43.7232 82.3093 43.7197C82.1231 43.6284 81.8842 43.5933 81.7858 43.4037C81.7015 43.2387 81.6769 43.2773 81.5785 43.1194C81.4766 42.9509 81.452 42.9298 81.4379 42.7262C81.4133 42.2979 81.2623 41.9644 81.4309 41.5642C81.5223 41.3536 81.5398 41.1114 81.7401 40.9534C81.7752 40.9253 81.7893 40.8727 81.8104 40.8305C81.9404 40.5567 82.4253 40.3601 82.5693 40.0969C82.9417 39.9284 83.8412 39.2754 83.8974 39.1876C84.1785 38.7839 85.7878 37.0849 85.9599 36.6355C86.0688 36.3442 87.4989 34.4274 87.5164 34.3432C87.5446 34.2098 87.657 34.0272 87.6992 33.9009C87.7624 33.6973 87.7624 33.6762 87.5797 33.5288C87.4005 33.6376 87.2916 33.6832 87.1018 33.7675C86.7575 33.9219 86.8067 33.95 86.4413 34.0553C86.1216 34.1501 85.7702 34.4099 85.4645 34.5538C85.3345 34.617 85.2045 34.6837 85.078 34.7504C84.7407 34.9259 81.9088 36.2599 81.7612 36.3442C81.4906 36.4986 80.3628 37.1094 80.1414 37.3166C79.9482 37.4991 79.9939 37.5763 79.7057 37.5939C79.6109 37.6009 79.516 37.6501 79.4211 37.643C79.2455 37.636 79.1401 37.7097 78.9679 37.6781C78.5884 37.6079 78.6025 37.4043 78.2546 37.2218C77.8962 37.0357 77.6433 36.7619 77.4922 36.3863C77.3376 36.0001 77.2287 35.607 77.2146 35.1927C77.2111 35.0628 77.2216 34.9365 77.2322 34.8066C77.2392 34.7328 77.2533 34.6626 77.1795 34.6135C77.0846 34.5468 77.067 34.438 77.1162 34.3572C77.1514 34.2975 77.58 33.4585 77.7522 33.2339C77.8927 33.0478 78.0965 32.953 78.3179 32.8863C78.3987 32.8618 78.4865 32.8267 78.5463 32.7705C78.6481 32.6792 78.7606 32.6441 78.8941 32.6266C79.1963 32.5879 79.4949 32.5283 79.7936 32.4721C79.8463 32.4616 80.9425 32.0228 80.9917 31.9982C81.2025 31.8999 81.4063 31.784 81.6242 31.7068C82.0247 31.5594 82.4393 31.4506 82.8363 31.2961C83.0893 31.1943 83.5882 30.9205 83.8483 30.8748C84.0837 30.8327 84.0766 30.8292 84.0802 30.5975C84.0872 30.2359 84.0977 29.8779 84.1153 29.5163C84.1258 29.3162 84.1504 29.1196 84.168 28.9195C84.168 28.8879 84.2137 28.3332 84.1575 28.1121C84.1364 28.0278 84.1715 27.926 84.182 27.8348C84.1961 27.7154 84.2312 27.5996 84.2277 27.4802C84.2277 27.3503 84.168 27.3047 84.0415 27.3187C83.9291 27.3328 83.8166 27.3538 83.7112 27.3924C83.4618 27.4872 83.2193 27.596 82.9769 27.6978C82.9312 27.7154 82.8855 27.74 82.8399 27.74C82.478 27.761 82.9488 27.7119 82.6396 27.8628C82.4674 27.9471 82.2812 27.9962 82.0985 28.0594C82.0388 28.0805 81.9755 28.098 81.9158 28.1121C81.7155 28.1647 81.5258 28.242 81.3079 28.2385C81.1814 28.2385 81.055 28.3227 80.9285 28.3683C80.8406 28.3999 80.7528 28.428 80.6614 28.4561C80.6017 28.4737 80.5349 28.4807 80.4822 28.5123C80.1309 28.7159 79.7514 28.8458 79.3579 28.937C79.1646 28.9827 78.9784 29.0669 78.7887 29.1336C78.75 29.1477 78.7114 29.1617 78.6727 29.1687C78.4514 29.2003 76.0797 30.2745 75.89 30.3869C75.7319 30.4817 75.5773 30.5168 75.4086 30.4641C75.3067 30.4325 75.2224 30.4255 75.1381 30.4957C75.1135 30.5168 75.0783 30.5378 75.0502 30.5343C74.7797 30.4852 74.5373 30.6502 74.2702 30.6326C74.077 30.6186 73.9435 30.7695 73.7678 30.6572C73.6764 30.5975 73.5394 30.5975 73.4234 30.58C73.2653 30.5554 73.1986 30.257 73.044 30.2219C72.7769 30.1552 72.3869 29.4882 72.2288 29.3548C71.9934 29.1547 71.8388 28.8879 71.7229 28.6036C71.7046 28.5504 71.676 28.5015 71.6385 28.4596C71.5261 28.3543 71.4664 28.2209 71.4523 28.077C71.3926 27.5188 71.4102 27.2274 71.8704 26.9115C71.8915 26.8975 71.9091 26.8799 71.9302 26.8729C72.2991 26.7641 72.6153 26.5253 73.0018 26.4516C73.1915 26.4165 73.3672 26.2937 73.5464 26.2129C73.5956 26.1883 73.6448 26.1567 73.6975 26.1392C73.968 26.0409 74.2386 25.9356 74.5127 25.8548C74.7973 25.7706 75.0924 25.7179 75.3805 25.6442C75.521 25.6091 75.6546 25.5529 75.7916 25.5108C76.1922 25.395 76.5857 25.2581 77.0038 25.1984C77.3762 25.1457 78.6376 24.6262 79.01 24.5981C79.4036 24.5665 80.3347 24.1347 80.5314 24.0961C80.7212 24.0575 80.9109 24.0364 81.0971 23.9943C81.2447 23.9592 81.7998 23.8223 81.9404 23.7591C82.3269 23.5871 82.9523 23.5801 83.0436 23.4712C83.1315 23.3659 83.6831 23.3273 83.7991 23.1869C83.8553 23.1202 83.9818 23.0921 84.0802 23.0816C84.1891 23.071 84.2769 23.0394 84.3683 22.9763C84.4702 22.906 84.5931 22.8604 84.7091 22.8078C84.7302 22.7972 84.7618 22.8042 84.7794 22.7902C84.9585 22.6147 85.2326 22.6638 85.4505 22.5901C85.5242 22.5655 85.584 22.5129 85.6507 22.4743C85.7175 22.4356 86.4167 22.2461 86.6908 22.1653C86.9156 22.0986 87.794 21.6774 88.0786 21.5615C88.2543 21.4913 88.6689 21.5054 88.7708 21.3334C88.8481 21.1964 89.3892 20.9261 89.6211 20.8384C89.9443 20.7155 90.257 20.5681 90.5733 20.4347C90.7208 20.375 90.8719 20.3153 91.0265 20.2767C91.1073 20.2591 91.7644 20.0029 92.0314 19.9046C92.1579 19.859 92.2949 19.8274 92.4284 19.8028C92.7482 19.7396 94.0131 19.3219 94.2906 19.1218C94.9266 18.9743 95.2077 18.9462 95.8472 18.8234C96.1107 18.7707 96.3953 18.7707 96.6623 18.8023C97.0277 18.8409 97.4037 18.8514 97.7515 19.0024C97.8464 19.0445 97.9483 19.0796 98.0326 19.1358C98.3278 19.3324 98.3418 19.4588 98.5526 19.7572C98.8337 20.1503 99.6664 22.3689 99.2729 22.3409C99.164 22.3338 99.1253 22.383 99.0164 22.4076C98.767 22.4637 98.1275 22.6147 97.878 22.6322C97.6777 22.6463 97.481 22.6287 97.2842 22.6919C97.1648 22.7305 97.0453 22.8007 96.9223 22.8078C96.6764 22.8218 94.2133 23.5414 94.0623 23.6643C94.0447 23.6784 94.0306 23.7064 94.0131 23.717C93.5563 23.9592 93.1558 24.3067 92.6393 24.4401C92.5163 24.4717 92.3898 24.5138 92.2809 24.5805C91.9084 24.8122 90.7314 25.1773 90.3484 25.3809C90.3062 25.402 90.257 25.4125 90.2078 25.416C90.0708 25.4301 89.976 25.5038 89.8776 25.5986C89.7827 25.6899 89.6668 25.7706 89.5438 25.8233C89.4524 25.8654 89.3822 25.9145 89.3189 25.9918C89.2276 26.1006 89.1116 26.1883 89.0062 26.2901C88.9078 26.3849 88.7884 26.4657 88.7216 26.578C88.5846 26.8132 88.4686 27.0625 88.3527 27.3117C88.2578 27.5083 88.17 27.7049 88.0821 27.9015C88.0611 27.9436 88.054 27.9927 88.0365 28.0384C87.9767 28.1858 87.7694 28.3227 87.7483 28.3824C87.6324 28.744 87.5129 29.102 87.397 29.4601C87.3864 29.4952 87.3864 29.5373 87.3794 29.597C87.4391 29.5865 87.4848 29.5865 87.527 29.5689C87.7273 29.4847 87.9275 29.4004 88.1278 29.3127C88.3 29.2354 89.4524 28.8668 89.5192 28.8388C90.0181 28.6387 91.2865 28.2806 91.8241 28.2771C91.9611 28.2771 92.0982 28.2244 92.2282 28.2385C92.576 28.2736 92.9379 28.249 93.2471 28.4666C93.3033 28.5053 93.3841 28.5123 93.4509 28.5404C93.725 28.6492 93.9568 28.8107 94.129 29.0564C94.2379 29.2144 94.3925 29.3302 94.4593 29.5233C94.5612 29.8217 94.5401 30.5624 94.5401 30.8643C94.5401 30.9766 94.4698 31.0925 94.4242 31.2013C94.2871 31.5313 94.2344 31.8999 93.985 32.1842C93.9428 32.2299 93.2787 32.6125 93.2471 32.6687C93.2085 32.7389 93.1768 32.8196 93.1206 32.8723C92.706 33.276 91.68 34.2238 91.3533 34.6872C91.2971 34.7644 91.2725 34.8627 91.2198 34.9435C91.1319 35.0874 89.2311 36.9585 89.1889 37.0427C89.08 37.2569 88.0329 38.3065 88.0716 38.3557C88.1454 38.4399 88.5354 38.2433 88.6092 38.1907C88.8727 37.9976 89.6632 37.7905 89.9549 37.7132C90.2114 37.6465 91.2338 37.1094 91.4868 37.0217C91.789 36.9128 92.1298 36.9058 92.4566 36.8602C92.6076 36.8391 92.7622 36.8497 92.9098 36.8286C93.0574 36.8111 93.1663 36.8461 93.2752 36.955C93.465 37.1375 93.5704 37.3481 93.5879 37.6079C93.5949 37.6957 93.6231 37.7799 93.6441 37.8677C93.6863 38.0362 93.6828 38.1907 93.6266 38.3627C93.5106 39.5001 92.9871 39.7458 92.9449 39.967C92.9274 40.0547 92.439 40.4935 92.3933 40.5602C92.2352 40.8025 91.6063 41.0728 91.543 41.3571C91.5255 41.4449 90.6541 42.1224 90.5522 42.3225C90.4327 42.5577 90.1587 42.9509 90.0638 43.2001C90.0181 43.3195 89.9935 43.4459 89.9584 43.5722C89.9092 43.7513 89.853 43.9268 89.8178 44.1093C89.7722 44.3516 89.7441 44.6008 89.7124 44.843C89.6984 44.9378 89.7019 45.0361 89.6914 45.1309C89.6668 45.331 89.7265 45.6996 89.7124 45.8997C89.6949 46.1594 90.1235 46.3525 90.3906 46.356C90.5733 46.356 90.763 46.3455 90.9422 46.3034C91.543 46.1524 92.1333 45.9629 92.7025 45.7101C92.9063 45.6188 93.1241 45.5521 93.3314 45.4644C94.0798 45.1554 94.7966 44.7798 95.4185 44.2638C95.9631 43.8144 96.5007 43.3476 96.9504 42.7929C97.1472 42.5507 97.3721 42.326 97.5477 42.0697C97.7796 41.7327 97.9904 41.3782 98.1907 41.0201C98.3488 40.7323 98.4753 40.4268 98.6124 40.1284C98.6369 40.0723 98.6369 40.0021 98.6615 39.9424C98.7072 39.816 98.7459 39.6826 98.8161 39.5703C98.9286 39.3983 99.1394 39.4053 99.2589 39.5773C99.3151 39.6545 99.3432 39.7528 99.3924 39.8336C99.4451 39.9213 99.5083 40.0021 99.5645 40.0863C99.5962 40.132 99.6313 40.1776 99.6489 40.2267C99.684 40.3321 99.6945 40.4514 99.7472 40.5462C99.8491 40.7252 99.8526 40.9113 99.8245 41.1044C99.7859 41.3747 99.7472 41.645 99.7051 41.9153C99.6875 42.0276 99.6594 42.1364 99.6489 42.2488C99.6032 42.8666 99.3783 43.4248 99.0586 43.9443C98.8161 44.341 98.5421 44.7237 98.2715 45.1028C98.138 45.2924 97.9623 45.4538 97.8288 45.6399C97.7058 45.8084 97.3088 46.1665 97.3053 46.17C97.1085 46.5351 96.7572 46.5632 96.5077 46.8686C96.448 46.9423 96.3566 46.9844 96.2758 47.0406C96.1774 47.1073 96.0755 47.174 95.9736 47.2372C95.935 47.2617 95.8858 47.3039 95.8472 47.3004C95.6645 47.2828 95.5309 47.3635 95.3904 47.4689C95.299 47.5391 95.1655 47.5461 95.0531 47.5952C94.9161 47.6549 94.7825 47.7286 94.649 47.7953C94.5366 47.8515 92.9309 48.5115 92.6814 48.5396C92.5514 48.5536 92.432 48.6484 92.309 48.7045C92.2492 48.7291 91.6554 48.8836 91.4411 49.0064C91.3779 49.0416 91.3076 49.0661 91.2373 49.0802C90.7384 49.1644 90.243 49.2627 89.7405 49.3154C89.2943 49.361 88.8411 49.3505 88.3984 49.2346C88.2578 49.1995 88.1102 49.1925 87.9697 49.1679C87.7659 49.1328 87.5586 49.0977 87.3548 49.0591C87.3197 49.0521 87.2881 49.0205 87.2529 48.9959C87.2213 48.9749 87.1897 48.9327 87.1545 48.9292C86.9437 48.9046 86.7786 48.7642 86.5889 48.694C86.3253 48.5957 86.1356 48.4202 85.9634 48.2166C85.8826 48.1183 85.8194 47.9989 85.7315 47.9077C85.5383 47.7076 85.4645 47.4513 85.4118 47.195C85.3029 46.6334 85.2432 46.0647 85.3767 45.4925C85.3872 45.4468 85.3872 45.3977 85.3837 45.3485C85.3802 45.1906 85.3591 45.0291 85.3732 44.8711C85.4083 44.4955 85.461 44.1199 85.4996 43.7442C85.5137 43.5863 85.4996 43.4248 85.4996 43.2317L85.5067 43.2247ZM123.496 20.3329C123.45 20.3996 123.404 20.4557 123.376 20.5189C123.32 20.6418 123.239 20.7015 123.102 20.7541C122.937 20.8173 123.081 20.8243 122.947 20.9507C122.645 21.2386 122.575 21.379 122.515 21.5159C122.47 21.6212 122.224 21.8283 122.146 21.895C122.023 21.9968 121.897 22.0986 121.756 22.1724C121.679 22.2145 120.555 23.1834 120.435 23.3203C120.14 23.6643 117.881 25.2967 117.698 25.395C117.631 25.4301 117.403 25.567 117.27 25.6477C116.988 25.8162 116.728 26.0269 116.437 26.1603C115.839 26.4341 115.267 26.7816 114.62 26.9361C114.589 26.9431 114.546 26.9466 114.532 26.9677C114.406 27.1572 112.755 27.1011 112.519 27.238C112.389 27.5223 112.621 27.8593 112.495 28.1437C112.456 28.2314 112.48 28.6176 112.456 28.7124C112.375 29.0564 112.516 29.5163 112.473 29.8708C112.449 30.078 112.466 30.422 112.396 30.6256C112.315 30.8608 112.238 31.2189 112.15 31.4541C112.073 31.6577 111.802 32.2896 111.823 32.4194C111.848 32.5844 111.479 33.2268 111.391 33.4094C111.321 33.5498 111.289 33.7113 111.233 33.8587C111.18 34.0027 111.114 34.1396 111.057 34.28C111.019 34.3783 110.748 34.6661 110.636 34.8171C110.597 34.8698 110.569 34.9259 110.544 34.9856C110.27 35.621 109.775 36.0668 109.248 36.4811C109.157 36.5548 109.034 36.5899 108.921 36.632C108.767 36.6952 108.598 36.7338 108.45 36.811C108.148 36.9795 107.846 37.0076 107.523 36.8848C107.474 36.8672 106.978 36.976 106.792 37.0427C106.525 37.1375 106.254 37.1937 105.97 37.1902C105.65 37.1867 105.383 37.0357 105.102 36.9234C105.046 36.9023 105.004 36.8461 104.954 36.804C104.849 36.7163 104.751 36.625 104.642 36.5407C104.255 36.2353 103.812 35.8422 103.711 35.3437C103.686 35.2278 103.391 34.4801 103.299 34.1536C103.261 34.0132 103.212 33.8763 103.184 33.7359C103.157 33.6016 103.14 33.4655 103.134 33.3287C103.127 33.1602 103.148 32.9881 103.047 32.8372C103.039 32.8231 103.034 32.8076 103.032 32.7916C103.032 32.3422 102.853 31.9139 102.881 31.4611C102.881 31.4295 102.881 31.3909 102.895 31.3663C102.878 30.4887 102.969 29.8779 102.987 29.4917C103.001 29.2109 103.036 28.9335 103.085 28.6562C103.11 28.5193 103.208 28.3929 103.226 28.256C103.243 28.1296 103.169 27.9892 103.184 27.8593C103.222 27.5153 103.366 26.6939 103.363 26.6201C103.352 26.4025 103.412 26.1919 103.433 25.9812C103.468 25.6618 103.581 25.3809 103.704 25.0931C103.777 24.9176 103.809 24.721 103.865 24.5384C103.886 24.4717 103.921 24.405 103.949 24.3418C103.981 24.2681 104.016 24.1979 104.041 24.1242C104.115 23.903 104.178 23.6784 104.255 23.4572C104.28 23.3835 104.329 23.3062 104.389 23.2606C104.614 22.555 104.719 22.3233 104.758 22.2707C104.895 22.0846 105.531 21.3825 105.819 21.2982C105.959 21.1929 106.103 21.0736 106.265 21.0174C106.504 20.9332 106.76 20.884 107.01 20.8384C107.193 20.8068 107.379 20.8103 107.561 20.7998C107.635 20.7963 107.709 20.7857 107.779 20.7998C108.218 20.877 108.654 20.9893 108.988 21.2947C109.185 21.4738 109.919 22.2742 110.01 22.4497C110.095 22.6147 110.263 23.5309 110.601 23.6503C110.868 23.7415 111.075 23.9381 111.251 24.1698C111.433 24.412 111.693 24.4752 111.978 24.3769C112.031 24.3594 112.737 24.0996 113 23.91C113.046 23.8784 113.085 23.8258 113.134 23.8118C113.38 23.7451 113.584 23.573 113.714 23.394C113.879 23.1693 114.1 23.043 114.297 22.8745C114.62 22.6006 114.922 22.3022 115.246 22.0214C115.681 21.6423 116.131 21.2772 116.567 20.8981C116.816 20.6804 117.045 20.4417 117.284 20.217C117.414 20.0977 117.54 19.9713 117.684 19.8695C118.489 19.3043 119.174 18.4337 119.943 17.8264C120.024 17.7632 120.116 17.707 120.2 17.6438C120.53 17.377 121.338 16.6714 121.676 16.4152C121.858 16.2748 122.129 15.9307 122.178 15.9869C122.579 15.534 122.733 15.7096 122.933 15.5446C122.979 15.506 123.13 15.7131 123.271 15.1444C123.38 14.9899 123.699 13.4523 123.72 13.3049C123.745 13.1364 123.801 12.996 123.921 12.8766C124.016 12.7853 124.019 11.7673 124.339 11.6234C124.388 11.6023 124.715 11.4163 124.764 11.3917C124.841 11.3531 125.642 11.153 125.86 11.167C125.892 11.167 125.934 11.1775 125.955 11.1635C126.233 10.9704 126.507 11.1214 126.767 11.1916C127.069 11.2723 127.364 11.3987 127.635 11.5532C127.849 11.6725 128.021 11.8656 128.211 12.0271C128.278 12.0832 128.341 12.1464 128.411 12.1991C128.534 12.2939 128.664 12.3781 128.654 12.5607C128.654 12.5817 128.661 12.6133 128.675 12.6274C128.952 12.8415 128.935 13.2242 129.156 13.4664C129.167 13.6489 129.191 13.835 129.177 14.0175C129.167 14.1755 129.11 15.1093 129.079 15.2673C129.068 15.3199 129.093 15.7131 129.093 15.7692C129.096 15.9483 128.443 18.9006 128.432 18.9252C128.316 19.1674 128.418 19.4166 128.408 19.6624C128.376 20.361 128.351 21.063 128.309 21.7616C128.292 22.0144 128.225 22.2671 128.183 22.5199C128.162 22.6533 128.151 22.7902 128.134 22.9236L128.028 23.8118C128.018 23.9241 128.018 24.0364 128.004 24.1452C127.975 24.3594 127.944 24.57 127.912 24.7842C127.874 25.0404 127.793 25.2932 127.793 25.5459C127.796 25.897 127.715 26.227 127.666 26.5675C127.638 26.7641 127.656 26.9677 127.656 27.1678C127.656 27.2169 127.663 27.2661 127.652 27.3117C127.582 27.6487 127.494 27.9857 127.434 28.3262C127.396 28.5614 127.413 28.8107 127.371 29.0459C127.255 29.6427 127.343 30.25 127.266 30.8503C127.255 30.931 127.231 31.0082 127.223 31.089C127.209 31.2083 127.209 32.0508 127.157 32.3492C127.139 32.444 127.132 32.5388 127.136 32.6336C127.136 32.9636 127.143 33.2935 127.153 33.6235C127.153 33.7043 127.157 33.7885 127.192 33.8587C127.287 34.0659 127.283 34.28 127.273 34.4976L127.231 35.4104V35.4349C127.273 35.8422 127.547 37.0427 127.621 37.4464C127.649 37.6044 127.705 37.7554 127.747 37.9098C127.828 38.2047 127.905 38.4996 127.982 38.7945C127.986 38.8085 127.993 38.8261 127.989 38.8401C127.923 39.0929 128.056 39.3105 128.119 39.5387C128.165 39.7072 128.218 39.8792 128.239 40.0547C128.292 40.476 128.46 40.8586 128.59 41.2553C128.618 41.3431 128.618 41.4449 128.636 41.5361C128.65 41.6134 128.661 41.6941 128.685 41.7678C128.738 41.9434 128.773 42.1294 128.85 42.2979C129.806 44.3445 128.85 42.9368 128.629 42.6244C128.531 42.649 128.513 42.9509 128.422 42.9965C128.239 43.0948 127.94 42.8245 127.768 42.9649C127.733 42.993 127.589 42.9439 127.54 42.8877C127.315 42.6314 127.013 42.6384 126.721 42.649C126.581 42.6525 126.493 42.6174 126.415 42.5085C126.363 42.4278 126.299 42.3541 126.233 42.2839C126.201 42.2523 125.772 42.1715 125.611 42.1961C125.449 42.2172 125.326 42.168 125.21 42.0733C125.01 41.9118 124.873 41.7011 124.775 41.4694C124.592 41.0306 124.392 40.5989 124.356 40.1109C124.353 40.0512 124.311 39.9915 124.293 39.9319C124.258 39.8195 124.226 39.7037 124.202 39.5878C124.188 39.5352 124.198 39.4755 124.181 39.4228C123.938 38.5768 123.51 36.3793 123.464 36.0423C123.394 35.5473 123.264 34.3326 123.232 33.9921C123.222 33.8658 123.193 33.7359 123.193 33.6095C123.193 33.4234 123.127 32.9039 123.134 32.8267C123.151 32.6266 123.116 32.3633 123.116 32.1632C123.123 31.5839 123.109 31.0012 123.116 30.422C123.116 30.2394 123.158 29.3092 123.113 28.9862C123.088 28.8142 123.13 28.6351 123.144 28.4596C123.169 28.1226 123.169 27.1151 123.204 26.7781C123.225 26.578 123.193 24.9562 123.197 24.9246C123.214 24.7245 123.26 24.5209 123.236 24.3278C123.183 23.9381 123.264 23.5765 123.366 23.2115C123.38 23.1553 123.376 23.0746 123.344 23.0324C123.267 22.9201 123.274 22.8042 123.288 22.6849C123.341 22.2777 123.401 21.874 123.46 21.4668C123.471 21.4036 123.485 21.3369 123.524 21.2877C123.615 21.1684 123.622 21.0385 123.608 20.8981C123.597 20.7857 123.608 20.6734 123.601 20.561C123.601 20.4768 123.633 20.3785 123.499 20.3153L123.496 20.3329ZM106.911 33.0583C107.01 33.0162 107.084 33.1215 107.136 33.0794C107.323 32.9425 107.393 32.9636 107.586 32.8372C107.737 32.7389 107.909 32.3106 107.937 32.1456C107.955 32.0508 107.98 31.9561 108.022 31.8718C108.299 31.3277 108.566 30.78 108.707 30.1798C108.739 30.0393 108.802 29.9059 108.833 29.7655C108.9 29.4671 108.97 29.1687 109.016 28.8668C109.076 28.4526 109.114 28.0384 109.153 27.6206C109.16 27.5645 109.125 27.4942 109.09 27.4451C108.999 27.3152 108.949 27.1783 108.939 27.0203C108.925 26.8378 108.844 26.6939 108.696 26.571C108.51 26.413 108.303 26.4025 108.085 26.4095C107.765 26.4165 107.663 26.4867 107.635 26.7921C107.6 27.1923 107.446 27.5574 107.365 27.9401C107.277 28.3578 107.161 28.7685 107.087 29.1863C107.052 29.3794 106.996 30.0113 106.926 30.1657C106.911 30.2008 106.918 30.2429 106.915 30.2851L106.852 30.9801C106.834 31.1943 106.803 31.4119 106.806 31.6261C106.806 31.9876 106.827 32.3492 106.845 32.7108C106.852 32.8196 106.883 32.9249 106.908 33.0619L106.911 33.0583ZM86.8559 13.0486C86.7224 13.182 85.5207 13.512 85.3907 13.6454C85.3696 13.6665 85.3521 13.7016 85.3275 13.7156C85.1448 13.8104 84.9621 13.9087 84.7723 13.9859C84.5194 14.0877 84.2629 14.1685 84.0064 14.2562C83.9537 14.2738 83.8974 14.2843 83.8412 14.2878C83.7218 14.2948 83.6023 14.3054 83.4828 14.2984C83.3739 14.2948 83.258 14.2808 83.1526 14.2527C82.7661 14.1439 82.1863 14.2036 81.8244 14.0351C81.7331 13.9929 81.6452 13.9754 81.582 14.0491C81.5469 14.0912 81.5574 14.179 81.5504 14.2422C81.5433 14.3229 81.5398 14.4002 81.5293 14.4809C81.4766 14.8881 81.4731 15.2953 81.5398 15.7025C81.6031 16.0782 81.589 16.4538 81.6171 16.8294C81.6452 17.198 81.719 17.5631 81.7998 17.9212C81.8631 18.2125 81.9298 18.5004 81.8982 18.8023C81.8912 18.8655 81.9052 18.9287 81.9088 18.9919C81.9088 19.0375 81.9228 19.0972 81.9017 19.1323C81.712 19.4482 81.6452 19.8238 81.4098 20.1222C81.2552 20.3188 81.1006 20.4908 80.8477 20.547C80.4682 20.6313 80.1028 20.6909 79.7163 20.5259C79.4738 20.4206 78.8449 20.4347 78.6095 20.3118C78.3671 20.1819 78.2089 19.9959 78.1035 19.7536C78.0508 19.6343 78.0157 19.5079 77.9525 19.3991C77.8049 19.1393 77.7768 18.8514 77.7487 18.5636C77.7381 18.4513 77.7311 18.3354 77.6889 18.2336C77.5941 18.0089 77.5976 17.7808 77.6152 17.5455C77.6292 17.37 77.6292 17.198 77.6327 17.0225V16.9172C77.6327 16.8715 77.9103 15.2427 77.84 14.7898C77.7979 14.516 77.8541 14.2317 77.8646 13.9508C77.8681 13.8174 77.8646 13.6805 77.8646 13.5471V13.3786C77.8646 13.3646 77.8822 13.347 77.8787 13.333C77.826 13.0065 77.956 12.6906 77.9489 12.3676C77.9489 12.3184 77.9489 12.2693 77.9595 12.2237C78.0403 11.8972 78.223 11.146 78.2195 11.1003C78.1984 10.7984 78.1703 10.493 78.1492 10.1911C78.1457 10.142 78.1492 10.0963 78.1527 10.0472C78.1773 9.84005 78.2125 9.63644 78.2335 9.42933C78.2406 9.34156 78.2335 9.25029 78.2089 9.16604C78.1527 8.99754 78.1422 8.83957 78.2089 8.67106C78.2283 8.61776 78.2283 8.55937 78.2089 8.50607C78.1141 8.25683 78.1773 8.01109 78.2089 7.76536C78.2476 7.47048 78.3003 7.1756 78.36 6.88423C78.4057 6.6736 78.4619 6.46297 78.5287 6.25585C78.606 6.02767 78.6903 5.80651 78.729 5.56429C78.7606 5.36068 78.8765 4.35318 78.9152 4.0267C78.9222 3.97053 78.9046 3.91437 78.9081 3.86171C78.9152 3.74235 78.8976 3.61246 78.9433 3.50715C79.0311 3.29301 79.1401 3.08589 79.256 2.88229C79.3228 2.76293 79.4528 2.71729 79.5863 2.71027C79.7795 2.69974 80.2398 2.68219 80.4331 2.69272C80.8301 2.71729 81.1639 2.87878 81.4696 3.14557C81.6558 3.30705 81.8982 3.40535 82.0493 3.61247C82.4147 3.75639 82.4569 4.11797 82.4569 4.4269C82.4569 4.75337 82.3866 5.04825 82.3304 5.37121C82.3058 5.51514 82.225 5.65556 82.1442 5.78194C81.9931 6.02767 81.9158 6.29447 81.8736 6.57531C81.8209 6.91582 81.7788 7.25985 81.7331 7.60037C81.7261 7.64951 81.719 7.69866 81.6944 7.74079C81.5293 8.03918 81.6769 9.12391 81.582 9.34859C81.5609 9.40124 81.596 9.489 81.6242 9.55219C81.6804 9.67857 81.6874 9.80495 81.6347 9.92781C81.589 10.0331 81.6101 10.1209 81.6417 10.2262C81.6944 10.4017 81.7155 10.5843 81.7506 10.7773C81.7788 10.7668 81.8244 10.7563 81.8596 10.7317C82.0634 10.5597 83.272 9.98749 83.4758 9.81548C83.5918 9.71719 83.6972 9.60485 83.8272 9.52762C84.0239 9.41177 84.3015 9.34859 84.4175 9.16253C84.5369 8.97296 84.9691 8.76936 85.1553 8.65C85.2923 8.56224 85.3802 8.43586 85.4786 8.30948C85.6296 8.1129 85.8545 7.96897 86.0583 7.811C86.1778 7.71621 86.3956 7.5793 86.5221 7.49505C86.5678 7.46346 86.617 7.43538 86.6662 7.4108C86.7224 7.38272 86.7962 7.37219 86.8418 7.33357C87.0421 7.16507 87.0491 7.02114 87.2881 6.92987C87.4391 6.8737 87.5024 6.74381 87.5164 6.58584C87.5446 6.26639 87.6078 5.59237 87.6043 5.57833C87.52 5.27994 87.5867 4.97453 87.5727 4.67614C87.5621 4.48657 87.6008 4.2935 87.6394 4.10393C87.6851 3.86171 87.671 3.83714 87.7097 3.70023C87.7589 3.52119 87.8221 3.34567 87.8467 3.16663C87.9065 2.78399 88.0154 2.41539 88.1454 2.0503C88.2121 1.87127 88.2473 1.67819 88.2824 1.48863C88.3105 1.3447 88.3597 1.21832 88.4475 1.09545C88.574 0.912908 88.6794 0.712811 88.7708 0.512714C88.8235 0.396868 88.8867 0.305596 88.9957 0.242407C89.3435 0.0493307 89.7124 -0.0349207 90.1095 0.0142259C90.2184 0.0282678 90.3343 0.0282678 90.4433 0.0142259C90.756 -0.0208788 91.0371 0.0879459 91.29 0.249428C91.5957 0.446015 91.8768 0.670685 92.1192 0.948013C92.3055 1.16215 92.3757 1.42895 92.4987 1.67117C92.5303 1.73436 92.5268 1.83265 92.5093 1.90988C92.453 2.13455 92.3933 2.35922 92.316 2.57687C92.2598 2.74538 92.1755 2.90335 92.1017 3.06483C92.0771 3.11749 92.0736 3.18068 92.0138 3.37726C91.9084 3.72129 91.6449 4.58136 91.6625 4.6621C91.7152 4.88677 91.7222 4.88677 91.6765 5.11144C92.2247 5.0307 92.9098 4.83762 93.212 4.76039C93.5879 4.6621 93.9744 4.62699 94.3609 4.64806C94.5015 4.65508 94.6385 4.71827 94.7755 4.76039C94.8669 4.78848 94.9547 4.83762 95.0461 4.85517C95.1515 4.87624 95.2253 4.92538 95.2639 5.02368C95.3342 5.19218 95.4255 5.35717 95.4747 5.5327C95.5345 5.75386 95.5696 5.98555 95.5977 6.21373C95.6117 6.31553 95.6434 6.37521 95.7417 6.41032C95.8963 6.46297 95.9561 6.5718 95.9245 6.72977C95.9245 6.74381 95.9174 6.76487 95.9245 6.77892C96.0088 7.02465 95.9491 7.28091 95.9631 7.53016C95.9631 7.60037 95.9561 7.6776 95.9245 7.73728C95.805 7.96195 95.7172 8.21821 95.422 8.28491C95.3939 8.29193 95.3658 8.31651 95.3447 8.34108C95.2182 8.49905 95.0601 8.59383 94.8563 8.62192C94.7931 8.63245 94.4523 8.90627 94.3258 8.96945C94.1044 9.08179 93.8725 9.17306 93.6441 9.27135C93.609 9.28891 93.2928 9.44337 93.0679 9.53464C92.6568 9.69963 92.3652 9.90675 91.9576 10.0823C91.9225 10.0963 91.8768 10.1139 91.8557 10.142C91.6484 10.4298 91.3392 10.5913 91.0652 10.7949C90.9035 10.9143 90.8438 11.0968 90.8016 11.2899C90.756 11.4935 90.5346 14.2001 90.5487 14.6564C90.5487 14.7196 90.5416 14.7828 90.5346 14.8495C90.5206 15.0461 90.5557 15.0952 90.7525 15.1198C90.9281 15.1444 91.1038 15.1619 91.283 15.169C91.4376 15.176 91.5606 15.2321 91.666 15.341C91.7609 15.4393 91.8733 15.52 91.9682 15.6183C92.0419 15.699 92.1052 15.7938 92.1649 15.8851C92.186 15.9167 92.1895 15.9623 92.2071 15.9974C92.5338 16.0957 92.1649 17.3314 91.8382 17.2366C91.4903 17.4753 91.1354 17.6895 90.763 17.8826C90.7279 17.9001 90.6892 17.9212 90.6646 17.9528C90.2992 18.36 89.7897 18.5144 89.3154 18.7286C89.1608 18.7988 88.7216 18.9533 88.567 19.02C88.3913 19.0972 88.04 19.1147 87.8608 19.1885C87.6535 19.2727 87.2494 19.3183 87.0421 19.4026C87.0105 19.4131 86.9824 19.4412 86.9543 19.4412C86.638 19.4342 86.118 19.5992 85.8159 19.6343C85.6753 19.6518 85.3626 19.7887 85.2361 19.722C85.0359 19.6202 84.7583 19.708 84.551 19.6202C84.3015 19.5149 84.1504 19.3324 84.0591 19.0866C84.0134 18.9673 83.9818 18.8409 83.9326 18.7216C83.8658 18.5671 83.8447 18.4197 83.9115 18.2547C83.9958 18.0475 84.0661 17.8439 84.2488 17.6825C84.5439 17.4192 84.9058 17.2788 85.2326 17.0716C85.4505 16.9347 86.5572 16.5977 86.7856 16.4749C87.0702 16.3204 87.1932 16.029 87.1159 15.7061C87.0316 15.3375 86.9297 14.6354 86.9367 14.502C86.9472 14.2317 86.9297 13.4769 86.9191 13.0943C86.8981 13.0837 86.877 13.0697 86.8594 13.0592L86.8559 13.0486ZM209.768 115.074C205.647 115.074 196.213 114.649 196.213 110.289C196.213 106.993 203.152 106.055 209.768 106.055C217.491 106.055 223.211 107.61 223.211 110.289C223.211 114.881 213.967 115.074 209.768 115.074ZM209.793 130C221.556 130 229.03 128.15 235.193 125.043C241.359 121.937 244.901 116.13 244.901 110.173C244.901 104.216 241.535 99.4696 235.456 96.3874C229.311 93.2736 221.556 91.9115 209.793 91.9115C198.029 91.9115 190.38 93.1367 184.214 96.2434C178.048 99.3502 174.639 104.346 174.639 110.173C174.639 116 178.167 121.937 184.298 125.043C190.433 128.15 198.093 130 209.793 130ZM50.4621 46.851V91.1111L0 91.1287V46.9002L50.4621 46.851ZM18.7872 62.3041V75.7212H32.8099V62.3041H18.7872ZM58.5469 45.4222V102.84H77.8225V45.3942L58.5469 45.4222ZM29.5282 111.447L78.0965 110.556V128.178H6.11716L6.75312 96.6401H30.1993L29.5282 111.447ZM172.008 46.8651V88.5695C172.008 88.5695 193.817 89.0329 206.314 87.569C216.792 86.3404 221.714 83.6619 221.714 83.6619L217.568 69.2268C217.568 69.2268 213.925 70.7574 208.377 71.4875C200.872 72.4775 191.937 72.1967 191.937 72.1967V62.3076H217.512V46.8405L172.004 46.8686L172.008 46.8651ZM256 62.9606L243.534 63.6838V45.3977H225.151V89.8263H243.534V80.2392L255.796 80.8043L256 62.9606ZM164.394 92.8207L86.3499 92.926V109.71L114.877 109.727L113.833 128.519H136.608L135.596 109.741L164.394 109.759V92.8207Z" fill="#152484"/>
<path d="M152.501 72.2072C142.958 70.3817 138.358 66.6641 137.364 62.3603L161.242 62.448V46.8545L89.5019 46.8615V62.4375L113.022 62.3989C112.207 66.0322 107.927 70.2869 97.8783 72.0773C92.5974 73.0181 87.3516 73.3094 87.3516 73.3094L92.1722 89.412C92.1722 89.412 104.856 89.1136 111.047 87.0916C118.735 84.5816 123.046 81.0781 125.189 77.2342C127.333 81.0781 131.644 84.5781 139.332 87.0916C145.519 89.1136 158.702 89.412 158.702 89.412L163.34 73.3094C163.34 73.3094 158.185 73.2919 152.504 72.2072H152.501Z" fill="#152484"/>
</g>
<defs>
<clipPath id="clip0_319_499">
<rect width="256" height="130" fill="white"/>
</clipPath>
</defs>
</svg>
