<svg width="256" height="100" viewBox="0 0 256 100" fill="none" xmlns="http://www.w3.org/2000/svg">
<g clip-path="url(#clip0_319_482)">
<path d="M171.904 11.1913H185.984V33.3616H171.904V11.1913ZM151.85 36.1275H137.77V60.7658H185.984V48.1701H151.85V36.1275ZM246.698 23.1488V11.1913H232.704V48.1701H246.698V36.2126H256V23.1488H246.698ZM229.632 23.702V11.1913H192.128V48.1701H229.717V35.6594H206.08V23.702H229.632ZM231.21 50.3403C221.525 50.3403 213.717 58.1275 213.717 67.7871C213.717 77.4467 221.525 85.2339 231.21 85.2339C240.896 85.2339 248.704 77.4467 248.704 67.7871C248.661 58.1701 240.81 50.3403 231.21 50.3403ZM231.21 72.936C228.394 72.936 226.048 70.6382 226.048 67.7871C226.048 64.9786 228.352 62.6382 231.21 62.6382C234.026 62.6382 236.373 64.936 236.373 67.7871C236.33 70.6382 234.026 72.936 231.21 72.936ZM144.853 0.0849609L120.789 24.085L130.09 33.3616L144.853 18.6807L159.53 33.3616L168.917 24.085L144.853 0.0849609Z" fill="#FF7920"/>
<path d="M86.1013 87.8298H115.541V99.9149H129.621V75.2766H86.1013V87.8298ZM51.8827 47.6595H48.8107V36.1276H34.8587V73.1064H48.8107V61.617H51.8827V73.1064H65.8347V36.1276H51.8827V47.6595ZM115.627 36.1276V41.9149H111.189V53.0212H115.627V56.2127H111.189V67.3191H115.627V73.1064H129.621V36.1276H115.627ZM0 36.1276V48.6383H17.8773V73.1064H31.7867V36.1276H0ZM107.349 56.2553C107.349 52.6383 106.197 49.3191 104.277 46.5532H109.056V36.1276H97.4933V31.4468H83.4987V36.1276H71.9787V46.5957H76.7573C74.7947 49.3191 73.6853 52.6808 73.6853 56.2978C73.6853 65.5744 81.2373 73.1064 90.5387 73.1064C99.84 73.1064 107.349 65.5744 107.349 56.2553ZM85.504 56.2553C85.504 53.5319 87.7227 51.2766 90.496 51.2766C93.2267 51.2766 95.488 53.4893 95.488 56.2553C95.488 58.9787 93.2693 61.234 90.496 61.234C87.7653 61.234 85.504 59.0212 85.504 56.2553Z" fill="black"/>
</g>
<defs>
<clipPath id="clip0_319_482">
<rect width="256" height="100" fill="white"/>
</clipPath>
</defs>
</svg>
