<svg width="256" height="50" viewBox="0 0 256 50" fill="none" xmlns="http://www.w3.org/2000/svg">
<g clip-path="url(#clip0_319_456)">
<path d="M27.0972 0.320915H36.4509V18.5566H39.0697V0.321453H48.6362V50.0005H39.0697V28.2356H36.4509V50.0005H27.0972V0.320915ZM0 36.8447C6.52017 31.7648 7.5356 25.8294 7.5356 10.2673V1.3909H17.4227V10.2673C17.4227 25.8288 18.4392 31.7643 24.9599 36.8447V48.3952C19.2409 45.1334 15.1786 41.6577 12.453 36.149C9.72734 41.6572 5.71904 45.1334 0 48.3952V36.8447ZM53.1768 1.123H98.6068V19.5191H64.8815V22.1927H99.1413V30.6424H53.1768V11.7116H86.9021V9.25187H53.1768V1.123ZM51.3062 39.6787H69.8524V32.2461H81.9318V39.6787H100.477V49.1979H51.3062V39.6787ZM116.668 11.3368H138.795C139.597 11.3368 140.078 10.6416 140.078 9.83953C140.078 9.03744 139.597 8.34231 138.796 8.34231H116.668C115.867 8.34231 115.386 9.03744 115.386 9.83953C115.386 10.6416 115.867 11.3368 116.668 11.3368ZM151.249 50H105.016V34.2245H116.615V42.0315H151.249V50ZM113.462 7.62939e-05H142.056C146.973 7.62939e-05 151.088 4.54523 151.088 10.0534C151.088 15.5611 146.973 19.9998 142.056 19.9998H113.462C108.491 19.9998 104.482 15.5616 104.482 10.054C104.482 4.54523 108.491 7.62939e-05 113.462 7.62939e-05ZM103.146 22.5665H152.318V30.6419H133.664V38.9836H122.387V30.6419H103.146V22.5665ZM191.545 0.320915H203.571V50H191.545V0.320915ZM167.547 37.9141L175.03 37.1655V11.0694H167.547V37.9141ZM156.056 1.92509H186.253V48.3952H175.03V46.4702L156.056 48.3952V1.92509ZM234.727 0.320915H244.08V18.5566H246.431V0.321453H255.999V50.0005H246.431V28.2356H244.08V50.0005H234.727V0.320915ZM207.897 1.92509H231.52V28.5559H218.319V37.7537L233.39 35.9891V45.4008L207.897 48.3952V19.7325H221.259V11.2838H207.897V1.92509Z" fill="#17274E"/>
</g>
<defs>
<clipPath id="clip0_319_456">
<rect width="256" height="50" fill="white"/>
</clipPath>
</defs>
</svg>
