<svg width="350" height="355" viewBox="0 0 410 395" fill="none" xmlns="http://www.w3.org/2000/svg">
<g filter="url(#filter0_d_904_1424)">
<rect x="8" y="8" width="391" height="376" rx="8" fill="white"/>
<rect x="8.5" y="8.5" width="390" height="375" rx="7.5" stroke="#DDDDDD"/>
<path d="M187.614 47.144H189.742V49.288H187.614V47.144ZM182.014 45.896H195.358V47.448H182.014V45.896ZM187.614 39.592H189.726V41.384H187.614V39.592ZM187.486 41.48H189.358V41.768C189.358 43.896 187.198 45.304 183.102 45.528L182.51 43.944C186.126 43.8 187.486 42.792 187.486 41.768V41.48ZM187.982 41.48H189.854V41.768C189.854 42.792 191.214 43.8 194.814 43.944L194.222 45.528C190.142 45.304 187.982 43.896 187.982 41.768V41.48ZM183.262 40.76H194.094V42.312H183.262V40.76ZM183.518 48.344H193.758V52.008H185.63V53.416H183.534V50.584H191.662V49.88H183.518V48.344ZM183.534 52.776H194.142V54.328H183.534V52.776ZM204.349 42.36H207.357V44.088H204.349V42.36ZM200.173 40.376H201.917V41.768C201.917 44.696 200.621 47.24 197.805 48.216L196.685 46.536C199.165 45.72 200.173 43.768 200.173 41.768V40.376ZM200.605 40.376H202.317V41.896C202.317 43.736 203.309 45.544 205.629 46.296L204.525 47.96C201.837 47.032 200.605 44.632 200.605 41.896V40.376ZM199.085 49.096H209.181V54.424H207.053V50.776H199.085V49.096ZM207.053 39.608H209.181V48.424H207.053V39.608ZM211.579 46.152H225.003V47.704H211.579V46.152ZM213.083 48.552H223.403V52.072H215.227V53.336H213.115V50.728H221.307V49.992H213.083V48.552ZM213.115 52.888H223.819V54.328H213.115V52.888ZM213.227 39.848H223.371V43.336H215.355V44.552H213.243V41.992H221.275V41.272H213.227V39.848ZM213.243 44.056H223.643V45.496H213.243V44.056ZM214.875 46.68H216.987V49.464H214.875V46.68ZM219.595 46.68H221.707V49.464H219.595V46.68Z" fill="#222222"/>
<path d="M363.213 43.966C363.425 43.3645 363.842 42.8573 364.392 42.5342C364.942 42.2112 365.588 42.0931 366.216 42.2009C366.845 42.3087 367.415 42.6354 367.826 43.1232C368.236 43.611 368.461 44.2284 368.46 44.866C368.46 46.666 365.76 47.566 365.76 47.566M365.832 51.166H365.841M374.832 46.666C374.832 51.6366 370.803 55.666 365.832 55.666C360.861 55.666 356.832 51.6366 356.832 46.666C356.832 41.6955 360.861 37.666 365.832 37.666C370.803 37.666 374.832 41.6955 374.832 46.666Z" stroke="#667085" stroke-width="1.33333" stroke-linecap="round" stroke-linejoin="round"/>
<circle cx="83" cy="83" r="83" transform="matrix(-1 0 0 1 287.75 119)" stroke="#DDDDDD" stroke-opacity="0.6" stroke-width="24"/>
<path d="M204.75 119C250.59 119 287.75 156.16 287.75 202C287.75 247.84 250.59 285 204.75 285C158.91 285 121.75 247.84 121.75 202" stroke="#E61E2B" stroke-opacity="0.6" stroke-width="24" stroke-linecap="round"/>
<circle cx="118" cy="118" r="118" transform="matrix(-1 0 0 1 321.5 84)" stroke="#DDDDDD" stroke-width="24"/>
<path d="M203.5 84C268.67 84 321.5 136.83 321.5 202C321.5 267.17 268.67 320 203.5 320C175.014 320 131.783 308.175 106.045 268.578" stroke="#E61E2B" stroke-width="24" stroke-linecap="round"/>
<circle cx="97.25" cy="352" r="6" fill="#E61E2B"/>
<path d="M112.146 346.52H113.13V347.876H118.374V346.52H119.37V350.852H112.146V346.52ZM113.13 348.668V350.048H118.374V348.668H113.13ZM110.838 352.004H120.642V352.82H110.838V352.004ZM115.254 350.384H116.238V352.364H115.254V350.384ZM112.11 355.88H119.562V356.696H112.11V355.88ZM112.11 353.696H113.106V356.156H112.11V353.696ZM125.157 352.592H126.165V354.38H125.157V352.592ZM129.909 346.088H130.905V356.936H129.909V346.088ZM122.265 354.872L122.133 354.044C124.185 354.032 126.885 354.008 129.225 353.708L129.297 354.44C126.885 354.848 124.269 354.872 122.265 354.872ZM122.361 347.408H128.949V348.212H122.361V347.408ZM125.649 348.836C127.209 348.836 128.265 349.628 128.265 350.84C128.265 352.064 127.209 352.844 125.649 352.844C124.101 352.844 123.045 352.064 123.045 350.84C123.045 349.628 124.101 348.836 125.649 348.836ZM125.649 349.604C124.677 349.604 123.993 350.096 123.993 350.84C123.993 351.584 124.677 352.076 125.649 352.076C126.633 352.076 127.317 351.584 127.317 350.84C127.317 350.096 126.633 349.604 125.649 349.604ZM125.157 346.088H126.153V347.852H125.157V346.088ZM136.813 346.868C138.505 346.868 139.717 347.912 139.717 349.424C139.717 350.948 138.505 351.992 136.813 351.992C135.121 351.992 133.897 350.948 133.897 349.424C133.897 347.912 135.121 346.868 136.813 346.868ZM136.813 347.732C135.685 347.732 134.869 348.416 134.869 349.424C134.869 350.432 135.685 351.128 136.813 351.128C137.929 351.128 138.745 350.432 138.745 349.424C138.745 348.416 137.929 347.732 136.813 347.732ZM141.133 346.076H142.129V356.948H141.133V346.076ZM133.489 354.572L133.345 353.744C135.325 353.744 138.061 353.732 140.425 353.36L140.509 354.092C138.073 354.56 135.421 354.572 133.489 354.572Z" fill="#222222"/>
<circle cx="268.75" cy="352" r="6" fill="#E61E2B" fill-opacity="0.6"/>
<path d="M284.978 346.652H285.806V347.756C285.806 349.844 284.63 351.572 282.818 352.28L282.29 351.476C283.922 350.876 284.978 349.412 284.978 347.756V346.652ZM285.158 346.652H285.974V347.828C285.974 349.292 287.054 350.648 288.614 351.188L288.086 351.968C286.346 351.32 285.158 349.712 285.158 347.828V346.652ZM289.766 346.088H290.762V352.664H289.766V346.088ZM290.486 348.884H292.37V349.724H290.486V348.884ZM287.306 352.964C289.526 352.964 290.87 353.696 290.87 354.944C290.87 356.192 289.526 356.912 287.306 356.912C285.086 356.912 283.742 356.192 283.742 354.944C283.742 353.696 285.086 352.964 287.306 352.964ZM287.306 353.756C285.698 353.756 284.714 354.188 284.714 354.944C284.714 355.7 285.698 356.132 287.306 356.132C288.914 356.132 289.898 355.7 289.898 354.944C289.898 354.188 288.914 353.756 287.306 353.756ZM301.457 346.1H302.465V352.292H301.457V346.1ZM295.457 352.88H302.465V356.792H295.457V352.88ZM301.481 353.672H296.429V355.988H301.481V353.672ZM296.645 346.664C298.289 346.664 299.465 347.696 299.465 349.196C299.465 350.696 298.289 351.728 296.645 351.728C295.001 351.728 293.813 350.696 293.813 349.196C293.813 347.696 295.001 346.664 296.645 346.664ZM296.645 347.492C295.565 347.492 294.785 348.188 294.785 349.196C294.785 350.204 295.565 350.888 296.645 350.888C297.725 350.888 298.505 350.204 298.505 349.196C298.505 348.188 297.725 347.492 296.645 347.492ZM308.337 346.592C309.957 346.592 311.109 347.492 311.109 348.824C311.109 350.144 309.957 351.068 308.337 351.068C306.729 351.068 305.577 350.144 305.577 348.824C305.577 347.492 306.729 346.592 308.337 346.592ZM308.337 347.42C307.281 347.42 306.525 347.996 306.525 348.824C306.525 349.664 307.281 350.228 308.337 350.228C309.393 350.228 310.149 349.664 310.149 348.824C310.149 347.996 309.393 347.42 308.337 347.42ZM307.893 352.268H308.889V356.6H307.893V352.268ZM312.693 346.088H313.677V356.948H312.693V346.088ZM304.905 352.808L304.773 351.968C306.789 351.968 309.537 351.944 311.925 351.584L311.997 352.328C309.549 352.772 306.885 352.808 304.905 352.808Z" fill="#222222"/>
</g>
<defs>
<filter id="filter0_d_904_1424" x="0.5" y="0.5" width="409" height="394" filterUnits="userSpaceOnUse" color-interpolation-filters="sRGB">
<feFlood flood-opacity="0" result="BackgroundImageFix"/>
<feColorMatrix in="SourceAlpha" type="matrix" values="0 0 0 0 0 0 0 0 0 0 0 0 0 0 0 0 0 0 127 0" result="hardAlpha"/>
<feMorphology radius="4" operator="dilate" in="SourceAlpha" result="effect1_dropShadow_904_1424"/>
<feOffset dx="1.5" dy="1.5"/>
<feGaussianBlur stdDeviation="2.5"/>
<feComposite in2="hardAlpha" operator="out"/>
<feColorMatrix type="matrix" values="0 0 0 0 0.0627 0 0 0 0 0.0942333 0 0 0 0 0.1573 0 0 0 0.18 0"/>
<feBlend mode="normal" in2="BackgroundImageFix" result="effect1_dropShadow_904_1424"/>
<feBlend mode="normal" in="SourceGraphic" in2="effect1_dropShadow_904_1424" result="shape"/>
</filter>
</defs>
</svg>
