<svg width="393" height="377" viewBox="0 0 393 377" fill="none" xmlns="http://www.w3.org/2000/svg">
<g filter="url(#filter0_d_615_1353)">
<rect y="1" width="391" height="376" rx="8" fill="white"/>
<rect x="0.5" y="1.5" width="390" height="375" rx="7.5" stroke="#DDDDDD"/>
<path d="M179.614 40.144H181.742V42.288H179.614V40.144ZM174.014 38.896H187.358V40.448H174.014V38.896ZM179.614 32.592H181.726V34.384H179.614V32.592ZM179.486 34.48H181.358V34.768C181.358 36.896 179.198 38.304 175.102 38.528L174.51 36.944C178.126 36.8 179.486 35.792 179.486 34.768V34.48ZM179.982 34.48H181.854V34.768C181.854 35.792 183.214 36.8 186.814 36.944L186.222 38.528C182.142 38.304 179.982 36.896 179.982 34.768V34.48ZM175.262 33.76H186.094V35.312H175.262V33.76ZM175.518 41.344H185.758V45.008H177.63V46.416H175.534V43.584H183.662V42.88H175.518V41.344ZM175.534 45.776H186.142V47.328H175.534V45.776ZM196.349 35.36H199.357V37.088H196.349V35.36ZM192.173 33.376H193.917V34.768C193.917 37.696 192.621 40.24 189.805 41.216L188.685 39.536C191.165 38.72 192.173 36.768 192.173 34.768V33.376ZM192.605 33.376H194.317V34.896C194.317 36.736 195.309 38.544 197.629 39.296L196.525 40.96C193.837 40.032 192.605 37.632 192.605 34.896V33.376ZM191.085 42.096H201.181V47.424H199.053V43.776H191.085V42.096ZM199.053 32.608H201.181V41.424H199.053V32.608ZM203.579 39.152H217.003V40.704H203.579V39.152ZM205.083 41.552H215.403V45.072H207.227V46.336H205.115V43.728H213.307V42.992H205.083V41.552ZM205.115 45.888H215.819V47.328H205.115V45.888ZM205.227 32.848H215.371V36.336H207.355V37.552H205.243V34.992H213.275V34.272H205.227V32.848ZM205.243 37.056H215.643V38.496H205.243V37.056ZM206.875 39.68H208.987V42.464H206.875V39.68ZM211.595 39.68H213.707V42.464H211.595V39.68Z" fill="#222222"/>
<path d="M355.213 36.966C355.425 36.3645 355.842 35.8573 356.392 35.5342C356.942 35.2112 357.588 35.0931 358.216 35.2009C358.845 35.3087 359.415 35.6354 359.826 36.1232C360.236 36.611 360.461 37.2284 360.46 37.866C360.46 39.666 357.76 40.566 357.76 40.566M357.832 44.166H357.841M366.832 39.666C366.832 44.6366 362.803 48.666 357.832 48.666C352.861 48.666 348.832 44.6366 348.832 39.666C348.832 34.6955 352.861 30.666 357.832 30.666C362.803 30.666 366.832 34.6955 366.832 39.666Z" stroke="#667085" stroke-width="1.33333" stroke-linecap="round" stroke-linejoin="round"/>
<circle cx="83" cy="83" r="83" transform="matrix(-1 0 0 1 279.75 112)" stroke="#DDDDDD" stroke-width="24"/>
<path d="M196.75 112C242.59 112 279.75 149.16 279.75 195C279.75 240.84 242.59 278 196.75 278C150.91 278 113.75 240.84 113.75 195" stroke="#E61E2B" stroke-opacity="0.6" stroke-width="24" stroke-linecap="round"/>
<circle cx="118" cy="118" r="118" transform="matrix(-1 0 0 1 313.5 77)" stroke="#DDDDDD" stroke-width="24"/>
<path d="M195.5 77C260.67 77 313.5 129.83 313.5 195C313.5 260.17 260.67 313 195.5 313C167.014 313 123.783 301.175 98.0446 261.578" stroke="#E61E2B" stroke-width="24" stroke-linecap="round"/>
<circle cx="89.25" cy="345" r="6" fill="#E61E2B"/>
<path d="M104.146 339.52H105.13V340.876H110.374V339.52H111.37V343.852H104.146V339.52ZM105.13 341.668V343.048H110.374V341.668H105.13ZM102.838 345.004H112.642V345.82H102.838V345.004ZM107.254 343.384H108.238V345.364H107.254V343.384ZM104.11 348.88H111.562V349.696H104.11V348.88ZM104.11 346.696H105.106V349.156H104.11V346.696ZM117.157 345.592H118.165V347.38H117.157V345.592ZM121.909 339.088H122.905V349.936H121.909V339.088ZM114.265 347.872L114.133 347.044C116.185 347.032 118.885 347.008 121.225 346.708L121.297 347.44C118.885 347.848 116.269 347.872 114.265 347.872ZM114.361 340.408H120.949V341.212H114.361V340.408ZM117.649 341.836C119.209 341.836 120.265 342.628 120.265 343.84C120.265 345.064 119.209 345.844 117.649 345.844C116.101 345.844 115.045 345.064 115.045 343.84C115.045 342.628 116.101 341.836 117.649 341.836ZM117.649 342.604C116.677 342.604 115.993 343.096 115.993 343.84C115.993 344.584 116.677 345.076 117.649 345.076C118.633 345.076 119.317 344.584 119.317 343.84C119.317 343.096 118.633 342.604 117.649 342.604ZM117.157 339.088H118.153V340.852H117.157V339.088ZM128.813 339.868C130.505 339.868 131.717 340.912 131.717 342.424C131.717 343.948 130.505 344.992 128.813 344.992C127.121 344.992 125.897 343.948 125.897 342.424C125.897 340.912 127.121 339.868 128.813 339.868ZM128.813 340.732C127.685 340.732 126.869 341.416 126.869 342.424C126.869 343.432 127.685 344.128 128.813 344.128C129.929 344.128 130.745 343.432 130.745 342.424C130.745 341.416 129.929 340.732 128.813 340.732ZM133.133 339.076H134.129V349.948H133.133V339.076ZM125.489 347.572L125.345 346.744C127.325 346.744 130.061 346.732 132.425 346.36L132.509 347.092C130.073 347.56 127.421 347.572 125.489 347.572Z" fill="#222222"/>
<circle cx="260.75" cy="345" r="6" fill="#E61E2B" fill-opacity="0.6"/>
<path d="M276.978 339.652H277.806V340.756C277.806 342.844 276.63 344.572 274.818 345.28L274.29 344.476C275.922 343.876 276.978 342.412 276.978 340.756V339.652ZM277.158 339.652H277.974V340.828C277.974 342.292 279.054 343.648 280.614 344.188L280.086 344.968C278.346 344.32 277.158 342.712 277.158 340.828V339.652ZM281.766 339.088H282.762V345.664H281.766V339.088ZM282.486 341.884H284.37V342.724H282.486V341.884ZM279.306 345.964C281.526 345.964 282.87 346.696 282.87 347.944C282.87 349.192 281.526 349.912 279.306 349.912C277.086 349.912 275.742 349.192 275.742 347.944C275.742 346.696 277.086 345.964 279.306 345.964ZM279.306 346.756C277.698 346.756 276.714 347.188 276.714 347.944C276.714 348.7 277.698 349.132 279.306 349.132C280.914 349.132 281.898 348.7 281.898 347.944C281.898 347.188 280.914 346.756 279.306 346.756ZM293.457 339.1H294.465V345.292H293.457V339.1ZM287.457 345.88H294.465V349.792H287.457V345.88ZM293.481 346.672H288.429V348.988H293.481V346.672ZM288.645 339.664C290.289 339.664 291.465 340.696 291.465 342.196C291.465 343.696 290.289 344.728 288.645 344.728C287.001 344.728 285.813 343.696 285.813 342.196C285.813 340.696 287.001 339.664 288.645 339.664ZM288.645 340.492C287.565 340.492 286.785 341.188 286.785 342.196C286.785 343.204 287.565 343.888 288.645 343.888C289.725 343.888 290.505 343.204 290.505 342.196C290.505 341.188 289.725 340.492 288.645 340.492ZM300.337 339.592C301.957 339.592 303.109 340.492 303.109 341.824C303.109 343.144 301.957 344.068 300.337 344.068C298.729 344.068 297.577 343.144 297.577 341.824C297.577 340.492 298.729 339.592 300.337 339.592ZM300.337 340.42C299.281 340.42 298.525 340.996 298.525 341.824C298.525 342.664 299.281 343.228 300.337 343.228C301.393 343.228 302.149 342.664 302.149 341.824C302.149 340.996 301.393 340.42 300.337 340.42ZM299.893 345.268H300.889V349.6H299.893V345.268ZM304.693 339.088H305.677V349.948H304.693V339.088ZM296.905 345.808L296.773 344.968C298.789 344.968 301.537 344.944 303.925 344.584L303.997 345.328C301.549 345.772 298.885 345.808 296.905 345.808Z" fill="#222222"/>
</g>
<defs>
<filter id="filter0_d_615_1353" x="-2" y="0.5" width="395" height="380" filterUnits="userSpaceOnUse" color-interpolation-filters="sRGB">
<feFlood flood-opacity="0" result="BackgroundImageFix"/>
<feColorMatrix in="SourceAlpha" type="matrix" values="0 0 0 0 0 0 0 0 0 0 0 0 0 0 0 0 0 0 127 0" result="hardAlpha"/>
<feOffset dy="1.5"/>
<feGaussianBlur stdDeviation="1"/>
<feComposite in2="hardAlpha" operator="out"/>
<feColorMatrix type="matrix" values="0 0 0 0 0.0627 0 0 0 0 0.0942333 0 0 0 0 0.1573 0 0 0 0.1 0"/>
<feBlend mode="normal" in2="BackgroundImageFix" result="effect1_dropShadow_615_1353"/>
<feBlend mode="normal" in="SourceGraphic" in2="effect1_dropShadow_615_1353" result="shape"/>
</filter>
</defs>
</svg>
