<svg width="350" height="395" viewBox="0 0 410 395" fill="none" xmlns="http://www.w3.org/2000/svg">
<g filter="url(#filter0_d_908_1462)">
<rect x="8" y="8" width="391" height="376" rx="8" fill="white"/>
<rect x="8.5" y="8.5" width="390" height="375" rx="7.5" stroke="#DDDDDD"/>
<path d="M161.758 48.824C164.958 48.824 167.006 49.88 167.006 51.64C167.006 53.368 164.958 54.424 161.758 54.424C158.558 54.424 156.51 53.368 156.51 51.64C156.51 49.88 158.558 48.824 161.758 48.824ZM161.758 50.424C159.758 50.424 158.622 50.84 158.622 51.64C158.622 52.424 159.758 52.824 161.758 52.824C163.758 52.824 164.894 52.424 164.894 51.64C164.894 50.84 163.758 50.424 161.758 50.424ZM156.67 40.264H166.046V41.944H156.67V40.264ZM155.166 46.216H168.51V47.912H155.166V46.216ZM160.11 43.64H162.222V46.648H160.11V43.64ZM164.814 40.264H166.926V41.48C166.926 42.648 166.926 43.912 166.526 45.448L164.414 45.224C164.814 43.704 164.814 42.632 164.814 41.48V40.264ZM181.211 41.528H183.771V43.272H181.211V41.528ZM181.211 44.744H183.771V46.488H181.211V44.744ZM179.739 39.608H181.867V48.344H179.739V39.608ZM171.979 48.952H181.867V54.424H179.739V50.648H171.979V48.952ZM174.331 40.408C176.619 40.408 178.363 41.928 178.363 44.04C178.363 46.152 176.619 47.656 174.331 47.656C172.043 47.656 170.299 46.152 170.299 44.04C170.299 41.928 172.043 40.408 174.331 40.408ZM174.331 42.216C173.211 42.216 172.379 42.872 172.379 44.04C172.379 45.208 173.211 45.88 174.331 45.88C175.451 45.88 176.283 45.208 176.283 44.04C176.283 42.872 175.451 42.216 174.331 42.216ZM199.406 39.592H201.55V54.456H199.406V39.592ZM193.566 40.632C195.806 40.632 197.454 42.68 197.454 45.912C197.454 49.176 195.806 51.224 193.566 51.224C191.326 51.224 189.678 49.176 189.678 45.912C189.678 42.68 191.326 40.632 193.566 40.632ZM193.566 42.568C192.462 42.568 191.71 43.736 191.71 45.912C191.71 48.12 192.462 49.304 193.566 49.304C194.67 49.304 195.406 48.12 195.406 45.912C195.406 43.736 194.67 42.568 193.566 42.568ZM214.923 39.608H216.939V48.888H214.923V39.608ZM213.115 43.256H215.483V44.984H213.115V43.256ZM211.851 39.896H213.835V48.408H211.851V39.896ZM204.251 41.128H211.435V42.76H204.251V41.128ZM207.867 43.24C209.723 43.24 211.067 44.296 211.067 45.832C211.067 47.368 209.723 48.408 207.867 48.408C206.011 48.408 204.667 47.368 204.667 45.832C204.667 44.296 206.011 43.24 207.867 43.24ZM207.867 44.76C207.083 44.76 206.555 45.144 206.555 45.832C206.555 46.52 207.083 46.904 207.867 46.904C208.635 46.904 209.163 46.52 209.163 45.832C209.163 45.144 208.635 44.76 207.867 44.76ZM206.795 39.752H208.891V42.248H206.795V39.752ZM211.931 49.048C215.099 49.048 217.019 50.008 217.019 51.736C217.019 53.448 215.099 54.424 211.931 54.424C208.747 54.424 206.827 53.448 206.827 51.736C206.827 50.008 208.747 49.048 211.931 49.048ZM211.931 50.632C209.947 50.632 208.955 50.968 208.955 51.736C208.955 52.488 209.947 52.84 211.931 52.84C213.899 52.84 214.891 52.488 214.891 51.736C214.891 50.968 213.899 50.632 211.931 50.632ZM233.631 39.624H235.759V50.904H233.631V39.624ZM231.695 43.288H234.431V44.984H231.695V43.288ZM231.695 46.472H234.431V48.152H231.695V46.472ZM223.407 41.16H231.535V42.824H223.407V41.16ZM227.567 43.352C229.583 43.352 231.039 44.552 231.039 46.264C231.039 47.976 229.583 49.176 227.567 49.176C225.551 49.176 224.095 47.976 224.095 46.264C224.095 44.552 225.551 43.352 227.567 43.352ZM227.567 44.984C226.703 44.984 226.095 45.448 226.095 46.264C226.095 47.096 226.703 47.544 227.567 47.544C228.431 47.544 229.039 47.096 229.039 46.264C229.039 45.448 228.431 44.984 227.567 44.984ZM226.511 39.576H228.639V42.184H226.511V39.576ZM225.951 52.472H236.079V54.168H225.951V52.472ZM225.951 49.976H228.095V53.256H225.951V49.976ZM248.06 39.624H250.188V49.608H248.06V39.624ZM249.436 43.8H252.044V45.56H249.436V43.8ZM245.228 49.752C248.428 49.752 250.268 50.584 250.268 52.104C250.268 53.624 248.428 54.44 245.228 54.44C242.028 54.44 240.188 53.624 240.188 52.104C240.188 50.584 242.028 49.752 245.228 49.752ZM245.228 51.288C243.212 51.288 242.316 51.528 242.316 52.104C242.316 52.664 243.212 52.904 245.228 52.904C247.212 52.904 248.124 52.664 248.124 52.104C248.124 51.528 247.212 51.288 245.228 51.288ZM241.788 46.136H243.916V48.312H241.788V46.136ZM238.492 49.224L238.252 47.624C240.892 47.624 244.412 47.608 247.404 47.208L247.564 48.648C244.46 49.192 241.068 49.224 238.492 49.224ZM238.636 40.664H247.036V42.2H238.636V40.664ZM242.844 42.568C245.036 42.568 246.444 43.368 246.444 44.68C246.444 45.992 245.036 46.792 242.844 46.792C240.652 46.792 239.228 45.992 239.228 44.68C239.228 43.368 240.652 42.568 242.844 42.568ZM242.844 43.928C241.836 43.928 241.244 44.184 241.244 44.68C241.244 45.192 241.836 45.432 242.844 45.432C243.852 45.432 244.428 45.192 244.428 44.68C244.428 44.184 243.852 43.928 242.844 43.928ZM241.788 39.496H243.916V41.336H241.788V39.496Z" fill="black"/>
<path d="M300.413 134.681C286.605 114.802 267.017 99.6505 244.306 91.2802C221.595 82.91 196.859 81.7263 173.453 87.8897C150.046 94.0531 129.101 107.265 113.457 125.735C97.8137 144.205 88.2283 167.039 86.0008 191.14L162.777 198.236C163.549 189.883 166.871 181.969 172.293 175.568C177.715 169.167 184.974 164.588 193.086 162.452C201.198 160.316 209.771 160.726 217.643 163.627C225.514 166.528 232.302 171.779 237.088 178.669L300.413 134.681Z" fill="#E61E2B" fill-opacity="0.6"/>
<path d="M86.0648 190.469C84.3756 207.672 86.4866 225.036 92.2487 241.334C98.0107 257.631 107.283 272.463 119.41 284.782C131.536 297.1 146.222 306.604 162.426 312.621C178.631 318.638 195.96 321.021 213.188 319.602C230.415 318.182 247.121 312.996 262.123 304.408C277.124 295.82 290.056 284.042 300.004 269.905C309.951 255.768 316.671 239.618 319.688 222.597C322.706 205.577 321.947 188.101 317.465 171.407L242.998 191.397C244.551 197.183 244.814 203.24 243.769 209.139C242.723 215.038 240.394 220.635 236.946 225.534C233.499 230.434 229.017 234.516 223.817 237.492C218.618 240.469 212.828 242.266 206.858 242.758C200.887 243.25 194.881 242.424 189.265 240.339C183.648 238.254 178.559 234.96 174.356 230.69C170.153 226.421 166.94 221.281 164.943 215.632C162.946 209.984 162.214 203.966 162.799 198.004L86.0648 190.469Z" fill="#E61E2B" fill-opacity="0.3"/>
<path d="M317.619 171.985C314.078 158.524 308.184 145.795 300.209 134.388L237.017 178.567C239.781 182.521 241.824 186.932 243.051 191.598L317.619 171.985Z" fill="#E61E2B"/>
<rect width="16" height="16" transform="translate(32 344)" fill="#E61E2B"/>
<path d="M60.472 346.576H61.468V357.448H60.472V346.576ZM55.744 347.416C57.352 347.416 58.504 348.892 58.504 351.196C58.504 353.512 57.352 354.988 55.744 354.988C54.148 354.988 52.996 353.512 52.996 351.196C52.996 348.892 54.148 347.416 55.744 347.416ZM55.744 348.316C54.688 348.316 53.944 349.444 53.944 351.196C53.944 352.96 54.688 354.112 55.744 354.112C56.812 354.112 57.544 352.96 57.544 351.196C57.544 349.444 56.812 348.316 55.744 348.316ZM72.1731 346.588H73.1211V353.452H72.1731V346.588ZM70.4091 349.528H72.4611V350.356H70.4091V349.528ZM69.8571 346.804H70.7931V353.068H69.8571V346.804ZM63.9291 347.884H69.4251V348.676H63.9291V347.884ZM66.6891 349.228C68.0451 349.228 68.9931 349.972 68.9931 351.088C68.9931 352.216 68.0451 352.948 66.6891 352.948C65.3211 352.948 64.3731 352.216 64.3731 351.088C64.3731 349.972 65.3211 349.228 66.6891 349.228ZM66.6891 349.972C65.8371 349.972 65.2611 350.416 65.2611 351.088C65.2611 351.772 65.8371 352.204 66.6891 352.204C67.5291 352.204 68.1051 351.772 68.1051 351.088C68.1051 350.416 67.5291 349.972 66.6891 349.972ZM66.1971 346.672H67.1691V348.328H66.1971V346.672ZM69.5691 353.644C71.8251 353.644 73.1811 354.316 73.1811 355.528C73.1811 356.728 71.8251 357.412 69.5691 357.412C67.2891 357.412 65.9451 356.728 65.9451 355.528C65.9451 354.316 67.2891 353.644 69.5691 353.644ZM69.5691 354.412C67.9011 354.412 66.9291 354.808 66.9291 355.528C66.9291 356.248 67.9011 356.656 69.5691 356.656C71.2131 356.656 72.1971 356.248 72.1971 355.528C72.1971 354.808 71.2131 354.412 69.5691 354.412Z" fill="black"/>
<rect width="16" height="16" transform="translate(149 344)" fill="#E61E2B" fill-opacity="0.6"/>
<path d="M172.48 347.776H173.308V348.88C173.308 350.872 172.084 352.54 170.26 353.2L169.744 352.408C171.376 351.832 172.48 350.428 172.48 348.88V347.776ZM172.672 347.776H173.5V348.88C173.5 350.344 174.628 351.664 176.236 352.204L175.72 352.984C173.92 352.372 172.672 350.788 172.672 348.88V347.776ZM170.008 347.488H175.948V348.292H170.008V347.488ZM177.484 346.6H178.492V354.532H177.484V346.6ZM171.52 356.38H178.816V357.196H171.52V356.38ZM171.52 353.788H172.504V356.74H171.52V353.788ZM189.173 346.588H190.121V353.452H189.173V346.588ZM187.409 349.528H189.461V350.356H187.409V349.528ZM186.857 346.804H187.793V353.068H186.857V346.804ZM180.929 347.884H186.425V348.676H180.929V347.884ZM183.689 349.228C185.045 349.228 185.993 349.972 185.993 351.088C185.993 352.216 185.045 352.948 183.689 352.948C182.321 352.948 181.373 352.216 181.373 351.088C181.373 349.972 182.321 349.228 183.689 349.228ZM183.689 349.972C182.837 349.972 182.261 350.416 182.261 351.088C182.261 351.772 182.837 352.204 183.689 352.204C184.529 352.204 185.105 351.772 185.105 351.088C185.105 350.416 184.529 349.972 183.689 349.972ZM183.197 346.672H184.169V348.328H183.197V346.672ZM186.569 353.644C188.825 353.644 190.181 354.316 190.181 355.528C190.181 356.728 188.825 357.412 186.569 357.412C184.289 357.412 182.945 356.728 182.945 355.528C182.945 354.316 184.289 353.644 186.569 353.644ZM186.569 354.412C184.901 354.412 183.929 354.808 183.929 355.528C183.929 356.248 184.901 356.656 186.569 356.656C188.213 356.656 189.197 356.248 189.197 355.528C189.197 354.808 188.213 354.412 186.569 354.412ZM196.77 352.012H197.766V353.908H196.77V352.012ZM192.366 351.664H202.17V352.468H192.366V351.664ZM197.262 353.608C199.59 353.608 200.982 354.292 200.982 355.516C200.982 356.728 199.59 357.412 197.262 357.412C194.934 357.412 193.542 356.728 193.542 355.516C193.542 354.292 194.934 353.608 197.262 353.608ZM197.262 354.376C195.57 354.376 194.55 354.784 194.55 355.516C194.55 356.236 195.57 356.644 197.262 356.644C198.966 356.644 199.974 356.236 199.974 355.516C199.974 354.784 198.966 354.376 197.262 354.376ZM196.626 347.476H197.514V347.8C197.514 349.552 195.522 350.728 193.278 351.004L192.918 350.212C194.862 350.008 196.626 349.036 196.626 347.8V347.476ZM197.046 347.476H197.922V347.8C197.922 349.036 199.686 350.008 201.63 350.212L201.27 351.004C199.026 350.728 197.046 349.552 197.046 347.8V347.476ZM193.266 347.08H201.294V347.884H193.266V347.08Z" fill="black"/>
<rect width="16" height="16" transform="translate(266 344)" fill="#E61E2B" fill-opacity="0.3"/>
<path d="M294.904 346.588H295.864V357.436H294.904V346.588ZM292.816 346.852H293.764V356.872H292.816V346.852ZM286.696 347.944H291.652V348.76H286.696V347.944ZM286.6 354.796L286.48 353.956C287.92 353.956 290.26 353.92 291.88 353.716L291.94 354.448C290.26 354.748 288.016 354.796 286.6 354.796ZM287.596 348.484H288.508V354.16H287.596V348.484ZM289.852 348.484H290.764V354.16H289.852V348.484ZM291.4 349.672H293.332V350.488H291.4V349.672ZM291.4 351.976H293.332V352.792H291.4V351.976ZM305.885 346.588H306.881V357.436H305.885V346.588ZM302.705 347.752H303.689C303.689 350.896 302.273 353.644 298.649 355.42L298.121 354.616C301.253 353.104 302.705 350.8 302.705 347.92V347.752ZM298.613 347.752H303.137V348.568H298.613V347.752Z" fill="black"/>
</g>
<defs>
<filter id="filter0_d_908_1462" x="0.5" y="0.5" width="409" height="394" filterUnits="userSpaceOnUse" color-interpolation-filters="sRGB">
<feFlood flood-opacity="0" result="BackgroundImageFix"/>
<feColorMatrix in="SourceAlpha" type="matrix" values="0 0 0 0 0 0 0 0 0 0 0 0 0 0 0 0 0 0 127 0" result="hardAlpha"/>
<feMorphology radius="4" operator="dilate" in="SourceAlpha" result="effect1_dropShadow_908_1462"/>
<feOffset dx="1.5" dy="1.5"/>
<feGaussianBlur stdDeviation="2.5"/>
<feComposite in2="hardAlpha" operator="out"/>
<feColorMatrix type="matrix" values="0 0 0 0 0.0627451 0 0 0 0 0.0941176 0 0 0 0 0.156863 0 0 0 0.25 0"/>
<feBlend mode="normal" in2="BackgroundImageFix" result="effect1_dropShadow_908_1462"/>
<feBlend mode="normal" in="SourceGraphic" in2="effect1_dropShadow_908_1462" result="shape"/>
</filter>
</defs>
</svg>
