<svg width="64" height="80" viewBox="0 0 64 80" fill="none" xmlns="http://www.w3.org/2000/svg">
<path d="M62.0006 40.0001C62.0006 38.6739 61.9144 37.3668 61.7471 36.0844C61.6043 34.9891 60.6005 34.217 59.5052 34.3598C58.41 34.5027 57.6379 35.5064 57.7807 36.6017C57.9257 37.7131 58.0006 38.8474 58.0006 40.0001C58.0006 41.1529 57.9257 42.2871 57.7807 43.3985C57.6379 44.4938 58.41 45.4975 59.5052 45.6404C60.6005 45.7832 61.6043 45.0111 61.7471 43.9159C61.9144 42.6334 62.0006 41.3263 62.0006 40.0001Z" />
<path d="M59.7226 51.4844C60.1457 50.4641 59.6616 49.2939 58.6413 48.8708C57.6209 48.4477 56.4508 48.9318 56.0277 49.9522C55.1516 52.0648 54.0045 54.0378 52.6291 55.8275C51.9561 56.7033 52.1205 57.959 52.9963 58.632C53.8722 59.305 55.1278 59.1406 55.8008 58.2648C57.3867 56.2011 58.7108 53.9244 59.7226 51.4844Z" />
<path d="M56.0277 30.0482C56.4508 31.0685 57.6209 31.5526 58.6413 31.1295C59.6616 30.7064 60.1457 29.5363 59.7226 28.5159C58.7108 26.0759 57.3867 23.7992 55.8008 21.7355C55.1278 20.8597 53.8722 20.6953 52.9963 21.3683C52.1205 22.0414 51.9561 23.297 52.6291 24.1728C54.0045 25.9625 55.1516 27.9355 56.0277 30.0482Z" />
<path d="M47.8285 19.3706C48.7043 20.0436 49.9599 19.8792 50.633 19.0034C51.306 18.1275 51.1416 16.8719 50.2658 16.1989C48.2021 14.613 45.9254 13.2889 43.4854 12.2771C42.465 11.854 41.2949 12.3381 40.8718 13.3584C40.4487 14.3788 40.9328 15.5489 41.9532 15.972C44.0658 16.8481 46.0388 17.9952 47.8285 19.3706Z" />
<path d="M50.2658 63.8012C51.1416 63.1282 51.306 61.8726 50.633 60.9967C49.9599 60.1209 48.7043 59.9565 47.8285 60.6296C46.0388 62.0049 44.0658 63.152 41.9532 64.0281C40.9328 64.4512 40.4487 65.6213 40.8718 66.6417C41.2949 67.662 42.465 68.1461 43.4854 67.723C45.9254 66.7112 48.2021 65.3871 50.2658 63.8012Z" />
<path d="M35.9168 69.7466C37.0121 69.6038 37.7842 68.6 37.6414 67.5048C37.4985 66.4095 36.4948 65.6374 35.3995 65.7802C34.2881 65.9252 33.1538 66.0001 32.0011 66.0001C30.8483 66.0001 29.7141 65.9252 28.6027 65.7802C27.5074 65.6374 26.5037 66.4095 26.3608 67.5048C26.218 68.6 26.9901 69.6038 28.0854 69.7466C29.3678 69.9139 30.6749 70.0001 32.0011 70.0001C33.3273 70.0001 34.6344 69.9139 35.9168 69.7466Z" />
<path d="M35.3995 14.2199C36.4948 14.3627 37.4985 13.5906 37.6414 12.4953C37.7842 11.4001 37.0121 10.3963 35.9168 10.2535C34.6344 10.0862 33.3273 10 32.0011 10C30.6749 10 29.3678 10.0862 28.0853 10.2535C26.9901 10.3963 26.218 11.4001 26.3608 12.4954C26.5037 13.5906 27.5074 14.3627 28.6027 14.2199C29.7141 14.0749 30.8483 14 32.0011 14C33.1539 14 34.2881 14.0749 35.3995 14.2199Z" />
<path d="M20.515 67.723C21.5354 68.1461 22.7055 67.662 23.1286 66.6417C23.5517 65.6213 23.0676 64.4512 22.0472 64.0281C19.9346 63.152 17.9616 62.0049 16.1719 60.6296C15.2961 59.9565 14.0404 60.1209 13.3674 60.9967C12.6944 61.8726 12.8588 63.1282 13.7346 63.8012C15.7983 65.3871 18.075 66.7112 20.515 67.723Z" />
<path d="M22.0472 15.972C23.0676 15.5489 23.5517 14.3788 23.1286 13.3584C22.7055 12.3381 21.5354 11.854 20.515 12.2771C18.075 13.2889 15.7983 14.613 13.7346 16.1989C12.8588 16.8719 12.6944 18.1275 13.3674 19.0034C14.0404 19.8792 15.2961 20.0436 16.1719 19.3706C17.9616 17.9952 19.9346 16.8481 22.0472 15.972Z" />
<path d="M11.3716 24.1728C12.0446 23.297 11.8802 22.0414 11.0044 21.3683C10.1285 20.6953 8.87289 20.8597 8.19985 21.7355C6.61396 23.7992 5.28991 26.0759 4.27807 28.5159C3.85496 29.5363 4.3391 30.7064 5.35942 31.1295C6.37973 31.5526 7.54987 31.0685 7.97298 30.0481C8.84906 27.9355 9.99618 25.9625 11.3716 24.1728Z" />
<path d="M8.19985 58.2648C8.87289 59.1406 10.1285 59.305 11.0044 58.632C11.8802 57.959 12.0446 56.7033 11.3716 55.8275C9.99618 54.0378 8.84905 52.0648 7.97298 49.9522C7.54986 48.9318 6.37974 48.4477 5.35942 48.8708C4.33909 49.2939 3.85496 50.4641 4.27807 51.4844C5.2899 53.9244 6.61395 56.2011 8.19985 58.2648Z" />
<path d="M6.21986 36.6017C6.36273 35.5064 5.59064 34.5027 4.49535 34.3598C3.40006 34.217 2.39633 34.9891 2.25346 36.0844C2.08618 37.3668 2 38.6739 2 40.0001C2 41.3263 2.08618 42.6334 2.25346 43.9159C2.39633 45.0111 3.40006 45.7832 4.49535 45.6404C5.59064 45.4975 6.36273 44.4938 6.21986 43.3985C6.0749 42.2871 6 41.1529 6 40.0001C6 38.8474 6.07489 37.7131 6.21986 36.6017Z" />
<path fill-rule="evenodd" clip-rule="evenodd" d="M32 33.1875C28.2475 33.1875 25.25 36.2623 25.25 40C25.25 43.7377 28.2475 46.8125 32 46.8125C35.7525 46.8125 38.75 43.7377 38.75 40C38.75 36.2623 35.7525 33.1875 32 33.1875ZM29.25 40C29.25 38.422 30.5058 37.1875 32 37.1875C33.4942 37.1875 34.75 38.422 34.75 40C34.75 41.578 33.4942 42.8125 32 42.8125C30.5058 42.8125 29.25 41.578 29.25 40Z" />
<path fill-rule="evenodd" clip-rule="evenodd" d="M32 27C23.3583 27 15.8072 31.7819 11.3071 38.935C10.8976 39.586 10.8976 40.4141 11.3071 41.065C15.8072 48.2181 23.3583 53 32 53C40.6417 53 48.1928 48.2181 52.6929 41.065C53.1024 40.4141 53.1024 39.586 52.6929 38.935C48.1928 31.7819 40.6417 27 32 27ZM32 49C25.3272 49 19.3116 45.5299 15.4033 40C19.3116 34.4701 25.3272 31 32 31C38.6728 31 44.6884 34.4701 48.5967 40C44.6884 45.5299 38.6728 49 32 49Z" />
</svg>
