<svg width="64" height="80" viewBox="0 0 64 80" fill="none" xmlns="http://www.w3.org/2000/svg">
<path d="M57.75 28.5C58.1641 28.5 58.5 28.1641 58.5 27.75V23.75C58.5 23.3359 58.1641 23 57.75 23H54.5V20.75C54.5 19.7852 53.7148 19 52.75 19H40.7129L32.1748 13.1319C31.9189 12.9561 31.581 12.9561 31.3252 13.1319L22.7871 19H10.75C9.7852 19 9 19.7852 9 20.75V23H5.75C5.3359 23 5 23.3359 5 23.75V27.75C5 28.1641 5.3359 28.5 5.75 28.5H8V61H5.75C5.3359 61 5 61.3359 5 61.75V65.75C5 66.1641 5.3359 66.5 5.75 66.5H57.75C58.1641 66.5 58.5 66.1641 58.5 65.75V61.75C58.5 61.3359 58.1641 61 57.75 61H55.5V28.5H57.75ZM52.75 20.5C52.8857 20.5 53 20.6143 53 20.75V23H46.5328L42.8953 20.5H52.75ZM31.75 14.6602L43.8843 23H19.6156L31.75 14.6602ZM10.5 20.75C10.5 20.6143 10.6143 20.5 10.75 20.5H20.6047L16.9672 23H10.5V20.75ZM6.5 24.5H57V27H6.5V24.5ZM50 61H41.5V58.75C41.5 58.6123 41.6123 58.5 41.75 58.5H49.75C49.8877 58.5 50 58.6123 50 58.75V61ZM37.5 61V58.75C37.5 57.7852 36.7148 57 35.75 57H35.5V32.5H35.75C36.7148 32.5 37.5 31.7148 37.5 30.75V28.5H40V30.75C40 31.7148 40.7852 32.5 41.75 32.5H42V57H41.75C40.7852 57 40 57.7852 40 58.75V61H37.5ZM23.5 61V58.75C23.5 57.7852 22.7148 57 21.75 57H21.5V32.5H21.75C22.7148 32.5 23.5 31.7148 23.5 30.75V28.5H26V30.75C26 31.7148 26.7852 32.5 27.75 32.5H28V57H27.75C26.7852 57 26 57.7852 26 58.75V61H23.5ZM13.5 28.5H22V30.75C22 30.8877 21.8877 31 21.75 31H13.75C13.6123 31 13.5 30.8877 13.5 30.75V28.5ZM15.5 32.5H20V57H15.5V32.5ZM14.75 58.5H21.75C21.8877 58.5 22 58.6123 22 58.75V61H13.5V58.75C13.5 58.6123 13.6123 58.5 13.75 58.5H14.75ZM34 57H29.5V32.5H34V57ZM34.75 31H27.75C27.6123 31 27.5 30.8877 27.5 30.75V28.5H36V30.75C36 30.8877 35.8877 31 35.75 31H34.75ZM27.5 58.75C27.5 58.6123 27.6123 58.5 27.75 58.5H35.75C35.8877 58.5 36 58.6123 36 58.75V61H27.5V58.75ZM48 57H43.5V32.5H48V57ZM48.75 31H41.75C41.6123 31 41.5 30.8877 41.5 30.75V28.5H50V30.75C50 30.8877 49.8877 31 49.75 31H48.75ZM9.5 28.5H12V30.75C12 31.7148 12.7852 32.5 13.75 32.5H14V57H13.75C12.7852 57 12 57.7852 12 58.75V61H9.5V28.5ZM57 65H6.5V62.5H57V65ZM54 61H51.5V58.75C51.5 57.7852 50.7148 57 49.75 57H49.5V32.5H49.75C50.7148 32.5 51.5 31.7148 51.5 30.75V28.5H54V61Z" />
</svg>
