<svg width="64" height="80" viewBox="0 0 64 80" fill="none" xmlns="http://www.w3.org/2000/svg">
<path d="M61.3445 57.5731L55.1321 40.4736C55.9455 38.0364 56.3615 35.488 56.3615 32.8928C56.3615 25.9539 53.39 19.6985 48.6565 15.3228C48.654 15.3203 48.6533 15.3164 48.6508 15.3139C48.6457 15.3081 48.638 15.3062 48.6329 15.3004C44.366 11.3676 38.6732 8.95996 32.4255 8.95996C32.4204 8.95996 32.4159 8.96252 32.4114 8.96252C19.2204 8.97148 8.49142 19.7036 8.49142 32.8947C8.49142 35.3472 8.8639 37.7625 9.59222 40.08L3.23766 57.5731C3.11734 57.9059 3.28886 58.2726 3.62102 58.3929L12.149 61.4912C12.2194 61.5174 12.2937 61.5302 12.3673 61.5302C12.4601 61.5302 12.5529 61.5104 12.638 61.47C12.7916 61.3984 12.9106 61.2684 12.9689 61.1091L13.4501 59.7843C15.6946 61.5046 23.0028 66.9491 30.2034 70.5907C30.2591 70.6188 30.3167 70.6348 30.3749 70.6457C30.8428 70.9017 31.3573 71.0412 31.8841 71.0412C32.1061 71.0412 32.3301 71.0182 32.5522 70.9708C33.3823 70.7942 34.0933 70.3046 34.5561 69.5923C34.9439 68.992 35.1026 68.2963 35.0418 67.5955L36.6437 68.6214C36.6444 68.622 36.6444 68.622 36.6444 68.622C36.645 68.6227 36.6457 68.6227 36.6457 68.6227L36.6476 68.624C36.6482 68.624 36.6489 68.6246 36.6495 68.6246C37.1615 68.9555 37.7445 69.1264 38.3397 69.1264C38.5586 69.1264 38.7788 69.1033 38.997 69.0572C39.8137 68.8832 40.5138 68.4012 40.9669 67.6998C41.4124 67.0131 41.566 66.1958 41.4073 65.3952C41.5289 65.4092 41.6517 65.4214 41.7753 65.4214C41.998 65.4214 42.222 65.3977 42.4453 65.3504C43.2786 65.1731 43.9916 64.6809 44.453 63.9667C44.942 63.2121 45.0655 62.327 44.8767 61.5142C44.9663 61.5219 45.054 61.5334 45.1442 61.5334C45.3676 61.5334 45.5929 61.5097 45.8169 61.4617C46.5541 61.3036 47.1871 60.8889 47.6441 60.302L51.0265 59.4956L51.6127 61.1097C51.6703 61.2691 51.7893 61.399 51.9436 61.4707C52.0293 61.511 52.1215 61.5308 52.2143 61.5308C52.2879 61.5308 52.3615 61.518 52.4332 61.4918L60.9612 58.3936C61.2933 58.2726 61.4655 57.9059 61.3445 57.5731ZM54.0767 37.5667C53.9564 37.2339 53.5909 37.0624 53.2569 37.1833L44.7295 40.2803C44.5701 40.3379 44.4402 40.4569 44.3685 40.6112C44.2969 40.7654 44.2892 40.9408 44.3474 41.1008L44.6802 42.0172L42.1477 42.5868C43.2281 39.5827 43.8034 36.5523 43.8783 33.5347H55.0687C55.0226 35.2012 54.7993 36.8448 54.3961 38.446L54.0767 37.5667ZM28.7993 40.8979C28.7986 40.8985 28.7986 40.8985 28.798 40.8985C28.734 40.9292 28.1612 41.2153 27.406 41.7996C26.0261 41.5404 24.7628 41.4259 23.6537 41.4009C22.7954 38.791 22.3359 36.16 22.2725 33.534H31.7868V40.1241C30.6949 40.1811 29.6677 40.4108 28.7993 40.8979ZM33.0668 22.4256C35.4361 22.3705 37.7605 21.9712 39.973 21.2454C41.621 24.8396 42.5042 28.535 42.5925 32.2547H33.0668V22.4256ZM33.0668 21.1456V11.1872C35.7369 14.0384 37.8553 17.0182 39.4111 20.0793C37.374 20.7302 35.2409 21.0918 33.0668 21.1456ZM33.989 10.3001C39.0194 10.6451 43.6018 12.6374 47.2025 15.7427C45.2325 17.422 43.0137 18.7404 40.6367 19.6531C39.0162 16.4294 36.7967 13.294 33.989 10.3001ZM31.7868 11.1878V21.1417C29.6223 21.0739 27.4988 20.7008 25.4732 20.0409C27.0258 16.99 29.134 14.0224 31.7868 11.1878ZM24.2521 19.6057C21.8898 18.6828 19.685 17.3587 17.7292 15.6768C21.317 12.6105 25.8687 10.6451 30.862 10.3027C28.0767 13.2761 25.8687 16.3955 24.2521 19.6057ZM31.7868 22.4217V32.2547H22.2757C22.3673 28.5216 23.2524 24.8115 24.9087 21.2057C27.1109 21.9417 29.4258 22.3513 31.7868 22.4217ZM33.0668 33.5347H42.5887C42.5157 36.4294 41.9621 39.3337 40.9215 42.2105C39.2441 41.4969 36.0543 40.3091 33.0674 40.1324L33.0668 33.5347ZM55.0655 32.2547H43.8815C43.797 28.3846 42.8901 24.544 41.1903 20.8115C43.7151 19.8297 46.069 18.4134 48.1541 16.6118C52.2777 20.5952 54.8946 26.1228 55.0655 32.2547ZM16.7737 16.542C18.8453 18.3475 21.1858 19.7683 23.6965 20.7609C21.9865 24.5075 21.0764 28.3673 20.9881 32.2547H9.78742C9.95958 26.087 12.6073 20.5305 16.7737 16.542ZM9.79638 33.5347H20.9868C21.0495 36.1606 21.4892 38.7948 22.3103 41.4112C21.3849 41.4476 20.6169 41.536 20.0447 41.6275L20.2354 41.1014C20.293 40.9414 20.2853 40.766 20.2137 40.6118C20.142 40.4582 20.0121 40.3392 19.8521 40.2809L11.3247 37.184C10.9932 37.0643 10.6252 37.2352 10.5049 37.5673L10.3532 37.9859C10.0185 36.5299 9.83798 35.0406 9.79638 33.5347ZM11.9845 60.0697L4.6591 57.4086L11.4892 38.6054L18.814 41.2659L11.9845 60.0697ZM45.5493 60.2086C45.0521 60.3136 44.542 60.2214 44.1138 59.9436C44.1132 59.943 44.1125 59.943 44.1119 59.943C44.1113 59.9424 44.1113 59.9417 44.1106 59.9417L43.5193 59.5628C43.518 59.5622 43.5173 59.5609 43.5161 59.5603C43.5154 59.5596 43.5148 59.5596 43.5141 59.5596L37.4418 55.6697C37.1436 55.4784 36.7481 55.5648 36.558 55.8636C36.3673 56.1612 36.4537 56.5568 36.7519 56.7475L42.821 60.6355C43.6997 61.2076 43.9506 62.3878 43.3791 63.2691C43.1026 63.6966 42.6764 63.991 42.1791 64.0966C41.6933 64.2022 41.1961 64.11 40.7737 63.847C40.7666 63.8419 40.7628 63.8342 40.7564 63.8304L40.0543 63.3811C40.0517 63.3792 40.0498 63.3772 40.0473 63.3753C40.046 63.3747 40.0441 63.3747 40.0428 63.3734L34.0383 59.5283C33.7401 59.3363 33.3445 59.4246 33.1545 59.7222C32.9637 60.0198 33.0508 60.4153 33.3484 60.606L39.3497 64.4492C39.3503 64.4499 39.3503 64.4499 39.3509 64.4505C39.7644 64.7174 40.0479 65.1302 40.1503 65.6115C40.2533 66.094 40.1618 66.5868 39.893 67.0022C39.6255 67.4156 39.2127 67.7004 38.7308 67.8028C38.2489 67.9059 37.7561 67.815 37.3413 67.5468C37.3407 67.5462 37.3401 67.5462 37.3394 67.5462C37.3388 67.5456 37.3388 67.5449 37.3381 67.5449L30.7404 63.3196C30.4428 63.1276 30.0473 63.216 29.8565 63.5136C29.6658 63.8112 29.7529 64.2067 30.0505 64.3974L32.8133 66.167C32.8485 66.2048 32.8786 66.2451 32.9234 66.2745C33.3477 66.5491 33.6396 66.9721 33.7452 67.4662C33.8514 67.9616 33.7586 68.4691 33.4828 68.894C33.2063 69.3196 32.7813 69.6121 32.286 69.7177C31.79 69.8227 31.2837 69.7305 30.8594 69.4534C30.782 69.4035 30.6981 69.374 30.6124 69.36C23.1583 65.5628 15.6178 59.8444 13.9084 58.5209L19.5365 43.0246C20.3692 42.8428 22.8556 42.4224 26.1906 42.896C25.0156 44.1203 23.7868 45.9545 23.3004 48.5523C23.3004 48.5536 23.3004 48.5548 23.2997 48.5561C23.2972 48.5708 23.2927 48.5849 23.2895 48.6003C23.2889 48.6054 23.2901 48.6099 23.2895 48.6144C22.8607 50.3692 23.877 51.6812 25.125 52.0723C25.3983 52.158 25.6908 52.2035 25.9916 52.2035C27.326 52.2035 28.8377 51.312 29.6575 49.1168C29.6588 49.1142 29.6607 49.1116 29.662 49.1091C30.0793 48.1363 31.5442 47.8611 32.2546 47.8208L46.1874 56.7436C46.1881 56.7443 46.1881 56.7443 46.1881 56.7443C46.6143 57.0214 46.9081 57.4476 47.0137 57.9449C47.1199 58.4422 47.0258 58.9516 46.7481 59.3792C46.4722 59.808 46.0466 60.1017 45.5493 60.2086ZM48.2924 58.8307C48.3513 58.4524 48.3481 58.0646 48.2661 57.6793C48.0895 56.8473 47.5986 56.1344 46.885 55.6716C46.8844 55.671 46.8837 55.671 46.8831 55.671C46.8825 55.6704 46.8825 55.6697 46.8818 55.6697L32.7749 46.6348C32.7596 46.6246 32.7423 46.624 32.7263 46.6163C32.6879 46.5958 32.6482 46.5817 32.606 46.5696C32.5637 46.5568 32.5228 46.5478 32.4793 46.544C32.462 46.5427 32.4466 46.5337 32.4287 46.5337C32.3039 46.5337 29.365 46.5574 28.4857 48.6048C28.4831 48.6105 28.4844 48.6169 28.4818 48.622C28.4799 48.6278 28.4748 48.6316 28.4729 48.6368C27.7586 50.5862 26.4697 51.1532 25.5084 50.8512C24.8236 50.6361 24.2578 49.9424 24.5381 48.8774C24.5401 48.8697 24.5381 48.8627 24.5394 48.855C24.5413 48.846 24.5471 48.8396 24.549 48.83C25.429 44.0166 29.2991 42.0774 29.3522 42.0512C29.3593 42.048 29.3637 42.0409 29.3701 42.0377C29.3772 42.0339 29.3855 42.0345 29.3932 42.03C30.222 41.5539 31.2601 41.3708 32.3775 41.376C32.3941 41.3772 32.4089 41.3862 32.4261 41.3862C32.4402 41.3862 32.453 41.3785 32.4671 41.3779C36.4793 41.431 41.4687 43.8585 41.5333 43.8912C41.5436 43.8963 41.5538 43.8944 41.5641 43.8982C41.6428 43.9334 41.7266 43.9571 41.8162 43.9571C41.8623 43.9571 41.9097 43.952 41.9577 43.9417L45.1199 43.2313L50.5874 58.2848L48.2924 58.8307ZM52.5977 60.0697L45.7682 41.2659L53.0924 38.6054L59.9231 57.4086L52.5977 60.0697Z" />
</svg>
