<svg width="64" height="80" viewBox="0 0 64 80" fill="none" xmlns="http://www.w3.org/2000/svg">
<path d="M52.545 60.2642C49.7795 60.2642 47.5293 62.5144 47.5293 65.2798C47.5293 65.6331 47.8154 65.9198 48.1693 65.9198C48.5232 65.9198 48.8093 65.6331 48.8093 65.2798C48.8093 63.2203 50.4848 61.5442 52.545 61.5442C54.6051 61.5442 56.2807 63.2203 56.2807 65.2798C56.2807 65.6331 56.5667 65.9198 56.9207 65.9198C57.2746 65.9198 57.5607 65.6331 57.5607 65.2798C57.5607 62.5144 55.3104 60.2642 52.545 60.2642Z" />
<path d="M6.58679 43.1904C6.33719 43.4412 6.33847 43.8464 6.58935 44.096C6.83959 44.3456 7.24535 44.3443 7.49431 44.094L11.6146 39.9532V47.7478C9.59927 48.0576 8.04919 49.7984 8.04919 51.8995C8.04919 52.2528 8.33527 52.5395 8.68919 52.5395C9.04311 52.5395 9.32919 52.2528 9.32919 51.8995C9.32919 50.286 10.6418 48.974 12.2546 48.974C13.8169 48.974 15.0854 50.208 15.1654 51.7504C13.0169 53.3331 11.6146 55.872 11.6146 58.7385C11.6146 59.0918 11.9007 59.3785 12.2546 59.3785C12.6086 59.3785 12.8946 59.0918 12.8946 58.7385C12.8946 54.656 16.2162 51.3337 20.2994 51.3337C24.3282 51.3337 27.6102 54.5708 27.6959 58.5798H23.7426C23.3887 58.5798 23.1026 58.8665 23.1026 59.2198C23.1026 59.5731 23.3887 59.8598 23.7426 59.8598H47.022C47.3759 59.8598 47.662 59.5731 47.662 59.2198C47.662 58.8665 47.3759 58.5798 47.022 58.5798H28.9759C28.8902 53.8649 25.0348 50.0537 20.2994 50.0537C18.8818 50.0537 17.5462 50.4019 16.3628 51.0073C15.9967 49.3209 14.6162 48.0128 12.8946 47.7478V39.9526L17.015 44.0934C17.1398 44.2188 17.3042 44.2816 17.4687 44.2816C17.6319 44.2816 17.7958 44.2195 17.9199 44.0953C18.1708 43.8457 18.1721 43.4406 17.9225 43.1897L12.8953 38.1376V36.7008L17.0156 40.8416C17.1404 40.967 17.3049 41.0297 17.4694 41.0297C17.6326 41.0297 17.7958 40.9676 17.9206 40.8435C18.1714 40.5939 18.1727 40.1888 17.9231 39.9379L12.8959 34.8851V33.3606L17.0162 37.5014C17.141 37.6268 17.3055 37.6896 17.47 37.6896C17.6332 37.6896 17.7964 37.6275 17.9212 37.5033C18.1721 37.2537 18.1734 36.8486 17.9238 36.5977L12.8966 31.5449V30.0204L17.0169 34.1612C17.1417 34.2867 17.3062 34.3494 17.4706 34.3494C17.6338 34.3494 17.797 34.2873 17.9218 34.1632C18.1727 33.9136 18.174 33.5084 17.9244 33.2576L12.711 28.0179C12.471 27.7766 12.0434 27.7766 11.8034 28.0179L6.58999 33.2576C6.34039 33.5084 6.34167 33.9136 6.59255 34.1632C6.84407 34.4128 7.24855 34.4115 7.49751 34.1612L11.6178 30.0204V31.5449L6.59063 36.5977C6.34103 36.8486 6.34231 37.2537 6.59319 37.5033C6.84471 37.7529 7.24919 37.7516 7.49815 37.5014L11.6185 33.3606V34.8851L6.59127 39.9379C6.34167 40.1888 6.34295 40.5939 6.59383 40.8435C6.84535 41.0931 7.24983 41.0918 7.49879 40.8416L11.6191 36.7008V38.1376L6.58679 43.1904Z" />
<path d="M41.7919 50.2418C41.5423 50.4927 41.5436 50.8978 41.7944 51.1474C42.046 51.397 42.4504 51.3958 42.6994 51.1455L48.9432 44.8703V56.5913C48.9432 56.9446 49.2293 57.2313 49.5832 57.2313C49.9372 57.2313 50.2232 56.9446 50.2232 56.5913V44.8716L56.4664 51.1455C56.5912 51.271 56.7557 51.3337 56.9202 51.3337C57.0834 51.3337 57.2472 51.2716 57.3714 51.1474C57.6223 50.8978 57.6236 50.4927 57.374 50.2418L50.2232 43.0566V40.295L56.4664 46.5689C56.7154 46.8191 57.1212 46.8204 57.3714 46.5708C57.6223 46.3212 57.6236 45.9161 57.374 45.6652L50.2232 38.4799V35.5954L56.4664 41.8694C56.5912 41.9948 56.7557 42.0575 56.9202 42.0575C57.0834 42.0575 57.2472 41.9954 57.3714 41.8713C57.6223 41.6217 57.6236 41.2166 57.374 40.9657L50.2232 33.781V30.8959L56.4664 37.1698C56.5912 37.2953 56.7557 37.358 56.9202 37.358C57.0834 37.358 57.2472 37.2959 57.3714 37.1718C57.6223 36.9222 57.6236 36.517 57.374 36.2662L50.0364 28.8934C49.7964 28.6521 49.3688 28.6521 49.1288 28.8934L41.7919 36.2668C41.5423 36.5177 41.5436 36.9228 41.7944 37.1724C42.046 37.422 42.4504 37.4207 42.6994 37.1705L48.9432 30.8953V33.7804L41.7919 40.9663C41.5423 41.2172 41.5436 41.6223 41.7944 41.8719C42.046 42.1215 42.4504 42.1202 42.6994 41.87L48.9432 35.5948V38.4793L41.7919 45.6658C41.5423 45.9167 41.5436 46.3218 41.7944 46.5714C41.9192 46.6956 42.0824 46.7577 42.2456 46.7577C42.4101 46.7577 42.5746 46.695 42.6994 46.5695L48.9432 40.2943V43.0559L41.7919 50.2418Z" />
<path d="M21.9462 34.1634C21.6966 34.4143 21.6978 34.8194 21.9487 35.069C22.199 35.3186 22.6047 35.3173 22.8537 35.0671L28.3782 29.5157V38.1404C24.8806 38.4937 22.1407 41.4556 22.1407 45.0453C22.1407 45.3986 22.4268 45.6853 22.7807 45.6853C23.1346 45.6853 23.4207 45.3986 23.4207 45.0453C23.4207 41.9241 25.9602 39.3852 29.0815 39.3852C32.0697 39.3852 34.519 41.7148 34.7218 44.653C34.4652 44.6127 34.2047 44.5852 33.9366 44.5852C31.2127 44.5852 28.9938 46.7689 28.9273 49.4773H26.1561C25.8022 49.4773 25.5161 49.7641 25.5161 50.1173C25.5161 50.4706 25.8022 50.7573 26.1561 50.7573H33.9366C34.2905 50.7573 34.5766 50.4706 34.5766 50.1173C34.5766 49.7641 34.2905 49.4773 33.9366 49.4773H30.2073C30.2732 47.4748 31.9186 45.8652 33.9366 45.8652C35.9967 45.8652 37.6722 47.5413 37.6722 49.6009C37.6722 49.9541 37.9583 50.2409 38.3122 50.2409C38.6662 50.2409 38.9522 49.9541 38.9522 49.6009C38.9522 47.5797 37.7478 45.8383 36.0217 45.0447C36.0217 41.4127 33.2159 38.429 29.6588 38.134V29.5157L35.1826 35.0671C35.3074 35.1925 35.4719 35.2553 35.6364 35.2553C35.7996 35.2553 35.9634 35.1932 36.0876 35.069C36.3385 34.8194 36.3398 34.4143 36.0902 34.1634L29.6582 27.7007V25.3877L35.182 30.9391C35.3068 31.0645 35.4713 31.1273 35.6358 31.1273C35.799 31.1273 35.9628 31.0652 36.087 30.941C36.3378 30.6914 36.3391 30.2863 36.0895 30.0354L29.6582 23.5733V21.1497L35.182 26.701C35.3068 26.8265 35.4713 26.8892 35.6358 26.8892C35.799 26.8892 35.9628 26.8271 36.087 26.7029C36.3378 26.4533 36.3391 26.0482 36.0895 25.7973L29.6582 19.3346V16.9109L35.182 22.4623C35.3068 22.5877 35.4713 22.6505 35.6358 22.6505C35.799 22.6505 35.9628 22.5884 36.087 22.4642C36.3378 22.2146 36.3391 21.8095 36.0895 21.5586L29.4719 14.9084L29.4713 14.9077C29.413 14.8489 29.3426 14.8021 29.2652 14.7695C29.1878 14.7375 29.1039 14.7202 29.0182 14.7202C28.9324 14.7202 28.8486 14.7375 28.7711 14.7701C28.6937 14.8028 28.6233 14.8495 28.565 14.9084L28.5644 14.909L21.9462 21.5586C21.6966 21.8095 21.6978 22.2146 21.9487 22.4642C22.199 22.7138 22.6047 22.7125 22.8537 22.4623L28.3782 16.9109V19.3353L21.9462 25.7973C21.6966 26.0482 21.6978 26.4533 21.9487 26.7029C22.199 26.9525 22.6047 26.9513 22.8537 26.701L28.3782 21.1497V23.574L21.9462 30.0361C21.6966 30.2869 21.6978 30.6921 21.9487 30.9417C22.199 31.1913 22.6047 31.19 22.8537 30.9397L28.3782 25.3884V27.7013L21.9462 34.1634Z" />
<path d="M22.4017 65.9421H32.3998C32.7537 65.9421 33.0398 65.6554 33.0398 65.3021C33.0398 64.9488 32.7537 64.6621 32.3998 64.6621H22.4017C22.0478 64.6621 21.7617 64.9488 21.7617 65.3021C21.7617 65.6554 22.0484 65.9421 22.4017 65.9421Z" />
<path d="M45.3523 62.2611C45.3523 61.9078 45.0662 61.6211 44.7123 61.6211H34.7142C34.3603 61.6211 34.0742 61.9078 34.0742 62.2611C34.0742 62.6144 34.3603 62.9011 34.7142 62.9011H44.7123C45.0662 62.9011 45.3523 62.6144 45.3523 62.2611Z" />
<path d="M7.25523 62.9011H17.2527C17.6066 62.9011 17.8927 62.6144 17.8927 62.2611C17.8927 61.9078 17.6066 61.6211 17.2527 61.6211H7.25523C6.90131 61.6211 6.61523 61.9078 6.61523 62.2611C6.61523 62.6144 6.90195 62.9011 7.25523 62.9011Z" />
<path d="M36.1556 64.6621C35.8017 64.6621 35.5156 64.9488 35.5156 65.3021C35.5156 65.6554 35.8017 65.9421 36.1556 65.9421H38.77C39.1239 65.9421 39.41 65.6554 39.41 65.3021C39.41 64.9488 39.1239 64.6621 38.77 64.6621H36.1556Z" />
<path d="M33.1576 52.0176C32.8037 52.0176 32.5176 52.3043 32.5176 52.6576C32.5176 53.0109 32.8037 53.2976 33.1576 53.2976H35.772C36.1259 53.2976 36.412 53.0109 36.412 52.6576C36.412 52.3043 36.1259 52.0176 35.772 52.0176H33.1576Z" />
</svg>
