<svg  viewBox="0 0 64 80" fill="none" xmlns="http://www.w3.org/2000/svg">
<path d="M61.8434 70.5002L43.8434 38.0002C43.5934 37.5002 42.9434 37.3502 42.4934 37.6002C41.9934 37.8502 41.8434 38.5002 42.0934 38.9502L60.0934 71.4502C60.2934 71.8002 60.5934 71.9502 60.9934 71.9502C61.1434 71.9502 61.3434 71.9002 61.4934 71.8002C61.9434 71.6002 62.1434 71.0002 61.8434 70.5002Z" />
<path d="M21.8426 39C22.0926 38.5 21.9426 37.9 21.4426 37.65C20.9426 37.4 20.3426 37.55 20.0926 38.05C17.8926 41.95 15.6926 46.05 13.5426 50C9.84265 56.75 5.99265 63.75 2.14265 70.5C1.84265 71 2.04265 71.6 2.49265 71.85C2.64265 71.95 2.84265 72 2.99265 72C3.34265 72 3.69265 71.8 3.84265 71.5C7.74265 64.75 11.5926 57.7 15.2926 50.9C17.4426 46.95 19.6926 42.9 21.8426 39Z" />
<path d="M31.9922 61.5C31.6922 61.5 31.4922 61.7 31.4922 62V66C31.4922 66.3 31.6922 66.5 31.9922 66.5C32.2922 66.5 32.4922 66.3 32.4922 66V62C32.4922 61.75 32.2922 61.5 31.9922 61.5Z" />
<path d="M31.9922 69.5C31.6922 69.5 31.4922 69.7 31.4922 70V71C31.4922 71.3 31.6922 71.5 31.9922 71.5C32.2922 71.5 32.4922 71.3 32.4922 71V70C32.4922 69.75 32.2922 69.5 31.9922 69.5Z" />
<path d="M31.9922 53.5C31.6922 53.5 31.4922 53.7 31.4922 54V58C31.4922 58.3 31.6922 58.5 31.9922 58.5C32.2922 58.5 32.4922 58.3 32.4922 58V54C32.4922 53.75 32.2922 53.5 31.9922 53.5Z" />
<path d="M31.9922 45.5C31.6922 45.5 31.4922 45.7 31.4922 46V50C31.4922 50.3 31.6922 50.5 31.9922 50.5C32.2922 50.5 32.4922 50.3 32.4922 50V46C32.4922 45.7 32.2922 45.5 31.9922 45.5Z" />
<path d="M31.9922 37.5C31.6922 37.5 31.4922 37.7 31.4922 38V42C31.4922 42.3 31.6922 42.5 31.9922 42.5C32.2922 42.5 32.4922 42.3 32.4922 42V38C32.4922 37.7 32.2922 37.5 31.9922 37.5Z" />
<path d="M41.8926 36C41.8926 35.7 41.6926 35.5 41.3926 35.5H33.9926V32H37.9926V27.95C38.7926 27.75 39.5426 27 39.7926 26.15L39.8926 25.9C40.1926 24.85 39.7426 24.05 38.8426 24.05H37.9926V22C38.7926 21.8 39.5426 21.05 39.7926 20.2L39.8926 19.95C40.1926 18.9 39.7426 18.1 38.8426 18.1H37.9926V16.05C38.7926 15.85 39.5426 15.1 39.7926 14.25L39.8926 14C40.1926 12.85 39.7426 12 38.8426 12H37.9926V11.95C37.9926 9.75 36.1926 8 33.9926 8H29.9926C27.7926 8 25.9926 9.75 25.9926 11.95V12H25.1426C24.2426 12 23.7926 12.85 24.0926 13.85L24.1926 14.1C24.4426 15 25.2426 15.75 25.9926 15.9V18H25.1426C24.2426 18 23.7926 18.85 24.0926 19.85L24.1926 20.1C24.4426 21 25.2426 21.75 25.9926 21.9V24H25.1426C24.2426 24 23.7926 24.85 24.0926 25.85L24.1926 26.1C24.4426 27 25.2426 27.75 25.9926 27.9V32H29.9926V35.5H22.6426C22.3426 35.5 22.1426 35.7 22.1426 36C22.1426 36.3 22.3426 36.5 22.6426 36.5H41.3926C41.6426 36.5 41.8926 36.3 41.8926 36ZM32.9926 32V35.5H30.9926V32H32.9926ZM38.8426 25C38.8926 25 38.9426 25 38.9426 25.05C38.9926 25.1 39.0426 25.3 38.9426 25.6L38.8426 25.85C38.6926 26.35 38.3426 26.7 37.9926 26.9V25H38.8426ZM38.8426 19C38.8926 19 38.9426 19 38.9426 19.05C38.9926 19.1 39.0426 19.3 38.9426 19.6L38.8426 19.85C38.6926 20.35 38.3426 20.7 37.9926 20.9V19H38.8426ZM38.8426 13C38.8926 13 38.9426 13 38.9426 13.05C38.9926 13.1 39.0426 13.3 38.9426 13.6L38.8426 13.85C38.6926 14.35 38.3426 14.7 37.9926 14.9V13H38.8426ZM25.1426 13.85L25.0426 13.6C24.9426 13.3 24.9926 13.1 25.0426 13.05C25.0426 13.05 25.0926 13 25.1426 13H25.9926V14.9C25.6426 14.7 25.2926 14.3 25.1426 13.85ZM25.1426 19.85L25.0426 19.6C24.9426 19.3 24.9926 19.1 25.0426 19.05C25.0426 19.05 25.0926 19 25.1426 19H25.9926V20.9C25.6426 20.7 25.2926 20.3 25.1426 19.85ZM25.1426 25.85L25.0426 25.6C24.9426 25.3 24.9926 25.1 25.0426 25.05C25.0426 25.05 25.0926 25 25.1426 25H25.9926V26.9C25.6426 26.7 25.2926 26.3 25.1426 25.85ZM27.9926 12V11.95C27.9926 10.85 28.8926 10 29.9926 10H33.9926C35.0926 10 35.9926 10.85 35.9926 11.95V30H27.9926V12Z" />
<path d="M31.9922 12C30.8922 12 29.9922 12.9 29.9922 14C29.9922 15.1 30.8922 16 31.9922 16C33.0922 16 33.9922 15.1 33.9922 14C33.9922 12.9 33.0922 12 31.9922 12ZM31.9922 15C31.4422 15 30.9922 14.55 30.9922 14C30.9922 13.45 31.4422 13 31.9922 13C32.5422 13 32.9922 13.45 32.9922 14C32.9922 14.55 32.5422 15 31.9922 15Z" />
<path d="M31.9922 18C30.8922 18 29.9922 18.9 29.9922 20C29.9922 21.1 30.8922 22 31.9922 22C33.0922 22 33.9922 21.1 33.9922 20C33.9922 18.9 33.0922 18 31.9922 18ZM31.9922 21C31.4422 21 30.9922 20.55 30.9922 20C30.9922 19.45 31.4422 19 31.9922 19C32.5422 19 32.9922 19.45 32.9922 20C32.9922 20.55 32.5422 21 31.9922 21Z" />
<path d="M31.9922 24C30.8922 24 29.9922 24.9 29.9922 26C29.9922 27.1 30.8922 28 31.9922 28C33.0922 28 33.9922 27.1 33.9922 26C33.9922 24.9 33.0922 24 31.9922 24ZM31.9922 27C31.4422 27 30.9922 26.55 30.9922 26C30.9922 25.45 31.4422 25 31.9922 25C32.5422 25 32.9922 25.45 32.9922 26C32.9922 26.55 32.5422 27 31.9922 27Z" />
<path d="M27.6922 60H27.9922C28.2922 60 28.4922 59.8 28.4922 59.5C28.4922 59.2 28.2922 59 27.9922 59H27.1422L26.2922 57.4C26.0422 56.9 25.3922 56.5 24.8422 56.5H18.1422C17.5922 56.5 16.9422 56.9 16.6922 57.4L15.8422 59H14.9922C14.6922 59 14.4922 59.2 14.4922 59.5C14.4922 59.8 14.6922 60 14.9922 60H15.2922L14.4422 61.65C14.1922 62.15 13.9922 63 13.9922 63.55V66.5V68C13.9922 68.55 14.4422 69 14.9922 69H15.9922C16.5422 69 16.9922 68.55 16.9922 68V67.5H25.9922V68C25.9922 68.55 26.4422 69 26.9922 69H27.9922C28.5422 69 28.9922 68.55 28.9922 68V66.5V63.55C28.9922 63 28.7922 62.15 28.5422 61.65L27.6922 60ZM15.8922 61.1H27.1422L27.5922 62H15.3922L15.8922 61.1ZM17.5422 57.85C17.6422 57.7 17.9422 57.5 18.0922 57.5H24.8422C25.0422 57.5 25.3422 57.7 25.3922 57.85L26.5422 60.1H16.3922L17.5422 57.85ZM15.9922 68H14.9922V67.5H15.9922V68ZM27.9922 68H26.9922V67.5H27.9922V68ZM25.9922 66.5H16.9922H14.9922V63.55C14.9922 63.4 15.0422 63.2 15.0422 63H27.8922C27.9422 63.2 27.9422 63.4 27.9422 63.55V66.5H25.9922Z" />
<path d="M17.4922 65.25C17.7683 65.25 17.9922 65.0261 17.9922 64.75C17.9922 64.4739 17.7683 64.25 17.4922 64.25C17.216 64.25 16.9922 64.4739 16.9922 64.75C16.9922 65.0261 17.216 65.25 17.4922 65.25Z" />
<path d="M25.4922 65.25C25.7683 65.25 25.9922 65.0261 25.9922 64.75C25.9922 64.4739 25.7683 64.25 25.4922 64.25C25.216 64.25 24.9922 64.4739 24.9922 64.75C24.9922 65.0261 25.216 65.25 25.4922 65.25Z" />
<path d="M22.4922 64.1001H20.4922C20.1922 64.1001 19.9922 64.3001 19.9922 64.6001C19.9922 64.9001 20.1922 65.1001 20.4922 65.1001H22.4922C22.7922 65.1001 22.9922 64.9001 22.9922 64.6001C22.9922 64.3001 22.7922 64.1001 22.4922 64.1001Z" />
<path d="M29.243 46.8C29.243 46.75 29.193 46.7 29.193 46.65H29.343C29.643 46.65 29.843 46.45 29.843 46.15C29.843 45.85 29.643 45.65 29.343 45.65H28.743L28.393 44.9C28.143 44.4 27.493 44 26.943 44H23.093C22.543 44 21.893 44.4 21.643 44.9L21.293 45.65H20.693C20.393 45.65 20.193 45.85 20.193 46.15C20.193 46.45 20.393 46.65 20.693 46.65H20.843C20.793 46.7 20.793 46.75 20.793 46.8L20.493 47.45C20.243 47.95 20.043 48.8 20.043 49.35V50.9C20.043 50.95 20.043 50.95 20.043 51V52.25C20.043 52.65 20.343 52.95 20.693 52.95H21.343C21.693 52.95 21.993 52.65 21.993 52.25V51.9H27.993V52.25C27.993 52.65 28.293 52.95 28.643 52.95H29.293C29.643 52.95 29.943 52.65 29.943 52.25V50.9V49.35C29.943 48.8 29.743 47.95 29.493 47.45L29.243 46.8ZM28.993 49.35V50.9H20.993V49.35C20.993 49.2 20.993 49 21.043 48.8H28.943C28.993 49 28.993 49.2 28.993 49.35ZM21.543 47.45H28.443L28.643 47.85H21.343L21.543 47.45ZM23.093 45H26.943C27.093 45 27.393 45.2 27.493 45.35L28.043 46.45H22.043L22.593 45.35C22.643 45.2 22.893 45 23.093 45Z" />
<path d="M22.3422 50.3001C22.5355 50.3001 22.6922 50.1434 22.6922 49.9501C22.6922 49.7568 22.5355 49.6001 22.3422 49.6001C22.1489 49.6001 21.9922 49.7568 21.9922 49.9501C21.9922 50.1434 22.1489 50.3001 22.3422 50.3001Z" />
<path d="M27.643 50.3001C27.8363 50.3001 27.993 50.1434 27.993 49.9501C27.993 49.7568 27.8363 49.6001 27.643 49.6001C27.4497 49.6001 27.293 49.7568 27.293 49.9501C27.293 50.1434 27.4497 50.3001 27.643 50.3001Z" />
<path d="M24.3418 50.2998H25.6918C25.9918 50.2998 26.1918 50.0998 26.1918 49.7998C26.1918 49.4998 25.9918 49.2998 25.6918 49.2998H24.3418C24.0418 49.2998 23.8418 49.4998 23.8418 49.7998C23.8418 50.0998 24.0418 50.2998 24.3418 50.2998Z" />
<path d="M49.1922 60H49.4922C49.7922 60 49.9922 59.8 49.9922 59.5C49.9922 59.2 49.7922 59 49.4922 59H48.6422L47.7922 57.4C47.5422 56.9 46.8922 56.5 46.3422 56.5H39.6422C39.0922 56.5 38.4422 56.9 38.1922 57.4L37.3422 59H36.4922C36.1922 59 35.9922 59.2 35.9922 59.5C35.9922 59.8 36.1922 60 36.4922 60H36.7922L35.9422 61.65C35.6922 62.15 35.4922 63 35.4922 63.55V66.5V68C35.4922 68.55 35.9422 69 36.4922 69H37.4922C38.0422 69 38.4922 68.55 38.4922 68V67.5H47.4922V68C47.4922 68.55 47.9422 69 48.4922 69H49.4922C50.0422 69 50.4922 68.55 50.4922 68V66.5V63.55C50.4922 63 50.2922 62.15 50.0422 61.65L49.1922 60ZM37.3922 61.1H48.6422L49.0922 62H36.8922L37.3922 61.1ZM39.0422 57.85C39.1422 57.7 39.4422 57.5 39.5922 57.5H46.3422C46.5422 57.5 46.8422 57.7 46.8922 57.85L48.0422 60.1H37.8922L39.0422 57.85ZM37.4922 68H36.4922V67.5H37.4922V68ZM49.4922 68H48.4922V67.5H49.4922V68ZM47.4922 66.5H38.4922H36.4922V63.55C36.4922 63.4 36.4922 63.2 36.5422 63H49.3922C49.4422 63.2 49.4422 63.4 49.4422 63.55V66.5H47.4922Z" />
<path d="M46.9922 65.25C47.2683 65.25 47.4922 65.0261 47.4922 64.75C47.4922 64.4739 47.2683 64.25 46.9922 64.25C46.716 64.25 46.4922 64.4739 46.4922 64.75C46.4922 65.0261 46.716 65.25 46.9922 65.25Z" />
<path d="M38.9922 65.25C39.2683 65.25 39.4922 65.0261 39.4922 64.75C39.4922 64.4739 39.2683 64.25 38.9922 64.25C38.716 64.25 38.4922 64.4739 38.4922 64.75C38.4922 65.0261 38.716 65.25 38.9922 65.25Z" />
<path d="M43.9922 64.1001H41.9922C41.6922 64.1001 41.4922 64.3001 41.4922 64.6001C41.4922 64.9001 41.6922 65.1001 41.9922 65.1001H43.9922C44.2922 65.1001 44.4922 64.9001 44.4922 64.6001C44.4922 64.3001 44.2922 64.1001 43.9922 64.1001Z" />
<path d="M42.143 50.3001C42.3363 50.3001 42.493 50.1434 42.493 49.9501C42.493 49.7568 42.3363 49.6001 42.143 49.6001C41.9497 49.6001 41.793 49.7568 41.793 49.9501C41.793 50.1434 41.9497 50.3001 42.143 50.3001Z" />
<path d="M36.8422 50.3001C37.0355 50.3001 37.1922 50.1434 37.1922 49.9501C37.1922 49.7568 37.0355 49.6001 36.8422 49.6001C36.6489 49.6001 36.4922 49.7568 36.4922 49.9501C36.4922 50.1434 36.6489 50.3001 36.8422 50.3001Z" />
<path d="M40.143 49.2998H38.793C38.493 49.2998 38.293 49.4998 38.293 49.7998C38.293 50.0998 38.493 50.2998 38.793 50.2998H40.143C40.443 50.2998 40.643 50.0998 40.643 49.7998C40.643 49.5498 40.443 49.2998 40.143 49.2998Z" />
<path d="M36.4922 52.2998V51.9498H42.4922V52.2998C42.4922 52.6998 42.7922 52.9998 43.1422 52.9998H43.7922C44.1422 52.9998 44.4422 52.6998 44.4422 52.2998V51.0498C44.4422 50.9998 44.4422 50.9998 44.4422 50.9498V49.3998C44.4422 48.8498 44.2422 47.9998 43.9922 47.4998L43.6922 46.8498C43.6922 46.7998 43.6422 46.7498 43.6422 46.6998H43.7922C44.0922 46.6998 44.2922 46.4998 44.2922 46.1998C44.2922 45.8998 44.0922 45.6998 43.7922 45.6998H43.1922L42.8422 44.9498C42.5922 44.4498 41.9422 44.0498 41.3922 44.0498H37.5422C36.9922 44.0498 36.3422 44.4498 36.0922 44.9498L35.7422 45.6998H35.1422C34.8422 45.6998 34.6422 45.8998 34.6422 46.1998C34.6422 46.4998 34.8422 46.6998 35.1422 46.6998H35.2922C35.2422 46.7498 35.2422 46.7998 35.2422 46.8498L34.9422 47.4998C34.6922 47.9998 34.4922 48.8498 34.4922 49.3998V50.9498V52.2998C34.4922 52.6998 34.7922 52.9998 35.1422 52.9998H35.7922C36.1922 52.9998 36.4922 52.6998 36.4922 52.2998ZM35.4922 49.3498C35.4922 49.1998 35.4922 48.9998 35.5422 48.7998H43.4422C43.4922 48.9998 43.4922 49.1998 43.4922 49.3498V50.8998H35.4922V49.3498ZM36.0422 47.4498H42.9422L43.1422 47.8498H35.8422L36.0422 47.4498ZM37.5922 44.9998H41.4422C41.5922 44.9998 41.8922 45.1998 41.9922 45.3498L42.5422 46.4498H36.4922L37.0422 45.3498C37.1422 45.1998 37.3922 44.9998 37.5922 44.9998Z" />
</svg>
