<svg  viewBox="0 0 64 80" fill="none" xmlns="http://www.w3.org/2000/svg">
<path d="M33.7771 64.889H15.9993C15.2923 64.8882 14.6145 64.607 14.1146 64.1071C13.6147 63.6072 13.3335 62.9293 13.3327 62.2223V59.5557H28.4438C28.6795 59.5557 28.9056 59.462 29.0723 59.2953C29.239 59.1286 29.3327 58.9025 29.3327 58.6668C29.3327 58.431 29.239 58.2049 29.0723 58.0382C28.9056 57.8715 28.6795 57.7779 28.4438 57.7779H7.11046C6.40345 57.7771 5.72562 57.4959 5.22569 56.996C4.72576 56.4961 4.44457 55.8182 4.44379 55.1112V16.0001C4.44457 15.2931 4.72576 14.6153 5.22569 14.1153C5.72562 13.6154 6.40345 13.3342 7.11046 13.3334H37.3327C38.0397 13.3342 38.7175 13.6154 39.2174 14.1153C39.7174 14.6153 39.9986 15.2931 39.9993 16.0001V34.6668C39.9993 34.9025 40.093 35.1286 40.2597 35.2953C40.4264 35.462 40.6525 35.5557 40.8882 35.5557C41.124 35.5557 41.3501 35.462 41.5168 35.2953C41.6835 35.1286 41.7771 34.9025 41.7771 34.6668V20.4446H46.2216C46.9286 20.4453 47.6064 20.7265 48.1063 21.2265C48.6063 21.7264 48.8875 22.4042 48.8882 23.1112V34.6668C48.8882 34.9025 48.9819 35.1286 49.1486 35.2953C49.3153 35.462 49.5414 35.5557 49.7771 35.5557C50.0129 35.5557 50.239 35.462 50.4057 35.2953C50.5724 35.1286 50.666 34.9025 50.666 34.6668V23.1112C50.6646 21.9329 50.1959 20.8032 49.3627 19.9701C48.5295 19.1369 47.3999 18.6682 46.2216 18.6668H41.7771V16.0001C41.7757 14.8218 41.307 13.6921 40.4739 12.8589C39.6407 12.0257 38.511 11.557 37.3327 11.5557H7.11046C5.93214 11.557 4.80249 12.0257 3.96929 12.8589C3.1361 13.6921 2.6674 14.8218 2.66602 16.0001V55.1112C2.6674 56.2895 3.1361 57.4192 3.96929 58.2524C4.80249 59.0856 5.93214 59.5543 7.11046 59.5557H11.5549V62.2223C11.5563 63.4006 12.025 64.5303 12.8582 65.3635C13.6914 66.1967 14.821 66.6654 15.9993 66.6668H33.7771C34.0129 66.6668 34.239 66.5731 34.4057 66.4064C34.5724 66.2397 34.666 66.0136 34.666 65.7779C34.666 65.5421 34.5724 65.316 34.4057 65.1493C34.239 64.9826 34.0129 64.889 33.7771 64.889Z" />
<path d="M22.2224 16.8892H9.77799C9.07075 16.8892 8.39247 17.1701 7.89238 17.6702C7.39228 18.1703 7.11133 18.8486 7.11133 19.5558C7.11133 20.2631 7.39228 20.9413 7.89238 21.4414C8.39247 21.9415 9.07075 22.2225 9.77799 22.2225H22.2224C22.9297 22.2225 23.608 21.9415 24.1081 21.4414C24.6082 20.9413 24.8891 20.2631 24.8891 19.5558C24.8891 18.8486 24.6082 18.1703 24.1081 17.6702C23.608 17.1701 22.9297 16.8892 22.2224 16.8892ZM22.2224 20.4447H9.77799C9.54225 20.4447 9.31615 20.3511 9.14946 20.1844C8.98276 20.0177 8.88911 19.7916 8.88911 19.5558C8.88911 19.3201 8.98276 19.094 9.14946 18.9273C9.31615 18.7606 9.54225 18.6669 9.77799 18.6669H22.2224C22.4582 18.6669 22.6843 18.7606 22.851 18.9273C23.0177 19.094 23.1113 19.3201 23.1113 19.5558C23.1113 19.7916 23.0177 20.0177 22.851 20.1844C22.6843 20.3511 22.4582 20.4447 22.2224 20.4447Z" />
<path d="M34.666 16.8892H29.3327C28.6254 16.8892 27.9472 17.1701 27.4471 17.6702C26.947 18.1703 26.666 18.8486 26.666 19.5558C26.666 20.2631 26.947 20.9413 27.4471 21.4414C27.9472 21.9415 28.6254 22.2225 29.3327 22.2225H34.666C35.3733 22.2225 36.0515 21.9415 36.5516 21.4414C37.0517 20.9413 37.3327 20.2631 37.3327 19.5558C37.3327 18.8486 37.0517 18.1703 36.5516 17.6702C36.0515 17.1701 35.3733 16.8892 34.666 16.8892ZM34.666 20.4447H29.3327C29.0969 20.4447 28.8708 20.3511 28.7041 20.1844C28.5374 20.0177 28.4438 19.7916 28.4438 19.5558C28.4438 19.3201 28.5374 19.094 28.7041 18.9273C28.8708 18.7606 29.0969 18.6669 29.3327 18.6669H34.666C34.9018 18.6669 35.1279 18.7606 35.2946 18.9273C35.4613 19.094 35.5549 19.3201 35.5549 19.5558C35.5549 19.7916 35.4613 20.0177 35.2946 20.1844C35.1279 20.3511 34.9018 20.4447 34.666 20.4447Z" />
<path d="M22.2224 24.8892H9.77799C9.07075 24.8892 8.39247 25.1701 7.89238 25.6702C7.39228 26.1703 7.11133 26.8486 7.11133 27.5558C7.11133 28.2631 7.39228 28.9413 7.89238 29.4414C8.39247 29.9415 9.07075 30.2225 9.77799 30.2225H22.2224C22.9297 30.2225 23.608 29.9415 24.1081 29.4414C24.6082 28.9413 24.8891 28.2631 24.8891 27.5558C24.8891 26.8486 24.6082 26.1703 24.1081 25.6702C23.608 25.1701 22.9297 24.8892 22.2224 24.8892ZM22.2224 28.4447H9.77799C9.54225 28.4447 9.31615 28.3511 9.14946 28.1844C8.98276 28.0177 8.88911 27.7916 8.88911 27.5558C8.88911 27.3201 8.98276 27.094 9.14946 26.9273C9.31615 26.7606 9.54225 26.6669 9.77799 26.6669H22.2224C22.4582 26.6669 22.6843 26.7606 22.851 26.9273C23.0177 27.094 23.1113 27.3201 23.1113 27.5558C23.1113 27.7916 23.0177 28.0177 22.851 28.1844C22.6843 28.3511 22.4582 28.4447 22.2224 28.4447Z" />
<path d="M34.666 24.8892H29.3327C28.6254 24.8892 27.9472 25.1701 27.4471 25.6702C26.947 26.1703 26.666 26.8486 26.666 27.5558C26.666 28.2631 26.947 28.9413 27.4471 29.4414C27.9472 29.9415 28.6254 30.2225 29.3327 30.2225H34.666C35.3733 30.2225 36.0515 29.9415 36.5516 29.4414C37.0517 28.9413 37.3327 28.2631 37.3327 27.5558C37.3327 26.8486 37.0517 26.1703 36.5516 25.6702C36.0515 25.1701 35.3733 24.8892 34.666 24.8892ZM34.666 28.4447H29.3327C29.0969 28.4447 28.8708 28.3511 28.7041 28.1844C28.5374 28.0177 28.4438 27.7916 28.4438 27.5558C28.4438 27.3201 28.5374 27.094 28.7041 26.9273C28.8708 26.7606 29.0969 26.6669 29.3327 26.6669H34.666C34.9018 26.6669 35.1279 26.7606 35.2946 26.9273C35.4613 27.094 35.5549 27.3201 35.5549 27.5558C35.5549 27.7916 35.4613 28.0177 35.2946 28.1844C35.1279 28.3511 34.9018 28.4447 34.666 28.4447Z" />
<path d="M22.2224 32.8892H9.77799C9.07075 32.8892 8.39247 33.1701 7.89238 33.6702C7.39228 34.1703 7.11133 34.8486 7.11133 35.5558C7.11133 36.2631 7.39228 36.9413 7.89238 37.4414C8.39247 37.9415 9.07075 38.2225 9.77799 38.2225H22.2224C22.9297 38.2225 23.608 37.9415 24.1081 37.4414C24.6082 36.9413 24.8891 36.2631 24.8891 35.5558C24.8891 34.8486 24.6082 34.1703 24.1081 33.6702C23.608 33.1701 22.9297 32.8892 22.2224 32.8892ZM22.2224 36.4447H9.77799C9.54225 36.4447 9.31615 36.3511 9.14946 36.1844C8.98276 36.0177 8.88911 35.7916 8.88911 35.5558C8.88911 35.3201 8.98276 35.094 9.14946 34.9273C9.31615 34.7606 9.54225 34.6669 9.77799 34.6669H22.2224C22.4582 34.6669 22.6843 34.7606 22.851 34.9273C23.0177 35.094 23.1113 35.3201 23.1113 35.5558C23.1113 35.7916 23.0177 36.0177 22.851 36.1844C22.6843 36.3511 22.4582 36.4447 22.2224 36.4447Z" />
<path d="M34.666 32.8892H29.3327C28.6254 32.8892 27.9472 33.1701 27.4471 33.6702C26.947 34.1703 26.666 34.8486 26.666 35.5558C26.666 36.2631 26.947 36.9413 27.4471 37.4414C27.9472 37.9415 28.6254 38.2225 29.3327 38.2225H34.666C35.3733 38.2225 36.0515 37.9415 36.5516 37.4414C37.0517 36.9413 37.3327 36.2631 37.3327 35.5558C37.3327 34.8486 37.0517 34.1703 36.5516 33.6702C36.0515 33.1701 35.3733 32.8892 34.666 32.8892ZM34.666 36.4447H29.3327C29.0969 36.4447 28.8708 36.3511 28.7041 36.1844C28.5374 36.0177 28.4438 35.7916 28.4438 35.5558C28.4438 35.3201 28.5374 35.094 28.7041 34.9273C28.8708 34.7606 29.0969 34.6669 29.3327 34.6669H34.666C34.9018 34.6669 35.1279 34.7606 35.2946 34.9273C35.4613 35.094 35.5549 35.3201 35.5549 35.5558C35.5549 35.7916 35.4613 36.0177 35.2946 36.1844C35.1279 36.3511 34.9018 36.4447 34.666 36.4447Z" />
<path d="M22.2224 40.8892H9.77799C9.07075 40.8892 8.39247 41.1701 7.89238 41.6702C7.39228 42.1703 7.11133 42.8486 7.11133 43.5558C7.11133 44.2631 7.39228 44.9413 7.89238 45.4414C8.39247 45.9415 9.07075 46.2225 9.77799 46.2225H22.2224C22.9297 46.2225 23.608 45.9415 24.1081 45.4414C24.6082 44.9413 24.8891 44.2631 24.8891 43.5558C24.8891 42.8486 24.6082 42.1703 24.1081 41.6702C23.608 41.1701 22.9297 40.8892 22.2224 40.8892ZM22.2224 44.4447H9.77799C9.54225 44.4447 9.31615 44.3511 9.14946 44.1844C8.98276 44.0177 8.88911 43.7916 8.88911 43.5558C8.88911 43.3201 8.98276 43.094 9.14946 42.9273C9.31615 42.7606 9.54225 42.6669 9.77799 42.6669H22.2224C22.4582 42.6669 22.6843 42.7606 22.851 42.9273C23.0177 43.094 23.1113 43.3201 23.1113 43.5558C23.1113 43.7916 23.0177 44.0177 22.851 44.1844C22.6843 44.3511 22.4582 44.4447 22.2224 44.4447Z" />
<path d="M22.2224 48.8892H9.77799C9.07075 48.8892 8.39247 49.1701 7.89238 49.6702C7.39228 50.1703 7.11133 50.8486 7.11133 51.5558C7.11133 52.2631 7.39228 52.9413 7.89238 53.4414C8.39247 53.9415 9.07075 54.2225 9.77799 54.2225H22.2224C22.9297 54.2225 23.608 53.9415 24.1081 53.4414C24.6082 52.9413 24.8891 52.2631 24.8891 51.5558C24.8891 50.8486 24.6082 50.1703 24.1081 49.6702C23.608 49.1701 22.9297 48.8892 22.2224 48.8892ZM22.2224 52.4447H9.77799C9.54225 52.4447 9.31615 52.3511 9.14946 52.1844C8.98276 52.0177 8.88911 51.7916 8.88911 51.5558C8.88911 51.3201 8.98276 51.094 9.14946 50.9273C9.31615 50.7606 9.54225 50.6669 9.77799 50.6669H22.2224C22.4582 50.6669 22.6843 50.7606 22.851 50.9273C23.0177 51.094 23.1113 51.3201 23.1113 51.5558C23.1113 51.7916 23.0177 52.0177 22.851 52.1844C22.6843 52.3511 22.4582 52.4447 22.2224 52.4447Z" />
<path d="M45.332 36.4443C42.1675 36.4443 39.0741 37.3827 36.4429 39.1408C33.8117 40.8989 31.761 43.3978 30.55 46.3214C29.339 49.245 29.0221 52.4621 29.6395 55.5658C30.2568 58.6695 31.7807 61.5204 34.0183 63.758C36.256 65.9957 39.1069 67.5195 42.2106 68.1369C45.3143 68.7543 48.5314 68.4374 51.455 67.2264C54.3786 66.0154 56.8775 63.9646 58.6356 61.3335C60.3937 58.7023 61.332 55.6088 61.332 52.4443C61.3272 48.2024 59.6399 44.1355 56.6404 41.136C53.6409 38.1365 49.574 36.4492 45.332 36.4443ZM45.332 66.6666C42.5192 66.6666 39.7694 65.8324 37.4306 64.2697C35.0918 62.7069 33.2689 60.4857 32.1924 57.8869C31.116 55.2882 30.8343 52.4286 31.3831 49.6697C31.9319 46.9109 33.2864 44.3767 35.2754 42.3877C37.2644 40.3987 39.7986 39.0442 42.5574 38.4954C45.3163 37.9466 48.1759 38.2283 50.7746 39.3047C53.3734 40.3812 55.5946 42.2041 57.1574 44.5429C58.7201 46.8817 59.5543 49.6314 59.5543 52.4443C59.55 56.215 58.0502 59.83 55.3839 62.4962C52.7177 65.1625 49.1027 66.6622 45.332 66.6666Z" />
<path d="M46.2218 47.1113H44.444C43.737 47.1121 43.0592 47.3933 42.5592 47.8932C42.0593 48.3932 41.7781 49.071 41.7773 49.778V62.2224C41.7781 62.9294 42.0593 63.6073 42.5592 64.1072C43.0592 64.6071 43.737 64.8883 44.444 64.8891H46.2218C46.9288 64.8883 47.6066 64.6071 48.1066 64.1072C48.6065 63.6073 48.8877 62.9294 48.8885 62.2224V49.778C48.8877 49.071 48.6065 48.3932 48.1066 47.8932C47.6066 47.3933 46.9288 47.1121 46.2218 47.1113ZM47.1107 62.2224C47.1104 62.4581 47.0167 62.6841 46.8501 62.8507C46.6834 63.0174 46.4575 63.1111 46.2218 63.1113H44.444C44.2083 63.1111 43.9824 63.0174 43.8157 62.8507C43.6491 62.6841 43.5554 62.4581 43.5551 62.2224V49.778C43.5554 49.5423 43.6491 49.3164 43.8157 49.1497C43.9824 48.9831 44.2083 48.8893 44.444 48.8891H46.2218C46.4575 48.8893 46.6834 48.9831 46.8501 49.1497C47.0167 49.3164 47.1104 49.5423 47.1107 49.778V62.2224Z" />
<path d="M46.2218 40H44.444C43.7368 40 43.0585 40.281 42.5584 40.781C42.0583 41.2811 41.7773 41.9594 41.7773 42.6667C41.7773 43.3739 42.0583 44.0522 42.5584 44.5523C43.0585 45.0524 43.7368 45.3333 44.444 45.3333H46.2218C46.929 45.3333 47.6073 45.0524 48.1074 44.5523C48.6075 44.0522 48.8885 43.3739 48.8885 42.6667C48.8885 41.9594 48.6075 41.2811 48.1074 40.781C47.6073 40.281 46.929 40 46.2218 40ZM46.2218 43.5556H44.444C44.2083 43.5556 43.9822 43.4619 43.8155 43.2952C43.6488 43.1285 43.5551 42.9024 43.5551 42.6667C43.5551 42.4309 43.6488 42.2048 43.8155 42.0381C43.9822 41.8714 44.2083 41.7778 44.444 41.7778H46.2218C46.4575 41.7778 46.6836 41.8714 46.8503 42.0381C47.017 42.2048 47.1107 42.4309 47.1107 42.6667C47.1107 42.9024 47.017 43.1285 46.8503 43.2952C46.6836 43.4619 46.4575 43.5556 46.2218 43.5556Z" />
</svg>
