<svg  viewBox="0 0 64 80" fill="none" xmlns="http://www.w3.org/2000/svg">
<path d="M57.7801 60.9708H55.5301V57.7208C55.5301 57.3067 55.1942 56.9708 54.7801 56.9708H34.7801C34.366 56.9708 34.0301 57.3067 34.0301 57.7208V60.9708H31.7801C31.366 60.9708 31.0301 61.3067 31.0301 61.7208V65.7208C31.0301 66.1349 31.366 66.4708 31.7801 66.4708H57.7801C58.1942 66.4708 58.5301 66.1349 58.5301 65.7208V61.7208C58.5301 61.3067 58.1942 60.9708 57.7801 60.9708ZM35.5301 58.4708H54.0301V60.9708H35.5301V58.4708ZM57.0301 64.9708H32.5301V62.4708H57.0301V64.9708ZM35.0799 42.5802C35.2274 42.7394 35.4285 42.8204 35.6302 42.8204C35.8118 42.8204 35.9935 42.755 36.1375 42.6231L38.5331 40.4222L39.3782 41.336C39.3782 41.336 39.3785 41.3367 39.3787 41.3369L41.665 43.809C41.044 44.8315 41.1327 46.1787 41.9846 47.1006C42.5256 47.6856 43.2639 47.9815 44.0041 47.9815C44.6726 47.9815 45.3425 47.7403 45.8703 47.252L57.6174 36.3887C58.7302 35.3594 58.7986 33.6162 57.7688 32.502C56.9172 31.5818 55.5809 31.3888 54.5132 31.9277L44.0809 20.6465C44.0809 20.6465 44.0806 20.6458 44.0804 20.6456L41.7946 18.1741C42.036 17.7788 42.185 17.3324 42.2034 16.8565C42.2322 16.1221 41.9734 15.421 41.4749 14.8829C40.9764 14.3429 40.2972 14.0304 39.5633 14.0011C38.8323 13.9816 38.1287 14.2316 37.5887 14.7306L25.8416 25.5929C24.7283 26.6222 24.66 28.3663 25.6893 29.4786C26.2303 30.0645 26.9691 30.3604 27.7098 30.3604C28.1348 30.3604 28.5566 30.2517 28.9462 30.0552L31.2313 32.5265L32.0777 33.4416L29.6907 35.6505C29.3865 35.9317 29.3679 36.4064 29.6497 36.711L29.822 36.8972L6.202 58.7354C4.6854 60.1377 4.5912 62.5137 5.992 64.0323C6.6717 64.7686 7.598 65.1964 8.5994 65.2364C8.6507 65.2384 8.701 65.2393 8.7517 65.2393C9.698 65.2393 10.5955 64.8887 11.2942 64.2422L34.9116 42.3982L35.0799 42.5802ZM32.8424 32.059L43.4882 22.2145L50.6167 29.9235L39.9711 39.7681L32.8424 32.059ZM42.4696 21.1134L31.8241 30.9577L30.127 29.1224L40.7726 19.2777L42.4696 21.1134ZM53.3322 32.8602L42.6866 42.7049L40.9896 40.8693L51.6349 31.0248L53.3322 32.8602ZM56.6678 33.5206C57.1356 34.0274 57.1048 34.8194 56.599 35.2872L44.8519 46.1505C44.347 46.6173 43.5536 46.587 43.0858 46.0821C42.618 45.5753 42.6488 44.7833 43.1546 44.3155L54.9017 33.4522C55.1414 33.2305 55.4461 33.1202 55.7498 33.1202C56.0862 33.1202 56.4217 33.255 56.6678 33.5206ZM26.7908 28.461C26.323 27.9551 26.3538 27.1622 26.8601 26.6944L38.6072 15.8321C38.8401 15.6163 39.1394 15.4991 39.4549 15.4991C39.4715 15.4991 39.4881 15.5001 39.5047 15.5001C39.8382 15.5138 40.1468 15.6554 40.3738 15.9015C40.8416 16.4064 40.8103 17.1994 40.3045 17.6671L28.5574 28.5304C28.0514 28.9974 27.2588 28.9666 26.7908 28.461ZM33.0962 34.543L37.5144 39.3206L35.6732 41.0127L31.2596 36.2422L33.0962 34.543ZM10.2756 63.1407C9.8342 63.5489 9.257 63.754 8.6589 63.7374C8.0578 63.714 7.5022 63.4571 7.0944 63.0147C6.2536 62.1036 6.3102 60.6788 7.2204 59.837L30.8408 37.9985L33.8926 41.297L10.2756 63.1407Z" />
</svg>
