<svg  viewBox="0 0 64 80" fill="none" xmlns="http://www.w3.org/2000/svg">
<path d="M37.9296 24.5297C38.0001 24.6002 38.0951 24.6397 38.1946 24.6397C38.2941 24.6397 38.3896 24.6002 38.4596 24.5297L39.9806 23.0072C40.6676 22.3217 41.0001 21.3597 40.8911 20.3977L41.4216 19.8672C41.5546 19.7347 41.6576 19.5822 41.7461 19.4227L42.3226 19.6937C42.3746 19.7177 42.4286 19.7292 42.4816 19.7292C42.6226 19.7292 42.7576 19.6497 42.8216 19.5137C42.9096 19.3262 42.8296 19.1032 42.6421 19.0147L41.9791 18.7032C41.9891 18.6237 42.0026 18.5457 42.0026 18.4647C42.0026 17.9347 41.7961 17.4367 41.4216 17.0627C40.6726 16.3122 39.3651 16.3127 38.6161 17.0627L38.0871 17.5917C37.1201 17.4832 36.1606 17.8162 35.4751 18.5017L33.9536 20.0232C33.8071 20.1697 33.8071 20.4072 33.9536 20.5537L37.9296 24.5297ZM36.0061 19.0317C36.5681 18.4697 37.3786 18.2187 38.1626 18.3602C38.2951 18.3852 38.4246 18.3377 38.5111 18.2387L39.1466 17.5927C39.6126 17.1262 40.4261 17.1257 40.8916 17.5932C41.1246 17.8257 41.2531 18.1352 41.2531 18.4647C41.2531 18.7942 41.1246 19.1037 40.8916 19.3367L40.2951 19.9332C40.2881 19.9382 40.2581 19.9612 40.2516 19.9662C40.1481 20.0527 40.0986 20.1882 40.1226 20.3207C40.2651 21.1087 40.0141 21.9142 39.4511 22.4757L38.1946 23.7332L34.7491 20.2877L36.0061 19.0317Z" />
<path d="M34.1208 23.156L32.3608 24.8795C32.2128 25.0245 32.2103 25.262 32.3548 25.41C32.4283 25.485 32.5258 25.5225 32.6228 25.5225C32.7173 25.5225 32.8123 25.487 32.8848 25.4155L34.6448 23.692C34.7928 23.547 34.7953 23.3095 34.6508 23.1615C34.5063 23.0135 34.2688 23.011 34.1208 23.156Z" />
<path d="M30.191 22.3058C30.2055 22.3058 30.2205 22.3053 30.2355 22.3033L32.668 22.0168C32.8735 21.9928 33.0205 21.8063 32.9965 21.6003C32.972 21.3943 32.7895 21.2443 32.58 21.2718L30.1475 21.5583C29.942 21.5823 29.795 21.7688 29.819 21.9748C29.8415 22.1658 30.0035 22.3058 30.191 22.3058Z" />
<path d="M35.5921 25.1092L35.3041 27.2917C35.2766 27.4972 35.4211 27.6857 35.6271 27.7127C35.6436 27.7147 35.6596 27.7157 35.6766 27.7157C35.8616 27.7157 36.0226 27.5787 36.0476 27.3897L36.3356 25.2072C36.3631 25.0017 36.2186 24.8132 36.0126 24.7862C35.8126 24.7602 35.6191 24.9037 35.5921 25.1092Z" />
<path d="M52.3885 34.9865H52.365C52.4065 34.926 52.4365 34.857 52.4365 34.7785V33.7835C52.4365 33.027 51.821 32.412 51.0645 32.412H50.8645L50.0795 24.6015C50.0775 24.582 50.068 24.565 50.063 24.546C50.058 24.529 50.0595 24.512 50.0525 24.4955C50.05 24.49 50.045 24.486 50.0425 24.481C50.032 24.4585 50.0165 24.4395 50.0015 24.4195C49.9865 24.399 49.973 24.3785 49.955 24.3625C49.9515 24.359 49.95 24.3545 49.946 24.3515L43.62 19.066C43.533 18.993 43.418 18.9645 43.3065 18.986C43.195 19.008 43.1 19.0795 43.047 19.18L42.1495 20.899C42.069 21.0535 42.1055 21.243 42.2375 21.357L47.2535 25.669L47.133 32.411H46.6665C45.9115 32.411 45.2975 33.026 45.2975 33.7825V34.7775C45.2975 34.856 45.3275 34.925 45.369 34.9855H39.1445V33.791C39.1445 29.967 36.0335 26.856 32.21 26.856C30.355 26.856 28.613 27.577 27.304 28.8865C25.9885 30.203 25.2645 31.9445 25.2645 33.7915V34.986H19.5115V26.2495C19.5115 26.0425 19.3435 25.8745 19.1365 25.8745H16.66C16.453 25.8745 16.285 26.0425 16.285 26.2495V34.9865H14.8025V26.2495C14.8025 26.0425 14.6345 25.8745 14.4275 25.8745H11.948C11.741 25.8745 11.573 26.0425 11.573 26.2495V35.0405C10.674 35.2455 10 36.0485 10 37.009V39.435C10 40.551 10.9065 41.4595 12.0215 41.4595H14.2725V61.866C14.2725 62.073 14.4405 62.241 14.6475 62.241C14.8545 62.241 15.0225 62.073 15.0225 61.866V52.795H22.119C22.326 52.795 22.494 52.627 22.494 52.42V41.459H25.2645V45.23C24.3445 45.406 23.6465 46.2145 23.6465 47.185C23.6465 48.279 24.5405 49.17 25.6395 49.17H38.7695C39.8685 49.17 40.7625 48.2795 40.7625 47.185C40.7625 46.2145 40.0645 45.4055 39.1445 45.23V41.459H42.1075V52.42C42.1075 52.627 42.2755 52.795 42.4825 52.795H49.388V61.866C49.388 62.073 49.556 62.241 49.763 62.241C49.97 62.241 50.138 62.073 50.138 61.866V41.459H52.389C53.5035 41.459 54.4105 40.551 54.4105 39.4345V37.0085C54.41 35.8935 53.5035 34.9865 52.3885 34.9865ZM17.035 26.6245H18.7615V34.909H17.035V26.6245ZM42.9525 20.983L43.497 19.9405L48.99 24.5295L47.701 25.065L42.9525 20.983ZM48.0025 25.7525L49.3835 25.179L50.1105 32.4115H47.884L48.0025 25.7525ZM46.048 34.7785V33.7835C46.048 33.4405 46.326 33.162 46.667 33.162H51.0645C51.4075 33.162 51.6865 33.441 51.6865 33.7835V34.7785C51.6865 34.857 51.7165 34.926 51.758 34.9865H45.9765C46.018 34.926 46.048 34.857 46.048 34.7785ZM26.0145 33.792C26.0145 32.1455 26.661 30.592 27.8345 29.4175C29.0015 28.25 30.5555 27.607 32.21 27.607C35.62 27.607 38.3945 30.3815 38.3945 33.792V35.3615V41.084V45.192H26.0145V41.084V35.3615V33.792ZM12.323 26.6245H14.0525V34.909H12.323V26.6245ZM15.0225 52.045V47.125L21.744 47.0105V52.0445H15.0225V52.045ZM21.744 46.2605L15.0225 46.3745V41.459H21.744V46.2605ZM12.0215 40.709C11.3205 40.709 10.75 40.137 10.75 39.4345V37.0085C10.75 36.307 11.3205 35.736 12.0215 35.736H25.2645V40.7085L12.0215 40.709ZM40.0125 47.185C40.0125 47.8655 39.455 48.42 38.7695 48.42H25.6395C24.954 48.42 24.3965 47.866 24.3965 47.185C24.3965 46.4995 24.954 45.942 25.6395 45.942H38.7695C39.455 45.942 40.0125 46.4995 40.0125 47.185ZM42.8575 52.045V47.0105L49.388 47.1215V52.045H42.8575ZM49.3875 46.3715L42.8575 46.2605V41.4585H49.388V46.3715H49.3875ZM53.66 39.4345C53.66 40.137 53.0895 40.709 52.3885 40.709H39.1445V35.7365H52.3885C53.0895 35.7365 53.66 36.3075 53.66 37.009V39.4345Z" />
<path d="M38.8623 59.0747H35.1258V58.0647C35.1258 57.8577 34.9578 57.6897 34.7508 57.6897H32.5798V49.6187C32.5798 49.4117 32.4118 49.2437 32.2048 49.2437C31.9978 49.2437 31.8298 49.4117 31.8298 49.6187V57.6902H29.6523C29.4453 57.6902 29.2773 57.8582 29.2773 58.0652V59.0752H25.5488C25.3418 59.0752 25.1738 59.2432 25.1738 59.4502V62.6857C25.1738 62.8927 25.3418 63.0607 25.5488 63.0607C25.7558 63.0607 25.9238 62.8927 25.9238 62.6857V59.8252H29.2773V61.0667C29.2773 61.2737 29.4453 61.4417 29.6523 61.4417H34.7508C34.9578 61.4417 35.1258 61.2737 35.1258 61.0667V59.8252H38.4873V62.6857C38.4873 62.8927 38.6553 63.0607 38.8623 63.0607C39.0693 63.0607 39.2373 62.8927 39.2373 62.6857V59.4502C39.2373 59.2427 39.0693 59.0747 38.8623 59.0747ZM34.3758 60.6917H30.0273V58.4402H34.3758V60.6917Z" />
</svg>
