<svg  viewBox="0 0 64 80" fill="none" xmlns="http://www.w3.org/2000/svg">
<path d="M57.2306 66.5684H11.4618C10.3263 66.5684 9.40158 65.6454 9.40158 64.509V58.4193C9.40158 57.2829 10.3263 56.3599 11.4618 56.3599H57.3086C57.309 56.3599 57.3092 56.3597 57.3096 56.3597C57.3413 56.3594 57.372 56.3563 57.4023 56.3529C57.4333 56.3488 57.458 56.3315 57.4875 56.3237C57.5362 56.3107 57.5832 56.298 57.6272 56.2755C57.6673 56.255 57.701 56.2293 57.7361 56.202C57.7727 56.1738 57.8077 56.1465 57.8381 56.1117C57.868 56.0775 57.89 56.04 57.9128 56.0009C57.9361 55.9612 57.9582 55.9228 57.9735 55.8787C57.9886 55.8353 57.9941 55.791 58.0006 55.7448C58.0052 55.7119 58.02 55.6827 58.02 55.6487C58.02 55.6313 58.0113 55.6168 58.0101 55.5998C58.009 55.5844 58.0151 55.5705 58.013 55.555L54.446 28.948C54.3991 28.5949 54.0972 28.3322 53.7416 28.3322H50.2517L50.251 23.1319L51.6475 22.6015C51.9198 22.4983 52.1021 22.2389 52.1072 21.9474C52.1107 21.6559 51.9372 21.3914 51.6666 21.2803L29.3243 12.0547C29.1508 11.9818 28.9548 11.9818 28.7813 12.0547L6.43908 21.2803C6.1702 21.3913 5.99583 21.6559 6.00008 21.9474C6.00445 22.2389 6.1857 22.4983 6.45808 22.6015L16.3396 26.3543V28.3322H11.4618C9.54208 28.3322 7.98058 29.8937 7.98058 31.8134V58.4193V64.509C7.98058 66.4279 9.54208 67.9912 11.4618 67.9912H57.2305C57.6226 67.9912 57.9418 67.6719 57.9418 67.2798C57.9418 66.8877 57.6227 66.5684 57.2306 66.5684ZM48.829 28.3322H41.6522V27.5323V26.3974L48.8282 23.6722L48.829 28.3322ZM29.0528 13.4799L49.4666 21.9093L29.0528 29.662L8.63995 21.9093L29.0528 13.4799ZM28.8003 31.0864C28.8818 31.1168 28.9668 31.1324 29.0528 31.1324C29.1387 31.1324 29.2237 31.1168 29.3053 31.0864L40.2296 26.9377V27.5323V38.9103C40.2296 39.7943 36.2652 41.5145 28.9947 41.5145C21.7261 41.5145 17.7607 39.7943 17.7607 38.9103V26.8938L28.8003 31.0864ZM16.3397 38.9103C16.3397 41.5527 22.7062 42.9363 28.9946 42.9363C35.2847 42.9363 41.6521 41.5527 41.6521 38.9103V29.753H48.8291L48.8296 33.7119C48.0827 33.9854 47.5423 34.6869 47.5423 35.527C47.5423 35.8614 47.6548 36.1727 47.815 36.46C47.7216 36.6593 47.6562 36.8689 47.65 37.0868C47.0601 37.5683 46.2065 38.7168 46.0486 41.3687C45.8438 44.8447 45.5142 47.2459 44.5166 48.4743C44.3222 48.7137 44.305 49.052 44.4732 49.3105C45.162 50.3619 47.1312 51.0403 49.4907 51.0403C51.8572 51.0403 53.8298 50.3584 54.5135 49.3035C54.68 49.045 54.6627 48.7084 54.4683 48.469C53.4707 47.2407 53.1428 44.8394 52.9381 41.3643C52.7802 38.7115 51.9248 37.5629 51.335 37.0815C51.3288 36.8673 51.2636 36.6592 51.1713 36.4594C51.3287 36.1783 51.4426 35.8714 51.4426 35.5269C51.4426 34.7213 50.9512 34.0287 50.2523 33.7319L50.2518 29.7529H53.1205L56.4965 54.9369H13.8327V29.7532H16.3397V38.9103ZM50.9238 49.5045L50.6516 46.8539C50.6117 46.4653 50.2872 46.1652 49.8726 46.2207C49.4822 46.2605 49.1977 46.6093 49.2393 46.9997L49.5082 49.6168C49.5021 49.6168 49.4971 49.6178 49.491 49.6178C47.7976 49.6178 46.5797 49.2239 45.995 48.837C46.944 47.2755 47.265 44.8899 47.468 41.4522C47.6362 38.6172 48.6426 38.1175 48.6338 38.1175C48.8212 38.0585 48.9877 37.8487 49.0728 37.6717C49.1078 37.5983 49.1233 37.5029 49.134 37.4087C49.254 37.4314 49.3683 37.4764 49.4927 37.4764C49.6222 37.4764 49.7353 37.4268 49.858 37.4025C49.8478 37.5163 49.8565 37.6299 49.9075 37.7367C49.9925 37.9145 50.1296 38.042 50.317 38.101C50.3273 38.1063 51.3492 38.5903 51.5193 41.4478C51.7223 44.8865 52.0433 47.2722 52.9923 48.8335C52.5917 49.1004 51.8732 49.3614 50.9238 49.5045ZM49.1335 35.9132C49.0242 35.8117 48.9652 35.6747 48.9652 35.5272C48.9652 35.2357 49.2012 34.9989 49.4926 34.9989C49.784 34.9989 50.02 35.2358 50.02 35.5272C50.02 35.9513 49.4457 36.2038 49.1335 35.9132ZM11.4618 29.7532H12.4117V54.9372H11.4618C10.6883 54.9372 9.98008 55.1994 9.40158 55.628V31.8134C9.40158 30.6778 10.3263 29.7532 11.4618 29.7532Z" />
<path d="M55.843 60.1371C56.2352 60.1371 56.5544 59.8179 56.5544 59.4257C56.5544 59.0336 56.2352 58.7144 55.843 58.7144H13.1617C12.7695 58.7144 12.4512 59.0336 12.4512 59.4257C12.4512 59.8179 12.7695 60.1371 13.1617 60.1371H55.843Z" />
<path d="M13.2378 64.2143H56.3528C56.745 64.2143 57.0642 63.895 57.0642 63.5029C57.0642 63.1108 56.745 62.7915 56.3528 62.7915H13.2378C12.8457 62.7915 12.5273 63.1108 12.5273 63.5029C12.5273 63.895 12.8457 64.2143 13.2378 64.2143Z" />
<path d="M20.5044 52.5618H40.2224C41.9713 52.5618 43.3957 51.1375 43.3957 49.3886C43.3957 47.6397 41.9713 46.2153 40.2224 46.2153H20.5044C18.7547 46.2153 17.332 47.6397 17.332 49.3886C17.332 51.1375 18.7547 52.5618 20.5044 52.5618ZM20.5044 47.6381H40.2224C41.1888 47.6381 41.973 48.4223 41.973 49.3887C41.973 50.3551 41.1888 51.1393 40.2224 51.1393H20.5044C19.5389 51.1393 18.7529 50.3551 18.7529 49.3887C18.7529 48.4222 19.5389 47.6381 20.5044 47.6381Z" />
</svg>
