<svg width="64" height="80" viewBox="0 0 64 80" fill="none" xmlns="http://www.w3.org/2000/svg">
<path d="M8.00188 27.9911C8.00188 25.2286 10.2394 22.9911 13.0019 22.9911C14.7894 22.9911 16.4394 23.9411 17.3269 25.4911L19.0519 24.4911C17.1269 21.1411 12.8519 19.9911 9.50188 21.9286C6.15188 23.8661 5.00188 28.1411 6.93938 31.4911C7.31438 32.1286 7.77688 32.7161 8.33938 33.2036L9.67688 31.7161C8.61438 30.7661 8.00188 29.4161 8.00188 27.9911Z" />
<path d="M13.0022 18.9913C14.9522 18.9913 16.8522 19.6163 18.4022 20.7913L19.6022 19.1913C14.7397 15.5413 7.85225 16.5288 4.20225 21.3913C0.939748 25.7413 1.33975 31.8163 5.15225 35.6913L6.57725 34.2913C3.10225 30.7413 3.15225 25.0413 6.70225 21.5663C8.38975 19.9163 10.6522 18.9913 13.0022 18.9913Z" />
<path d="M59.002 60.9912H58.777L55.127 46.3662C55.4895 46.0537 55.852 45.7287 56.202 45.3787C60.0145 41.5912 62.102 36.7912 62.102 31.8537C62.102 27.2287 60.202 22.7787 56.752 19.3287C56.652 19.1037 56.502 18.8912 56.327 18.7037C56.0145 18.3787 55.4395 17.9912 54.4645 17.9912C51.6145 17.9912 46.7895 21.3412 42.402 25.3412L36.9895 22.3912C37.002 22.2662 37.0145 22.1287 37.0145 21.9912C37.0145 19.7787 35.227 17.9912 33.0145 17.9912C30.802 17.9912 29.0145 19.7787 29.0145 21.9912C29.0145 24.2037 30.802 25.9912 33.0145 25.9912C33.152 25.9912 33.277 25.9787 33.4145 25.9662L36.427 31.5037C34.3645 33.8912 32.602 36.2662 31.3145 38.4162C30.702 37.5037 30.0145 36.6412 29.2645 35.8412C30.8145 33.7912 31.9645 31.9037 32.5645 30.3537L30.702 29.6412C29.702 32.2537 26.7395 36.2037 22.9895 39.9662C20.277 42.6787 17.4645 44.9787 15.052 46.4537C12.3395 48.1162 11.2145 48.0662 11.0645 47.9662C10.9645 47.8162 10.902 46.6912 12.5645 43.9787C13.627 42.2537 15.1145 40.3162 16.8645 38.3537L18.1645 40.5162L19.877 39.4912L18.2895 36.8412C18.5395 36.5787 18.802 36.3162 19.0645 36.0537C20.0145 35.1037 20.9895 34.1912 21.9645 33.3412L24.5145 34.8662L25.5395 33.1537L15.9645 27.4037C15.627 25.7787 14.0395 24.7287 12.427 25.0662C10.8145 25.4037 9.752 26.9912 10.0895 28.6037C10.327 29.7787 11.252 30.7037 12.427 30.9412L15.802 36.5662C13.7145 38.8537 11.952 41.1287 10.7395 43.1412C8.8895 46.1662 8.527 48.2662 9.627 49.3662C9.8645 49.6037 10.1645 49.7787 10.502 49.8787C13.552 52.5537 17.477 54.0162 21.527 53.9912C21.5895 53.9912 21.652 53.9912 21.7145 53.9912C22.9895 53.9787 24.2645 53.8162 25.502 53.5287L23.252 60.9912H21.002C19.352 60.9912 18.002 62.3412 18.002 63.9912V69.9912H40.002V63.9912C40.002 62.3412 38.652 60.9912 37.002 60.9912H34.8645L33.077 49.3912C33.277 49.2037 33.4645 49.0162 33.652 48.8162C36.4145 50.2537 39.477 51.0037 42.5895 50.9912C42.6645 50.9912 42.7395 50.9912 42.8145 50.9912C45.027 50.9662 47.227 50.5662 49.302 49.8037L45.302 61.0037H45.002C43.352 61.0037 42.002 62.3537 42.002 64.0037V70.0037H62.002V64.0037C62.002 62.3412 60.652 60.9912 59.002 60.9912ZM13.002 28.9912C12.452 28.9912 12.002 28.5412 12.002 27.9912C12.002 27.4412 12.452 26.9912 13.002 26.9912C13.552 26.9912 14.002 27.4412 14.002 27.9912C14.002 28.5412 13.552 28.9912 13.002 28.9912ZM14.5145 30.5787C14.952 30.3162 15.327 29.9537 15.577 29.5162L20.127 32.2537C19.277 33.0037 18.4395 33.8037 17.6145 34.6287C17.477 34.7662 17.327 34.9162 17.1895 35.0537L14.5145 30.5787ZM60.102 31.8662C60.102 35.3537 58.9145 38.7912 56.702 41.7662C56.427 40.2537 56.002 38.7787 55.4145 37.3537C57.252 34.8912 58.7645 32.1912 59.902 29.3287C60.027 30.1537 60.102 31.0037 60.102 31.8662ZM56.7145 22.2912C57.6145 23.4287 58.3645 24.6912 58.927 26.0287L58.652 26.8662C57.652 29.8662 56.227 32.6912 54.427 35.2787C53.627 33.7912 52.6395 32.3912 51.5145 31.1287C52.802 29.5162 53.9645 27.8162 55.0145 26.0412C55.8395 24.6162 56.4145 23.3662 56.7145 22.2912ZM53.952 39.1537C54.402 40.4412 54.7145 41.7787 54.877 43.1287L54.952 43.7787C54.8895 43.8412 54.827 43.9037 54.777 43.9662C54.402 44.3412 54.0145 44.6912 53.602 45.0287L51.4645 45.2412C50.202 45.3662 48.927 45.2412 47.7145 44.8662C50.027 43.2162 52.1145 41.3037 53.952 39.1537ZM45.6145 43.8912C44.3145 43.0912 43.227 41.9787 42.4645 40.6662C43.9895 39.3287 45.502 37.8912 46.877 36.4662C48.077 35.2287 49.202 33.9662 50.2395 32.7162C51.377 34.0287 52.3395 35.4912 53.0895 37.0662C50.9645 39.7162 48.4395 42.0162 45.6145 43.8912ZM33.002 23.9912C31.902 23.9912 31.002 23.0912 31.002 21.9912C31.002 20.8912 31.902 19.9912 33.002 19.9912C34.102 19.9912 35.002 20.8912 35.002 21.9912C35.002 23.0912 34.102 23.9912 33.002 23.9912ZM35.2895 25.2662C35.677 24.9912 36.002 24.6662 36.277 24.2787L40.8645 26.7787C40.2645 27.3537 39.6895 27.9412 39.127 28.5162C38.677 28.9787 38.252 29.4412 37.827 29.9037L35.2895 25.2662ZM24.377 41.3662C25.6895 40.0537 26.902 38.7162 27.9895 37.4287C28.827 38.3537 29.5645 39.3537 30.202 40.4162C29.7895 41.2287 29.452 42.0912 29.2145 42.9787C27.5895 44.6162 25.802 46.0662 23.8645 47.3162C22.777 46.5162 21.8895 45.4787 21.252 44.2912C22.2895 43.3787 23.3395 42.4037 24.377 41.3662ZM30.6395 46.8662C31.0395 47.1787 31.452 47.4787 31.877 47.7662C31.7895 47.8537 31.7145 47.9287 31.627 48.0162C31.2395 48.3912 30.827 48.7412 30.3895 49.0662C28.827 49.2537 27.252 49.0287 25.802 48.4162C27.0145 47.5787 28.1645 46.6662 29.2645 45.6787C29.3645 45.9037 29.502 46.1037 29.677 46.2787C29.9395 46.5537 30.277 46.7537 30.6395 46.8662ZM13.327 49.5412C14.202 49.1912 15.052 48.7662 15.852 48.2787C17.1895 47.4662 18.4645 46.5662 19.677 45.5787C20.2895 46.6412 21.077 47.6037 22.0145 48.4037C20.102 49.4537 18.0895 50.3037 16.002 50.9412C15.0645 50.5787 14.177 50.1037 13.327 49.5412ZM21.6895 51.9912C21.627 51.9912 21.577 51.9912 21.5145 51.9912C20.8145 51.9912 20.127 51.9412 19.427 51.8537C20.9395 51.2412 22.402 50.5162 23.8145 49.6787C24.8395 50.2662 25.952 50.6787 27.1145 50.9162C25.3895 51.6037 23.552 51.9787 21.6895 51.9912ZM27.802 52.7912C29.0395 52.3037 30.202 51.6537 31.277 50.8787L32.827 60.9787H25.3395L27.802 52.7912ZM37.002 62.9912C37.552 62.9912 38.002 63.4412 38.002 63.9912V67.9912H20.002V63.9912C20.002 63.4412 20.452 62.9912 21.002 62.9912H37.002ZM31.5395 44.9912C31.527 44.9912 31.5145 44.9912 31.5145 44.9912C31.352 44.8537 31.177 44.7037 31.0145 44.5662C30.9645 43.9662 31.2145 42.5537 32.727 39.9412C33.8895 37.9287 35.5145 35.6787 37.4395 33.3912L39.127 36.4787L40.877 35.5162L38.8395 31.7787C39.402 31.1537 39.977 30.5412 40.5645 29.9162C41.2895 29.1662 42.002 28.4537 42.702 27.7912L46.5145 29.8787L47.477 28.1287L44.252 26.3537C48.902 22.2037 52.7895 19.9912 54.4645 19.9912C54.6645 19.9912 54.827 20.0287 54.8895 20.0912C55.0895 20.3037 55.2395 21.6662 53.277 25.0412C51.527 28.0662 48.7395 31.6287 45.427 35.0662C39.227 41.5162 33.6395 44.9912 31.5395 44.9912ZM33.677 46.5412C35.7645 45.7662 38.327 44.0662 40.9145 41.9662C41.6645 43.1537 42.627 44.2037 43.752 45.0412C41.5645 46.2912 39.227 47.2912 36.8145 48.0037C35.7145 47.6287 34.6645 47.1287 33.677 46.5412ZM42.7895 48.9912C42.727 48.9912 42.652 48.9912 42.5895 48.9912C41.877 48.9912 41.152 48.9412 40.4395 48.8537C42.2645 48.1162 44.027 47.2412 45.702 46.2037C47.0895 46.8537 48.5895 47.2162 50.1145 47.2662C47.827 48.3787 45.327 48.9662 42.7895 48.9912ZM51.827 48.6412C52.3645 48.3537 52.8895 48.0287 53.3895 47.6912L56.727 60.9912H47.427L51.827 48.6412ZM60.002 67.9912H44.002V63.9912C44.002 63.4412 44.452 62.9912 45.002 62.9912H59.002C59.552 62.9912 60.002 63.4412 60.002 63.9912V67.9912Z" />
<path d="M33.0019 15.9912C34.9644 15.9912 36.8019 16.9537 37.9269 18.5662L39.5644 17.4162C37.0394 13.7912 32.0519 12.9037 28.4269 15.4287C24.8019 17.9537 23.9144 22.9412 26.4394 26.5662C26.9769 27.3412 27.6519 28.0162 28.4269 28.5537L29.5769 26.9162C26.8519 25.0287 26.1894 21.2787 28.0769 18.5662C29.2019 16.9537 31.0394 15.9912 33.0019 15.9912Z" />
<path d="M26.1019 31.8039L27.2519 30.1664C22.7269 26.9914 21.6394 20.7539 24.8269 16.2414C28.0144 11.7289 34.2394 10.6289 38.7519 13.8164C39.7894 14.5539 40.6894 15.4789 41.3769 16.5414L43.0519 15.4539C39.4394 9.90386 32.0019 8.32886 26.4519 11.9414C20.9019 15.5539 19.3269 22.9914 22.9394 28.5414C23.7769 29.8164 24.8519 30.9289 26.1019 31.8039Z" />
</svg>
