<svg width="64" height="80" viewBox="0 0 64 80" fill="none" xmlns="http://www.w3.org/2000/svg">
<path d="M10.24 15.2257C10.24 13.5181 8.86175 12.1289 7.16784 12.1289C5.47394 12.1289 4.0957 13.5181 4.0957 15.2257V18.3225H10.24V15.2257ZM8.19189 16.2579H6.1438V15.2257C6.1438 14.6565 6.60321 14.1934 7.16784 14.1934C7.73248 14.1934 8.19189 14.6565 8.19189 15.2257V16.2579Z" />
<path d="M18.4333 15.2257C18.4333 13.5181 17.0551 12.1289 15.3612 12.1289C13.6673 12.1289 12.2891 13.5181 12.2891 15.2257V18.3225H18.4333V15.2257ZM16.3853 16.2579H14.3372V15.2257C14.3372 14.6565 14.7966 14.1934 15.3612 14.1934C15.9258 14.1934 16.3853 14.6565 16.3853 15.2257V16.2579Z" />
<path d="M16.2803 25.0012L16.3328 24.8423L14.3896 24.1899L14.3373 24.3485C13.8957 25.6836 12.6611 26.5807 11.265 26.5807C9.86899 26.5807 8.63437 25.6836 8.19288 24.3489L8.1404 24.1901L6.19727 24.8425L6.24988 25.0017C6.97068 27.1809 8.98613 28.6452 11.265 28.6452C13.5439 28.6452 15.5594 27.1809 16.2803 25.0012Z" />
<path d="M12.2883 20.3872H10.2402V24.5162H12.2883V20.3872Z" />
<path d="M48.1307 18.3225C49.8246 18.3225 51.2029 16.9333 51.2029 15.2257C51.2029 13.5181 49.8246 12.1289 48.1307 12.1289C46.4368 12.1289 45.0586 13.5181 45.0586 15.2257C45.0586 16.9333 46.4368 18.3225 48.1307 18.3225ZM48.1307 14.1934C48.6954 14.1934 49.1548 14.6565 49.1548 15.2257C49.1548 15.7948 48.6954 16.2579 48.1307 16.2579C47.5661 16.2579 47.1067 15.7948 47.1067 15.2257C47.1067 14.6565 47.5661 14.1934 48.1307 14.1934Z" />
<path d="M63.4909 50.9274C63.4909 48.8863 61.8436 47.2258 59.8188 47.2258C59.2718 47.2258 58.7575 47.4405 58.3707 47.8305L56.1328 50.0863L54.2307 48.5525C53.5609 48.0124 52.7827 47.6259 51.9582 47.4141C52.8152 45.045 53.2505 42.5575 53.2505 40C53.2505 37.9492 52.9672 35.9286 52.4089 33.9796C53.0753 33.7006 53.7177 33.3568 54.3265 32.9476L56.008 31.8179L49.7696 26.7871L64 15.3114L62.8398 14.1417C58.9105 10.1812 53.6866 8 48.1302 8C42.5739 8 37.3499 10.1812 33.4208 14.1417L32.2606 15.3114L36.7278 18.9139C35.1061 18.5246 33.4346 18.3226 31.7455 18.3226C28.5475 18.3226 25.395 19.043 22.529 20.413V10.0645C22.529 8.92619 21.6102 8 20.4809 8H2.04809C0.918826 8 0 8.92619 0 10.0645V22.969C0 27.4516 2.62578 31.5245 6.68959 33.3453L8.88886 34.3306C9.51737 34.6121 10.1785 34.776 10.859 34.8231C10.4487 36.5098 10.2405 38.245 10.2405 40C10.2405 42.0219 10.5157 44.0166 11.0588 45.9414C10.9847 45.9996 10.912 46.06 10.842 46.1241L0.799909 55.3265C0.291469 55.7924 0 56.4568 0 57.1493C0 58.3715 0.888617 59.3858 2.04809 59.5775V65.8064C0.918826 65.8064 0 66.7326 0 67.871V69.9355C0 71.0738 0.918826 72 2.04809 72H24.5771C25.7064 72 26.6252 71.0738 26.6252 69.9355V67.871C26.6252 66.7326 25.7064 65.8064 24.5771 65.8064V60.4431C26.8711 61.2621 29.2755 61.6774 31.7455 61.6774C34.2824 61.6774 36.7501 61.2386 39.1004 60.3748C39.3106 61.2059 39.694 61.9903 40.2298 62.6655L44.4233 67.9495C46.4663 70.5236 49.5137 72 52.784 72C58.6879 72 63.4909 67.1584 63.4909 61.2072C63.4909 58.6868 62.5935 56.2195 61.0018 54.2915L62.8911 52.3871C63.2779 51.9972 63.4909 51.4787 63.4909 50.9274ZM51.2024 40C51.2024 42.5019 50.7429 44.9292 49.8382 47.2258H42.0197C42.6713 44.8751 43.01 42.4341 43.01 40C43.01 37.6613 42.6967 35.3164 42.0945 33.0512C43.8991 34.2201 45.9813 34.8387 48.1302 34.8387C48.9168 34.8387 49.6942 34.7545 50.4526 34.5924C50.9498 36.343 51.2024 38.1575 51.2024 40ZM23.1054 51.6116C23.5032 52.4458 23.9472 53.2586 24.4302 54.0479L19.2384 49.2903H22.1336C22.422 50.0794 22.7447 50.8551 23.1054 51.6116ZM31.7506 59.3192L31.7455 59.3234L31.7403 59.3192C28.3955 56.6219 25.8676 53.1662 24.3134 49.2903H39.1774C37.6232 53.1662 35.0954 56.6219 31.7506 59.3192ZM28.701 59.3752C27.7966 59.2324 26.9062 59.0243 26.0322 58.7534C26.4007 58.3219 26.6252 57.7621 26.6252 57.1493C26.6252 57.1415 26.6241 57.1341 26.6241 57.1263C27.2738 57.9151 27.9672 58.6668 28.701 59.3752ZM23.5907 47.2258C22.8946 44.9156 22.529 42.4861 22.529 40C22.529 37.5139 22.8946 35.0844 23.5907 32.7742H39.9002C40.5963 35.0844 40.9619 37.5139 40.9619 40C40.9619 42.4861 40.5963 44.9156 39.9002 47.2258H23.5907ZM31.7403 20.6808L31.7455 20.6766L31.7506 20.6808C35.0954 23.3781 37.6234 26.8338 39.1775 30.7097H24.3136C25.8677 26.8338 28.3955 23.3781 31.7403 20.6808ZM52.5133 31.6436C51.1723 32.3854 49.672 32.7742 48.1302 32.7742C46.5884 32.7742 45.0883 32.3854 43.7472 31.6436L48.1302 28.109L52.5133 31.6436ZM48.1302 25.4652L45.6858 23.4939C45.4837 23.3204 45.2782 23.1515 45.0705 22.9861C46.0496 22.6348 47.0857 22.4516 48.1302 22.4516C49.1783 22.4516 50.2179 22.636 51.2001 22.9895L48.1302 25.4652ZM48.1302 10.0645C52.9228 10.0645 57.4411 11.8645 60.9252 15.1471L53.0186 21.5231C51.4996 20.7783 49.8236 20.3871 48.1302 20.3871C46.4368 20.3871 44.7608 20.7783 43.2418 21.5231L35.3353 15.1471C38.8193 11.8645 43.3377 10.0645 48.1302 10.0645ZM46.4908 26.7871L41.6266 30.7097H41.3573C41.0689 29.9205 40.7462 29.1449 40.3855 28.3883C39.0075 25.4981 37.0961 22.8526 34.7953 20.6301C37.9066 21.128 40.8629 22.3817 43.3962 24.2915L46.4908 26.7871ZM22.529 22.969V22.7235C24.4514 21.6801 26.5388 20.9745 28.695 20.6306C26.3946 22.853 24.4833 25.4983 23.1054 28.3883C22.7447 29.1448 22.422 29.9205 22.1336 30.7097H19.5032C21.41 28.6453 22.529 25.8947 22.529 22.969ZM7.52137 31.4587C4.19642 29.969 2.04809 26.6366 2.04809 22.969V10.0645H20.4809V22.969C20.4809 26.6366 18.3326 29.969 15.0077 31.4586L12.8084 32.4439C12.3192 32.6631 11.7998 32.7742 11.2645 32.7742C10.7292 32.7742 10.2099 32.6631 9.72051 32.4439L7.52137 31.4587ZM12.2886 40C12.2886 38.1467 12.5465 36.319 13.0502 34.5573C13.2496 34.4926 13.4465 34.4173 13.6402 34.3306L15.8394 33.3453C16.2212 33.1743 16.5901 32.9834 16.9453 32.7742H21.4711C20.8195 35.1249 20.4808 37.5658 20.4808 40C20.4808 42.4341 20.8195 44.8751 21.4711 47.2258H16.9854L15.7831 46.1241C15.1056 45.5032 14.2281 45.1613 13.3126 45.1613C13.1992 45.1613 13.0863 45.1666 12.9743 45.177C12.5196 43.4977 12.2886 41.7608 12.2886 40ZM2.17776 56.8541L12.2196 47.6519C12.5195 47.3772 12.9076 47.2258 13.3126 47.2258C13.7176 47.2258 14.1057 47.3772 14.4055 47.6519L24.4475 56.8539C24.5299 56.9294 24.5771 57.0372 24.5771 57.1493C24.5771 57.3693 24.3995 57.5484 24.1812 57.5484H22.1605L13.3126 49.4403L4.46472 57.5484H2.44402C2.22577 57.5484 2.04809 57.3693 2.04809 57.1493C2.04809 57.0372 2.09533 56.9294 2.17776 56.8541ZM16.3848 65.8064V59.6129H18.4328V65.8064H16.3848ZM7.50959 57.5484L13.3126 52.2303L19.1156 57.5484H7.50959ZM10.2405 59.6129V65.8064H8.19238V59.6129H10.2405ZM12.2886 59.6129H14.3367V65.8064H12.2886V59.6129ZM4.09619 59.6129H6.14428V65.8064H4.09619V59.6129ZM24.5784 69.9355C24.5784 69.9355 24.578 69.9355 24.5771 69.9355H2.04809V67.871H24.5771L24.5784 69.9355ZM20.4809 65.8064V59.6129H22.529V65.8064H20.4809ZM38.9494 58.2237C37.6044 58.765 36.2143 59.1502 34.7901 59.3751C37.0932 57.1514 39.0065 54.504 40.3855 51.6116C40.7462 50.8551 41.0689 50.0794 41.3573 49.2903H45.9562C45.5192 49.796 45.1607 50.3813 44.9028 51.0312C44.5007 52.0443 43.6939 52.8575 42.6891 53.2628C40.6005 54.1049 39.1857 56.0099 38.9494 58.2237ZM61.4428 61.2072C61.4428 66.02 57.5585 69.9355 52.784 69.9355C50.1393 69.9355 47.6748 68.7415 46.0226 66.6597L41.8291 61.3757C41.2699 60.6711 40.9619 59.7861 40.9619 58.8837C40.9619 57.243 41.9384 55.7892 43.4498 55.1797C44.9726 54.5657 46.1953 53.333 46.8045 51.7981C47.409 50.2747 48.8513 49.2903 50.479 49.2903C51.3741 49.2903 52.2523 49.6008 52.9513 50.1645L54.6757 51.555L51.8022 54.4516C51.4695 54.7871 51.2665 55.2177 51.2158 55.6825C49.3431 56.2196 47.9042 57.7982 47.5738 59.7966L46.8845 63.9655L51.0201 63.2707C53.0026 62.9377 54.5689 61.4874 55.1017 59.5995C55.5628 59.5485 55.9899 59.3437 56.3227 59.0084L59.5451 55.7601C60.7593 57.297 61.4428 59.2315 61.4428 61.2072ZM51.6633 57.7041C51.9974 58.3098 52.4951 58.8115 53.0961 59.1484C52.7464 60.2235 51.8319 61.0413 50.6834 61.2342L49.3761 61.4539L49.5941 60.1361C49.7853 58.9784 50.5968 58.0566 51.6633 57.7041ZM54.8745 57.5484C53.9791 57.5484 53.2505 56.8141 53.2505 55.9115L59.8189 49.2903C60.7143 49.2903 61.4428 50.0248 61.4428 50.9271L54.8745 57.5484Z" />
</svg>
